<?xml version="1.0" encoding="utf-8" ?>
<svg xmlns="http://www.w3.org/2000/svg" xmlns:xlink="http://www.w3.org/1999/xlink" width="1024" height="1024">
	<path fill="#7AC1E3" d="M0 0L1024 0L1024 1024L0 1024L0 0Z"/>
	<path fill="#386995" d="M692.857 645.968C696.911 641.456 702.158 634.43 708.685 634.107C713.411 633.874 716.456 637.403 719.597 640.446C727.657 648.256 735.29 656.547 743.217 664.5L812.011 732.828C826.413 747.05 840.398 761.622 854.615 776.021C863.107 784.621 878.315 797.716 883.952 807.356C887.344 813.156 888.959 821.07 889.028 827.745C889.152 839.596 885.016 847.81 876.786 856.099L861.109 871.733C850.155 882.875 841.573 891.985 824.951 891.98C814.673 891.977 806.635 888.086 799.506 880.819Q798.203 879.486 796.94 878.115C792.531 874.974 784.52 865.85 780.278 861.625Q757.073 838.565 734.301 815.078Q702.928 782.483 670.75 750.684C663.233 743.163 655.898 735.485 648.441 727.909C643.536 722.926 638.244 718.065 633.76 712.713C632.309 710.982 631.441 709.947 631.724 707.606C632.375 702.213 639.332 697.693 643.29 694.52C646.729 691.737 649.871 688.317 653.054 685.236Q662.985 675.697 672.696 665.934C678.925 658.996 687.189 653.267 692.857 645.968Z"/>
	<path fill="#2A5381" d="M692.857 645.968C696.911 641.456 702.158 634.43 708.685 634.107C713.411 633.874 716.456 637.403 719.597 640.446C727.657 648.256 735.29 656.547 743.217 664.5L812.011 732.828C826.413 747.05 840.398 761.622 854.615 776.021C863.107 784.621 878.315 797.716 883.952 807.356C887.344 813.156 888.959 821.07 889.028 827.745C889.152 839.596 885.016 847.81 876.786 856.099L861.109 871.733C850.155 882.875 841.573 891.985 824.951 891.98C814.673 891.977 806.635 888.086 799.506 880.819Q798.203 879.486 796.94 878.115C800.837 877.667 809.682 881.181 816.502 880.621C826.865 879.769 836.972 873.857 843.486 865.839C847.643 860.722 849.384 854.584 848.568 848.039C848.084 844.161 846.836 840.655 844.329 837.628C839.776 832.132 834.419 827.382 829.339 822.393C824.389 817.532 819.677 812.413 814.682 807.605C808.253 801.414 801.609 795.566 795.379 789.152Q752.995 745.397 709.818 702.423L687.385 680.019C682.623 675.254 677.955 670.15 672.696 665.934C678.925 658.996 687.189 653.267 692.857 645.968Z"/>
	<path fill="#D8E9EE" d="M480.348 139.835L480.084 139.055C482.237 137.665 488.926 138.207 491.705 138.144C523.299 137.437 555.816 140.026 586.737 146.69Q591.296 147.633 595.831 148.688Q600.365 149.743 604.872 150.911Q609.379 152.078 613.855 153.357Q618.332 154.636 622.775 156.025Q627.219 157.414 631.626 158.913Q636.034 160.412 640.403 162.019Q644.773 163.627 649.101 165.342Q653.429 167.058 657.713 168.88Q661.997 170.702 666.235 172.63Q670.473 174.557 674.661 176.589Q678.85 178.621 682.987 180.757Q687.124 182.892 691.207 185.129Q695.29 187.366 699.316 189.703Q703.342 192.041 707.309 194.478Q711.276 196.914 715.182 199.448Q719.087 201.982 722.929 204.612Q726.77 207.243 730.546 209.967Q734.321 212.691 738.027 215.509Q741.734 218.326 745.369 221.234Q749.005 224.142 752.567 227.139Q756.13 230.137 759.617 233.221Q763.104 236.306 766.513 239.476Q769.923 242.646 773.253 245.899Q776.583 249.153 779.831 252.488Q783.08 255.823 786.244 259.238Q789.409 262.652 792.488 266.144Q795.567 269.636 798.559 273.203Q801.551 276.77 804.453 280.41Q807.355 284.051 810.167 287.761Q812.978 291.472 815.696 295.252Q818.415 299.031 821.039 302.877Q823.663 306.723 826.191 310.632Q828.178 313.72 830.104 316.847Q832.029 319.974 833.891 323.138Q835.754 326.303 837.552 329.505Q839.351 332.706 841.085 335.943Q842.82 339.179 844.489 342.45Q846.158 345.721 847.762 349.024Q849.365 352.328 850.903 355.662Q852.44 358.997 853.91 362.362Q855.38 365.727 856.783 369.121Q858.186 372.514 859.52 375.935Q860.855 379.356 862.121 382.803Q863.386 386.25 864.583 389.722Q865.78 393.194 866.907 396.688Q868.034 400.183 869.091 403.7Q870.148 407.216 871.134 410.754Q872.121 414.291 873.036 417.847Q873.952 421.403 874.796 424.977Q875.64 428.55 876.413 432.14Q877.186 435.73 877.886 439.335Q878.587 442.939 879.216 446.557Q879.844 450.175 880.4 453.805Q880.956 457.435 881.44 461.075Q881.923 464.715 882.333 468.364Q882.744 472.013 883.081 475.67Q883.419 479.326 883.683 482.989Q883.948 486.651 884.139 490.318Q884.329 493.985 884.447 497.656Q884.565 501.326 884.609 504.998Q884.653 508.669 884.624 512.341Q884.595 516.013 884.493 519.684Q884.39 523.355 884.214 527.023Q884.038 530.69 883.789 534.354C882.696 551.716 880.974 568.296 877.283 585.313C864.63 643.646 845.395 683.404 812.011 732.828L743.217 664.5C735.29 656.547 727.657 648.256 719.597 640.446C716.456 637.403 713.411 633.874 708.685 634.107C702.158 634.43 696.911 641.456 692.857 645.968C681.013 633.82 668.175 622.511 656.644 610.087C661.963 605.18 666.256 598.687 670.363 592.737C691.974 561.428 708.154 523.592 715.241 486.165C730.625 404.92 717.129 330.295 670.281 261.74C639.912 217.299 593.678 179.271 544.064 158.327C523.781 149.765 501.963 143.879 480.348 139.835Z"/>
	<path fill="#D8E9EE" d="M140.297 472.548C144.478 494.705 149.686 516.907 157.949 537.945C161.27 546.401 165.395 554.517 169.578 562.572Q171.583 566.512 173.709 570.388Q175.836 574.264 178.082 578.071Q180.327 581.879 182.69 585.616Q185.053 589.352 187.531 593.013Q190.009 596.674 192.599 600.257Q195.189 603.839 197.89 607.339Q200.59 610.84 203.398 614.254Q206.205 617.669 209.118 620.995Q212.03 624.321 215.044 627.555Q218.059 630.789 221.172 633.927Q224.285 637.066 227.494 640.107Q230.703 643.147 234.005 646.087Q237.307 649.026 240.699 651.862Q244.091 654.697 247.569 657.426Q251.047 660.154 254.608 662.774Q258.169 665.393 261.81 667.901Q264.835 669.942 267.908 671.909Q270.981 673.876 274.101 675.768Q277.221 677.66 280.386 679.476Q283.551 681.292 286.759 683.031Q289.967 684.769 293.216 686.43Q296.465 688.09 299.754 689.671Q303.042 691.253 306.368 692.754Q309.694 694.255 313.055 695.675Q316.416 697.095 319.81 698.433Q323.205 699.772 326.631 701.027Q330.057 702.283 333.512 703.455Q336.968 704.627 340.451 705.716Q343.933 706.804 347.442 707.807Q350.95 708.811 354.481 709.729Q358.013 710.647 361.565 711.48Q365.118 712.312 368.69 713.058Q372.261 713.804 375.85 714.464Q379.439 715.123 383.043 715.695Q386.646 716.268 390.263 716.752Q393.879 717.237 397.507 717.634Q401.134 718.031 404.77 718.34Q408.405 718.649 412.047 718.87Q415.69 719.091 419.336 719.224Q422.982 719.356 426.631 719.4Q430.28 719.444 433.928 719.4Q437.577 719.356 441.223 719.223Q444.87 719.091 448.512 718.87Q452.154 718.649 455.79 718.34Q459.425 718.031 463.053 717.634Q466.68 717.237 470.296 716.752Q473.913 716.267 477.517 715.695Q481.12 715.122 484.709 714.463C519.77 707.826 552.828 693.702 583.152 675.104C591.172 670.185 600.122 664.607 607.076 658.258Q618.185 669.515 629.478 680.588C634.085 685.11 639.225 689.506 643.29 694.52C639.332 697.693 632.375 702.213 631.724 707.606C631.441 709.947 632.309 710.982 633.76 712.713C638.244 718.065 643.536 722.926 648.441 727.909C655.898 735.485 663.233 743.163 670.75 750.684Q702.928 782.484 734.301 815.078C727.838 821.606 718.999 825.799 711.025 830.186C687.697 843.018 663.61 854.88 638.28 863.249C584.58 880.992 523.73 888.755 467.397 881.424C449.867 879.143 432.878 875.175 415.831 870.624C391.486 864.124 368.21 855.947 345.683 844.577Q341.486 842.473 337.343 840.266Q333.2 838.059 329.113 835.749Q325.026 833.44 320.997 831.029Q316.969 828.619 313.002 826.109Q309.034 823.599 305.131 820.992Q301.227 818.384 297.389 815.68Q293.552 812.976 289.782 810.178Q286.013 807.38 282.314 804.489Q278.616 801.598 274.99 798.616Q271.364 795.634 267.814 792.563Q264.263 789.491 260.79 786.333Q257.317 783.174 253.924 779.93Q250.53 776.687 247.218 773.36Q243.906 770.032 240.678 766.624Q237.45 763.216 234.307 759.728Q231.165 756.241 228.11 752.676Q225.055 749.112 222.09 745.472Q219.124 741.833 216.25 738.121Q213.376 734.409 210.595 730.627Q207.814 726.845 205.128 722.995Q202.442 719.145 199.853 715.229Q197.263 711.313 194.771 707.335Q192.28 703.356 189.888 699.316Q187.496 695.277 185.205 691.179Q182.915 687.082 180.726 682.929Q178.538 678.775 176.454 674.569Q174.369 670.363 172.39 666.106Q170.411 661.849 168.538 657.544Q166.665 653.24 164.899 648.89Q163.134 644.54 161.477 640.147Q159.821 635.755 158.274 631.323Q156.726 626.89 155.29 622.421C142.079 582.105 137.712 539.738 138.015 497.502C138.056 491.803 137.868 477.339 140.297 472.548Z"/>
	<path fill="#2A5381" d="M140.297 472.548C136.381 445.409 135.276 418.137 138.787 390.879Q139.238 387.349 139.775 383.83Q140.312 380.312 140.934 376.807Q141.556 373.303 142.263 369.815Q142.971 366.327 143.763 362.857Q144.555 359.387 145.431 355.937Q146.308 352.488 147.268 349.061Q148.228 345.633 149.271 342.231Q150.314 338.828 151.44 335.451Q152.565 332.075 153.773 328.727Q154.98 325.379 156.269 322.061Q157.558 318.744 158.927 315.458Q160.296 312.173 161.745 308.922Q163.193 305.671 164.721 302.456Q166.248 299.242 167.853 296.065Q169.458 292.888 171.14 289.752Q172.822 286.615 174.58 283.52Q176.338 280.426 178.171 277.375Q180.003 274.323 181.91 271.318Q183.816 268.312 185.795 265.354Q187.774 262.396 189.825 259.487Q191.875 256.578 193.996 253.719Q196.116 250.861 198.306 248.055Q200.495 245.249 202.753 242.497Q205.01 239.745 207.333 237.049Q209.657 234.353 212.045 231.715Q214.434 229.076 216.886 226.496Q219.338 223.917 221.852 221.397Q224.366 218.878 226.941 216.421Q229.515 213.963 232.149 211.569Q234.783 209.175 237.474 206.846Q240.165 204.517 242.912 202.254Q245.66 199.991 248.461 197.796Q250.97 195.856 253.52 193.971Q256.07 192.086 258.66 190.255Q261.25 188.425 263.878 186.651Q266.506 184.876 269.172 183.158Q271.838 181.44 274.54 179.78Q277.242 178.12 279.979 176.518Q282.715 174.916 285.486 173.373Q288.257 171.829 291.059 170.346Q293.862 168.862 296.696 167.439Q299.531 166.016 302.394 164.654Q305.258 163.292 308.151 161.992Q311.043 160.691 313.963 159.453Q316.882 158.215 319.828 157.039Q322.773 155.864 325.743 154.752Q328.713 153.639 331.706 152.591Q334.699 151.543 337.714 150.559Q340.729 149.575 343.764 148.656Q346.799 147.737 349.853 146.883Q352.907 146.029 355.979 145.24Q359.051 144.452 362.139 143.729Q365.226 143.007 368.329 142.351Q371.432 141.695 374.548 141.105Q377.664 140.515 380.792 139.993Q383.92 139.47 387.058 139.014Q390.196 138.559 393.344 138.17Q396.491 137.782 399.646 137.461Q402.801 137.14 405.962 136.887Q409.124 136.634 412.289 136.448Q415.455 136.263 418.624 136.145Q421.794 136.027 424.964 135.978Q428.135 135.928 431.307 135.946Q434.478 135.964 437.648 136.05C451.978 136.342 466.147 138.021 480.348 139.835C501.963 143.879 523.781 149.765 544.064 158.327C593.678 179.271 639.912 217.299 670.281 261.74C717.129 330.295 730.625 404.92 715.241 486.165C708.154 523.592 691.974 561.428 670.363 592.737C666.256 598.687 661.963 605.18 656.644 610.087C668.175 622.511 681.013 633.82 692.857 645.968C687.189 653.267 678.925 658.996 672.696 665.934Q662.985 675.697 653.054 685.236C649.871 688.317 646.729 691.737 643.29 694.52C639.225 689.506 634.085 685.11 629.478 680.588Q618.185 669.515 607.076 658.258C600.122 664.607 591.172 670.185 583.152 675.104C552.828 693.702 519.77 707.826 484.709 714.463Q481.12 715.122 477.517 715.695Q473.913 716.267 470.296 716.752Q466.68 717.237 463.053 717.634Q459.425 718.031 455.79 718.34Q452.154 718.649 448.512 718.87Q444.87 719.091 441.223 719.223Q437.577 719.356 433.928 719.4Q430.28 719.444 426.631 719.4Q422.982 719.356 419.336 719.224Q415.69 719.091 412.047 718.87Q408.405 718.649 404.77 718.34Q401.134 718.031 397.507 717.634Q393.879 717.237 390.263 716.752Q386.646 716.268 383.043 715.695Q379.439 715.123 375.85 714.464Q372.261 713.804 368.69 713.058Q365.118 712.312 361.565 711.48Q358.013 710.647 354.481 709.729Q350.95 708.811 347.442 707.807Q343.933 706.804 340.451 705.716Q336.968 704.627 333.512 703.455Q330.057 702.283 326.631 701.027Q323.205 699.772 319.81 698.433Q316.416 697.095 313.055 695.675Q309.694 694.255 306.368 692.754Q303.042 691.253 299.754 689.671Q296.465 688.09 293.216 686.43Q289.967 684.769 286.759 683.031Q283.551 681.292 280.386 679.476Q277.221 677.66 274.101 675.768Q270.981 673.876 267.908 671.909Q264.835 669.942 261.81 667.901Q258.169 665.393 254.608 662.774Q251.047 660.154 247.569 657.426Q244.091 654.697 240.699 651.861Q237.307 649.026 234.005 646.087Q230.703 643.147 227.494 640.107Q224.285 637.066 221.172 633.927Q218.059 630.789 215.044 627.555Q212.03 624.321 209.118 620.995Q206.205 617.669 203.398 614.254Q200.59 610.84 197.89 607.339Q195.189 603.839 192.599 600.257Q190.009 596.674 187.531 593.013Q185.053 589.352 182.69 585.616Q180.327 581.879 178.082 578.071Q175.836 574.264 173.709 570.388Q171.583 566.512 169.578 562.572C165.395 554.517 161.27 546.401 157.949 537.945C149.686 516.907 144.478 494.705 140.297 472.548Z"/>
	<path fill="#243457" d="M607.076 658.258C610.108 655.022 613.929 652.166 617.284 649.255Q626.732 641.144 635.721 632.526C642.98 625.456 649.04 616.667 656.644 610.087C668.175 622.511 681.013 633.82 692.857 645.968C687.189 653.267 678.925 658.996 672.696 665.934Q662.985 675.697 653.054 685.236C649.871 688.317 646.729 691.737 643.29 694.52C639.225 689.506 634.085 685.11 629.478 680.588Q618.185 669.515 607.076 658.258Z"/>
	<path fill="#243457" d="M421.142 165.714C421.677 165.665 422.212 165.622 422.748 165.601Q425.957 165.485 429.167 165.45Q432.378 165.414 435.588 165.458Q438.799 165.502 442.007 165.626Q445.215 165.75 448.42 165.954Q451.624 166.157 454.822 166.441Q458.02 166.724 461.211 167.087Q464.401 167.449 467.581 167.891Q470.761 168.333 473.929 168.854Q477.098 169.375 480.252 169.974Q483.406 170.574 486.545 171.252Q489.683 171.929 492.804 172.685Q495.924 173.441 499.025 174.273Q502.126 175.106 505.205 176.016Q508.284 176.926 511.34 177.912Q514.395 178.898 517.425 179.96Q520.456 181.021 523.458 182.158Q526.461 183.295 529.435 184.506Q532.408 185.717 535.351 187.002Q538.293 188.286 541.203 189.644Q544.113 191.001 546.988 192.43Q549.863 193.86 552.702 195.36Q555.54 196.86 558.341 198.431Q561.141 200.001 563.902 201.641Q566.662 203.281 569.381 204.988Q572.1 206.696 574.776 208.471Q577.451 210.246 580.082 212.087Q582.712 213.927 585.297 215.833Q587.881 217.739 590.416 219.708Q592.952 221.677 595.438 223.709Q597.925 225.741 600.359 227.834Q602.794 229.927 605.176 232.08Q607.558 234.233 609.886 236.444C662.553 285.529 689.797 349.556 692.28 421.127C694.65 489.47 667.139 558.392 620.606 608.071Q618.4 610.413 616.136 612.7Q613.872 614.987 611.553 617.217Q609.233 619.447 606.859 621.619Q604.485 623.79 602.058 625.903Q599.631 628.015 597.152 630.067Q594.673 632.118 592.144 634.108Q589.615 636.097 587.038 638.024Q584.461 639.95 581.837 641.812Q579.212 643.674 576.543 645.47Q573.873 647.267 571.16 648.996Q568.447 650.726 565.692 652.388Q562.936 654.05 560.141 655.643Q557.345 657.236 554.511 658.76Q551.677 660.283 548.806 661.736Q545.935 663.189 543.029 664.57Q540.122 665.951 537.183 667.26Q534.244 668.569 531.273 669.804Q528.302 671.04 525.301 672.201Q522.3 673.363 519.272 674.45Q516.243 675.537 513.189 676.548Q510.134 677.56 507.056 678.496Q503.977 679.431 500.876 680.29Q497.775 681.149 494.654 681.932Q491.533 682.714 488.393 683.418Q485.254 684.122 482.097 684.749Q478.941 685.375 475.771 685.923Q472.6 686.472 469.417 686.941Q466.234 687.41 463.04 687.801Q459.846 688.191 456.643 688.502Q453.441 688.814 450.231 689.045Q447.022 689.277 443.808 689.429Q440.594 689.581 437.377 689.654C437.287 689.66 437.198 689.667 437.109 689.673C427.584 690.226 418.054 689.715 408.549 689.051Q405.913 688.879 403.28 688.653Q400.648 688.428 398.021 688.148Q395.394 687.869 392.773 687.536Q390.152 687.204 387.538 686.818Q384.925 686.432 382.32 685.993Q379.714 685.554 377.119 685.062Q374.523 684.57 371.938 684.025Q369.353 683.48 366.779 682.883Q364.206 682.286 361.645 681.636Q359.084 680.987 356.537 680.285Q353.99 679.584 351.457 678.831Q348.925 678.077 346.409 677.273Q343.892 676.468 341.393 675.612Q338.893 674.757 336.412 673.85Q333.93 672.944 331.467 671.987Q329.005 671.03 326.562 670.024Q324.12 669.017 321.698 667.961Q319.276 666.905 316.877 665.799Q314.477 664.694 312.1 663.54Q309.724 662.386 307.371 661.184Q305.018 659.982 302.691 658.733Q300.363 657.483 298.061 656.186Q295.76 654.889 293.485 653.546Q291.21 652.203 288.963 650.813Q286.716 649.424 284.497 647.989Q282.279 646.554 280.09 645.074Q277.902 643.595 275.744 642.071Q273.586 640.547 271.459 638.979Q269.332 637.411 267.238 635.801Q265.144 634.19 263.083 632.537Q261.022 630.884 258.995 629.19Q256.968 627.495 254.976 625.76Q252.524 623.618 250.126 621.417Q247.728 619.215 245.385 616.955Q243.042 614.695 240.755 612.377Q238.469 610.06 236.241 607.686Q234.012 605.313 231.843 602.885Q229.674 600.458 227.566 597.977Q225.457 595.496 223.411 592.964Q221.364 590.432 219.381 587.851Q217.398 585.269 215.479 582.639Q213.56 580.009 211.707 577.333Q209.854 574.656 208.068 571.934Q206.281 569.213 204.562 566.448Q202.844 563.683 201.194 560.876Q199.544 558.07 197.965 555.223Q196.385 552.377 194.876 549.492Q193.367 546.607 191.929 543.686Q190.492 540.765 189.128 537.809Q187.763 534.854 186.472 531.865Q185.181 528.876 183.964 525.857Q182.747 522.837 181.605 519.789Q180.464 516.74 179.398 513.664Q178.331 510.588 177.342 507.486Q176.352 504.385 175.439 501.26Q174.527 498.135 173.691 494.988Q172.856 491.842 172.099 488.675Q171.342 485.509 170.663 482.325Q169.984 479.141 169.385 475.941Q168.785 472.742 168.265 469.528Q167.744 466.314 167.303 463.089Q166.862 459.863 166.501 456.628Q166.14 453.392 165.86 450.149Q165.579 446.905 165.378 443.656Q165.169 440.4 165.041 437.14Q164.914 433.88 164.868 430.618Q164.822 427.356 164.858 424.093Q164.894 420.831 165.011 417.571Q165.129 414.31 165.328 411.054Q165.528 407.797 165.808 404.547Q166.089 401.297 166.451 398.054Q166.814 394.812 167.257 391.58Q167.7 388.347 168.224 385.127Q168.748 381.907 169.353 378.701Q169.958 375.495 170.643 372.305Q171.327 369.115 172.092 365.944Q172.856 362.772 173.7 359.621Q174.544 356.469 175.466 353.34Q176.389 350.21 177.389 347.105Q178.39 344 179.468 340.92Q180.546 337.841 181.701 334.79Q182.856 331.739 184.087 328.717Q185.318 325.696 186.624 322.706Q187.93 319.717 189.311 316.761Q190.692 313.805 192.146 310.884Q193.6 307.964 195.128 305.081Q196.655 302.198 198.254 299.354Q199.852 296.51 201.522 293.707Q203.192 290.904 204.931 288.144Q206.67 285.384 208.478 282.668Q210.286 279.952 212.162 277.283Q214.037 274.613 215.979 271.991Q217.921 269.369 219.927 266.797Q221.934 264.225 224.005 261.704Q226.075 259.182 228.209 256.714Q230.342 254.245 232.536 251.831C248.355 234.243 265.481 220.042 285.372 207.258C328.447 179.574 370.285 168.371 421.142 165.714Z"/>
	<path fill="#BED2AD" d="M421.753 186.226Q424.639 186.131 427.527 186.104Q430.414 186.078 433.302 186.121Q436.189 186.163 439.075 186.274Q441.96 186.385 444.842 186.565Q447.724 186.745 450.601 186.994Q453.478 187.243 456.349 187.56Q459.219 187.877 462.081 188.262Q464.943 188.648 467.794 189.101Q470.646 189.554 473.487 190.076Q476.327 190.597 479.154 191.186Q481.981 191.775 484.793 192.431Q487.605 193.087 490.401 193.81Q493.197 194.533 495.974 195.322Q498.752 196.111 501.51 196.966Q504.268 197.822 507.005 198.742Q509.742 199.663 512.457 200.649Q515.171 201.634 517.861 202.684Q520.551 203.734 523.215 204.848Q525.88 205.962 528.516 207.139Q531.153 208.316 533.761 209.556Q536.37 210.795 538.947 212.097Q541.525 213.398 544.071 214.761Q546.617 216.123 549.13 217.546Q551.643 218.968 554.122 220.451Q556.6 221.933 559.042 223.473Q561.484 225.014 563.889 226.613Q566.294 228.211 568.66 229.867Q571.026 231.522 573.352 233.234Q575.678 234.945 577.963 236.711Q580.247 238.477 582.489 240.298Q584.731 242.118 586.929 243.991Q589.126 245.864 591.279 247.789Q593.481 249.715 595.634 251.696Q597.787 253.676 599.89 255.71Q601.993 257.744 604.044 259.829Q606.096 261.915 608.094 264.051Q610.093 266.188 612.037 268.374Q613.982 270.559 615.871 272.793Q617.76 275.027 619.593 277.307Q621.426 279.587 623.201 281.913Q624.976 284.238 626.692 286.607Q628.408 288.976 630.065 291.388Q631.721 293.799 633.317 296.251Q634.913 298.703 636.447 301.194Q637.98 303.685 639.451 306.214Q640.922 308.743 642.33 311.307Q643.737 313.872 645.08 316.471Q646.422 319.071 647.7 321.703Q648.977 324.334 650.188 326.997Q651.399 329.661 652.543 332.353Q653.687 335.046 654.763 337.766Q655.839 340.486 656.847 343.233Q657.855 345.979 658.794 348.75Q659.733 351.521 660.602 354.314Q661.471 357.107 662.27 359.922Q663.069 362.736 663.797 365.569Q664.526 368.403 665.183 371.253Q665.84 374.104 666.426 376.97Q667.012 379.836 667.526 382.716Q668.039 385.596 668.481 388.488Q668.923 391.38 669.292 394.283Q669.661 397.185 669.957 400.095Q670.254 403.005 670.477 405.922Q670.701 408.839 670.851 411.761C674.538 474.473 653.539 539.464 611.62 586.571C580.309 621.758 539.421 649.297 493.529 661.223C474.887 666.067 455.773 668.261 436.589 669.377Q433.66 669.466 430.731 669.485Q427.801 669.503 424.871 669.451Q421.942 669.399 419.015 669.276Q416.087 669.153 413.164 668.959Q410.24 668.766 407.322 668.502Q404.404 668.238 401.494 667.904Q398.583 667.569 395.681 667.165Q392.779 666.76 389.888 666.286Q386.997 665.812 384.118 665.268Q381.239 664.724 378.374 664.111Q375.509 663.498 372.659 662.815Q369.81 662.133 366.978 661.383Q364.146 660.632 361.333 659.813Q358.52 658.994 355.727 658.108Q352.934 657.221 350.164 656.268Q347.394 655.314 344.647 654.294Q341.901 653.274 339.179 652.188Q336.458 651.102 333.764 649.95Q331.07 648.799 328.404 647.583Q325.739 646.367 323.103 645.087Q320.468 643.807 317.864 642.463Q315.26 641.12 312.689 639.714Q310.119 638.309 307.583 636.842Q305.047 635.374 302.547 633.846Q300.047 632.318 297.585 630.73Q295.122 629.142 292.699 627.495Q290.276 625.849 287.893 624.144Q285.51 622.439 283.169 620.677Q280.828 618.915 278.531 617.097Q276.233 615.28 273.979 613.407Q271.726 611.534 269.519 609.608Q267.311 607.681 265.151 605.702C216.445 560.442 189.075 501.563 186.762 435.151Q186.655 432.197 186.621 429.242Q186.586 426.286 186.625 423.331Q186.664 420.376 186.775 417.422Q186.887 414.469 187.071 411.519Q187.255 408.569 187.512 405.624Q187.769 402.68 188.098 399.743Q188.428 396.805 188.829 393.877Q189.231 390.949 189.705 388.032Q190.178 385.114 190.724 382.209Q191.269 379.305 191.886 376.414Q192.503 373.523 193.191 370.649Q193.879 367.775 194.638 364.918Q195.397 362.061 196.225 359.224Q197.054 356.387 197.953 353.571Q198.851 350.756 199.819 347.963Q200.786 345.17 201.823 342.402Q202.859 339.634 203.963 336.892Q205.067 334.151 206.238 331.437Q207.41 328.723 208.648 326.04Q209.885 323.356 211.189 320.703Q212.493 318.05 213.861 315.431Q215.23 312.811 216.663 310.226Q218.096 307.641 219.592 305.092Q221.088 302.543 222.646 300.031Q224.205 297.52 225.825 295.048Q227.444 292.576 229.125 290.144Q230.805 287.713 232.545 285.323Q234.285 282.934 236.083 280.588Q237.881 278.242 239.736 275.942Q241.592 273.641 243.503 271.387Q245.415 269.132 247.381 266.926Q249.348 264.719 251.368 262.562Q253.414 260.374 255.515 258.238Q257.615 256.102 259.767 254.018Q261.92 251.935 264.123 249.906Q266.327 247.876 268.581 245.902Q270.834 243.929 273.136 242.011Q275.437 240.094 277.786 238.234Q280.135 236.375 282.529 234.574Q284.923 232.774 287.361 231.033Q289.799 229.292 292.28 227.613Q294.761 225.934 297.282 224.316Q299.804 222.699 302.365 221.145Q304.926 219.591 307.525 218.101Q310.123 216.611 312.759 215.186Q315.394 213.76 318.063 212.401Q320.733 211.042 323.435 209.75Q326.138 208.458 328.872 207.233Q331.606 206.008 334.369 204.851Q337.133 203.695 339.924 202.607Q342.715 201.52 345.533 200.502Q348.35 199.484 351.192 198.537Q354.034 197.589 356.898 196.713Q359.763 195.836 362.648 195.031Q365.534 194.226 368.439 193.492Q371.343 192.759 374.265 192.098Q377.187 191.438 380.124 190.849Q383.062 190.261 386.013 189.747Q388.964 189.232 391.927 188.79Q394.89 188.349 397.863 187.981Q400.836 187.614 403.817 187.32Q406.798 187.026 409.786 186.807Q412.774 186.587 415.766 186.442Q418.758 186.297 421.753 186.226Z"/>
	<path fill="#F2CA85" d="M435.139 637.245C425.023 638.302 413.262 636.744 403.183 635.515C350.645 629.109 298.705 599.195 266.059 557.59C231.992 514.173 214.93 460.62 221.567 405.494C228.177 350.599 256.584 297.224 300.311 262.996C346.319 226.983 399.207 213.203 457.182 220.406C508.539 226.787 562.072 255.607 593.925 296.733C619.426 329.657 635.217 368.026 639.16 409.586C640.19 420.445 640.66 432.025 639.281 442.85C637.975 453.232 637.023 463.608 634.745 473.841C623.782 523.099 596.099 564.789 556.264 595.53C530.579 615.351 495.578 629.609 463.645 634.762C454.169 636.291 444.709 636.758 435.139 637.245Z"/>
	<path fill="#D8E9EE" d="M427.291 232.032C429.611 231.936 431.748 231.911 433.938 232.791C437.192 234.098 439.652 236.538 440.951 239.794Q441.185 240.382 441.359 240.991Q441.532 241.6 441.644 242.223Q441.756 242.846 441.804 243.478Q441.853 244.109 441.838 244.742Q441.823 245.375 441.745 246.003Q441.666 246.631 441.525 247.248Q441.384 247.866 441.182 248.466Q440.979 249.065 440.718 249.642C438.895 253.655 435.928 255.616 431.963 257.21C429.829 257.227 427.668 257.156 425.652 256.392C422.121 255.055 419.131 252.338 417.682 248.831C416.389 245.704 416.491 242.351 417.938 239.295C419.788 235.388 423.356 233.352 427.291 232.032Z"/>
	<path fill="#243457" d="M302.678 374.607C312.186 373.75 321.131 376.847 329.032 381.977C342.138 390.487 352.232 404.674 355.354 420.035C356.908 427.682 356.555 436.185 351.952 442.785C347.8 448.739 341.827 451.314 334.915 452.471C325.343 452.7 317.173 450.218 309.102 445.082C296.184 436.862 284.969 423.289 281.668 408.111C280.047 400.662 280.362 392.077 284.7 385.57C288.835 379.369 295.527 375.931 302.678 374.607Z"/>
	<path fill="#243457" d="M380.42 384.674C372.797 381.012 366.887 376.312 362.061 369.302Q361.304 368.18 360.602 367.022Q359.9 365.865 359.254 364.675Q358.608 363.485 358.02 362.266Q357.432 361.046 356.903 359.8Q356.375 358.554 355.906 357.283Q355.438 356.013 355.031 354.722Q354.624 353.431 354.28 352.121Q353.935 350.812 353.654 349.488Q353.373 348.164 353.156 346.827Q352.938 345.491 352.786 344.146Q352.633 342.801 352.544 341.45Q352.456 340.099 352.433 338.745Q352.41 337.392 352.452 336.038Q352.493 334.685 352.6 333.336Q352.707 331.986 352.878 330.643Q353.049 329.3 353.285 327.967C354.955 318.999 359.261 309.938 367.122 304.83C373.024 300.995 380 300.341 386.742 301.952C398.315 304.716 405.813 313.307 411.785 323.058C417.884 335.899 420.313 351.607 415.492 365.302C412.725 373.162 407.384 379.964 399.767 383.577C393.398 386.598 387.082 386.454 380.42 384.674Z"/>
	<path fill="#D8E9EE" d="M379.864 234.186C385.549 233.16 392.667 233.758 397.839 236.345C402.001 238.427 405.612 242.379 406.928 246.889C408.688 252.918 406.483 259.699 403.376 264.935C389.39 288.509 331.938 321.147 304.889 328.022C304.721 328.053 304.553 328.087 304.385 328.116C297.411 329.297 288.56 330.264 282.544 325.746C279.155 323.201 277.117 319.069 276.666 314.898C275.756 306.491 280.324 298.09 285.315 291.678C304.053 267.607 349.776 238.064 379.864 234.186Z"/>
	<path fill="#E6B16D" d="M441.349 347.723C442.002 335.121 449.857 320.806 458.565 311.936C465.178 305.199 473.972 300.613 483.571 300.753C492.187 300.878 497.77 304.867 503.548 310.698C504.275 310.948 504.85 311.126 505.467 311.605C508.867 314.245 511.969 318.146 515.077 321.171L539.778 345.153L617.262 421.093C624.666 428.281 631.744 435.799 639.281 442.85C637.975 453.232 637.023 463.608 634.745 473.841C623.782 523.099 596.099 564.789 556.264 595.53C530.579 615.351 495.578 629.609 463.645 634.762C454.169 636.291 444.709 636.758 435.139 637.245Q428.735 631.801 422.703 625.948C405.968 609.624 390.172 592.314 373.424 576.035C370.944 573.624 357.49 561.616 356.896 559.792L357.944 558.018C347.217 552.84 338.775 544.788 334.067 533.727C328.843 521.453 328.468 506.857 333.563 494.485C339.265 480.641 349.967 470.717 363.734 465.075C364.946 459.623 366.257 454.179 368.153 448.918C374.756 430.59 387.417 417.162 404.945 408.94C403.859 407.349 401.912 406.053 400.476 404.73C395.283 399.946 383.353 390.487 380.42 384.674C387.082 386.454 393.398 386.598 399.767 383.577C407.384 379.964 412.725 373.162 415.492 365.302C420.313 351.607 417.884 335.899 411.785 323.058C419.116 323.588 436.937 350.326 440.552 350.056C440.869 349.269 441.113 348.534 441.349 347.723Z"/>
	<path fill="#243457" d="M550.261 375.146C556.493 374.564 562.768 375.894 567.95 379.52C573.368 383.313 576.721 389.607 577.847 396.044C579.906 407.806 573.987 421.876 567.401 431.398C559.824 442.35 549.351 449.648 536.248 451.984C529.093 452.189 522.631 450.743 516.802 446.425C511.441 442.453 508.367 436.48 507.396 429.962C505.576 417.752 511.188 404.895 518.328 395.277C526.362 384.455 536.843 377.17 550.261 375.146Z"/>
	<path fill="#243457" d="M441.349 347.723C442.002 335.121 449.857 320.806 458.565 311.936C465.178 305.199 473.972 300.613 483.571 300.753C492.187 300.878 497.77 304.867 503.548 310.698C510.912 323.102 511.643 335.924 508.073 349.821C504.802 362.556 496.812 375.888 485.23 382.659C479.056 386.268 471.717 387.859 464.713 385.912C456.727 383.693 449.68 377.438 445.823 370.191C442.066 363.132 441.129 355.616 441.349 347.723Z"/>
	<path fill="#243457" d="M404.945 408.94C421.672 401.9 439.168 401.383 456.049 408.353C474.017 415.771 487.122 430.373 494.359 448.238Q496.001 452.311 497.203 456.535Q498.406 460.759 499.155 465.086C513.887 471.444 524.867 479.987 530.884 495.353C535.725 507.714 535.38 520.856 529.928 532.987C524.63 544.777 513.339 554.969 501.294 559.529C489.51 563.989 476.526 563.103 465.179 557.834C450.409 550.974 440.232 538.93 422.547 545.243C415.865 547.629 410.78 551.708 404.797 555.284C389.866 564.207 373.882 564.44 357.944 558.018C347.217 552.84 338.775 544.788 334.067 533.727C328.843 521.453 328.468 506.857 333.563 494.485C339.265 480.641 349.967 470.717 363.734 465.075C364.946 459.623 366.257 454.179 368.153 448.918C374.756 430.59 387.417 417.162 404.945 408.94Z"/>
</svg>
