<svg version="1.1" xmlns="http://www.w3.org/2000/svg" style="display: block;" viewBox="0 0 2048 2048" width="1024" height="1024">
<path transform="translate(0,0)" fill="rgb(217,203,176)" d="M 0 0 L 2048 0 L 2048 2048 L 0 2048 L 0 0 z"/>
<path transform="translate(0,0)" fill="rgb(248,227,205)" d="M 1346.01 874.74 C 1355.16 881.732 1363.23 889.195 1371.03 897.656 C 1370.76 899.34 1371.09 899.613 1369.66 900.729 C 1363.09 905.831 1316 916.669 1303.06 921.318 C 1288.79 926.444 1275.35 933.369 1262.34 941.119 C 1207.71 973.668 1160.53 1017.25 1106.21 1050.28 C 1093.27 1058.16 1079.7 1064.73 1066.04 1071.23 C 1053.99 1076.98 1040.96 1083.74 1028.01 1087 C 1032.51 1077.18 1070.01 1058.03 1080.46 1050.33 C 1116.86 1023.49 1154.99 998.26 1191.77 971.825 C 1212.83 956.691 1233 939.072 1254.77 925.193 C 1274.76 912.445 1295.63 901.029 1316.6 889.974 C 1325.92 885.059 1335.98 881.122 1344.86 875.48 L 1346.01 874.74 z"/>
<path transform="translate(0,0)" fill="rgb(82,39,42)" d="M 944.288 376.794 C 1007.81 309.955 1088.04 269.621 1175.07 242.05 C 1218.71 228.226 1261.97 216.406 1302.47 194.493 C 1323.12 183.322 1340.08 169.069 1358.56 155.003 C 1408.21 255.949 1398.78 414.455 1363.21 518.738 C 1347.23 565.608 1319.8 612.003 1289.36 650.843 C 1279.77 663.071 1268.72 674.094 1259.15 686.24 C 1250.07 676.979 1242.91 666.739 1235.6 656.091 C 1253.25 640.183 1267.14 615.822 1278.69 595.096 C 1334.16 495.535 1363.15 359.528 1331.39 247.95 C 1330.35 244.029 1329.15 240.363 1327.6 236.618 C 1312.5 244.136 1298.27 254.099 1284.19 263.388 C 1222.29 304.237 1173.71 349.259 1132.13 411.059 C 1118.96 430.646 1109.11 451.773 1096.64 471.604 C 1088.96 463.301 1078.78 456.203 1069.8 449.333 C 1030.88 419.552 989.828 395.059 944.288 376.794 z"/>
<path transform="translate(0,0)" fill="rgb(149,174,130)" d="M 621.448 1633.1 C 624.843 1632.64 648.747 1645.17 654.59 1647.27 C 675.872 1654.91 698.479 1660.25 720.758 1664.06 C 730.499 1665.73 743.844 1665.23 752.753 1668.69 L 753.423 1669.67 C 754.617 1664.65 754.444 1658.34 755.049 1653.14 C 771.607 1681.87 790.123 1711.65 816.869 1732 C 823.365 1733.23 834.914 1742.48 841.843 1745.71 C 854.661 1751.67 867.595 1756.07 881.19 1759.84 C 884.946 1762.95 884.845 1775.22 885.31 1780.28 C 886.101 1788.89 891.85 1825.15 891.009 1829.36 C 891.467 1831.76 891.678 1834.81 892.664 1837.02 C 895.067 1852.34 902.392 1866.99 915.133 1876.28 C 928.386 1885.94 942.37 1885.35 957.888 1884.72 C 960.18 1884.35 962.463 1883.76 964.733 1883.27 C 965.209 1877.26 965.04 1871.16 965.069 1865.13 C 976.787 1871.21 991.423 1855.02 1001.86 1855.1 C 1002.72 1852.98 1003.46 1850.86 1003.91 1848.6 C 1006.91 1833.55 1001.86 1815.63 993.439 1803.04 A 430.968 430.968 0 0 1 1040.09 1804.01 C 1038.2 1809.96 1036.76 1815.78 1037.03 1822.09 C 1037.08 1831.73 1038.27 1841.9 1045.44 1849.08 C 1047.59 1851.23 1049.86 1852.41 1052.6 1853.65 C 1058.35 1857.04 1065.55 1857.57 1072.06 1858.33 C 1077.05 1860.01 1079.27 1860.03 1084.33 1858.24 C 1094.34 1857.45 1104.3 1857.16 1114.34 1856.95 A 396.027 396.027 0 0 0 1132.37 1855.62 C 1174.19 1851.56 1189.62 1831.09 1214.94 1800.39 C 1247.83 1803.66 1331.66 1816.65 1352.69 1841.18 C 1355.19 1844.1 1356.91 1847.55 1356.51 1851.49 C 1355.87 1857.71 1350.56 1862.49 1345.85 1865.98 C 1285.71 1910.46 1029.7 1916.55 944.171 1916.42 A 3923.51 3923.51 0 0 1 709.119 1907.44 C 678.669 1905.07 647.137 1900.63 617.007 1895.57 C 591.013 1891.2 497.723 1875.9 482.223 1854.55 C 480.375 1852.01 479.291 1848.93 479.946 1845.75 C 481.419 1838.62 489.416 1833.23 495.364 1830.09 C 526.788 1813.46 585.235 1807.85 621.062 1807.74 C 626.786 1801.31 633.725 1795.74 640.167 1790.02 C 652.152 1738.87 633.871 1682.64 621.448 1633.1 z"/>
<path transform="translate(0,0)" fill="rgb(55,21,24)" d="M 632.492 1862.52 C 633.675 1862.42 634.848 1862.29 636.028 1862.17 C 643.721 1861.36 647.175 1859.12 652.797 1854.09 C 652.88 1862.33 652.822 1869.04 656.641 1876.58 C 648.828 1874.65 641.394 1871.52 633.54 1869.78 L 632.492 1862.52 z"/>
<path transform="translate(0,0)" fill="rgb(55,21,24)" d="M 965.069 1865.13 C 976.787 1871.21 991.423 1855.02 1001.86 1855.1 C 996.738 1866.93 988.413 1874.86 976.406 1879.53 C 972.615 1881.01 968.599 1881.99 964.733 1883.27 C 965.209 1877.26 965.04 1871.16 965.069 1865.13 z"/>
<path transform="translate(0,0)" fill="rgb(55,21,24)" d="M 816.869 1732 C 823.365 1733.23 834.914 1742.48 841.843 1745.71 C 854.661 1751.67 867.595 1756.07 881.19 1759.84 C 884.946 1762.95 884.845 1775.22 885.31 1780.28 C 886.101 1788.89 891.85 1825.15 891.009 1829.36 C 872.371 1833.94 806.797 1842.19 789.912 1836.33 L 787.206 1836.02 C 778.63 1834.23 769.871 1831.72 763.431 1825.42 C 757.142 1819.26 755.834 1812.19 755.703 1803.74 C 765.073 1763.58 797.649 1771.69 816.869 1732 z"/>
<path transform="translate(0,0)" fill="rgb(0,0,0)" d="M 824.847 1773.86 C 811.104 1782.7 797.161 1788.72 793.716 1806.57 C 791.973 1815.61 795.746 1827.56 792.841 1835.85 L 789.912 1836.33 L 787.206 1836.02 C 782.785 1826.56 783.03 1816.89 786.45 1807.06 C 791.096 1793.69 801.252 1783.68 813.926 1777.79 C 817.462 1776.15 821.123 1774.98 824.847 1773.86 z"/>
<path transform="translate(0,0)" fill="rgb(82,39,42)" d="M 621.448 1633.1 C 624.843 1632.64 648.747 1645.17 654.59 1647.27 C 675.872 1654.91 698.479 1660.25 720.758 1664.06 C 730.499 1665.73 743.844 1665.23 752.753 1668.69 L 753.423 1669.67 C 754.617 1664.65 754.444 1658.34 755.049 1653.14 C 771.607 1681.87 790.123 1711.65 816.869 1732 C 797.649 1771.69 765.073 1763.58 755.703 1803.74 C 750.061 1803.06 743.525 1803.28 738.256 1801.16 C 733.125 1823.43 723.208 1854.01 702.642 1866.82 C 690.555 1874.35 677.446 1875.54 663.698 1877.11 L 656.641 1876.58 C 652.822 1869.04 652.88 1862.33 652.797 1854.09 C 647.175 1859.12 643.721 1861.36 636.028 1862.17 C 634.848 1862.29 633.675 1862.42 632.492 1862.52 L 633.54 1869.78 L 626.01 1867.62 C 625.164 1867.12 624.309 1866.63 623.505 1866.06 C 615.906 1860.71 610.862 1851.6 609.685 1842.46 C 607.968 1829.15 613.184 1818.02 621.062 1807.74 C 626.786 1801.31 633.725 1795.74 640.167 1790.02 C 652.152 1738.87 633.871 1682.64 621.448 1633.1 z"/>
<path transform="translate(0,0)" fill="rgb(0,0,0)" d="M 626.01 1867.62 C 625.393 1865.63 624.804 1863.63 624.375 1861.59 C 621.398 1847.41 623.586 1826.02 631.805 1813.91 C 639.412 1802.7 649.418 1794.42 662.997 1792.11 L 663.341 1793.25 L 663.651 1792.83 C 653.099 1797.09 643.968 1804.24 637.908 1813.99 C 628.933 1828.42 628.697 1845.13 632.201 1861.23 L 632.492 1862.52 L 633.54 1869.78 L 626.01 1867.62 z"/>
<path transform="translate(0,0)" fill="rgb(0,0,0)" d="M 652.797 1854.09 C 656.033 1834.25 662.869 1818.35 679.621 1806.37 C 685.221 1802.37 691.156 1799.37 697.512 1796.74 C 681.664 1807.41 667.658 1817.95 663.8 1837.91 C 660.86 1853.12 664.965 1864.4 663.698 1877.11 L 656.641 1876.58 C 652.822 1869.04 652.88 1862.33 652.797 1854.09 z"/>
<path transform="translate(0,0)" fill="rgb(217,203,176)" d="M 755.049 1653.14 C 771.607 1681.87 790.123 1711.65 816.869 1732 C 797.649 1771.69 765.073 1763.58 755.703 1803.74 C 750.061 1803.06 743.525 1803.28 738.256 1801.16 C 747.546 1757.9 750.815 1713.75 753.423 1669.67 C 754.617 1664.65 754.444 1658.34 755.049 1653.14 z"/>
<path transform="translate(0,0)" fill="rgb(215,85,33)" d="M 1826.01 1116.44 C 1831.33 1132.64 1833.68 1158.42 1836.69 1175.93 C 1855.86 1287.44 1848.85 1390.56 1797.26 1492.74 A 422.919 422.919 0 0 1 1551.76 1705.26 C 1464.66 1733.82 1364.88 1727.77 1281.05 1691.09 C 1280.68 1686.57 1292.71 1652.5 1294.54 1643.63 C 1303.31 1601.12 1304.27 1555.12 1298.57 1512.19 C 1296.77 1498.7 1295.32 1484.26 1292.09 1471.05 C 1286.04 1446.29 1275.18 1419.02 1265.41 1395.51 C 1261.6 1386.35 1245.77 1361.74 1246.71 1353.61 C 1260.16 1376.33 1269.78 1400.18 1279.21 1424.77 C 1282.77 1434.07 1286.83 1454.82 1292.24 1461.91 C 1302.22 1484 1306.62 1512.05 1309.36 1536.1 C 1310.85 1549.15 1310.81 1564.93 1315.94 1577.12 C 1318.72 1583.75 1324.65 1587.51 1331.17 1590.1 C 1366.27 1604.05 1449.31 1578.19 1484.54 1562.98 C 1558.64 1531.01 1634.12 1471.43 1677.93 1403.23 C 1698.85 1370.65 1715.07 1332.49 1727.52 1295.9 A 693.085 693.085 0 0 0 1743.98 1237.88 C 1746.86 1225.61 1748.4 1211.36 1753.17 1199.78 C 1753.29 1199.48 1753.43 1199.18 1753.56 1198.88 L 1755.77 1190.84 C 1758.79 1170.87 1760.95 1150.47 1760.93 1130.26 C 1774.76 1154.64 1791.28 1176.13 1813.03 1193.9 C 1812.28 1169.12 1814.27 1138.72 1826.01 1116.44 z"/>
<path transform="translate(0,0)" fill="rgb(82,39,42)" d="M 239.187 153.084 C 253.094 168.717 268.289 183.159 286.217 194.117 C 318.977 214.141 358.986 224.543 395.759 234.534 C 497.875 262.277 580.54 291.752 648.716 377.601 C 596.255 400.913 543.407 428.208 502.201 469.153 C 493.585 478.227 484.894 487.265 476.742 496.762 C 469.349 505.374 461.974 517.32 453.044 524.124 C 448.079 535.127 437.94 545.992 431.1 556.155 C 418.284 575.194 407.343 595.471 394.353 614.338 C 385.093 627.787 373.741 639.641 364.465 652.932 C 357.176 662.155 348.906 670.252 340.251 678.182 C 281.918 635.635 243.213 556.777 224.288 488.327 C 197.465 391.312 187.874 243.688 239.187 153.084 z"/>
<path transform="translate(0,0)" fill="rgb(240,161,112)" d="M 251.831 245.306 L 252.354 241.546 C 254.72 240.2 255.649 240.432 258.258 241.184 C 341.697 265.209 417.438 332.795 465.025 403.967 C 478.988 424.85 488.55 448.226 502.201 469.153 C 493.585 478.227 484.894 487.265 476.742 496.762 C 469.349 505.374 461.974 517.32 453.044 524.124 C 448.079 535.127 437.94 545.992 431.1 556.155 C 418.284 575.194 407.343 595.471 394.353 614.338 C 385.093 627.787 373.741 639.641 364.465 652.932 A 84.1569 84.1569 0 0 1 362.748 651.229 C 281.703 567.496 249.9 444.789 247.96 331.1 C 247.445 300.923 251.183 274.43 251.831 245.306 z"/>
<path transform="translate(0,0)" fill="rgb(215,85,33)" d="M 251.831 245.306 L 252.354 241.546 C 254.72 240.2 255.649 240.432 258.258 241.184 C 341.697 265.209 417.438 332.795 465.025 403.967 C 478.988 424.85 488.55 448.226 502.201 469.153 C 493.585 478.227 484.894 487.265 476.742 496.762 C 469.349 505.374 461.974 517.32 453.044 524.124 A 58.2735 58.2735 0 0 0 432.411 521.135 C 409.644 521.769 390.141 532.985 374.884 549.277 C 380.174 536.079 385.855 523.692 395.941 513.402 C 410.18 498.877 426.578 496.004 446.068 495.824 C 421.867 467.219 385.703 458.353 350.209 453.14 C 362.395 451.131 374.641 449.31 387.006 448.997 C 414.868 448.292 447.913 454.915 468.684 474.805 C 429.193 392.459 333.009 287.826 251.831 245.306 z"/>
<path transform="translate(0,0)" fill="rgb(230,115,49)" d="M 1514.35 1032.65 C 1514.23 1032.42 1514.02 1032.21 1513.98 1031.95 C 1513.2 1026.98 1522.91 1012.79 1525.95 1007.76 C 1567.74 938.609 1654.41 870.61 1726.79 835.803 A 438.328 438.328 0 0 1 1808.08 806.781 C 1821.92 803.4 1888.22 790.609 1898.19 796.656 L 1896.31 798.461 C 1896.18 798.711 1896.05 798.963 1895.91 799.211 C 1886.77 815.684 1872.47 829.817 1862.53 846.067 C 1827.61 903.169 1816.38 971.175 1818.28 1037.32 C 1818.68 1051.17 1819.54 1065.26 1821.16 1079.01 C 1822.41 1089.55 1827.17 1106.67 1826.01 1116.44 C 1814.27 1138.72 1812.28 1169.12 1813.03 1193.9 C 1791.28 1176.13 1774.76 1154.64 1760.93 1130.26 C 1760.95 1150.47 1758.79 1170.87 1755.77 1190.84 L 1753.56 1198.88 C 1753.43 1199.18 1753.29 1199.48 1753.17 1199.78 C 1748.4 1211.36 1746.86 1225.61 1743.98 1237.88 A 693.085 693.085 0 0 1 1727.52 1295.9 C 1715.07 1332.49 1698.85 1370.65 1677.93 1403.23 C 1634.12 1471.43 1558.64 1531.01 1484.54 1562.98 C 1449.31 1578.19 1366.27 1604.05 1331.17 1590.1 C 1324.65 1587.51 1318.72 1583.75 1315.94 1577.12 C 1310.81 1564.93 1310.85 1549.15 1309.36 1536.1 C 1306.62 1512.05 1302.22 1484 1292.24 1461.91 C 1309.63 1451.19 1324.75 1433.3 1337.06 1417.27 C 1378.8 1362.94 1402.7 1297.36 1424.01 1233 C 1445.7 1167.52 1467.29 1084.75 1514.35 1032.65 z"/>
<path transform="translate(0,0)" fill="rgb(254,245,230)" d="M 1514.35 1032.65 C 1514.23 1032.42 1514.02 1032.21 1513.98 1031.95 C 1513.2 1026.98 1522.91 1012.79 1525.95 1007.76 C 1567.74 938.609 1654.41 870.61 1726.79 835.803 A 438.328 438.328 0 0 1 1808.08 806.781 C 1821.92 803.4 1888.22 790.609 1898.19 796.656 L 1896.31 798.461 C 1896.18 798.711 1896.05 798.963 1895.91 799.211 C 1886.77 815.684 1872.47 829.817 1862.53 846.067 C 1827.61 903.169 1816.38 971.175 1818.28 1037.32 C 1818.68 1051.17 1819.54 1065.26 1821.16 1079.01 C 1822.41 1089.55 1827.17 1106.67 1826.01 1116.44 C 1814.27 1138.72 1812.28 1169.12 1813.03 1193.9 C 1791.28 1176.13 1774.76 1154.64 1760.93 1130.26 C 1760.95 1150.47 1758.79 1170.87 1755.77 1190.84 L 1753.56 1198.88 C 1723.82 1168.19 1708.84 1145.38 1706.02 1101.99 C 1680.92 1133.87 1665.35 1165.45 1652.04 1203.44 C 1649.7 1210.12 1644.81 1231.09 1642.74 1234.61 C 1632.08 1203.52 1638.6 1118.04 1647.41 1086.15 A 171.84 171.84 0 0 0 1578.39 1155.23 C 1573.26 1164.6 1569.45 1174.54 1564.69 1184.08 C 1565.5 1141.03 1572.49 1101.97 1586.38 1061.21 C 1540.88 1080.81 1519.74 1106.07 1492.83 1145.88 C 1504.38 1104.44 1525.08 1044.52 1550.3 1010.4 C 1536.43 1016.33 1525.57 1022.51 1514.35 1032.65 z"/>
<path transform="translate(0,0)" fill="rgb(247,208,172)" d="M 1755.77 1190.84 L 1754.91 1189.01 C 1753 1188.7 1753.96 1188.91 1752.01 1188.36 C 1751.81 1188.01 1751.58 1187.68 1751.42 1187.31 C 1747.62 1178.69 1749.7 1156.26 1749.76 1146.44 C 1750.13 1081.68 1751.24 1027.47 1773.09 965.519 A 364.406 364.406 0 0 1 1859.51 826.813 C 1870.48 816.015 1882.29 805.168 1896.31 798.461 C 1896.18 798.711 1896.05 798.963 1895.91 799.211 C 1886.77 815.684 1872.47 829.817 1862.53 846.067 C 1827.61 903.169 1816.38 971.175 1818.28 1037.32 C 1818.68 1051.17 1819.54 1065.26 1821.16 1079.01 C 1822.41 1089.55 1827.17 1106.67 1826.01 1116.44 C 1814.27 1138.72 1812.28 1169.12 1813.03 1193.9 C 1791.28 1176.13 1774.76 1154.64 1760.93 1130.26 C 1760.95 1150.47 1758.79 1170.87 1755.77 1190.84 z"/>
<path transform="translate(0,0)" fill="rgb(230,115,49)" d="M 1002.46 1096.95 C 1019.22 1114.97 1043.84 1129.16 1063 1145.02 C 1124.65 1196.06 1182.21 1251.62 1226.35 1318.83 C 1233.24 1329.34 1242.4 1341.9 1246.71 1353.61 C 1245.77 1361.74 1261.6 1386.35 1265.41 1395.51 C 1275.18 1419.02 1286.04 1446.29 1292.09 1471.05 C 1295.32 1484.26 1296.77 1498.7 1298.57 1512.19 C 1304.27 1555.12 1303.31 1601.12 1294.54 1643.63 C 1292.71 1652.5 1280.68 1686.57 1281.05 1691.09 C 1275.94 1699.8 1272.38 1709.77 1267.86 1718.88 A 335.67 335.67 0 0 1 1231.36 1777.35 C 1226.04 1785.14 1220.78 1792.96 1214.94 1800.39 C 1189.62 1831.09 1174.19 1851.56 1132.37 1855.62 A 396.027 396.027 0 0 1 1114.34 1856.95 C 1104.3 1857.16 1094.34 1857.45 1084.33 1858.24 C 1079.27 1860.03 1077.05 1860.01 1072.06 1858.33 C 1065.55 1857.57 1058.35 1857.04 1052.6 1853.65 C 1049.86 1852.41 1047.59 1851.23 1045.44 1849.08 C 1038.27 1841.9 1037.08 1831.73 1037.03 1822.09 C 1036.76 1815.78 1038.2 1809.96 1040.09 1804.01 A 430.968 430.968 0 0 0 993.439 1803.04 C 1001.86 1815.63 1006.91 1833.55 1003.91 1848.6 C 1003.46 1850.86 1002.72 1852.98 1001.86 1855.1 C 991.423 1855.02 976.787 1871.21 965.069 1865.13 C 965.04 1871.16 965.209 1877.26 964.733 1883.27 C 962.463 1883.76 960.18 1884.35 957.888 1884.72 C 942.37 1885.35 928.386 1885.94 915.133 1876.28 C 902.392 1866.99 895.067 1852.34 892.664 1837.02 C 891.678 1834.81 891.467 1831.76 891.009 1829.36 C 891.85 1825.15 886.101 1788.89 885.31 1780.28 C 884.845 1775.22 884.946 1762.95 881.19 1759.84 C 867.595 1756.07 854.661 1751.67 841.843 1745.71 C 834.914 1742.48 823.365 1733.23 816.869 1732 C 790.123 1711.65 771.607 1681.87 755.049 1653.14 C 754.444 1658.34 754.617 1664.65 753.423 1669.67 L 752.753 1668.69 C 743.844 1665.23 730.499 1665.73 720.758 1664.06 C 698.479 1660.25 675.872 1654.91 654.59 1647.27 C 648.747 1645.17 624.843 1632.64 621.448 1633.1 C 612.673 1599.96 602.674 1567.14 593.831 1534.02 A 1324.92 1324.92 0 0 1 560.62 1373.33 C 555.211 1333.74 552.033 1295.3 555.541 1255.41 C 557.958 1227.91 563.784 1201.19 571.18 1174.65 C 579.477 1146.06 590.457 1123.21 607.321 1098.76 L 615.943 1102.19 C 742.739 1144.88 851.985 1148.93 978.953 1105.4 C 986.92 1102.87 994.854 1100.45 1002.46 1096.95 z"/>
<path transform="translate(0,0)" fill="rgb(248,227,205)" d="M 1023.71 1577.65 C 1027.68 1625.94 1036.97 1675.11 1067.05 1714.55 C 1052.81 1714.64 1008.58 1706.96 993.315 1703.35 L 992.446 1701.19 C 994.492 1680.74 1000.24 1659.97 1005.32 1640.11 C 1010.01 1618.67 1017.22 1598.53 1023.71 1577.65 z"/>
<path transform="translate(0,0)" fill="rgb(247,208,172)" d="M 794.569 1559.81 C 808.1 1538.38 830.463 1516.8 850.847 1501.82 C 851.4 1512.83 852.948 1523.71 854.105 1534.67 C 857.185 1571.09 864.009 1606.98 867.478 1643.26 C 868.242 1646.73 868.441 1650.25 868.73 1653.79 C 871.284 1674.82 874.856 1696.2 876.371 1717.29 C 877.247 1724.32 883.27 1755.56 881.19 1759.84 C 867.595 1756.07 854.661 1751.67 841.843 1745.71 C 834.914 1742.48 823.365 1733.23 816.869 1732 C 790.123 1711.65 771.607 1681.87 755.049 1653.14 C 754.514 1646.02 755.521 1638.99 756.303 1631.91 C 757.825 1622.41 757.977 1612.07 758.803 1602.44 C 760.525 1582.32 762.54 1562 762.859 1541.81 A 809.324 809.324 0 0 1 763.391 1521.89 C 774.217 1529.44 787.173 1548.49 794.569 1559.81 z"/>
<path transform="translate(0,0)" fill="rgb(254,245,230)" d="M 791.428 1583.44 C 813.796 1572.65 835.392 1550.9 854.105 1534.67 C 857.185 1571.09 864.009 1606.98 867.478 1643.26 L 867.002 1645.17 L 865.129 1645.61 C 845.447 1637.81 805.134 1600.45 791.428 1583.44 z"/>
<path transform="translate(0,0)" fill="rgb(215,85,33)" d="M 756.303 1631.91 C 791.653 1668.05 830.123 1696.49 876.371 1717.29 C 877.247 1724.32 883.27 1755.56 881.19 1759.84 C 867.595 1756.07 854.661 1751.67 841.843 1745.71 C 834.914 1742.48 823.365 1733.23 816.869 1732 C 790.123 1711.65 771.607 1681.87 755.049 1653.14 C 754.514 1646.02 755.521 1638.99 756.303 1631.91 z"/>
<path transform="translate(0,0)" fill="rgb(82,39,42)" d="M 1005.32 1640.11 C 1000.24 1659.97 994.492 1680.74 992.446 1701.19 C 989.523 1715.07 988.14 1729.44 986.517 1743.52 L 986.228 1745.35 C 983.139 1769.41 978.244 1781.63 993.439 1803.04 C 1001.86 1815.63 1006.91 1833.55 1003.91 1848.6 C 1003.46 1850.86 1002.72 1852.98 1001.86 1855.1 C 991.423 1855.02 976.787 1871.21 965.069 1865.13 C 965.04 1871.16 965.209 1877.26 964.733 1883.27 C 962.463 1883.76 960.18 1884.35 957.888 1884.72 C 942.37 1885.35 928.386 1885.94 915.133 1876.28 C 902.392 1866.99 895.067 1852.34 892.664 1837.02 C 891.678 1834.81 891.467 1831.76 891.009 1829.36 C 891.85 1825.15 886.101 1788.89 885.31 1780.28 C 884.845 1775.22 884.946 1762.95 881.19 1759.84 C 883.27 1755.56 877.247 1724.32 876.371 1717.29 C 874.856 1696.2 871.284 1674.82 868.73 1653.79 C 911.49 1664.19 963.95 1653.75 1005.32 1640.11 z"/>
<path transform="translate(0,0)" fill="rgb(0,0,0)" d="M 932.947 1787.57 C 935.711 1789.12 938.111 1790.78 940.378 1793.01 C 958.942 1811.34 964.893 1840.06 965.069 1865.13 C 965.04 1871.16 965.209 1877.26 964.733 1883.27 C 962.463 1883.76 960.18 1884.35 957.888 1884.72 L 956.176 1882.96 C 955.359 1877.54 955.921 1871.99 956.182 1866.53 C 957.147 1861.9 957.277 1856.88 957.534 1852.16 C 958.881 1827.41 949.183 1805.75 932.947 1787.57 z"/>
<path transform="translate(0,0)" fill="rgb(55,21,24)" d="M 892.664 1837.02 C 895.981 1838.7 896.588 1842.29 898.301 1845.51 C 911.772 1870.86 930.441 1873.5 956.182 1866.53 C 955.921 1871.99 955.359 1877.54 956.176 1882.96 L 957.888 1884.72 C 942.37 1885.35 928.386 1885.94 915.133 1876.28 C 902.392 1866.99 895.067 1852.34 892.664 1837.02 z"/>
<path transform="translate(0,0)" fill="rgb(82,39,42)" d="M 986.517 1743.52 C 988.14 1729.44 989.523 1715.07 992.446 1701.19 L 993.315 1703.35 C 1008.58 1706.96 1052.81 1714.64 1067.05 1714.55 C 1072.15 1720.75 1077.1 1727.78 1082.92 1733.28 C 1129.99 1730.51 1192.75 1742.93 1228.77 1774.87 A 50.3004 50.3004 0 0 1 1231.36 1777.35 C 1226.04 1785.14 1220.78 1792.96 1214.94 1800.39 C 1189.62 1831.09 1174.19 1851.56 1132.37 1855.62 A 396.027 396.027 0 0 1 1114.34 1856.95 C 1104.3 1857.16 1094.34 1857.45 1084.33 1858.24 C 1079.27 1860.03 1077.05 1860.01 1072.06 1858.33 C 1065.55 1857.57 1058.35 1857.04 1052.6 1853.65 C 1049.86 1852.41 1047.59 1851.23 1045.44 1849.08 C 1038.27 1841.9 1037.08 1831.73 1037.03 1822.09 C 1036.76 1815.78 1038.2 1809.96 1040.09 1804.01 A 430.968 430.968 0 0 0 993.439 1803.04 C 978.244 1781.63 983.139 1769.41 986.228 1745.35 L 986.517 1743.52 z"/>
<path transform="translate(0,0)" fill="rgb(55,21,24)" d="M 1082.63 1849.67 C 1091.72 1852.99 1108.89 1851.52 1115.29 1855.69 L 1114.34 1856.95 C 1104.3 1857.16 1094.34 1857.45 1084.33 1858.24 L 1082.63 1849.67 z"/>
<path transform="translate(0,0)" fill="rgb(0,0,0)" d="M 1072.06 1858.33 A 60.8373 60.8373 0 0 1 1070.86 1856.34 C 1066.03 1847.91 1066.21 1837.64 1068.78 1828.49 C 1073.76 1810.81 1087.01 1795.31 1102.86 1786.41 C 1098.07 1791.18 1093.68 1796.11 1089.92 1801.76 C 1079.35 1817.63 1078.86 1831.58 1082.63 1849.67 L 1084.33 1858.24 C 1079.27 1860.03 1077.05 1860.01 1072.06 1858.33 z"/>
<path transform="translate(0,0)" fill="rgb(0,0,0)" d="M 1090.72 1765.78 C 1099.44 1764.27 1108 1762.94 1116.88 1763.19 C 1117.2 1763.32 1117.51 1763.46 1117.84 1763.57 C 1121.3 1764.73 1125.35 1765.19 1128.97 1765.54 C 1123.56 1766.67 1117.54 1766.63 1111.96 1767.56 C 1089.6 1771.27 1065.1 1779.85 1051.8 1799.57 C 1044.95 1809.73 1041.75 1823.62 1044.56 1835.69 C 1046.03 1841.99 1049.37 1847.14 1052.31 1852.73 C 1052.46 1853.01 1052.5 1853.34 1052.6 1853.65 C 1049.86 1852.41 1047.59 1851.23 1045.44 1849.08 C 1038.27 1841.9 1037.08 1831.73 1037.03 1822.09 C 1036.76 1815.78 1038.2 1809.96 1040.09 1804.01 C 1040.87 1802.22 1041.74 1800.58 1042.72 1798.9 C 1053.23 1780.88 1070.02 1771.39 1089.76 1766.16 L 1090.72 1765.78 z"/>
<path transform="translate(0,0)" fill="rgb(55,21,24)" d="M 1040.09 1804.01 C 1040.87 1802.22 1041.74 1800.58 1042.72 1798.9 C 1053.23 1780.88 1070.02 1771.39 1089.76 1766.16 C 1089.39 1767.8 1089.65 1768.96 1088.13 1769.89 C 1084.13 1772.35 1079.18 1773.54 1074.98 1775.8 A 78.7826 78.7826 0 0 0 1044.45 1805.97 C 1041.55 1811.08 1040.11 1817.26 1037.03 1822.09 C 1036.76 1815.78 1038.2 1809.96 1040.09 1804.01 z"/>
<path transform="translate(0,0)" fill="rgb(247,208,172)" d="M 986.517 1743.52 C 988.14 1729.44 989.523 1715.07 992.446 1701.19 L 993.315 1703.35 C 1008.58 1706.96 1052.81 1714.64 1067.05 1714.55 C 1072.15 1720.75 1077.1 1727.78 1082.92 1733.28 C 1089.69 1740.96 1096.45 1747.82 1104.78 1753.82 C 1108.79 1756.28 1114.25 1758.81 1117.3 1762.38 L 1116.88 1763.19 C 1108 1762.94 1099.44 1764.27 1090.72 1765.78 L 1089.76 1766.16 C 1070.02 1771.39 1053.23 1780.88 1042.72 1798.9 C 1041.74 1800.58 1040.87 1802.22 1040.09 1804.01 A 430.968 430.968 0 0 0 993.439 1803.04 C 978.244 1781.63 983.139 1769.41 986.228 1745.35 L 986.517 1743.52 z"/>
<path transform="translate(0,0)" fill="rgb(240,161,112)" d="M 986.228 1745.35 L 986.517 1743.52 C 1004.27 1746.64 1022.27 1750.38 1040.22 1752.01 C 1060.66 1753.87 1081.54 1753.54 1102.08 1754.56 C 1103.57 1754.63 1103.13 1754.56 1104.78 1753.82 C 1108.79 1756.28 1114.25 1758.81 1117.3 1762.38 L 1116.88 1763.19 C 1108 1762.94 1099.44 1764.27 1090.72 1765.78 L 1092.24 1763.77 C 1089 1759.85 1074.22 1761.29 1069.08 1761.16 C 1041.73 1760.51 1012.26 1753.54 986.228 1745.35 z"/>
<path transform="translate(0,0)" fill="rgb(217,203,176)" d="M 986.228 1745.35 C 1012.26 1753.54 1041.73 1760.51 1069.08 1761.16 C 1074.22 1761.29 1089 1759.85 1092.24 1763.77 L 1090.72 1765.78 L 1089.76 1766.16 C 1070.02 1771.39 1053.23 1780.88 1042.72 1798.9 C 1041.74 1800.58 1040.87 1802.22 1040.09 1804.01 A 430.968 430.968 0 0 0 993.439 1803.04 C 978.244 1781.63 983.139 1769.41 986.228 1745.35 z"/>
<path transform="translate(0,0)" fill="rgb(254,245,230)" d="M 607.321 1098.76 L 615.943 1102.19 C 742.739 1144.88 851.985 1148.93 978.953 1105.4 C 984.274 1117.07 1000.25 1128.91 1006.91 1141.61 C 1017.23 1155.33 1023.94 1168.57 1027.8 1185.29 C 1021.91 1181.26 1004.39 1167.41 997.835 1168.43 C 998.545 1170.34 999.161 1170.77 1000.68 1171.94 C 1009.34 1178.65 1014.46 1215.2 1015.53 1226.25 C 1020.39 1276.52 1003.23 1324.35 973.88 1364.69 C 972.926 1348.71 971.245 1334.27 965.726 1319.06 C 960.19 1378.35 923.039 1429.45 882.562 1471.01 C 872.285 1481.56 860.911 1491.08 850.847 1501.82 C 830.463 1516.8 808.1 1538.38 794.569 1559.81 C 787.173 1548.49 774.217 1529.44 763.391 1521.89 A 809.324 809.324 0 0 0 762.859 1541.81 C 762.54 1562 760.525 1582.32 758.803 1602.44 C 757.977 1612.07 757.825 1622.41 756.303 1631.91 C 755.521 1638.99 754.514 1646.02 755.049 1653.14 C 754.444 1658.34 754.617 1664.65 753.423 1669.67 L 752.753 1668.69 C 743.844 1665.23 730.499 1665.73 720.758 1664.06 C 698.479 1660.25 675.872 1654.91 654.59 1647.27 C 648.747 1645.17 624.843 1632.64 621.448 1633.1 C 612.673 1599.96 602.674 1567.14 593.831 1534.02 A 1324.92 1324.92 0 0 1 560.62 1373.33 C 555.211 1333.74 552.033 1295.3 555.541 1255.41 C 557.958 1227.91 563.784 1201.19 571.18 1174.65 C 579.477 1146.06 590.457 1123.21 607.321 1098.76 z"/>
<path transform="translate(0,0)" fill="rgb(215,85,33)" d="M 607.321 1098.76 L 615.943 1102.19 C 610.561 1112.82 599.02 1126.17 592.213 1138.71 C 584.88 1152.89 579.759 1166.34 578.29 1182.32 C 590.361 1173.35 602.285 1164.5 613.064 1153.97 C 588.383 1201.47 578.187 1255.71 594.53 1307.83 C 601.584 1330.33 612.943 1351.6 630.725 1367.46 C 631.146 1353.06 632.344 1339.43 636.555 1325.6 C 654.551 1409.07 705.067 1463.48 763.391 1521.89 A 809.324 809.324 0 0 0 762.859 1541.81 L 761.941 1541.64 C 716.192 1500.51 663.348 1449.26 642.365 1390.04 C 624.861 1381.3 609.126 1368.15 598.47 1351.58 C 577.304 1318.68 574.29 1272.54 579.886 1234.87 C 582.477 1217.43 587.18 1200.73 590.871 1183.55 C 584.209 1186.11 578.758 1189.9 572.943 1193.94 C 573.305 1187.19 574.446 1180.85 571.18 1174.65 C 579.477 1146.06 590.457 1123.21 607.321 1098.76 z"/>
<path transform="translate(0,0)" fill="rgb(247,208,172)" d="M 615.943 1102.19 C 742.739 1144.88 851.985 1148.93 978.953 1105.4 C 984.274 1117.07 1000.25 1128.91 1006.91 1141.61 C 996.934 1147.49 987.18 1154.46 976.61 1159.2 C 886.787 1199.44 769.096 1195.68 676.05 1168.98 C 659.417 1164.2 643.559 1157.58 627.551 1151.09 C 616.812 1146.74 604.607 1140.43 593.166 1138.83 C 592.849 1138.78 592.531 1138.75 592.213 1138.71 C 599.02 1126.17 610.561 1112.82 615.943 1102.19 z"/>
<path transform="translate(0,0)" fill="rgb(230,115,49)" d="M 621.448 1633.1 C 612.673 1599.96 602.674 1567.14 593.831 1534.02 A 1324.92 1324.92 0 0 1 560.62 1373.33 C 555.211 1333.74 552.033 1295.3 555.541 1255.41 C 557.958 1227.91 563.784 1201.19 571.18 1174.65 C 574.446 1180.85 573.305 1187.19 572.943 1193.94 C 578.758 1189.9 584.209 1186.11 590.871 1183.55 C 587.18 1200.73 582.477 1217.43 579.886 1234.87 C 574.29 1272.54 577.304 1318.68 598.47 1351.58 C 609.126 1368.15 624.861 1381.3 642.365 1390.04 C 663.348 1449.26 716.192 1500.51 761.941 1541.64 L 762.859 1541.81 C 762.54 1562 760.525 1582.32 758.803 1602.44 C 757.977 1612.07 757.825 1622.41 756.303 1631.91 C 755.521 1638.99 754.514 1646.02 755.049 1653.14 C 754.444 1658.34 754.617 1664.65 753.423 1669.67 L 752.753 1668.69 C 743.844 1665.23 730.499 1665.73 720.758 1664.06 C 698.479 1660.25 675.872 1654.91 654.59 1647.27 C 648.747 1645.17 624.843 1632.64 621.448 1633.1 z"/>
<path transform="translate(0,0)" fill="rgb(230,115,49)" d="M 1096.64 471.604 C 1109.11 451.773 1118.96 430.646 1132.13 411.059 C 1173.71 349.259 1222.29 304.237 1284.19 263.388 C 1298.27 254.099 1312.5 244.136 1327.6 236.618 C 1329.15 240.363 1330.35 244.029 1331.39 247.95 C 1363.15 359.528 1334.16 495.535 1278.69 595.096 C 1267.14 615.822 1253.25 640.183 1235.6 656.091 C 1242.91 666.739 1250.07 676.979 1259.15 686.24 C 1294.67 716.568 1337.18 738.478 1383.75 744.764 C 1391.44 745.803 1400.19 747.167 1407.94 746.64 L 1411.43 747.29 C 1411.69 750.068 1406.58 755.78 1404.67 758.092 C 1387.02 779.451 1363.74 788.769 1336.59 791.031 C 1324.17 792.065 1311.78 791.261 1299.37 790.611 C 1321.29 806.777 1340.8 824.368 1352.44 849.691 C 1359.78 860.351 1370.64 884.784 1371.03 897.656 C 1363.23 889.195 1355.16 881.732 1346.01 874.74 L 1344.86 875.48 C 1335.98 881.122 1325.92 885.059 1316.6 889.974 C 1295.63 901.029 1274.76 912.445 1254.77 925.193 C 1233 939.072 1212.83 956.691 1191.77 971.825 C 1154.99 998.26 1116.86 1023.49 1080.46 1050.33 C 1070.01 1058.03 1032.51 1077.18 1028.01 1087 C 1019.53 1090.27 1010.75 1093.24 1002.46 1096.95 C 994.854 1100.45 986.92 1102.87 978.953 1105.4 C 851.985 1148.93 742.739 1144.88 615.943 1102.19 L 607.321 1098.76 C 594.822 1092.16 580.361 1087.6 567.33 1081.95 A 787.119 787.119 0 0 1 497.223 1047.1 A 872.369 872.369 0 0 1 417.235 996.486 C 399.357 983.563 382.033 968.698 363.639 956.722 L 362.893 956.244 C 352.765 955.591 322.669 938.688 311.155 933.547 C 299.33 928.268 285.769 922.61 273.145 919.633 C 262.982 917.236 233.952 916.948 227.751 913.295 C 226.569 913.909 227.299 913.721 225.489 913.34 L 225.181 910.125 C 224.114 899.696 227.208 887.992 230.029 877.997 C 241.627 836.912 261.44 821.609 297.084 801.486 L 296.76 800.559 C 279.711 802.246 264.334 799.481 248.251 794.123 C 222.105 785.414 196.102 765.983 183.575 740.906 L 184.9 739.845 A 214.666 214.666 0 0 0 199.479 739.88 C 252.501 738.252 303.732 717.136 340.251 678.182 C 348.906 670.252 357.176 662.155 364.465 652.932 C 373.741 639.641 385.093 627.787 394.353 614.338 C 407.343 595.471 418.284 575.194 431.1 556.155 C 437.94 545.992 448.079 535.127 453.044 524.124 C 461.974 517.32 469.349 505.374 476.742 496.762 C 484.894 487.265 493.585 478.227 502.201 469.153 C 543.407 428.208 596.255 400.913 648.716 377.601 A 869.894 869.894 0 0 1 671.428 369.667 C 741.357 346.75 814.487 344.975 886.211 359.395 C 905.737 363.32 926.464 367.72 944.288 376.794 C 989.828 395.059 1030.88 419.552 1069.8 449.333 C 1078.78 456.203 1088.96 463.301 1096.64 471.604 z"/>
<path transform="translate(0,0)" fill="rgb(215,85,33)" d="M 296.76 800.559 C 279.711 802.246 264.334 799.481 248.251 794.123 C 222.105 785.414 196.102 765.983 183.575 740.906 L 184.9 739.845 C 225.595 771.328 271.597 791.887 324.157 785.22 A 241.429 241.429 0 0 0 355.35 778.886 C 342.149 786.872 329.744 790.812 314.961 794.941 C 309.446 796.482 301.608 797.595 296.76 800.559 z"/>
<path transform="translate(0,0)" fill="rgb(215,85,33)" d="M 1407.94 746.64 L 1411.43 747.29 C 1411.69 750.068 1406.58 755.78 1404.67 758.092 C 1387.02 779.451 1363.74 788.769 1336.59 791.031 C 1324.17 792.065 1311.78 791.261 1299.37 790.611 C 1321.29 806.777 1340.8 824.368 1352.44 849.691 C 1352.25 849.63 1352.06 849.588 1351.88 849.507 C 1346.47 847.023 1329.71 825.19 1323.18 819.232 C 1301.36 799.352 1275.51 784.333 1253.09 764.961 C 1264.14 767.961 1275.21 771.101 1286.43 773.407 C 1332.09 782.791 1369.69 771.726 1407.94 746.64 z"/>
<path transform="translate(0,0)" fill="rgb(254,245,230)" d="M 611.24 584.422 C 626.2 584.84 639.597 588.523 651.179 598.421 C 660.03 605.985 666.601 616.848 667.459 628.622 C 667.893 634.59 666.658 640.45 662.568 644.997 C 655.89 652.419 645.648 653.978 636.211 654.275 C 622.146 652.787 608.74 649.018 597.227 640.485 C 588.584 634.079 581.955 625.09 580.486 614.238 C 579.579 607.535 580.657 600.978 585.096 595.689 C 591.735 587.777 601.419 585.15 611.24 584.422 z"/>
<path transform="translate(0,0)" fill="rgb(254,245,230)" d="M 979.494 585.233 C 989.081 584.648 999.828 586.285 1008.14 591.329 C 1013.56 594.625 1017.45 599.575 1018.88 605.813 C 1020.75 614.012 1018.38 622.484 1013.67 629.289 C 1003.68 643.709 986.848 650.224 970.232 652.933 C 960.437 653.296 949.813 653.831 941.008 648.735 C 935.781 645.71 932.168 640.939 930.969 634.995 C 929.171 626.084 932.476 616.811 937.526 609.531 C 947.37 595.339 962.931 588.015 979.494 585.233 z"/>
<path transform="translate(0,0)" fill="rgb(0,0,0)" d="M 670.376 811.878 C 667.449 816.951 665.315 822.472 662.327 827.546 C 652.248 844.663 636.588 857.042 617.187 861.816 A 73.3612 73.3612 0 0 1 561.138 852.767 A 84.5301 84.5301 0 0 1 524.014 799.578 A 74.57 74.57 0 0 1 534.301 743.326 C 544.545 727.677 561.854 715.425 580.235 711.623 A 72.6386 72.6386 0 0 1 635.78 723.007 C 657.401 737.692 668.351 761.023 673.204 786.052 C 673.118 794.944 671.875 803.145 670.376 811.878 z"/>
<path transform="translate(0,0)" fill="rgb(254,245,230)" d="M 572.678 798.943 C 576.68 799.141 581.142 799.741 583.784 803.178 C 585.367 805.238 585.737 807.408 585.045 809.898 C 584.214 812.888 581.443 814.519 579.024 816.101 C 576.112 816.042 573.167 815.69 570.741 813.943 C 568.716 812.485 567.352 810.456 567.272 807.909 C 567.141 803.714 569.799 801.45 572.678 798.943 z"/>
<path transform="translate(0,0)" fill="rgb(254,245,230)" d="M 615.576 742.206 C 619.016 742.233 622.394 742.465 625.697 743.525 C 632.233 745.624 637.799 750.803 640.553 757.056 A 24.6971 24.6971 0 0 1 640.722 776.868 C 637.039 785.364 630.219 789.541 621.878 792.663 A 25.6679 25.6679 0 0 1 607.164 789.419 A 26.4327 26.4327 0 0 1 594.548 773.323 C 592.759 766.702 593.589 759.434 597.248 753.584 C 601.621 746.592 607.77 743.827 615.576 742.206 z"/>
<path transform="translate(0,0)" fill="rgb(0,0,0)" d="M 922.292 780.188 C 930.037 750.073 941.282 731.07 968.748 715.07 C 984.809 705.714 1006.58 704.792 1024.24 709.55 A 74.8295 74.8295 0 0 1 1069.9 745.29 C 1080.21 763.832 1083.18 784.529 1077.07 804.952 C 1070.55 826.727 1056.19 845.462 1036 856.204 C 1018.2 865.669 995.977 867.182 976.834 861.193 C 950.194 852.859 941.215 838.361 926.523 816.921 C 922.751 804.377 921.146 793.283 922.292 780.188 z"/>
<path transform="translate(0,0)" fill="rgb(254,245,230)" d="M 988.695 800.053 C 992.829 800.583 996.737 800.941 999.321 804.681 C 1000.85 806.891 1001.55 809.024 1000.9 811.71 C 999.911 815.812 997.011 817.588 993.621 819.536 C 992.26 819.519 990.815 819.55 989.456 819.389 C 986.131 818.995 983.631 817.717 981.789 814.815 C 980.421 812.659 980.028 810.3 980.755 807.836 C 981.989 803.656 985.024 801.878 988.695 800.053 z"/>
<path transform="translate(0,0)" fill="rgb(254,245,230)" d="M 1016.02 735.138 C 1020.62 734.997 1025.28 735.765 1029.39 737.917 C 1036.21 741.484 1041.15 747.539 1043.13 754.99 C 1045.05 762.252 1043.94 770.272 1039.8 776.585 C 1035.23 783.549 1029.18 786.271 1021.24 787.815 C 1015.35 788.179 1009.68 786.733 1004.71 783.513 C 998.698 779.62 994.662 773.351 993.203 766.372 C 991.796 759.642 992.813 752.506 996.67 746.747 C 1001.41 739.664 1007.96 736.892 1016.02 735.138 z"/>
<path transform="translate(0,0)" fill="rgb(240,161,112)" d="M 1137.97 465.583 C 1178.88 397.88 1219.57 348.084 1277.14 294.073 C 1294.23 278.038 1312.05 261.277 1331.39 247.95 C 1363.15 359.528 1334.16 495.535 1278.69 595.096 C 1267.14 615.822 1253.25 640.183 1235.6 656.091 C 1225.08 645.097 1213.31 615.521 1204.52 600.889 C 1187.48 572.501 1166.39 545.25 1144.86 520.109 C 1183.67 521.53 1204.32 526.963 1235.1 550.833 C 1230.4 540.231 1224.04 529.554 1216.52 520.695 C 1198.3 499.215 1175.09 493.44 1148.11 491.296 C 1150.8 488.782 1153.69 486.496 1156.59 484.226 C 1183.21 463.417 1211.53 455.406 1245.09 459.426 C 1233.17 453.959 1222.18 449.337 1209.01 447.611 C 1184.23 444.362 1157.88 450.36 1137.97 465.583 z"/>
<path transform="translate(0,0)" fill="rgb(254,245,230)" d="M 854.804 922.525 C 864.092 903.211 909.429 786.594 922.292 780.188 C 921.146 793.283 922.751 804.377 926.523 816.921 C 928.762 838.1 954.368 877.148 971.378 890.764 C 986.699 903.028 1005.37 908.022 1024.83 905.689 C 1062.84 901.134 1088.79 873.136 1120.8 855.513 C 1174.2 826.107 1232.56 826.678 1289.01 846.164 C 1309.28 853.164 1328.7 861.946 1346.01 874.74 L 1344.86 875.48 C 1335.98 881.122 1325.92 885.059 1316.6 889.974 C 1295.63 901.029 1274.76 912.445 1254.77 925.193 C 1233 939.072 1212.83 956.691 1191.77 971.825 C 1154.99 998.26 1116.86 1023.49 1080.46 1050.33 C 1070.01 1058.03 1032.51 1077.18 1028.01 1087 C 1019.53 1090.27 1010.75 1093.24 1002.46 1096.95 C 994.854 1100.45 986.92 1102.87 978.953 1105.4 C 851.985 1148.93 742.739 1144.88 615.943 1102.19 L 607.321 1098.76 C 594.822 1092.16 580.361 1087.6 567.33 1081.95 A 787.119 787.119 0 0 1 497.223 1047.1 A 872.369 872.369 0 0 1 417.235 996.486 C 399.357 983.563 382.033 968.698 363.639 956.722 L 362.893 956.244 C 352.765 955.591 322.669 938.688 311.155 933.547 C 299.33 928.268 285.769 922.61 273.145 919.633 C 262.982 917.236 233.952 916.948 227.751 913.295 C 226.569 913.909 227.299 913.721 225.489 913.34 L 225.181 910.125 C 232.072 897.552 242.076 887.008 253.012 877.879 C 297.478 840.761 358.183 821.449 415.542 834.143 C 438.773 839.285 461.55 849.922 481.967 861.947 C 510.99 879.042 537.948 904.469 572.967 907.324 C 596.346 909.229 614.749 901.442 632.369 886.466 C 652.912 869.006 668.148 838.723 670.376 811.878 C 671.875 803.145 673.118 794.944 673.204 786.052 C 703.245 833.857 722.064 884.4 741.228 937.133 C 741.867 929.87 740.604 922.939 744.704 916.356 C 748.748 909.862 757.361 907.024 764.432 905.396 C 783.079 901.103 832.423 899.638 848.076 910.087 C 852.95 913.341 853.899 916.964 854.804 922.525 z"/>
<path transform="translate(0,0)" fill="rgb(247,208,172)" d="M 227.751 913.295 C 259.611 901.294 273.492 902.157 304.942 916.553 C 326.581 926.459 344.572 941.368 362.893 956.244 C 352.765 955.591 322.669 938.688 311.155 933.547 C 299.33 928.268 285.769 922.61 273.145 919.633 C 262.982 917.236 233.952 916.948 227.751 913.295 z"/>
<path transform="translate(0,0)" fill="rgb(0,0,0)" d="M 741.228 937.133 C 741.867 929.87 740.604 922.939 744.704 916.356 C 748.748 909.862 757.361 907.024 764.432 905.396 C 783.079 901.103 832.423 899.638 848.076 910.087 C 852.95 913.341 853.899 916.964 854.804 922.525 C 856.023 935.303 848.45 946.584 840.66 956.085 C 829.646 969.518 815.955 978.863 799.1 983.2 C 797.049 994.675 795.834 1003.28 802.919 1013.47 C 808.072 1020.88 815.924 1025 824.725 1026.36 C 838.85 1028.53 854.925 1024.6 866.174 1015.78 C 871.424 1011.67 874.991 1003.32 880.03 1000.32 L 881.822 1001.16 C 882.875 1004.31 883.178 1006.35 881.689 1009.56 C 877.278 1019.06 863.214 1027.19 853.539 1030.25 C 839.72 1034.61 821.628 1035.21 808.733 1028.05 C 802.366 1024.52 798.964 1019.71 794.957 1013.8 C 786.427 1023.85 779.629 1030.3 765.829 1031.66 C 750.447 1033.19 738.753 1027.3 727.347 1017.69 C 717.807 1009.65 712.914 995.883 711.917 983.772 C 711.704 981.178 711.729 979.06 712.303 976.535 L 714.216 974.522 C 716.199 975.698 716.078 976.049 716.589 978.225 C 717.688 982.904 717.398 987.904 718.333 992.643 C 720.418 1003.21 730.343 1014.43 739.337 1020.14 A 39.3395 39.3395 0 0 0 769.476 1024.93 C 777.159 1023.06 783.431 1017.81 787.223 1010.95 C 792.056 1002.19 792.331 992.704 791.562 982.999 C 772.989 975.671 751.558 963.456 743.423 944.122 C 742.471 941.858 741.819 939.511 741.228 937.133 z"/>
</svg>