<?xml version="1.0" encoding="utf-8" ?>
<svg xmlns="http://www.w3.org/2000/svg" xmlns:xlink="http://www.w3.org/1999/xlink" width="1024" height="1024">
	<path fill="#94BAB4" d="M0 0L1024 0L1024 1024L0 1024L0 0Z"/>
	<path fill="#F2E9DD" d="M806.809 396.655C808.742 391.75 814.607 377.125 815.423 372.838C815.469 372.595 815.445 372.343 815.456 372.096C816.046 371.704 815.973 371.314 816.155 370.653C819.849 377.472 827.46 385.385 834.62 388.436C829.386 387.759 824.765 386.548 820.083 384.034C821.787 391.834 823.892 399.061 826.839 406.484C819.654 404.717 812.126 402.056 806.809 396.655Z"/>
	<path fill="#F3D68E" d="M930.876 96.5068C933.634 93.2075 935.877 89.5218 938.041 85.816C939.367 94.3853 938.058 103.689 936.797 112.233C931.919 145.291 920.027 179.038 900.157 206.161C895.18 212.955 889.758 219.314 883.579 225.057C869.683 237.972 842.834 256.008 824.071 259.206C824.003 257.675 823.775 256.131 823.604 254.605C834.165 248.341 844.72 242.362 854.611 234.986C880.577 215.623 900.136 188.33 913.098 158.832C917.13 149.657 934.316 105.313 930.876 96.5068Z"/>
	<path fill="#F3D68E" d="M356.431 86.318C358.833 89.8264 361.045 93.4594 363.357 97.028L364.165 101.66C366.49 141.813 387.215 190.232 417.342 217.065C435.901 233.594 458.085 245.318 482.786 248.887C483.699 249.159 484.521 249.43 485.465 249.556C485.412 252.066 485.404 255.181 484.693 257.61C480.796 257.667 477.112 257.478 473.265 256.834C439.065 251.107 408.457 228.295 388.63 200.425C370.437 174.853 360.828 145.698 357.015 114.796C355.914 105.868 354.923 95.2414 356.431 86.318Z"/>
	<path fill="#F2E9DD" d="M169.23 412.272L170.522 412.04C171.833 415.95 170.101 424.306 169.943 428.633C169.228 448.152 177.859 469.325 189.011 485.003Q192.618 490.063 196.602 494.831C200.528 499.453 224.669 525.585 224.43 529.875C224.403 530.357 224.008 530.742 223.792 531.174C219.176 540.442 212.673 549.261 209.743 559.292C209.153 559.21 208.585 559.125 208.003 558.995C187.372 554.395 177.323 544.089 166.455 526.818C172.676 530.152 179.765 532.619 186.273 535.404C182.415 531.733 178.011 528.733 174.248 524.898C159.398 509.763 153.842 491.402 150.685 471.042C154.768 475.83 159.175 480.37 163.573 484.867C161.311 479.866 158.883 474.818 157.829 469.397C154.55 452.534 159.698 426.49 169.23 412.272Z"/>
	<path fill="#83ABA5" d="M378.506 873.957C384.936 871.002 493.979 873.175 511.483 873.826C512.844 889.561 514.586 909.103 519.624 924.053C527.995 925.394 535.906 924.861 544.239 923.582L547.944 922.735C557.441 920.708 565.144 916.43 573.74 912.146C568.843 900.614 566.312 887.242 564.2 874.938C570.444 873.34 600.397 876.57 609.538 877.196C609.417 885.655 610.99 894.513 610.49 902.845C620.023 904.189 631.051 905.356 640.603 904.268C642.815 903.318 646.139 902.993 648.533 902.339C653.887 900.875 658.833 898.997 663.894 896.748Q661.44 888.908 659.629 880.896C659.784 880.89 659.939 880.883 660.093 880.879C666.444 880.727 673.14 881.852 679.47 882.458C708.077 885.198 797.07 896.665 816.481 915.02C818.169 916.616 820.012 918.836 820.13 921.276C820.271 924.205 817.501 927.684 815.573 929.629C784.992 960.474 583.528 969.341 533.1 970.783C503.573 971.628 473.716 971.538 444.178 971.076Q367.678 969.552 291.344 964.272C257.563 961.644 137.059 950.689 115.37 928.555C113.785 926.937 112.52 924.892 112.53 922.559C112.545 919.461 114.627 916.899 116.832 914.942C127.93 905.088 162.009 896.505 177.206 893.412C194.386 889.915 211.862 887.698 229.183 884.977C230.756 891.118 236.536 916.147 239.385 919.825C248.205 920.351 256.803 920.149 265.595 919.306C276.355 917.737 285.858 914.861 295.595 910.005C290.664 899.924 287.023 889.9 283.575 879.24C296.889 878.827 310.546 877.008 323.778 875.39C326.286 883.46 329.18 891.682 332.428 899.487C335.418 899.623 338.384 899.702 341.376 899.668C356.528 899.189 370.16 893.611 383.67 887.269C383.181 883.154 380.122 877.833 378.506 873.957Z"/>
	<path fill="#867163" d="M265.595 919.306C267.055 919.381 267.702 919.102 268.714 920.211C270.82 928.747 272.751 941.217 272.855 949.996C266.497 949.283 256.124 950.016 250.685 946.523C249.119 945.517 247.982 944.01 247.11 942.388C245.119 938.684 240.114 923.79 239.385 919.825C248.205 920.351 256.803 920.149 265.595 919.306Z"/>
	<path fill="#867163" d="M544.239 923.582L547.944 922.735C552.19 932.467 557.689 941.568 562.584 950.974C561.029 951.747 559.039 951.583 557.317 951.608C547.882 951.358 538.539 950.279 529.452 947.672C525.067 941.845 521.106 931.27 519.624 924.053C527.995 925.394 535.906 924.861 544.239 923.582Z"/>
	<path fill="#A38D81" d="M663.894 896.748C667.854 905.398 674.585 922.818 676.078 931.846C669.51 934.387 662.77 935.176 655.746 935.058C651.31 929.126 644.11 907.19 641.716 904.853C641.416 904.561 640.974 904.463 640.603 904.268C642.815 903.318 646.139 902.993 648.533 902.339C653.887 900.875 658.833 898.997 663.894 896.748Z"/>
	<path fill="#A38D81" d="M573.74 912.146C575.808 916.887 587.174 943.79 586.203 946.955C582.633 950.996 574.302 951.184 569.248 951.509C565.336 951.76 561.216 952.125 557.317 951.608C559.039 951.583 561.029 951.747 562.584 950.974C557.689 941.568 552.19 932.467 547.944 922.735C557.441 920.708 565.144 916.43 573.74 912.146Z"/>
	<path fill="#867163" d="M610.49 902.845C620.023 904.189 631.051 905.356 640.603 904.268C640.974 904.463 641.416 904.561 641.716 904.853C644.11 907.19 651.31 929.126 655.746 935.058C644.908 935.033 629.316 935.371 620.623 927.854C614.268 922.359 611.107 910.929 610.49 902.845Z"/>
	<path fill="#A38D81" d="M265.595 919.306C276.355 917.737 285.858 914.861 295.595 910.005C302.761 922.173 309.89 933.666 311.473 947.991C298.728 950.621 285.797 950.139 272.855 949.996C272.751 941.217 270.82 928.747 268.714 920.211C267.702 919.102 267.055 919.381 265.595 919.306Z"/>
	<path fill="#867163" d="M383.67 887.269C387.723 891.427 398.411 912.681 398.097 918.385C398.022 919.761 397.719 920.242 396.597 921.06C389.392 926.316 351.738 924.445 343.27 922.645C338.533 915.806 335.619 907.598 332.61 899.88C335.147 899.95 338.988 900.514 341.376 899.668C356.528 899.189 370.16 893.611 383.67 887.269Z"/>
	<path fill="#FEFEFE" d="M727.715 59.8966Q733.197 59.6236 738.683 59.4351C722.844 69.7486 705.594 80.5124 693.344 95.1175C714.407 91.816 739.382 99.5855 756.495 112.003Q757.315 112.591 758.094 113.233C761.895 115.55 765.473 118.489 768.875 121.357C758.513 121.983 748.175 122.914 737.823 123.663C733.981 123.94 728.689 123.533 725.063 124.637C727.288 127.487 729.975 131.24 732.787 133.488C736.561 136.506 748.278 140.412 753.786 143.633C762.016 148.447 769.406 154.18 776.734 160.231C782.128 151.903 789.223 145.087 796.82 138.787C826.682 114.025 852.104 114.203 887.193 106.084C893.695 104.579 900.09 102.45 906.446 100.422C916.645 97.1655 927.511 92.7069 935.8 85.7761C936.474 85.2124 936.871 84.8983 937.751 84.6755L938.041 85.816C935.877 89.5218 933.634 93.2075 930.876 96.5068C934.316 105.313 917.13 149.657 913.098 158.832C900.136 188.33 880.577 215.623 854.611 234.986C844.72 242.362 834.165 248.341 823.604 254.605C823.775 256.131 824.003 257.675 824.071 259.206C824.184 266.782 824.37 274.364 824.383 281.94Q828.944 280.295 833.406 278.396C830.221 280.569 826.274 282.973 823.844 286.017C825.036 288.398 824.271 292.668 824.241 295.349C824.169 301.828 823.188 309.002 824.029 315.397C824.58 319.586 826.415 323.678 828.146 327.49C835.323 343.3 841.036 347.397 852.233 359.687C844.818 360.975 835.211 361.723 828.8 357.103Q828.192 356.662 827.598 356.201C830.979 362.31 834.372 368.376 838.27 374.174C841.369 378.783 845.126 383.239 847.752 388.118C843.351 388.534 839.036 388.713 834.62 388.436C827.46 385.385 819.849 377.472 816.155 370.653C815.973 371.314 816.046 371.704 815.456 372.096C815.445 372.343 815.469 372.595 815.423 372.838C814.607 377.125 808.742 391.75 806.809 396.655C789.926 431.225 759.297 458.015 725.673 475.94C718.802 479.603 711.909 483.436 704.517 485.956C702.461 486.657 700.274 487.339 698.132 487.709C694.519 488.501 690.865 489.224 687.198 489.714C672.066 491.736 656.593 489.895 641.739 486.751C600.265 477.975 572.302 462.038 539.03 436.41C537.204 434.106 534.697 432.082 532.537 430.086C525.779 423.84 519.045 417.255 515.698 408.446C506.456 410.491 498.111 409.62 489.283 406.411C496.875 400.019 501.325 394.719 504.211 385.074C501.872 386.421 499.599 387.589 497.017 388.403C484.011 392.503 473.409 389.697 461.709 383.7C471.936 377.408 482.136 370.346 487.13 358.966C471.317 362.189 459.384 359.294 444.804 353.109C453.307 352.426 460.062 351.169 466.801 345.429C488.412 327.022 482.814 283.429 484.693 257.61C485.404 255.181 485.412 252.066 485.465 249.556C484.521 249.43 483.699 249.159 482.786 248.887C458.085 245.318 435.901 233.594 417.342 217.065C387.215 190.232 366.49 141.813 364.165 101.66L363.357 97.028C361.045 93.4594 358.833 89.8264 356.431 86.318C356.528 85.4741 356.393 85.2024 357.001 84.5704C377.558 100.934 406.515 105.253 431.411 110.889C465.522 118.61 503.771 131.765 528.173 158.013C547.59 140.536 568.678 131.619 594.106 126.49C595.204 122.325 596.475 118.137 597.856 114.057Q598.177 113.125 598.52 112.202Q598.864 111.278 599.23 110.363Q599.596 109.448 599.984 108.543Q600.373 107.637 600.783 106.741Q601.193 105.845 601.626 104.96Q602.058 104.074 602.512 103.2Q602.966 102.325 603.441 101.462Q603.916 100.599 604.412 99.7473Q604.909 98.896 605.426 98.0571Q605.943 97.2182 606.48 96.3922Q607.017 95.5662 607.575 94.7537Q608.132 93.9411 608.709 93.1425Q609.287 92.3439 609.883 91.5596Q610.48 90.7754 611.096 90.006Q611.711 89.2366 612.346 88.4826Q612.98 87.7286 613.633 86.9903Q614.285 86.2521 614.956 85.53Q615.626 84.808 616.314 84.1027Q617.003 83.3973 617.708 82.709Q618.413 82.0207 619.135 81.35Q619.857 80.6792 620.595 80.0263Q621.333 79.3735 622.087 78.7389Q622.841 78.1043 623.61 77.4884Q624.379 76.8725 625.163 76.2757Q625.947 75.6788 626.746 75.1014Q627.544 74.5239 628.356 73.9663Q629.169 73.4086 629.995 72.871Q630.82 72.3334 631.659 71.8162Q632.498 71.299 633.349 70.8026Q634.2 70.3062 635.063 69.8307Q635.927 69.3553 636.801 68.9012Q637.676 68.447 638.561 68.0145C630.716 82.0615 625.555 96.2052 621.625 111.777C625.264 106.05 629.293 100.714 634.007 95.8184C658.176 70.7139 693.672 60.4629 727.715 59.8966Z"/>
	<path fill="#F2E9DD" d="M801.928 190.359C797.092 184.806 793.134 178.376 788.302 172.729C786.517 170.644 781.308 166.48 780.724 164.149C786.352 167.186 799.885 180.952 803.92 186.328C803.192 187.657 802.426 188.924 801.928 190.359Z"/>
	<path fill="#F2E9DD" d="M657.88 411.676L658.748 412.232L659.214 413.105C659.745 414.131 660.186 415.324 661.044 416.105C664.572 420.936 669.498 422.725 673.609 426.614C671.378 427.889 669.256 429.786 667.025 431.177C665.811 430.284 664.543 429.381 663.479 428.307C658.877 423.663 657.892 417.909 657.88 411.676Z"/>
	<path fill="#BE484A" d="M685.016 429.298C686.421 429.318 687.864 429.361 689.26 429.175C696.583 428.196 706.107 419.789 710.444 414.082C710.979 413.378 711.4 412.933 712.175 412.465L712.957 413.399C708.109 423.233 697.416 429.699 687.423 433.413C687.324 438.96 687.328 444.529 686.872 450.06C691.664 453.828 696.965 454.744 702.939 454.041C709.984 453.212 715.172 449.919 720.381 445.397C715.687 451.389 709.151 454.708 701.66 455.65Q700.773 455.761 699.884 455.849C695.357 457.567 688.551 455.842 683.957 454.86C680.264 456.25 674.411 459.032 670.544 457.338C669.865 457.041 669.283 456.479 668.736 456.002C667.743 456.029 666.85 455.98 665.865 455.82C654.857 454.035 647.726 446.398 641.402 437.785C649.521 443.98 652.542 451.575 663.59 453.995C671.892 455.813 678.394 453.707 685.369 449.407C686.009 444.124 686.023 438.748 686.454 433.437C682.02 431.366 677.831 429.076 673.609 426.614C669.498 422.725 664.572 420.936 661.044 416.105C661.587 415.646 661.841 415.153 662.613 415.241C664.034 415.403 665.613 416.698 666.812 417.489C672.669 421.627 678.678 425.927 685.016 429.298Z"/>
	<path fill="#F2E9DD" d="M668.736 456.002C675.2 455.441 679.889 454.554 685.392 450.944C690.155 454.109 694.247 455.423 699.884 455.849C695.357 457.567 688.551 455.842 683.957 454.86C680.264 456.25 674.411 459.032 670.544 457.338C669.865 457.041 669.283 456.479 668.736 456.002Z"/>
	<path fill="#F2E9DD" d="M719.766 226.09C725.305 204.041 719.29 178.831 708.266 159.368C723.501 172.571 725.578 183.395 729.99 201.793C730.486 203.862 731.206 205.204 733.435 205.368C737.419 203.212 738.756 196.546 740.615 192.592C738.952 205.912 732.312 219.278 721.641 227.762C720.252 229.747 717.692 231.428 715.392 232.123C713.652 232.649 711.385 232.902 709.777 231.834C708.906 231.255 708.322 230.689 708.171 229.641C710.178 229.121 712.294 230.653 714.509 230.256C716.95 229.818 718.138 228.597 719.452 226.584C719.559 226.42 719.661 226.255 719.766 226.09Z"/>
	<path fill="#070A06" d="M532.223 290.318C538.357 281.34 546.389 275.181 557.252 273.095C567.798 271.069 579.414 272.769 588.343 278.923C599.549 286.646 605.828 300.007 608.093 313.101Q608.346 314.576 608.545 316.06C606.889 313.563 605.857 310.121 604.664 307.344C599.825 296.078 591.883 286.36 580.171 281.802C570.847 278.174 559.688 278.163 550.531 282.308C537.861 288.043 532.043 298.737 527.463 311.141C527.465 306.696 527.845 302.54 528.688 298.176C524.702 292.836 520.262 287.836 516.333 282.47C521.412 285.622 526.722 288.01 532.223 290.318Z"/>
	<path fill="#070A06" d="M736.376 307.347Q736.518 306.611 736.684 305.879C739.205 294.858 747.249 282.83 756.954 276.89Q757.713 276.433 758.493 276.013Q759.274 275.594 760.074 275.213Q760.874 274.832 761.692 274.492Q762.509 274.151 763.343 273.851Q764.177 273.551 765.024 273.292Q765.871 273.033 766.73 272.816Q767.589 272.6 768.458 272.425Q769.327 272.251 770.203 272.12Q771.079 271.989 771.961 271.901Q772.842 271.813 773.727 271.768Q774.612 271.724 775.498 271.723Q776.384 271.722 777.269 271.765Q778.154 271.808 779.036 271.894Q779.918 271.98 780.794 272.11Q781.67 272.239 782.539 272.412Q783.409 272.584 784.268 272.799C795.625 275.692 802.648 283.313 808.506 293.064C812.38 288.36 818.959 284.598 824.383 281.94Q828.944 280.295 833.406 278.396C830.221 280.569 826.274 282.973 823.844 286.017C819.932 290.313 815.467 294.609 811.983 299.234C811.52 303.577 811.948 308.443 809.647 312.28C807.942 301.912 801.81 290.86 793.152 284.73C785.872 279.576 777.228 277.852 768.476 279.366C757.012 281.35 748.373 288.196 742.153 297.776C740.263 300.688 738.798 303.947 736.799 306.76L736.376 307.347Z"/>
	<path fill="#F2E9DD" d="M727.715 59.8966Q733.197 59.6236 738.683 59.4351C722.844 69.7486 705.594 80.5124 693.344 95.1175C681.483 97.3559 671.77 101.814 661.408 107.841C674.167 92.7431 686.232 81.1396 703.689 71.4233C710.157 67.8232 723.211 64.7828 727.715 59.8966Z"/>
	<path fill="#F2E9DD" d="M676.214 122.43C690.388 118.272 715.887 111.81 730.256 111.579C738.049 111.453 751.32 114.688 758.094 113.233C761.895 115.55 765.473 118.489 768.875 121.357C758.513 121.983 748.175 122.914 737.823 123.663C733.981 123.94 728.689 123.533 725.063 124.637C721.989 122.33 683.832 123.183 676.214 122.43Z"/>
	<path fill="#CACDBD" d="M558.691 220.087C564.177 219.763 569.036 220.193 574.125 222.367C580.703 225.178 586.242 230.033 588.956 236.721C574.904 234.755 562.217 235.096 548.794 239.989C541.174 242.78 534.627 246.942 527.297 250.203C528.76 246.911 530.325 243.755 532.223 240.689C538.762 230.122 546.437 222.957 558.691 220.087Z"/>
	<path fill="#CACDBD" d="M771.37 219.619C775.034 219.527 778.342 219.748 781.864 220.882C796.16 225.486 807.595 238.506 814.219 251.486C809.626 249.025 805.39 245.953 800.745 243.52C789.566 237.597 777.798 236.471 765.322 236.882C761.493 237.008 757.454 237.6 753.647 237.297C753.151 236.667 752.865 236.458 752.725 235.621C752.457 234.013 753.026 232.818 753.887 231.513Q754.259 230.946 754.658 230.398Q755.057 229.849 755.483 229.321Q755.909 228.793 756.36 228.287Q756.811 227.781 757.287 227.297Q757.762 226.813 758.261 226.354Q758.76 225.894 759.28 225.459Q759.801 225.024 760.342 224.616Q760.884 224.207 761.445 223.826Q762.005 223.444 762.584 223.091Q763.163 222.737 763.759 222.413Q764.354 222.088 764.965 221.793Q765.575 221.498 766.2 221.233Q766.824 220.969 767.461 220.735Q768.098 220.501 768.745 220.299Q769.393 220.097 770.049 219.927Q770.706 219.757 771.37 219.619Z"/>
	<path fill="#EAB4A2" d="M658.634 405.329C660.761 399.403 666.159 395.617 671.65 393.014C680.088 389.013 690.881 388.124 699.741 391.271C705.592 393.349 710.75 397.556 713.34 403.275C714.578 406.007 714.688 408.133 714.538 411.09L713.956 411.604L712.957 413.399L712.175 412.465C711.4 412.933 710.979 413.378 710.444 414.082C706.107 419.789 696.583 428.196 689.26 429.175C687.864 429.361 686.421 429.318 685.016 429.298C678.678 425.927 672.669 421.627 666.812 417.489C665.613 416.698 664.034 415.403 662.613 415.241C661.841 415.153 661.587 415.646 661.044 416.105C660.186 415.324 659.745 414.131 659.214 413.105L658.748 412.232L657.88 411.676C657.906 409.412 657.957 407.523 658.634 405.329Z"/>
	<path fill="#E8565A" d="M658.748 412.232C658.961 411.6 659.159 410.913 659.537 410.35C660.407 409.051 661.559 408.387 663.022 407.992C664.492 408.23 664.583 408.476 665.656 409.546C664.215 410.529 659.932 412.417 659.214 413.105L658.748 412.232Z"/>
	<path fill="#D55356" d="M659.214 413.105C659.932 412.417 664.215 410.529 665.656 409.546L667.312 411.408L666.812 417.489C665.613 416.698 664.034 415.403 662.613 415.241C661.841 415.153 661.587 415.646 661.044 416.105C660.186 415.324 659.745 414.131 659.214 413.105Z"/>
	<path fill="#F2E9DD" d="M684.915 391.656C692.34 391.179 698.852 393.721 705.205 397.339C701.686 396.405 698.194 395.332 694.695 394.323C687.094 393.519 679.774 394.523 672.322 396.03C676.522 393.887 680.252 392.431 684.915 391.656Z"/>
	<path fill="#E8565A" d="M667.312 411.408C673.469 416.091 682.601 421.195 690.6 420.277C696.515 419.597 701.613 416.473 706.311 413.034C707.54 412.134 709.092 410.616 710.475 410.078C711.556 409.657 712.161 409.689 713.03 410.47C713.314 410.725 713.717 411.286 713.956 411.604L712.957 413.399L712.175 412.465C711.4 412.933 710.979 413.378 710.444 414.082C706.107 419.789 696.583 428.196 689.26 429.175C687.864 429.361 686.421 429.318 685.016 429.298C678.678 425.927 672.669 421.627 666.812 417.489L667.312 411.408Z"/>
	<path fill="#F2E9DD" d="M610.051 147.403C612.059 149.125 614.602 155.359 616.363 157.96Q621.156 164.929 627.204 170.843C630.674 174.212 636.702 179.165 641.794 178.701C643.006 178.59 644.095 178.125 644.774 177.065C646.467 174.42 645.284 169.392 644.893 166.452C658.212 185.978 672.36 208.291 678.086 231.512C679.785 238.402 680.503 245.399 681.261 252.438C690.518 241.545 697.875 225.668 699.952 211.492C700.597 207.089 700.553 202.602 700.642 198.161C701.701 200.969 702.237 203.779 702.79 206.718C705.191 221.259 704.293 236.112 697.657 249.49C693.438 257.995 683.374 266.705 674.233 269.488C672.467 270.025 670.903 270.221 669.199 269.358C667.142 264.2 666.911 257.69 665.584 252.204C661.935 237.122 657.098 221.153 650.176 207.253C636.834 180.46 615.397 182.992 610.051 147.403Z"/>
	<path fill="#F3D68E" d="M736.376 307.347L736.799 306.76C738.798 303.947 740.263 300.688 742.153 297.776C748.373 288.196 757.012 281.35 768.476 279.366C777.228 277.852 785.872 279.576 793.152 284.73C801.81 290.86 807.942 301.912 809.647 312.28C805.701 317.534 815.054 341.514 792.821 359.752C788.082 363.639 781.867 366.986 775.753 367.897C767.857 369.074 758.773 366.063 752.522 361.182C751.431 360.33 750.329 359.433 749.324 358.48C744.882 353.69 741.501 348.976 738.887 342.977C737.047 338.779 735.89 334.736 735.445 330.166C733.937 323.73 733.927 313.592 736.376 307.347Z"/>
	<path fill="#5F4C20" d="M787.016 306.866L787.929 306.546C790.806 319.565 793.204 334.734 785.593 346.658C781.883 352.47 776.224 356.423 769.472 357.841C766.372 358.492 763.603 358.64 760.553 357.757C758.089 357.284 755.739 356.589 753.532 355.391C751.748 352.671 747.859 351.24 746.729 348.126C747.894 349.05 749.143 349.783 750.416 350.543L751.133 350.218C755.513 352.039 759.619 352.84 764.314 351.682Q764.798 351.559 765.275 351.412Q765.752 351.265 766.221 351.094Q766.69 350.924 767.15 350.731Q767.61 350.538 768.06 350.322Q768.511 350.107 768.95 349.87Q769.389 349.632 769.816 349.374Q770.243 349.115 770.656 348.836Q771.07 348.556 771.469 348.257Q771.869 347.958 772.253 347.639Q772.637 347.321 773.005 346.983Q773.373 346.646 773.724 346.292Q774.075 345.937 774.408 345.565Q774.742 345.194 775.056 344.806Q775.371 344.419 775.666 344.016Q775.961 343.614 776.236 343.197Q776.511 342.781 776.765 342.351C779.204 338.145 779.613 333.487 778.398 328.822C781.422 327.564 783.701 326.244 785.513 323.417C788.682 318.472 788.098 312.354 787.016 306.866Z"/>
	<path fill="#755F2A" d="M735.445 330.166C735.818 322.053 736.607 314.145 740.289 306.776C743.89 299.572 749.819 293.334 757.652 290.861C764.185 288.799 771.272 289.366 777.249 292.76C782.966 296.005 786.113 300.384 787.929 306.546L787.016 306.866C788.098 312.354 788.682 318.472 785.513 323.417C783.701 326.244 781.422 327.564 778.398 328.822C779.613 333.487 779.204 338.145 776.765 342.351Q776.511 342.781 776.236 343.197Q775.961 343.614 775.666 344.016Q775.371 344.419 775.056 344.806Q774.742 345.194 774.408 345.565Q774.075 345.937 773.724 346.292Q773.373 346.646 773.005 346.983Q772.637 347.321 772.253 347.639Q771.869 347.958 771.469 348.257Q771.07 348.556 770.656 348.836Q770.243 349.115 769.816 349.374Q769.389 349.632 768.95 349.87Q768.511 350.107 768.061 350.322Q767.61 350.538 767.15 350.731Q766.69 350.924 766.221 351.094Q765.752 351.265 765.275 351.412Q764.798 351.559 764.314 351.682C759.619 352.84 755.513 352.039 751.133 350.218L750.416 350.543C749.143 349.783 747.894 349.05 746.729 348.126C747.859 351.24 751.748 352.671 753.532 355.391C755.739 356.589 758.089 357.284 760.553 357.757C756.644 359.294 753.387 358.883 749.324 358.48C744.882 353.69 741.501 348.976 738.887 342.977C737.047 338.779 735.89 334.736 735.445 330.166Z"/>
	<path fill="#CBA85F" d="M738.887 342.977C744.595 346.067 747.204 352.465 753.532 355.391C755.739 356.589 758.089 357.284 760.553 357.757C756.644 359.294 753.387 358.883 749.324 358.48C744.882 353.69 741.501 348.976 738.887 342.977Z"/>
	<path fill="#FEFEFE" d="M770.066 324.145C767.774 318.602 767.153 312.198 768.707 306.353C769.64 302.841 771.771 298.896 775.133 297.183C776.615 296.428 778.222 296.244 779.802 296.864C783.849 298.45 785.553 303.166 787.016 306.866C788.098 312.354 788.682 318.472 785.513 323.417C783.701 326.244 781.422 327.564 778.398 328.822C774.969 327.894 772.79 326.352 770.066 324.145Z"/>
	<path fill="#070A06" d="M751.133 350.218C746.775 347.229 743.917 344.137 742.681 338.822C741.613 334.23 742.165 329.213 744.866 325.27C747.309 321.702 751.22 319.462 755.478 318.885C759.709 318.312 764.312 319.599 767.662 322.229L770.066 324.145C772.79 326.352 774.969 327.894 778.398 328.822C779.613 333.487 779.204 338.145 776.765 342.351Q776.511 342.781 776.236 343.197Q775.961 343.614 775.666 344.016Q775.371 344.419 775.056 344.806Q774.742 345.194 774.408 345.565Q774.075 345.937 773.724 346.292Q773.373 346.646 773.005 346.983Q772.637 347.321 772.253 347.639Q771.869 347.958 771.469 348.257Q771.07 348.556 770.656 348.836Q770.243 349.115 769.816 349.374Q769.389 349.632 768.95 349.87Q768.511 350.107 768.061 350.322Q767.61 350.538 767.15 350.731Q766.69 350.924 766.221 351.094Q765.752 351.265 765.275 351.412Q764.798 351.559 764.314 351.682C759.619 352.84 755.513 352.039 751.133 350.218Z"/>
	<path fill="#FEFEFE" d="M756.383 334.895C758.187 335.107 759.887 335.381 761.323 336.587C762.369 337.465 763.3 338.736 763.175 340.175C763.005 342.125 761.644 343.075 760.16 344.033C758.201 344.101 756.323 344.192 754.732 342.819C753.826 342.036 753.291 340.951 753.355 339.741C753.468 337.581 754.856 336.228 756.383 334.895Z"/>
	<path fill="#F3D68E" d="M527.463 311.141C532.043 298.737 537.861 288.043 550.531 282.308C559.688 278.163 570.847 278.174 580.171 281.802C591.883 286.36 599.825 296.078 604.664 307.344C605.857 310.121 606.889 313.563 608.545 316.06C608.514 319.952 608.542 323.86 608.392 327.751C607.91 340.203 602.893 351.202 593.609 359.585Q592.885 360.233 592.13 360.844Q591.375 361.455 590.59 362.028Q589.806 362.602 588.994 363.136Q588.183 363.67 587.346 364.163Q586.509 364.657 585.649 365.109Q584.789 365.561 583.908 365.97Q583.027 366.379 582.126 366.744Q581.226 367.109 580.309 367.429Q579.392 367.75 578.46 368.025Q577.528 368.3 576.584 368.529Q575.64 368.757 574.686 368.94Q573.731 369.122 572.769 369.257Q571.807 369.392 570.84 369.479Q569.872 369.567 568.902 369.607Q567.931 369.646 566.959 369.639Q565.988 369.631 565.018 369.575C555.015 369.032 546.466 364.382 539.906 356.925C528.885 344.398 526.494 327.327 527.463 311.141Z"/>
	<path fill="#755F2A" d="M558.61 288.605Q559.869 288.514 561.131 288.517Q562.393 288.521 563.651 288.619Q564.91 288.717 566.157 288.909Q567.404 289.102 568.634 289.387Q569.863 289.673 571.068 290.049Q572.272 290.426 573.445 290.893Q574.618 291.359 575.753 291.912Q576.887 292.465 577.977 293.101C584.852 297.167 589.311 303.381 591.248 311.077C594.033 322.148 592.775 335.19 586.786 345.02C581.712 353.347 574.54 357.471 565.266 359.793C558.272 360.585 552.359 359.812 546.277 356.012C538.778 351.326 533.936 342.978 532.07 334.479C529.828 324.267 531.134 312.355 536.851 303.456C541.974 295.482 549.458 290.654 558.61 288.605Z"/>
	<path fill="#FEFEFE" d="M576.484 297.994C577.972 297.846 579.246 297.71 580.708 298.178C583.291 299.006 585.528 301.54 586.749 303.867C589.143 308.433 589.821 314.454 588.248 319.381C587.028 323.206 585.039 325.351 581.549 327.22C580.216 327.463 578.864 327.651 577.516 327.379C575.231 326.919 573.212 325.199 571.989 323.271C569.202 318.878 568.875 312.486 570.038 307.537C571.068 303.158 572.693 300.403 576.484 297.994Z"/>
	<path fill="#070A06" d="M550.126 318.085C560.946 316.792 564.64 327.391 574.781 329.306C577.354 329.792 580.337 329.486 582.956 329.417C580.903 338.886 576.89 345.069 568.952 350.535C568.446 350.783 567.943 351.036 567.427 351.261C562.867 353.249 558.268 353.041 553.682 351.185C547.945 348.864 542.628 344.138 540.284 338.336C538.717 334.457 538.705 330.088 540.461 326.268C542.393 322.065 545.929 319.67 550.126 318.085Z"/>
	<path fill="#FEFEFE" d="M557.435 334.432C559.398 334.444 561.225 334.377 562.687 335.945C563.565 336.886 563.909 338.091 563.648 339.353C563.217 341.435 561.775 342.54 560.109 343.66C558.299 343.543 556.172 343.228 554.978 341.674C554.408 340.93 554.249 340.262 554.27 339.359C554.327 337.013 555.801 335.867 557.435 334.432Z"/>
	<path fill="#EAB4A2" d="M930.876 96.5068C934.316 105.313 917.13 149.657 913.098 158.832C900.136 188.33 880.577 215.623 854.611 234.986C844.72 242.362 834.165 248.341 823.604 254.605C822.44 239.05 819.585 223.12 812.643 209.065C809.472 202.645 805.529 196.547 801.928 190.359C802.426 188.924 803.192 187.657 803.92 186.328C819.438 163.452 840.67 148.371 865.139 136.278C888.528 124.717 912.023 115.205 930.876 96.5068Z"/>
	<path fill="#EAB4A2" d="M363.357 97.028C383.519 118.036 413.87 126.478 439.691 138.494Q450.144 143.388 460.139 149.159Q470.135 154.931 479.598 161.539C489.153 168.228 498.505 175.738 505.209 185.381C494.382 205.633 487.941 226.75 485.465 249.556C484.521 249.43 483.699 249.159 482.786 248.887C458.085 245.318 435.901 233.594 417.342 217.065C387.215 190.232 366.49 141.813 364.165 101.66L363.357 97.028Z"/>
	<path fill="#FEFEFE" d="M183.997 389.635C183.974 402.844 184.773 415.517 189.364 428.08C190.968 421.885 192.534 415.763 195.105 409.88C202.565 432.42 217.242 444.815 238.139 455.27C255.788 464.1 267.585 466.936 279.934 483.786C340.362 462.913 395.359 492.344 454.25 502.164C466.68 504.236 480.247 506.071 492.713 503.56C510.905 499.895 525.572 484.846 533.502 468.724C536.532 462.566 538.106 456.142 539.347 449.429C539.826 445.182 539.329 440.658 539.03 436.41C572.302 462.038 600.265 477.975 641.739 486.751C656.593 489.895 672.066 491.736 687.198 489.714C690.865 489.224 694.519 488.501 698.132 487.709C695.851 501.047 698.444 510.841 703.885 523.06C713.281 540.081 720.885 551.276 736.042 563.81C738.554 565.744 740.923 567.742 743.253 569.891C735.49 573.961 727.282 573.613 719.09 571.039C716.923 570.358 714.839 569.411 712.837 568.341C714.586 574.044 716.808 579.593 718.482 585.315Q718.964 586.907 719.391 588.514Q719.817 590.122 720.187 591.743Q720.556 593.365 720.869 594.998Q721.181 596.632 721.436 598.275Q721.691 599.919 721.888 601.57Q722.086 603.221 722.225 604.879Q722.364 606.536 722.445 608.197Q722.526 609.858 722.548 611.521Q722.571 613.184 722.535 614.847Q722.499 616.51 722.405 618.17Q722.311 619.831 722.159 621.487Q722.006 623.143 721.796 624.793Q721.585 626.442 721.317 628.084Q721.049 629.725 720.724 631.356Q720.398 632.987 720.016 634.605Q719.633 636.224 719.194 637.828C712.404 631.642 706.801 624.831 700.83 617.908C701.571 640.753 695.084 665.975 680.65 684.035C680.394 681.08 679.975 678.026 679.96 675.065Q679.521 673.415 679.142 671.751C678.344 674.423 678.801 677.732 678.634 680.527C678.437 683.833 677.821 687.223 677.129 690.46C672.616 711.569 665.896 729.713 663.889 751.605C662.836 763.086 664.546 774.944 662.858 786.279C661.98 792.177 659.116 797.722 657.069 803.28C654.782 809.487 653.99 816.718 653.698 823.285C652.885 841.576 655.698 863.035 659.629 880.896Q661.44 888.908 663.894 896.748C658.833 898.997 653.887 900.875 648.533 902.339C646.139 902.993 642.815 903.318 640.603 904.268C631.051 905.356 620.023 904.189 610.49 902.845C610.99 894.513 609.417 885.655 609.538 877.196C600.397 876.57 570.444 873.34 564.2 874.938C566.312 887.242 568.843 900.614 573.74 912.146C565.144 916.43 557.441 920.708 547.944 922.735L544.239 923.582C535.906 924.861 527.995 925.394 519.624 924.053C514.586 909.103 512.844 889.561 511.483 873.826C493.979 873.175 384.936 871.002 378.506 873.957C380.122 877.833 383.181 883.154 383.67 887.269C370.16 893.611 356.528 899.189 341.376 899.668C338.384 899.702 335.418 899.623 332.428 899.487C329.18 891.682 326.286 883.46 323.778 875.39C310.546 877.008 296.889 878.827 283.575 879.24C287.023 889.9 290.664 899.924 295.595 910.005C285.858 914.861 276.355 917.737 265.595 919.306C256.803 920.149 248.205 920.351 239.385 919.825C236.536 916.147 230.756 891.118 229.183 884.977C226.463 876.666 224.5 868.093 222.083 859.686C214.328 832.715 206.88 805.118 201.566 777.557C215.381 749.222 219.093 717.837 212.957 686.908C210.169 672.855 205.955 659.122 203.648 644.962C198.929 615.988 200.257 587.194 209.743 559.292C212.673 549.261 219.176 540.442 223.792 531.174C224.008 530.742 224.403 530.357 224.43 529.875C224.669 525.585 200.528 499.453 196.602 494.831Q192.618 490.062 189.011 485.003C177.859 469.325 169.228 448.152 169.943 428.633C170.101 424.306 171.833 415.95 170.522 412.04L169.23 412.272C173.395 404.189 178.118 396.588 183.997 389.635Z"/>
	<path fill="#F2E9DD" d="M509.332 821.011C509.785 821.473 510.313 821.873 510.693 822.398C511.876 824.035 516.031 855.24 516.931 860.151C520.439 879.303 525.179 898.045 536.145 914.467C538.433 917.893 542.058 920.241 544.239 923.582C535.906 924.861 527.995 925.394 519.624 924.053C514.586 909.103 512.844 889.561 511.483 873.826C511.401 865.193 510.371 856.39 509.946 847.749C509.506 838.829 509.652 829.925 509.332 821.011Z"/>
	<path fill="#94BAB4" d="M295.868 781.028C298.751 786.383 299.306 794.229 301.045 800.118C308.482 825.297 315.46 850.47 323.778 875.39C310.546 877.008 296.889 878.827 283.575 879.24C276.878 851.697 271.837 827.064 272.002 798.569C281.202 794.396 288.695 788.054 295.868 781.028Z"/>
	<path fill="#F2E9DD" d="M539.03 436.41C572.302 462.038 600.265 477.975 641.739 486.751C656.593 489.895 672.066 491.736 687.198 489.714C690.865 489.224 694.519 488.501 698.132 487.709C695.851 501.047 698.444 510.841 703.885 523.06C703.427 523.813 702.888 524.552 702.284 525.195C697.331 530.47 685.949 532.208 679.047 532.494C642.511 534.004 593.427 497.465 566.635 474.585C557.258 466.578 548.467 457.751 539.347 449.429C539.826 445.182 539.329 440.658 539.03 436.41Z"/>
	<path fill="#F2E9DD" d="M329.81 724.058C334.554 709.638 336.936 692.71 336.932 677.554C336.931 670.151 336.116 662.65 336.628 655.271C339.552 672.261 342.995 684.215 357.752 694.536C386.742 714.81 437.248 721.765 471.845 715.54C473.091 715.316 474.3 715.048 475.52 714.712C477.338 709.893 478.385 704.857 479.973 699.965C481.887 694.066 484.235 688.276 486.465 682.489C486.31 692.6 485.486 702.703 485.543 712.815C485.612 725.06 486.775 737.196 487.947 749.375C458.88 750.373 429.98 750.632 401.272 745.256C376.618 742.361 352.334 734.315 329.81 724.058Z"/>
	<path fill="#F2E9DD" d="M697.288 550.628C704.242 558.084 713.328 562.232 723.219 564.073C726.625 564.707 733.159 565.789 736.042 563.81C738.554 565.744 740.923 567.742 743.253 569.891C735.49 573.961 727.282 573.613 719.09 571.039C716.923 570.358 714.839 569.411 712.837 568.341C714.586 574.044 716.808 579.593 718.482 585.315Q718.964 586.907 719.391 588.514Q719.817 590.122 720.187 591.743Q720.556 593.365 720.869 594.998Q721.181 596.632 721.436 598.275Q721.691 599.919 721.888 601.57Q722.086 603.221 722.225 604.879Q722.364 606.536 722.445 608.197Q722.526 609.858 722.548 611.521Q722.571 613.184 722.535 614.847Q722.499 616.51 722.405 618.17Q722.311 619.831 722.159 621.487Q722.006 623.143 721.796 624.793Q721.585 626.442 721.317 628.084Q721.049 629.725 720.724 631.356Q720.398 632.987 720.016 634.605Q719.633 636.224 719.194 637.828C712.404 631.642 706.801 624.831 700.83 617.908C701.571 640.753 695.084 665.975 680.65 684.035C680.394 681.08 679.975 678.026 679.96 675.065C680.037 671.398 679.697 667.765 679.401 664.113C673.362 688.074 642.274 716.692 622.28 730.442C624.839 724.307 626.823 717.947 628.918 711.644C620.344 718.83 612.47 726.824 603.555 733.617C599.561 736.659 592.188 739.56 589.222 743.188C583.233 746.048 576.319 746.311 570.251 748.92C573.806 715.768 591.357 684.89 610.217 657.985C603.264 675.771 598.063 696.329 595.867 715.3C600.692 712.017 605.817 709.225 610.568 705.813C619.666 699.278 629.444 690.243 636.221 681.264C640.334 675.815 643.836 669.68 647.468 663.895C648.104 671.554 648.316 679.846 646.007 687.243C650.717 683.771 654.85 680.125 658.639 675.647C672.232 659.583 679.565 640.796 677.724 619.645C682.49 627.275 686.135 636.013 689.968 644.16C699.675 623.307 695.08 598.643 689.266 577.414C696.333 585.22 702.805 592.504 712.307 597.348C712.043 593.721 712.248 590.101 711.736 586.482C709.947 573.826 703.36 561.724 697.288 550.628Z"/>
	<path fill="#CACDBD" d="M329.81 724.058C352.334 734.315 376.618 742.361 401.272 745.256C395.222 757.271 385.819 768.725 375.904 777.853C372.904 780.615 369.129 782.953 366.394 785.914C357.171 815.053 367.96 846.675 378.506 873.957C380.122 877.833 383.181 883.154 383.67 887.269C370.16 893.611 356.528 899.189 341.376 899.668C338.384 899.702 335.418 899.623 332.428 899.487C329.18 891.682 326.286 883.46 323.778 875.39C315.46 850.47 308.482 825.297 301.045 800.118C299.306 794.229 298.751 786.383 295.868 781.028C299.701 777.1 303.606 773.224 307.015 768.913C316.586 756.81 326.381 739.221 329.81 724.058Z"/>
	<path fill="#CACDBD" d="M622.28 730.442C642.274 716.692 673.362 688.074 679.401 664.113C679.697 667.765 680.037 671.398 679.96 675.065Q679.521 673.415 679.142 671.751C678.344 674.423 678.801 677.732 678.634 680.527C678.437 683.833 677.821 687.223 677.129 690.46C672.616 711.569 665.896 729.713 663.889 751.605C662.836 763.086 664.546 774.944 662.858 786.279C661.98 792.177 659.116 797.722 657.069 803.28C654.782 809.487 653.99 816.718 653.698 823.285C652.885 841.576 655.698 863.035 659.629 880.896Q661.44 888.908 663.894 896.748C658.833 898.997 653.887 900.875 648.533 902.339C646.139 902.993 642.815 903.318 640.603 904.268C631.051 905.356 620.023 904.189 610.49 902.845C610.99 894.513 609.417 885.655 609.538 877.196C600.397 876.57 570.444 873.34 564.2 874.938C561.719 864.378 559.363 831.627 561.968 821.685C563.861 814.463 568.727 808.388 569.341 800.747C569.906 793.712 568.885 786.316 568.533 779.261Q568.128 771.651 568.559 764.043Q568.99 756.435 570.251 748.92C576.319 746.311 583.233 746.048 589.222 743.188C592.188 739.56 599.561 736.659 603.555 733.617C612.47 726.824 620.344 718.83 628.918 711.644C626.823 717.947 624.839 724.307 622.28 730.442Z"/>
	<path fill="#94BAB4" d="M589.222 743.188C590.667 748.119 591.026 753.678 591.885 758.773C593.467 768.152 595.427 777.681 598.215 786.783C599.845 792.103 601.866 797.51 604.138 802.585C606.444 807.739 610.735 813.676 611.405 819.253C612.354 827.157 611.348 835.655 610.852 843.594C610.158 854.719 609.452 866.051 609.538 877.196C600.397 876.57 570.444 873.34 564.2 874.938C561.719 864.378 559.363 831.627 561.968 821.685C563.861 814.463 568.727 808.388 569.341 800.747C569.906 793.712 568.885 786.316 568.533 779.261Q568.128 771.651 568.559 764.043Q568.99 756.435 570.251 748.92C576.319 746.311 583.233 746.048 589.222 743.188Z"/>
	<path fill="#94BAB4" d="M401.272 745.256C429.98 750.632 458.88 750.373 487.947 749.375C489.606 766.986 495.237 793.574 502.466 809.668C504.295 813.741 507.416 817.081 509.332 821.011C509.652 829.925 509.506 838.829 509.946 847.749C510.371 856.39 511.401 865.193 511.483 873.826C493.979 873.175 384.936 871.002 378.506 873.957C367.96 846.675 357.171 815.053 366.394 785.914C369.129 782.953 372.904 780.615 375.904 777.853C385.819 768.725 395.222 757.271 401.272 745.256Z"/>
</svg>
