<?xml version="1.0" encoding="utf-8" ?>
<svg xmlns="http://www.w3.org/2000/svg" xmlns:xlink="http://www.w3.org/1999/xlink" width="517" height="517">
	<path fill="#7BC5BF" transform="scale(0.504883 0.504883)" d="M0 0L1024 0L1024 1024L0 1024L0 0Z"/>
	<path fill="#CAB5AA" transform="scale(0.504883 0.504883)" d="M700.53 790.364C706.757 784.254 712.89 777.904 718.14 770.924C718.533 771.88 718.732 772.59 718.662 773.639C718.187 780.767 716.048 788.391 714.667 795.41C711.307 812.498 707.5 829.527 704.298 846.636Q703.351 852.449 702.185 858.222C696.754 859.782 691.516 860.456 685.881 860.703L683.36 860.666C686.68 851.771 701.588 796.948 700.304 790.763L700.53 790.364Z"/>
	<path fill="#FAF0D9" transform="scale(0.504883 0.504883)" d="M700.304 790.763C701.588 796.948 686.68 851.771 683.36 860.666C673.201 860.253 663.56 856.064 655.105 850.709L658.863 841.547C662.449 833.113 666.846 817.299 668.671 808.275C681.43 807.127 691.366 799.22 700.304 790.763Z"/>
	<path fill="#9D4D32" transform="scale(0.504883 0.504883)" d="M210.144 104.556C226.177 118.886 239.484 133.916 250.54 152.433Q244.529 152.93 238.544 153.675C222.527 155.828 205.862 160.865 191.057 167.326L182.473 171.394C182.178 166.978 183.16 162.084 184.105 157.789C188.433 138.121 198.091 120.493 210.144 104.556Z"/>
	<path fill="#7B3222" transform="scale(0.504883 0.504883)" d="M211.619 124.529C220.295 130.208 232.314 145.16 238.544 153.675C222.527 155.828 205.862 160.865 191.057 167.326C193.553 152.747 203.915 137.049 211.619 124.529Z"/>
	<path fill="#9D4D32" transform="scale(0.504883 0.504883)" d="M339.265 676.131C354.101 692.349 368.643 703.917 388.387 713.62C395.682 716.822 403.198 720.375 411.044 721.969C409.377 733.83 408.305 745.816 406.995 757.724C406.374 763.367 406.133 769.579 404.639 775.04C398.413 784.436 391.318 793.439 381.639 799.53L380.389 800.535C372.399 804.987 364.779 807.336 355.871 809.234C358.704 779.805 353.097 752.659 347.774 723.912L339.265 676.131Z"/>
	<path fill="#7B3222" transform="scale(0.504883 0.504883)" d="M388.387 713.62C395.682 716.822 403.198 720.375 411.044 721.969C409.377 733.83 408.305 745.816 406.995 757.724C406.374 763.367 406.133 769.579 404.639 775.04C398.413 784.436 391.318 793.439 381.639 799.53C381.214 798.91 381.132 798.524 381.054 797.757C380.664 793.931 383.466 779.498 384.053 774.537Q386.534 753.727 387.372 732.786C387.456 730.118 386.78 716.198 387.41 714.859C387.635 714.384 388.061 714.033 388.387 713.62Z"/>
	<path fill="#7BC5BF" transform="scale(0.504883 0.504883)" d="M411.044 721.969C419.801 724.473 431.453 727.962 440.493 728.097C450.232 752.438 464.568 787.374 458.614 813.67C456.306 817.66 454.125 828.996 453.307 833.89C433.806 835.084 414.065 836.076 394.649 838.187C394.291 840.676 394.153 845.063 392.926 847.141Q387.315 848.357 381.596 848.866Q375.877 849.376 370.139 849.171C362.402 849.04 353.598 848.805 347.435 843.523C350.616 832.128 353.75 820.881 355.871 809.234C364.779 807.336 372.399 804.987 380.389 800.535L381.639 799.53C391.318 793.439 398.413 784.436 404.639 775.04C406.133 769.579 406.374 763.367 406.995 757.724C408.305 745.816 409.377 733.83 411.044 721.969Z"/>
	<path fill="#9C9F98" transform="scale(0.504883 0.504883)" d="M404.639 775.04C406.043 784.223 397.155 827.712 394.649 838.187C394.291 840.676 394.153 845.063 392.926 847.141Q387.315 848.357 381.596 848.866Q375.877 849.376 370.139 849.171C362.402 849.04 353.598 848.805 347.435 843.523C350.616 832.128 353.75 820.881 355.871 809.234C364.779 807.336 372.399 804.987 380.389 800.535L381.639 799.53C391.318 793.439 398.413 784.436 404.639 775.04Z"/>
	<path fill="#CAB5AA" transform="scale(0.504883 0.504883)" d="M380.389 800.535C381.256 803.273 371.771 843.436 370.139 849.171C362.402 849.04 353.598 848.805 347.435 843.523C350.616 832.128 353.75 820.881 355.871 809.234C364.779 807.336 372.399 804.987 380.389 800.535Z"/>
	<path fill="#DCBC96" transform="scale(0.504883 0.504883)" d="M697.709 512.799C702.516 505.651 708.953 497.799 717.947 496.223C727.418 494.564 737.398 499.541 744.794 505.054C781.766 532.616 780.507 589.358 811.749 620.788C816.097 625.162 820.906 628.287 826.018 631.646C833.149 635.166 840.619 638.406 848.534 639.65C852.671 642.111 856.772 644.591 861.109 646.692C869.379 648.733 883.172 654.681 891.487 651.128C892.205 650.821 892.773 650.603 893.527 650.42L893.79 650.961C886.351 661.21 869.34 669.769 857.041 672.324C839.293 676.013 820.838 673.04 804.678 664.97C774.656 649.977 755.731 619.502 744.748 588.729C738.958 572.508 732.725 543.493 722.68 530.24C720.61 527.509 718.298 525.726 715.472 523.872C712.876 525.318 710.494 526.931 708.076 528.655C706.27 526.222 704.712 523.503 703.073 520.949C701.433 518.162 699.504 515.492 697.709 512.799Z"/>
	<path fill="#EBD3B3" transform="scale(0.504883 0.504883)" d="M826.018 631.646C833.149 635.166 840.619 638.406 848.534 639.65C852.671 642.111 856.772 644.591 861.109 646.692C855.829 647.972 845.118 643.056 840.236 640.964C836.221 639.243 827.694 635.845 826.018 631.646Z"/>
	<path fill="#EDE3D8" transform="scale(0.504883 0.504883)" d="M117.304 411.439C119.388 410.782 122.183 405.948 124.278 404.328C131.163 399.005 139.111 394.379 147.427 391.729C168.343 385.062 193.978 389.187 213.613 398.123C218.823 400.495 223.417 403.761 228.476 406.354C229.535 406.897 229.42 406.688 230.479 406.35C244.192 418.15 258.168 446.909 259.501 464.529Q259.601 465.876 259.615 467.226L259.845 470.985C260.006 478.92 258.991 485.894 256.851 493.526C254.141 500.414 248.566 505.502 241.877 508.479C223.58 516.62 185.67 511.408 167.421 504.245C164.617 503.144 160.789 501.839 158.495 499.869C142.99 493.242 131.533 480.208 124.067 465.306C116.416 450.035 111.7 428.057 117.304 411.439Z"/>
	<path fill="#7B3222" transform="scale(0.504883 0.504883)" d="M133.151 408.277C133.345 408.276 133.54 408.265 133.735 408.274C135.202 408.344 136.292 408.807 137.265 409.941C139.048 412.017 139.014 415.373 138.683 417.921C138.029 422.954 136.271 426.988 132.273 430.156C131.085 429.959 129.982 429.688 129.077 428.831C127.231 427.082 126.8 424.306 126.909 421.887C127.153 416.484 129.136 411.857 133.151 408.277Z"/>
	<path fill="#9D4D32" transform="scale(0.504883 0.504883)" d="M200.607 419.466C201.452 419.643 202.372 419.857 203.159 420.215C204.616 420.879 205.795 422.468 206.322 423.942C207.544 427.358 206.319 431.741 204.73 434.839C202.506 439.176 199.753 441.543 195.192 443.118C195.062 443.105 194.93 443.101 194.801 443.08C192.967 442.776 191.27 441.951 190.295 440.313C188.952 438.057 189.43 435.136 190.151 432.765C191.896 427.027 195.316 422.329 200.607 419.466Z"/>
	<path fill="#CAB5AA" transform="scale(0.504883 0.504883)" d="M225.86 440.968C226.1 445.959 223.974 452.559 222.2 457.187C218.044 468.025 211.941 477.815 200.945 482.623C186.8 488.807 172.934 484.68 159.373 479.275C158.2 478.781 157.068 478.174 155.929 477.606C156.012 477.704 156.078 477.821 156.18 477.9C156.381 478.057 156.612 478.17 156.828 478.305L156.249 478.24L156.94 477.539C159.295 478.008 161.775 478.522 164.033 479.357C164.515 479.535 164.991 479.73 165.48 479.891C176.67 483.558 190.215 481.996 200.52 476.552C215.177 468.808 221.264 456.063 225.86 440.968Z"/>
	<path fill="#CAB5AA" transform="scale(0.504883 0.504883)" d="M259.615 467.226L259.845 470.985C260.006 478.92 258.991 485.894 256.851 493.526C254.141 500.414 248.566 505.502 241.877 508.479C223.58 516.62 185.67 511.408 167.421 504.245C164.617 503.144 160.789 501.839 158.495 499.869C177.924 501.225 195.375 502.569 214.641 497.985C233.983 493.383 249.104 484.36 259.615 467.226Z"/>
	<path fill="#FAF0D9" transform="scale(0.504883 0.504883)" d="M153.243 262.198C155.065 259.628 163.939 256.382 167.057 255.166C180.007 250.114 193.305 245.83 207.046 243.521C228.717 239.879 250.671 240.281 272.532 239.091Q291.746 237.994 310.679 234.541C331.257 230.729 349.443 224.09 367.426 213.377L367.086 218.214L366.832 221.793C363.586 226.757 324.438 248.335 316.229 253.721C307.938 259.162 300.281 265.556 292.846 272.102C266.04 295.701 245.117 323.048 227.121 353.783C220.752 364.661 213.861 376.855 209.946 388.85C217.163 393.869 224.586 399.775 230.479 406.35C229.42 406.688 229.535 406.897 228.476 406.354C223.417 403.761 218.823 400.495 213.613 398.123C193.978 389.187 168.343 385.062 147.427 391.729C139.111 394.379 131.163 399.005 124.278 404.328C122.183 405.948 119.388 410.782 117.304 411.439C121.375 398.801 128.712 391.677 139.504 384.408C139.771 366.095 144.181 347.106 150.158 329.844Q150.607 327.323 151.206 324.834C152.003 321.629 154.2 312.676 156.889 311.029C155.874 309.62 155.446 307.48 154.917 305.829C154.062 302.339 152.917 298.878 151.9 295.428Q150.601 290.179 149.402 284.906C149.4 282.683 149.567 280.579 149.874 278.378C150.381 272.858 152.883 267.605 153.243 262.198Z"/>
	<path fill="#BC6C45" transform="scale(0.504883 0.504883)" d="M150.158 329.844C150.412 333.053 151.866 342.357 151.626 345.03C151.545 349.587 155.159 355.605 158.267 358.688C162.058 362.449 166.954 364.156 172.252 364.056C175.709 363.991 178.963 363.277 182.077 361.765Q180.585 368.749 178.691 375.635C163.391 374.671 153.054 377.328 139.504 384.408C139.771 366.095 144.181 347.106 150.158 329.844Z"/>
	<path fill="#BC6C45" transform="scale(0.504883 0.504883)" d="M149.874 278.378C159.701 268.022 172.874 258.601 186.25 253.504C186.625 255.125 186.924 256.77 187.254 258.402C191.761 276.801 194.299 297.42 192.393 316.312C191.683 323.347 190.073 330.352 188.597 337.26C188.349 333.123 188.51 328.929 188.542 324.785C188.743 325.694 188.929 326.457 189.358 327.286C189.705 326.897 189.824 326.819 190.035 326.261C191.71 321.832 190.272 313.834 188.731 309.533L187.739 307.146C183.779 303.724 182.175 300.597 176.968 298.574C172.011 297.138 167.875 296.303 163.089 298.973C160.047 300.669 157.375 303.385 154.917 305.829C154.062 302.339 152.917 298.878 151.9 295.428Q150.601 290.179 149.402 284.906C149.4 282.683 149.567 280.579 149.874 278.378Z"/>
	<path fill="#9D4D32" transform="scale(0.504883 0.504883)" d="M149.402 284.906C157.134 281.785 165.459 279.614 173.591 282.947C180.145 285.633 184.07 291.502 186.588 297.851C187.998 301.404 188.978 305.081 189.828 308.801C189.201 309.551 189.584 309.334 188.731 309.533L187.739 307.146C183.779 303.724 182.175 300.597 176.968 298.574C172.011 297.138 167.875 296.303 163.089 298.973C160.047 300.669 157.375 303.385 154.917 305.829C154.062 302.339 152.917 298.878 151.9 295.428Q150.601 290.179 149.402 284.906Z"/>
	<path fill="#DCBC96" transform="scale(0.504883 0.504883)" d="M151.9 295.428C158.317 291.613 164.685 289.656 172.21 291.489C178.157 292.938 182.652 296.961 185.619 302.2C186.504 303.764 187.273 305.408 187.739 307.146C183.779 303.724 182.175 300.597 176.968 298.574C172.011 297.138 167.875 296.303 163.089 298.973C160.047 300.669 157.375 303.385 154.917 305.829C154.062 302.339 152.917 298.878 151.9 295.428Z"/>
	<path fill="#DCBC96" transform="scale(0.504883 0.504883)" d="M153.243 262.198C155.065 259.628 163.939 256.382 167.057 255.166C180.007 250.114 193.305 245.83 207.046 243.521C228.717 239.879 250.671 240.281 272.532 239.091Q291.746 237.994 310.679 234.541C331.257 230.729 349.443 224.09 367.426 213.377L367.086 218.214C333.325 238.806 307.025 245.935 267.593 248.034C254.52 248.73 241.351 248.871 228.317 250.095C215.143 251.333 199.479 253.296 187.254 258.402C186.924 256.77 186.625 255.125 186.25 253.504C172.874 258.601 159.701 268.022 149.874 278.378C150.381 272.858 152.883 267.605 153.243 262.198Z"/>
	<path fill="#451E11" transform="scale(0.504883 0.504883)" d="M154.917 305.829C157.375 303.385 160.047 300.669 163.089 298.973C167.875 296.303 172.011 297.138 176.968 298.574C182.175 300.597 183.779 303.724 187.739 307.146L188.731 309.533C190.272 313.834 191.71 321.832 190.035 326.261C189.824 326.819 189.705 326.897 189.358 327.286C188.929 326.457 188.743 325.694 188.542 324.785C188.51 328.929 188.349 333.123 188.597 337.26C187.436 344.986 185.142 353.034 182.423 360.369C176.801 362.545 170.511 364.072 164.718 361.521C158.33 358.708 153.92 351.366 151.626 345.03C151.866 342.357 150.412 333.053 150.158 329.844Q150.607 327.323 151.206 324.834C152.003 321.629 154.2 312.676 156.889 311.029C155.874 309.62 155.446 307.48 154.917 305.829Z"/>
	<path fill="#EDE3D8" transform="scale(0.504883 0.504883)" d="M163.459 338.434C164.614 338.402 166.076 338.272 167.088 338.955C167.732 339.391 168.244 339.997 168.398 340.758C168.798 342.732 167.819 344.259 166.779 345.824C165.526 345.691 164.215 345.521 163.15 344.768C162.227 344.115 161.607 343.2 161.569 342.049C161.519 340.547 162.539 339.473 163.459 338.434Z"/>
	<path fill="#FAF0D9" transform="scale(0.504883 0.504883)" d="M176.968 298.574C182.175 300.597 183.779 303.724 187.739 307.146L188.731 309.533C190.272 313.834 191.71 321.832 190.035 326.261C189.824 326.819 189.705 326.897 189.358 327.286C188.929 326.457 188.743 325.694 188.542 324.785Q188.537 323.883 188.414 322.989Q188.292 322.095 188.053 321.225Q187.815 320.354 187.465 319.523Q187.115 318.691 186.66 317.912C186.373 317.082 186.054 316.298 185.647 315.519C183.202 310.828 178.97 308.76 174.154 307.25C174.307 307.13 174.469 307.021 174.614 306.891C176.845 304.883 176.67 301.337 176.968 298.574Z"/>
	<path fill="#EDE3D8" transform="scale(0.504883 0.504883)" d="M154.917 305.829C157.375 303.385 160.047 300.669 163.089 298.973C167.875 296.303 172.011 297.138 176.968 298.574C176.67 301.337 176.845 304.883 174.614 306.891C174.469 307.021 174.307 307.13 174.154 307.25C171.566 306.934 169.31 306.79 166.694 307.114C163.246 307.848 160.626 309.83 157.728 311.725L156.889 311.029C155.874 309.62 155.446 307.48 154.917 305.829Z"/>
	<path fill="#EDE3D8" transform="scale(0.504883 0.504883)" d="M178.619 312.24C181.06 313.726 182.753 315.261 184.367 317.612C185.18 320.661 185.623 324.016 184.193 326.963C183.211 328.986 181.466 330.564 179.286 331.184Q178.9 331.294 178.506 331.365Q178.111 331.436 177.711 331.467Q177.312 331.498 176.911 331.489Q176.51 331.48 176.112 331.43Q175.714 331.38 175.323 331.291Q174.932 331.202 174.552 331.074Q174.172 330.946 173.807 330.78Q173.442 330.614 173.095 330.413C170.855 329.089 169.541 326.739 169.071 324.235C168.58 321.627 168.636 317.699 170.332 315.49C172.353 312.856 175.571 312.572 178.619 312.24Z"/>
	<path fill="#EDE3D8" transform="scale(0.504883 0.504883)" d="M399.117 465.451C396.282 493.96 394.033 522.248 393.677 550.91C393.534 562.434 394.747 573.988 394.535 585.476C399.43 613.071 405.052 639.549 414.912 665.906C422.735 686.817 432.962 707.423 440.493 728.097C431.453 727.962 419.801 724.473 411.044 721.969C403.198 720.375 395.682 716.822 388.387 713.62C368.643 703.917 354.101 692.349 339.265 676.131C330.152 665.614 320.358 650.724 316.213 637.376C315.498 634.339 313.792 631.081 312.66 628.142Q309.383 619.764 307.054 611.074C299.047 580.466 297.763 549.478 298.112 517.994C300.656 516.586 315.256 515.49 319.472 514.576C354.112 507.068 375.323 490.696 399.117 465.451Z"/>
	<path fill="#CAB5AA" transform="scale(0.504883 0.504883)" d="M394.535 585.476C399.43 613.071 405.052 639.549 414.912 665.906C422.735 686.817 432.962 707.423 440.493 728.097C431.453 727.962 419.801 724.473 411.044 721.969C403.198 720.375 395.682 716.822 388.387 713.62C368.643 703.917 354.101 692.349 339.265 676.131C330.152 665.614 320.358 650.724 316.213 637.376C319.376 639.571 322.535 645.616 324.932 648.845C336.672 664.655 351.634 677.338 371.034 682.228C385.492 685.872 399.556 684.684 412.449 677.056C410.721 671.063 408.438 665.197 406.606 659.226C399.227 635.183 393.497 610.798 394.535 585.476Z"/>
	<path fill="#FAF0D9" transform="scale(0.504883 0.504883)" d="M257.731 124.631C265.927 123.854 274.123 123.303 282.342 124.133C310.645 126.992 348.166 142.778 370.069 160.876C372.229 162.661 375.884 167.13 378.352 167.81C379.717 165.636 378.347 159.417 377.776 156.867C375.677 147.491 371.348 138.891 366.036 130.957C370.96 134.992 376.055 138.954 380.758 143.241C384.916 147.032 388.737 151.183 392.849 155.023C380.293 170.342 373.939 181.005 369.109 200.342C368.387 204.644 367.707 209.022 367.426 213.377C349.443 224.09 331.257 230.729 310.679 234.541Q291.746 237.994 272.532 239.091C250.671 240.281 228.717 239.879 207.046 243.521C193.305 245.83 180.007 250.114 167.057 255.166C163.939 256.382 155.065 259.628 153.243 262.198C145.184 266.454 138.122 271.624 131.019 277.281C127.858 279.799 124.616 282.874 121.211 285.003Q118.232 288.72 115.191 292.387C122.771 266.05 141.05 237.37 160.527 218.263C170.122 208.85 181.31 200.534 192.808 193.605C190.219 193.089 180.766 197.126 177.554 198.11C163.642 202.375 149.23 204.879 135.216 208.707C134.44 208.981 133.917 209.084 133.114 209.175L133.285 208.402C136.18 204.984 139.772 202.077 143.094 199.081C156.495 186.994 167.353 180.432 182.473 171.394L191.057 167.326C205.862 160.865 222.527 155.828 238.544 153.675Q244.529 152.93 250.54 152.433C276.988 152.298 291.885 154.469 316.395 164.329C298.345 149.706 279.007 134.233 257.731 124.631Z"/>
	<path fill="#DCBC96" transform="scale(0.504883 0.504883)" d="M135.216 208.707C135.405 208.456 135.584 208.198 135.784 207.955C138.053 205.193 143.777 203.035 146.96 201.471Q154.448 197.709 162.185 194.487Q169.922 191.266 177.867 188.601Q185.813 185.937 193.927 183.843Q202.042 181.75 210.285 180.237C216.26 179.096 222.262 177.855 228.35 177.523C216.076 182.152 204.351 187.379 192.808 193.605C190.219 193.089 180.766 197.126 177.554 198.11C163.642 202.375 149.23 204.879 135.216 208.707Z"/>
	<path fill="#EBD3B3" transform="scale(0.504883 0.504883)" d="M121.211 285.003C123.957 276.419 136.171 264.038 142.982 258.308C174.94 231.424 215.528 223.368 256.183 222.124C280.152 221.39 303.76 221.832 327.33 216.563C342.201 213.238 355.719 207.452 369.109 200.342C368.387 204.644 367.707 209.022 367.426 213.377C349.443 224.09 331.257 230.729 310.679 234.541Q291.746 237.994 272.532 239.091C250.671 240.281 228.717 239.879 207.046 243.521C193.305 245.83 180.007 250.114 167.057 255.166C163.939 256.382 155.065 259.628 153.243 262.198C145.184 266.454 138.122 271.624 131.019 277.281C127.858 279.799 124.616 282.874 121.211 285.003Z"/>
	<path fill="#FAF0D9" transform="scale(0.504883 0.504883)" d="M669.772 490.222C670.577 482.463 677.231 474.061 681.55 467.801C696.654 445.91 715.4 432.545 740.494 423.988C746.992 421.772 753.588 419.648 760.359 418.448C783.576 414.333 811.15 416.468 832.589 426.659C840.501 430.42 847.868 435.569 855.011 440.613C848.11 438.811 841.336 437.216 834.231 436.397C824.831 436.393 805.377 435.977 797.478 440.765C822.661 447.319 844.123 460.79 857.392 483.641C867.692 501.377 868.112 520.788 867.129 540.692C864.174 534.852 861.347 528.839 857.925 523.255C848.404 507.717 834.743 491.96 819.756 481.54C827.763 490.8 835.748 500.38 840.703 511.697C843.552 518.203 845.153 525.243 847.018 532.077C851.192 547.376 857.305 562.502 870.317 572.364C875.906 576.6 882.211 579.495 889.268 579.978C902.508 580.885 916.203 574.446 925.916 565.798Q927.835 564.12 929.59 562.271Q931.344 560.421 932.918 558.416Q934.493 556.411 935.873 554.268Q937.253 552.125 938.428 549.862C937.133 558.05 935.504 565.989 932.78 573.841C928.717 590.896 916.112 610.553 901.053 619.864C888.729 627.483 874.78 630.417 860.568 626.972C849.011 624.17 840.814 618.122 833.112 609.3C831.648 607.624 829.731 604.688 827.815 603.727C831.873 616.378 838.545 630.6 848.534 639.65C840.619 638.406 833.149 635.166 826.018 631.646C820.906 628.287 816.097 625.162 811.749 620.788C780.507 589.358 781.766 532.616 744.794 505.054C737.398 499.541 727.418 494.564 717.947 496.223C708.953 497.799 702.516 505.651 697.709 512.799C689.564 503.307 680.839 496.056 669.772 490.222Z"/>
	<path fill="#EBD3B3" transform="scale(0.504883 0.504883)" d="M763.509 440.261Q764.827 439.52 766.175 438.834C770.831 436.457 776.026 435.063 781.081 433.821C799.675 429.253 816.21 430.647 834.231 436.397C824.831 436.393 805.377 435.977 797.478 440.765C790.686 438.429 770.923 439.128 763.509 440.261Z"/>
	<path fill="#EBD3B3" transform="scale(0.504883 0.504883)" d="M827.815 603.727C825.951 599.962 824.864 595.277 823.696 591.221C818.691 573.838 815.455 555.933 811.908 538.208L812.52 537.849L812.109 536.916L811.719 536.93L811.746 536.438L811.727 537.158L812.163 537.074C814.371 543.218 816.519 550.501 819.863 556.086C832.687 577.498 846.581 593.855 871.974 600.103C892.076 605.049 908.708 599.408 922.72 584.373C925.367 581.533 928.614 576.07 931.952 574.254C932.223 574.106 932.504 573.978 932.78 573.841C928.717 590.896 916.112 610.553 901.053 619.864C888.729 627.483 874.78 630.417 860.568 626.972C849.011 624.17 840.814 618.122 833.112 609.3C831.648 607.624 829.731 604.688 827.815 603.727Z"/>
	<path fill="#FAF0D9" transform="scale(0.504883 0.504883)" d="M448.173 202.399C452.793 203.413 456.998 206.547 461.059 208.845C486.311 223.143 505.217 243.528 520.779 267.819Q526.507 276.623 530.817 286.202C525.511 281.331 520.045 276.435 513.94 272.579C500.758 264.253 480.064 257.605 464.277 257.055C471.36 259.584 478.485 262.015 485.139 265.566C511.953 279.875 532.085 306.027 544.904 333.103C552.759 349.692 559.631 369.132 560.036 387.56C561.554 398.893 560.447 411.078 559.712 422.433C548.148 398.774 543.727 387.384 524.454 367.329C521.539 364.297 518.193 360 514.355 358.186C520.196 368.663 525.578 379.069 529.797 390.315C540.497 418.838 546.311 459.093 540.04 489.054C539.767 492.975 538.624 496.773 537.711 500.583C536.206 503.622 535.516 506.835 534.96 510.161C543.696 524.676 558.701 536.785 575.238 541.01Q580.311 542.3 585.501 542.975L587.42 543.164L587.828 543.746C585.354 546.84 571.305 549.66 567.229 550.296C561.013 550.939 554.879 551.192 548.645 550.608C530.102 548.872 517.705 541.241 505.988 527.035C508.829 531.687 511.582 536.347 514.183 541.139Q517.426 547.076 521.378 552.567C523.93 556.153 532.756 566.136 533.775 569.332C528.044 565.378 520.512 562.917 515.343 558.311C493.711 546.966 477.802 527.128 466.277 506.071C460.719 492.558 455.215 479.57 452.176 465.18C448.487 447.718 449.007 430.304 449.003 412.585C448.999 394.464 448.841 375.285 446.622 357.296C446.488 351.058 445.571 344.694 444.798 338.505C441.698 313.666 435.539 290.702 426.897 267.269C440.941 246.473 446.439 227.215 448.173 202.399Z"/>
	<path fill="#EBD3B3" transform="scale(0.504883 0.504883)" d="M534.96 510.161C526.777 502.337 516.498 471.994 511.226 460.447C505.485 447.874 498.889 434.819 491.877 422.923C496.248 428.374 501.521 433.339 506.24 438.508C518.885 452.356 534.358 471.089 540.04 489.054C539.767 492.975 538.624 496.773 537.711 500.583C536.206 503.622 535.516 506.835 534.96 510.161Z"/>
	<path fill="#EBD3B3" transform="scale(0.504883 0.504883)" d="M484.547 328.082C511.964 337.711 532.433 347.202 550.373 371.337C554.126 376.386 556.205 382.697 560.036 387.56C561.554 398.893 560.447 411.078 559.712 422.433C548.148 398.774 543.727 387.384 524.454 367.329C521.539 364.297 518.193 360 514.355 358.186C505.333 347.574 495.445 336.8 484.547 328.082Z"/>
	<path fill="#EBD3B3" transform="scale(0.504883 0.504883)" d="M515.343 558.311C515.258 555.502 502.813 537.835 500.896 534.047C491.303 515.089 480.226 487.713 473.93 467.519C477.018 473.066 480.023 478.717 483.462 484.056C499.807 509.432 529.402 536.404 559.704 542.807C564.836 543.892 581.36 545.646 585.501 542.975L587.42 543.164L587.828 543.746C585.354 546.84 571.305 549.66 567.229 550.296C561.013 550.939 554.879 551.192 548.645 550.608C530.102 548.872 517.705 541.241 505.988 527.035C508.829 531.687 511.582 536.347 514.183 541.139Q517.426 547.076 521.378 552.567C523.93 556.153 532.756 566.136 533.775 569.332C528.044 565.378 520.512 562.917 515.343 558.311Z"/>
	<path fill="#BC6C45" transform="scale(0.504883 0.504883)" d="M392.849 155.023C398.196 149.122 413.157 129.297 420.686 128.706C422.623 128.554 424.229 129.549 425.599 130.82C429.023 133.996 431.326 138.818 433.45 142.912C442.683 160.7 448.138 178.854 448.278 199.003Q448.288 200.703 448.173 202.399C446.439 227.215 440.941 246.473 426.897 267.269C435.539 290.702 441.698 313.666 444.798 338.505C445.571 344.694 446.488 351.058 446.622 357.296C446.288 362.031 444.419 367.232 443.361 371.931C437.197 399.313 428.21 424.689 412.756 448.239C409.438 453.295 405.141 459.551 400.674 463.617C400.265 463.989 399.87 464.277 399.347 464.46L399.117 465.451C375.323 490.696 354.112 507.068 319.472 514.576C315.256 515.49 300.656 516.586 298.112 517.994C297.858 508.38 299.593 498.804 299.627 489.198C285.393 491.303 271.288 493.697 256.851 493.526C258.991 485.894 260.006 478.92 259.845 470.985L259.615 467.226Q259.601 465.876 259.501 464.529C258.168 446.909 244.192 418.15 230.479 406.35C224.586 399.775 217.163 393.869 209.946 388.85C213.861 376.855 220.752 364.661 227.121 353.783C245.117 323.048 266.04 295.701 292.846 272.102C300.281 265.556 307.938 259.162 316.229 253.721C324.438 248.335 363.586 226.757 366.832 221.793L367.086 218.214L367.426 213.377C367.707 209.022 368.387 204.644 369.109 200.342C373.939 181.005 380.293 170.342 392.849 155.023Z"/>
	<path fill="#9D4D32" transform="scale(0.504883 0.504883)" d="M286.75 325.432C285.311 322.655 287.529 315.649 288.462 312.7C291.732 302.357 299.416 293.62 309.037 288.628C317.31 284.335 327.584 283.053 336.508 286.011C346.877 289.448 355.266 298.471 359.994 308.094C363.938 316.123 367.848 331.006 364.969 339.68C364.144 330.413 361.984 321.032 356.284 313.489C351.012 304.947 341.63 298.568 331.93 296.234Q331.024 296.022 330.11 295.854Q329.195 295.686 328.273 295.563Q327.351 295.44 326.424 295.361Q325.497 295.283 324.568 295.25Q323.638 295.217 322.708 295.23Q321.779 295.242 320.85 295.3Q319.922 295.358 318.998 295.46Q318.073 295.563 317.155 295.711Q316.237 295.859 315.327 296.051Q314.417 296.243 313.517 296.479Q312.617 296.716 311.73 296.996Q310.844 297.276 309.971 297.598Q309.099 297.921 308.243 298.286Q307.388 298.651 306.551 299.057Q305.714 299.463 304.898 299.909Q304.082 300.355 303.289 300.841C294.243 306.497 289.414 315.334 286.75 325.432Z"/>
	<path fill="#EBD3B3" transform="scale(0.504883 0.504883)" d="M356.284 313.489C361.984 321.032 364.144 330.413 364.969 339.68C364.581 355.573 361.277 370.618 349.294 381.977C342.083 388.812 332.583 393.079 322.542 392.804C316.844 392.649 305.94 390.22 301.982 385.936C301.4 385.307 301.224 385.058 301.146 384.241C304.05 385.864 306.833 387.056 310.145 387.608Q310.867 387.728 311.594 387.812Q312.32 387.897 313.051 387.945Q313.781 387.993 314.512 388.006Q315.244 388.018 315.975 387.994Q316.707 387.97 317.436 387.911Q318.165 387.851 318.891 387.755Q319.616 387.659 320.336 387.528Q321.056 387.397 321.768 387.23Q322.481 387.064 323.184 386.862Q323.887 386.66 324.58 386.424Q325.273 386.188 325.953 385.919Q326.633 385.649 327.299 385.346Q327.965 385.043 328.615 384.707Q329.265 384.372 329.898 384.005Q330.531 383.638 331.145 383.24Q331.759 382.842 332.353 382.414C342.511 374.994 346.426 364.706 348.325 352.671C348.618 352.975 348.915 353.275 349.191 353.595C350.213 354.783 351.191 356.442 352.712 357.022C353.477 357.314 353.737 357.015 354.444 356.735C360.882 347.443 359.164 333.652 357.637 323.206C357.218 320.342 356.324 317.342 356.283 314.453C356.279 314.132 356.284 313.81 356.284 313.489Z"/>
	<path fill="#FAF0D9" transform="scale(0.504883 0.504883)" d="M286.75 325.432C289.414 315.334 294.243 306.497 303.289 300.841Q304.082 300.355 304.898 299.909Q305.714 299.463 306.551 299.057Q307.388 298.651 308.243 298.286Q309.099 297.921 309.971 297.598Q310.844 297.276 311.73 296.996Q312.617 296.716 313.517 296.479Q314.417 296.243 315.327 296.051Q316.237 295.859 317.155 295.711Q318.073 295.563 318.998 295.46Q319.922 295.358 320.85 295.3Q321.779 295.242 322.708 295.23Q323.638 295.217 324.568 295.25Q325.497 295.283 326.424 295.361Q327.351 295.44 328.273 295.563Q329.195 295.686 330.11 295.854Q331.024 296.022 331.93 296.234C341.63 298.568 351.012 304.947 356.284 313.489C356.284 313.81 356.279 314.132 356.283 314.453C356.324 317.342 357.218 320.342 357.637 323.206C359.164 333.652 360.882 347.443 354.444 356.735C353.737 357.015 353.477 357.314 352.712 357.022C351.191 356.442 350.213 354.783 349.191 353.595C348.915 353.275 348.618 352.975 348.325 352.671C348.348 344.373 346.803 335.994 342.769 328.664C338.576 321.049 331.534 314.829 323.025 312.588C315.364 310.57 306.792 311.617 299.983 315.734C291.861 320.645 287.437 329.072 285.384 338.064C284.558 333.982 285.943 329.465 286.75 325.432Z"/>
	<path fill="#451E11" transform="scale(0.504883 0.504883)" d="M285.384 338.064C287.437 329.072 291.861 320.645 299.983 315.734C306.792 311.617 315.364 310.57 323.025 312.588C331.534 314.829 338.576 321.049 342.769 328.664C346.803 335.994 348.348 344.373 348.325 352.671C346.426 364.706 342.511 374.994 332.353 382.414Q331.759 382.842 331.145 383.24Q330.531 383.638 329.898 384.005Q329.265 384.372 328.615 384.707Q327.965 385.043 327.299 385.346Q326.633 385.649 325.953 385.919Q325.273 386.189 324.58 386.424Q323.887 386.66 323.184 386.862Q322.48 387.064 321.768 387.23Q321.056 387.397 320.336 387.528Q319.616 387.659 318.89 387.755Q318.165 387.851 317.436 387.911Q316.707 387.97 315.975 387.994Q315.244 388.018 314.512 388.006Q313.781 387.993 313.051 387.945Q312.32 387.897 311.594 387.812Q310.867 387.728 310.145 387.608C306.833 387.056 304.05 385.864 301.146 384.241C299.017 381.986 296.611 379.996 294.499 377.724C292.861 375.962 291.633 373.463 290.513 371.343C284.494 359.942 284.891 350.514 285.384 338.064Z"/>
	<path fill="#EDE3D8" transform="scale(0.504883 0.504883)" d="M306.165 360.24C306.884 360.472 307.861 360.702 308.489 361.11C309.699 361.895 309.814 362.389 310.195 363.68C309.842 365.374 309.166 366.081 307.974 367.303C307.396 367.086 306.528 366.828 306.004 366.46C304.841 365.644 304.556 364.877 304.272 363.542C304.601 361.873 304.935 361.415 306.165 360.24Z"/>
	<path fill="#EDE3D8" transform="scale(0.504883 0.504883)" d="M320.827 319.084C323.693 319.066 326.138 319.545 328.686 320.897C334.168 323.806 338.578 329.423 340.392 335.331C341.538 339.065 341.501 343.08 339.61 346.569C337.574 350.327 334.426 352.063 330.485 353.291C327.267 353.552 324.455 353.348 321.48 351.986C316.203 349.57 312.43 344.626 310.62 339.2C309.169 334.851 308.981 329.926 311.271 325.823C313.399 322.01 316.738 320.162 320.827 319.084Z"/>
	<path fill="#9D4D32" transform="scale(0.504883 0.504883)" d="M392.849 155.023C398.196 149.122 413.157 129.297 420.686 128.706C422.623 128.554 424.229 129.549 425.599 130.82C429.023 133.996 431.326 138.818 433.45 142.912C442.683 160.7 448.138 178.854 448.278 199.003Q448.288 200.703 448.173 202.399C446.439 227.215 440.941 246.473 426.897 267.269C435.539 290.702 441.698 313.666 444.798 338.505C445.571 344.694 446.488 351.058 446.622 357.296C446.288 362.031 444.419 367.232 443.361 371.931C437.197 399.313 428.21 424.689 412.756 448.239C409.438 453.295 405.141 459.551 400.674 463.617C400.265 463.989 399.87 464.277 399.347 464.46L399.117 465.451C375.323 490.696 354.112 507.068 319.472 514.576C315.256 515.49 300.656 516.586 298.112 517.994C297.858 508.38 299.593 498.804 299.627 489.198C285.393 491.303 271.288 493.697 256.851 493.526C258.991 485.894 260.006 478.92 259.845 470.985C269.745 469.334 279.664 468.72 289.539 466.643C327.923 458.572 366.505 439.803 393.389 410.72C414.844 387.511 427.043 352.863 427.891 321.461C428.364 303.937 426.216 286.42 425.505 268.927C418.242 277.932 411.68 285.638 400.517 289.609C400.625 285.444 399.087 280.981 399.618 276.933C398.502 274.472 398.064 271.28 397.254 268.661Q394.746 260.38 391.133 252.517C386.454 242.204 378.87 232.393 375.319 221.879C373.46 225.726 373.213 230.335 371.182 234.072C370.697 234.964 370.665 235.187 369.654 235.443C367.626 232.756 367.364 225.342 366.832 221.793L367.086 218.214L367.426 213.377C367.707 209.022 368.387 204.644 369.109 200.342C373.939 181.005 380.293 170.342 392.849 155.023Z"/>
	<path fill="#CAB5AA" transform="scale(0.504883 0.504883)" d="M299.627 489.198C331.246 483.212 363.798 472.076 388.059 450.123C393.602 445.107 398.387 439.376 403.256 433.724C402.284 444.016 399.968 454.102 399.347 464.46L399.117 465.451C375.323 490.696 354.112 507.068 319.472 514.576C315.256 515.49 300.656 516.586 298.112 517.994C297.858 508.38 299.593 498.804 299.627 489.198Z"/>
	<path fill="#FDA072" transform="scale(0.504883 0.504883)" d="M375.319 221.879Q375.795 219.742 376.343 217.623Q376.892 215.503 377.511 213.404Q378.131 211.304 378.822 209.227Q379.513 207.15 380.273 205.097Q381.034 203.044 381.864 201.019Q382.694 198.993 383.592 196.996Q384.49 195 385.456 193.035Q386.421 191.071 387.453 189.14Q388.484 187.209 389.581 185.314Q390.677 183.419 391.837 181.563Q392.997 179.706 394.219 177.89Q395.442 176.074 396.725 174.3Q398.008 172.527 399.351 170.798Q400.694 169.069 402.094 167.386Q403.495 165.704 404.952 164.07Q406.409 162.436 407.92 160.852C411.472 157.074 415.291 152.934 419.615 150.036C432.472 183.113 435.41 214.161 420.845 247.43C415.615 259.376 408.967 267.956 399.618 276.933C398.502 274.472 398.064 271.28 397.254 268.661Q394.746 260.38 391.133 252.517C386.454 242.204 378.87 232.393 375.319 221.879Z"/>
	<path fill="#4CA19D" transform="scale(0.504883 0.504883)" d="M622.421 701.452C629.517 715.232 634.847 723.595 644.3 735.776C664.159 761.368 674.197 769.85 669.309 804.888C669.079 806.01 668.798 807.138 668.671 808.275C666.846 817.299 662.449 833.113 658.863 841.547L655.105 850.709C663.56 856.064 673.201 860.253 683.36 860.666L685.881 860.703C691.516 860.456 696.754 859.782 702.185 858.222Q703.351 852.449 704.298 846.636C723.987 851.629 766.356 858.561 777.457 876.754C779.036 879.34 780.165 881.73 779.362 884.773C777.46 891.977 768.331 898.008 762.144 901.397C745.912 910.29 718.467 916.358 700.208 920.286C615.159 938.583 526.132 940.668 439.622 933.608C399.569 930.339 358.915 925.152 320.305 913.626C303.479 908.604 281.934 902.245 273.073 885.871C273.214 881.967 273.081 877.902 275.364 874.534C277.976 870.681 282.292 867.862 286.185 865.431C304.664 853.897 325.69 849.568 346.665 845.071L347.435 843.523C353.598 848.805 362.402 849.04 370.139 849.171Q375.877 849.376 381.596 848.866Q387.315 848.357 392.926 847.141C394.153 845.063 394.291 840.676 394.649 838.187C414.065 836.076 433.806 835.084 453.307 833.89C454.125 828.996 456.306 817.66 458.614 813.67C468.163 812.493 476.748 808.256 484.737 803.08L485.238 802.456C493.516 797.071 499.871 788.906 505.827 781.163C509.209 766.573 509.627 747.577 512.234 732.108C522.771 730.585 533.362 729.59 543.904 727.992C570.314 722.539 589.747 716.688 614.083 705.2C616.734 703.669 619.59 702.601 622.421 701.452Z"/>
	<path fill="#423736" transform="scale(0.504883 0.504883)" d="M685.881 860.703C691.516 860.456 696.754 859.782 702.185 858.222C699.731 869.661 696.695 880.253 692.391 891.146C685.841 893.524 679.019 894.546 672.162 895.618C673.173 890.535 680.692 864.897 683.024 861.272C683.865 861.211 684.618 861.18 685.422 860.894C685.578 860.839 685.728 860.767 685.881 860.703Z"/>
	<path fill="#423736" transform="scale(0.504883 0.504883)" d="M490.458 869.105C490.413 875.401 483.543 896.367 480.528 902.244C474.322 906.2 466.217 907.915 458.969 908.74C460.035 904.017 462.185 899.289 463.89 894.757L471.78 873.305L472.129 873.092C478.441 873.021 484.618 871.388 490.458 869.105Z"/>
	<path fill="#423736" transform="scale(0.504883 0.504883)" d="M370.139 849.171Q375.877 849.376 381.596 848.866Q387.315 848.357 392.926 847.141C390.885 855.223 387.782 871.909 384.013 878.566C382.94 880.463 381.494 881.959 379.608 883.059C374.409 886.093 366.105 886.511 360.163 886.579L354.353 886.191C355.228 885.782 354.787 886.024 355.666 885.451L354.859 885.335C360.265 877.76 363.933 868.428 366.75 859.614C367.85 856.173 368.457 852.373 370.139 849.171Z"/>
	<path fill="#635D59" transform="scale(0.504883 0.504883)" d="M347.435 843.523C353.598 848.805 362.402 849.04 370.139 849.171C368.457 852.373 367.85 856.173 366.75 859.614C363.933 868.428 360.265 877.76 354.859 885.335L355.666 885.451C354.787 886.024 355.228 885.782 354.353 886.191L360.163 886.579C350.824 887.876 340.148 885.429 331.338 882.422C336.423 869.911 341.95 857.758 346.665 845.071L347.435 843.523Z"/>
	<path fill="#635D59" transform="scale(0.504883 0.504883)" d="M428.224 904.444C430.653 896.938 433.787 889.603 436.482 882.183C438.771 875.883 440.673 869.198 443.484 863.129C451.221 870.482 461.361 872.962 471.78 873.305L463.89 894.757C462.185 899.289 460.035 904.017 458.969 908.74C450.805 910.916 435.841 907.916 428.224 904.444Z"/>
	<path fill="#635D59" transform="scale(0.504883 0.504883)" d="M655.105 850.709C663.56 856.064 673.201 860.253 683.36 860.666L685.881 860.703C685.728 860.767 685.578 860.839 685.422 860.894C684.618 861.18 683.865 861.211 683.024 861.272C680.692 864.897 673.173 890.535 672.162 895.618Q663.342 896.282 654.507 895.854C650.675 895.631 642.432 895.409 639.749 892.366C639.572 884.676 651.38 858.174 655.105 850.709Z"/>
	<path fill="#423736" transform="scale(0.504883 0.504883)" d="M558.13 825.339C567.21 831.425 576.162 835.752 587.267 836.128C594.171 835.492 600.399 832.929 606.713 830.267Q605.872 833.156 605.083 836.06C602.749 844.012 600.442 853.295 596.565 860.607C590.407 864.382 583.749 866.025 576.603 866.787C565.603 868.034 554.649 865.716 544.392 861.889C547.357 852.188 551.536 842.587 555.178 833.098C556.25 830.557 557.161 827.923 558.13 825.339Z"/>
	<path fill="#FAF0D9" transform="scale(0.504883 0.504883)" d="M505.827 781.163C505.841 787.161 504.57 793.31 503.621 799.221C501.814 810.469 499.63 821.722 498.22 833.022C497.141 839.112 492.719 864.949 490.458 869.105C484.618 871.388 478.441 873.021 472.129 873.092L471.78 873.305C461.361 872.962 451.221 870.482 443.484 863.129C446.983 853.39 449.01 843.443 453.307 833.89C454.125 828.996 456.306 817.66 458.614 813.67C468.163 812.493 476.748 808.256 484.737 803.08L485.238 802.456C493.516 797.071 499.871 788.906 505.827 781.163Z"/>
	<path fill="#EDE3D8" transform="scale(0.504883 0.504883)" d="M505.827 781.163C505.841 787.161 504.57 793.31 503.621 799.221C501.814 810.469 499.63 821.722 498.22 833.022C497.141 839.112 492.719 864.949 490.458 869.105C484.618 871.388 478.441 873.021 472.129 873.092Q479.088 847.637 482.851 821.518C483.734 815.591 485.001 809.074 484.737 803.08L485.238 802.456C493.516 797.071 499.871 788.906 505.827 781.163Z"/>
	<path fill="#7BC5BF" transform="scale(0.504883 0.504883)" d="M512.234 732.108C522.771 730.585 533.362 729.59 543.904 727.992Q550.744 739.444 557.966 750.66C568.479 767.074 571.349 774.443 566.58 793.797C564.031 804.235 560.043 814.828 558.13 825.339C557.161 827.923 556.25 830.557 555.178 833.098L498.22 833.022C499.63 821.722 501.814 810.469 503.621 799.221C504.57 793.31 505.841 787.161 505.827 781.163C509.209 766.573 509.627 747.577 512.234 732.108Z"/>
	<path fill="#7BC5BF" transform="scale(0.504883 0.504883)" d="M622.421 701.452C629.517 715.232 634.847 723.595 644.3 735.776C664.159 761.368 674.197 769.85 669.309 804.888C669.079 806.01 668.798 807.138 668.671 808.275C666.846 817.299 662.449 833.113 658.863 841.547C655.326 840.572 650.949 840.699 647.285 840.425C639.767 839.863 610.373 838.104 605.083 836.06Q605.872 833.156 606.713 830.267C600.399 832.929 594.171 835.492 587.267 836.128C576.162 835.752 567.21 831.425 558.13 825.339C560.043 814.828 564.031 804.235 566.58 793.797C571.349 774.443 568.479 767.074 557.966 750.66Q550.744 739.444 543.904 727.992C570.314 722.539 589.747 716.688 614.083 705.2C616.734 703.669 619.59 702.601 622.421 701.452Z"/>
	<path fill="#9C9F98" transform="scale(0.504883 0.504883)" d="M620.725 766.577C623.001 781.494 611.952 815.755 606.713 830.267C600.399 832.929 594.171 835.492 587.267 836.128C576.162 835.752 567.21 831.425 558.13 825.339C560.043 814.828 564.031 804.235 566.58 793.797C569.447 793.675 572.363 793.592 575.211 793.228C591.934 791.092 610.413 779.752 620.725 766.577Z"/>
	<path fill="#7B3222" transform="scale(0.504883 0.504883)" d="M614.083 705.2C613.614 711.413 612.244 718.496 613.195 724.664C613.959 729.616 616.488 734.399 618.186 739.075C620.932 746.637 622.676 758.717 620.725 766.577C610.413 779.752 591.934 791.092 575.211 793.228C572.363 793.592 569.447 793.675 566.58 793.797C571.349 774.443 568.479 767.074 557.966 750.66Q550.744 739.444 543.904 727.992C570.314 722.539 589.747 716.688 614.083 705.2Z"/>
	<path fill="#BC6C45" transform="scale(0.504883 0.504883)" d="M446.622 357.296C448.841 375.285 448.999 394.464 449.003 412.585C449.007 430.304 448.487 447.718 452.176 465.18C455.215 479.57 460.719 492.558 466.277 506.071C477.802 527.128 493.711 546.966 515.343 558.311C520.512 562.917 528.044 565.378 533.775 569.332C532.756 566.136 523.93 556.153 521.378 552.567Q517.426 547.076 514.183 541.139C511.582 536.347 508.829 531.687 505.988 527.035C517.705 541.241 530.102 548.872 548.645 550.608C554.879 551.192 561.013 550.939 567.229 550.296C571.305 549.66 585.354 546.84 587.828 543.746L587.42 543.164L585.501 542.975Q580.311 542.3 575.238 541.01C558.701 536.785 543.696 524.676 534.96 510.161C535.516 506.835 536.206 503.622 537.711 500.583C568.162 485.952 617.426 478.45 650.451 484.373C657.056 485.557 663.427 488.09 669.772 490.222C680.839 496.056 689.564 503.307 697.709 512.799C699.504 515.492 701.433 518.162 703.073 520.949C704.712 523.503 706.27 526.222 708.076 528.655C712.679 538.103 717.006 547.541 719.928 557.676C731.169 596.669 725.032 640.215 715.411 678.916C712.099 692.239 705.169 712.764 704.411 725.76C703.338 744.15 724.494 754.012 719.476 768.321C719.146 769.262 718.654 770.076 718.14 770.924C712.89 777.904 706.757 784.254 700.53 790.364L700.304 790.763C691.366 799.22 681.43 807.127 668.671 808.275C668.798 807.138 669.079 806.01 669.309 804.888C674.197 769.85 664.159 761.368 644.3 735.776C634.847 723.595 629.517 715.232 622.421 701.452C619.59 702.601 616.734 703.669 614.083 705.2C589.747 716.688 570.314 722.539 543.904 727.992C533.362 729.59 522.771 730.585 512.234 732.108C509.627 747.577 509.209 766.573 505.827 781.163C499.871 788.906 493.516 797.071 485.238 802.456L484.737 803.08C476.748 808.256 468.163 812.493 458.614 813.67C464.568 787.374 450.232 752.438 440.493 728.097C432.962 707.423 422.735 686.817 414.912 665.906C405.052 639.549 399.43 613.071 394.535 585.476C394.747 573.988 393.534 562.434 393.677 550.91C394.033 522.248 396.282 493.96 399.117 465.451L399.347 464.46C399.87 464.277 400.265 463.989 400.674 463.617C405.141 459.551 409.438 453.295 412.756 448.239C428.21 424.689 437.197 399.313 443.361 371.931C444.419 367.232 446.288 362.031 446.622 357.296Z"/>
	<path fill="#9D4D32" transform="scale(0.504883 0.504883)" d="M505.988 527.035C517.705 541.241 530.102 548.872 548.645 550.608C554.879 551.192 561.013 550.939 567.229 550.296C576.016 551.923 585.895 551.98 594.848 552.258C588.09 556.179 579.807 558.821 572.263 560.721C556.796 564.617 540.532 563.463 528.082 552.424C524.009 548.813 519.952 541.423 514.183 541.139C511.582 536.347 508.829 531.687 505.988 527.035Z"/>
	<path fill="#9D4D32" transform="scale(0.504883 0.504883)" d="M466.277 506.071C477.802 527.128 493.711 546.966 515.343 558.311C520.512 562.917 528.044 565.378 533.775 569.332C535.542 572.39 541.26 576.127 544.239 578.261Q540.243 578.029 536.305 577.316Q532.367 576.603 528.544 575.418C504.449 567.952 484.279 547.591 472.776 525.597C470.455 521.157 464.822 510.817 466.277 506.071Z"/>
	<path fill="#9D4D32" transform="scale(0.504883 0.504883)" d="M700.53 790.364C700.374 787.551 701.27 784.527 701.8 781.762C703.276 774.049 705.249 764.443 702.89 756.75C699.615 746.069 686.611 740.222 687.006 728.047C687.317 718.479 697.733 691.039 700.678 680.006Q703.722 668.702 706.107 657.24Q708.491 645.779 710.208 634.198Q711.924 622.618 712.967 610.958Q714.01 599.297 714.376 587.596C714.775 572.517 713.037 556.542 709.658 541.842C708.575 537.129 702.89 524.4 703.073 520.949C704.712 523.503 706.27 526.222 708.076 528.655C712.679 538.103 717.006 547.541 719.928 557.676C731.169 596.669 725.032 640.215 715.411 678.916C712.099 692.239 705.169 712.764 704.411 725.76C703.338 744.15 724.494 754.012 719.476 768.321C719.146 769.262 718.654 770.076 718.14 770.924C712.89 777.904 706.757 784.254 700.53 790.364Z"/>
	<path fill="#9D4D32" transform="scale(0.504883 0.504883)" d="M612.607 659.859C613.641 649.381 616.814 620.349 623.181 612.681C613.831 636.548 617.03 664.312 627.097 687.47C634.055 703.473 645.606 718.257 656.212 732.022C667.497 746.667 676.849 757.941 676.114 777.471Q675.93 782.437 675.141 787.344Q674.351 792.25 672.967 797.023C672.278 799.319 671.507 803.617 669.309 804.888C674.197 769.85 664.159 761.368 644.3 735.776C634.847 723.595 629.517 715.232 622.421 701.452C619.59 702.601 616.734 703.669 614.083 705.2C589.747 716.688 570.314 722.539 543.904 727.992C533.362 729.59 522.771 730.585 512.234 732.108C509.627 747.577 509.209 766.573 505.827 781.163C499.871 788.906 493.516 797.071 485.238 802.456C484.992 799.693 491.969 770.529 493.113 764.481C499.695 729.687 503.836 691.071 499.785 655.786C498.542 644.959 496.308 634.471 493.73 623.892Q495.923 628.242 497.852 632.716Q499.78 637.189 501.437 641.771Q503.094 646.352 504.473 651.024Q505.852 655.697 506.949 660.443C508.415 666.823 509.089 673.609 511.292 679.776C512.169 680.562 513.06 681.348 514.022 682.028C527.064 691.238 549.184 690.587 564.126 688.163C584.062 684.93 600.699 676.344 612.607 659.859Z"/>
</svg>
