<svg version="1.1" xmlns="http://www.w3.org/2000/svg" style="display: block;" viewBox="0 0 2048 2048" width="1024" height="1024">
<defs>
	<linearGradient id="Gradient1" gradientUnits="userSpaceOnUse" x1="938.978" y1="1862.25" x2="1066.86" y2="127.231">
		<stop class="stop0" offset="0" stop-opacity="1" stop-color="rgb(61,9,24)"/>
		<stop class="stop1" offset="1" stop-opacity="1" stop-color="rgb(97,46,39)"/>
	</linearGradient>
	<linearGradient id="Gradient2" gradientUnits="userSpaceOnUse" x1="1331.98" y1="997.625" x2="1340.09" y2="932.883">
		<stop class="stop0" offset="0" stop-opacity="1" stop-color="rgb(207,109,62)"/>
		<stop class="stop1" offset="1" stop-opacity="1" stop-color="rgb(232,139,79)"/>
	</linearGradient>
</defs>
<path transform="translate(0,0)" fill="rgb(156,215,206)" d="M 0 0 L 2048 0 L 2048 2048 L 0 2048 L 0 0 z"/>
<path transform="translate(0,0)" fill="rgb(119,189,173)" d="M 1370.46 1669.69 C 1380.44 1670.61 1391.39 1674.31 1401.12 1676.85 C 1447.33 1688.91 1514.99 1710.53 1548.42 1745.09 C 1557.08 1754.04 1564.31 1765.38 1563.72 1778.31 C 1563.07 1792.64 1554.56 1805.59 1544.21 1815.01 C 1477.24 1875.97 1248.71 1905.96 1157.49 1912.45 A 1867.4 1867.4 0 0 1 954.913 1915.09 C 921.174 1913.65 887.213 1912.35 853.584 1909.16 C 771.563 1901.36 559.626 1873.17 502.309 1809.76 C 492.823 1799.27 486.623 1785.96 487.548 1771.54 C 488.561 1755.77 498.89 1743 510.346 1733 C 520.117 1724.48 531.588 1717.73 543.086 1711.82 C 572.581 1696.67 655.064 1664.18 687.159 1666.71 C 687.453 1666.74 687.747 1666.77 688.041 1666.8 C 666.015 1681.29 639.19 1700.43 633.454 1727.98 C 629.669 1746.17 636.143 1761.78 646.033 1776.61 C 655.475 1790.76 668.206 1806.02 685.84 1809.25 C 707.124 1813.15 726.284 1799.18 744.526 1790.66 C 751.397 1787.45 758.925 1785.1 766.236 1783.14 C 792.433 1776.1 819.008 1775.54 845.89 1777.15 C 849.258 1804.41 858.427 1828.13 880.769 1845.49 A 89.4666 89.4666 0 0 0 945.925 1863.3 C 967.742 1860.51 993.61 1846.98 1007 1829.28 C 1013.96 1820.09 1018.61 1809.15 1023.91 1798.95 C 1033.39 1823.84 1048.08 1842.51 1072.85 1853.52 C 1093.99 1862.93 1120.02 1865.93 1141.89 1857.31 A 90.8436 90.8436 0 0 0 1192.67 1808.4 C 1197.4 1797.18 1200.26 1784.98 1201.46 1772.86 C 1240.54 1772.95 1282.39 1781.18 1316.94 1800.03 C 1323.47 1803.59 1329.9 1813.51 1337.03 1814.7 C 1351.97 1817.2 1375.66 1804.55 1386.14 1794.22 C 1401.07 1779.49 1407.54 1759.92 1407.52 1739.22 C 1407.51 1716.46 1398.81 1695.92 1382.5 1680.04 C 1378.73 1676.36 1374.62 1672.91 1370.46 1669.69 z"/>
<path transform="translate(0,0)" fill="url(#Gradient1)" d="M 915.744 286.831 C 919.074 244.173 947.419 201.898 979.309 174.737 C 1017.46 142.241 1065.48 125.06 1115.68 129.497 A 154.015 154.015 0 0 1 1199.2 162.747 C 1209.42 170.914 1218.85 180.187 1229.24 188.1 C 1196.95 180.402 1153.21 183.677 1124.34 201.185 A 158.621 158.621 0 0 0 1114.2 207.89 C 1143.71 199.687 1172.08 198.033 1199.64 213.447 A 107.414 107.414 0 0 1 1227.05 235.641 C 1206.68 234.583 1180.98 249.562 1166.37 262.789 C 1157.44 270.874 1150.32 280.262 1143.56 290.183 L 1144.36 290.504 C 1154.97 294.686 1166.32 297.415 1177.19 300.935 A 608.366 608.366 0 0 1 1227.32 319.986 C 1336 367.824 1433.96 450.673 1495.91 552.213 C 1535.48 516.477 1609.14 460.348 1664.61 462.984 C 1693.37 464.351 1717.95 481.462 1736.61 502.235 C 1788.3 559.783 1815.97 658.297 1811.44 734.933 C 1807.34 804.404 1778.97 875.886 1726.39 922.671 A 203.277 203.277 0 0 1 1578.32 973.586 C 1557.64 972.357 1541.69 967.373 1522.92 959.113 C 1511.26 980.691 1499.78 1002.42 1486.19 1022.87 A 550.895 550.895 0 0 1 1282.21 1204.36 C 1261.43 1215.22 1239.91 1223.72 1218.6 1233.37 C 1265.19 1305.06 1281.85 1362.79 1280.58 1448.99 C 1304.83 1439.68 1330.42 1435.54 1354.94 1446.45 C 1375.24 1455.48 1390.27 1472.76 1398.14 1493.39 C 1410.51 1525.81 1401.53 1569.32 1387.47 1599.82 C 1376.76 1623.05 1361.69 1641.87 1344.46 1660.52 C 1354.59 1661.3 1361.59 1665.38 1370.46 1669.69 C 1374.62 1672.91 1378.73 1676.36 1382.5 1680.04 C 1398.81 1695.92 1407.51 1716.46 1407.52 1739.22 C 1407.54 1759.92 1401.07 1779.49 1386.14 1794.22 C 1375.66 1804.55 1351.97 1817.2 1337.03 1814.7 C 1329.9 1813.51 1323.47 1803.59 1316.94 1800.03 C 1282.39 1781.18 1240.54 1772.95 1201.46 1772.86 C 1200.26 1784.98 1197.4 1797.18 1192.67 1808.4 A 90.8436 90.8436 0 0 1 1141.89 1857.31 C 1120.02 1865.93 1093.99 1862.93 1072.85 1853.52 C 1048.08 1842.51 1033.39 1823.84 1023.91 1798.95 C 1018.61 1809.15 1013.96 1820.09 1007 1829.28 C 993.61 1846.98 967.742 1860.51 945.925 1863.3 A 89.4666 89.4666 0 0 1 880.769 1845.49 C 858.427 1828.13 849.258 1804.41 845.89 1777.15 C 819.008 1775.54 792.433 1776.1 766.236 1783.14 C 758.925 1785.1 751.397 1787.45 744.526 1790.66 C 726.284 1799.18 707.124 1813.15 685.84 1809.25 C 668.206 1806.02 655.475 1790.76 646.033 1776.61 C 636.143 1761.78 629.669 1746.17 633.454 1727.98 C 639.19 1700.43 666.015 1681.29 688.041 1666.8 L 699.302 1661.14 C 683.718 1643.69 671.28 1625.38 658.898 1605.62 C 637.032 1601.54 615.35 1597.27 594.106 1590.58 A 347.206 347.206 0 0 1 410.686 1456.98 C 366.974 1393.13 346.443 1311.08 361.097 1234.59 C 369.984 1188.21 394.761 1143.31 434.649 1116.61 C 463.559 1097.26 498.349 1087.2 532.977 1094.1 C 565.428 1100.57 597.384 1123.07 615.579 1150.53 C 632.983 1176.8 641.337 1210.11 635.019 1241.26 C 629.869 1266.64 616.239 1289.43 594.309 1303.65 C 576.98 1314.88 555.495 1320.14 535.115 1315.55 C 518.067 1311.71 503.776 1300.96 494.497 1286.25 C 486.166 1273.04 483.541 1258.66 487.345 1243.49 C 490.615 1230.45 499.125 1220.56 510.578 1213.83 C 514.119 1211.75 518.476 1209.6 522.717 1210.44 C 525.861 1211.06 528.102 1213.43 529.534 1216.17 C 533.718 1224.15 535.996 1242.25 545.182 1245.78 C 548.701 1247.14 552.545 1245.34 555.557 1243.55 A 21.857 21.857 0 0 0 565.906 1229.38 C 568.42 1217.7 565.847 1206.83 559.212 1196.98 C 550.874 1184.61 537.15 1176.23 522.473 1173.71 C 506.137 1170.91 490.118 1176.12 477.042 1185.83 C 452.879 1203.76 439.903 1234.34 435.912 1263.4 C 427.948 1321.39 451.543 1380.74 486.446 1426.39 C 522.281 1473.25 579.833 1507.38 636.785 1521.15 C 639.33 1494.89 646.547 1474.18 667.671 1456.97 C 685.027 1442.83 708.074 1438.19 730.008 1440.53 C 741.629 1441.77 752.801 1445.06 763.511 1449.68 A 385.312 385.312 0 0 1 799.332 1281.16 C 806.836 1264.68 816.262 1249.13 823.724 1232.7 C 802.124 1224.77 781.531 1214.68 761.168 1204 C 662.549 1152.33 580.187 1074.11 533.028 972.271 A 569.722 569.722 0 0 1 527.382 959.625 C 468.447 975.647 407.068 974.297 352.967 943.584 C 299.164 913.039 262.679 858.104 246.608 799.193 C 223.151 713.203 238.814 617.861 282.983 541.113 C 301.828 508.369 331.214 476.361 368.87 466.29 C 404.865 456.663 442.55 471.761 473.393 489.761 C 503.566 507.37 528.034 529.133 553.261 553.046 C 573.637 521.488 594.917 491.07 620.103 463.107 A 599.585 599.585 0 0 1 915.744 286.831 z"/>
<path transform="translate(0,0)" fill="rgb(244,184,97)" d="M 1044.06 1802.72 C 1042.29 1797.26 1040.5 1791.61 1039.4 1785.98 C 1035.22 1764.45 1042.08 1746.37 1054.14 1728.73 C 1055.28 1740.11 1055.55 1755.33 1062.45 1764.86 A 73.8381 73.8381 0 0 0 1044.06 1802.72 z"/>
<path transform="translate(0,0)" fill="rgb(244,184,97)" d="M 987.729 1723.83 C 1000.66 1739.33 1011.54 1758.33 1009.43 1779.29 C 1008.58 1787.8 1005.54 1795.67 1003.89 1803.98 C 998.421 1789.93 993.341 1776.98 983.853 1765.05 L 986.043 1762.88 C 990.256 1748.87 989.612 1738.15 987.729 1723.83 z"/>
<path transform="translate(0,0)" fill="rgb(244,184,97)" d="M 910.941 1838.89 C 896.769 1833.36 885.579 1825.96 877.463 1812.6 C 865.44 1792.81 863.092 1768.87 868.718 1746.63 C 870.116 1741.11 874.733 1724.35 878.946 1721.83 L 881.668 1722.58 L 879.512 1723.33 C 875.916 1742.87 873.136 1773.29 885.134 1790.54 C 887.733 1794.27 891.235 1797 894.75 1799.81 L 896.369 1800 L 898.189 1796.23 C 899.312 1812.36 902.72 1824.96 910.941 1838.89 z"/>
<path transform="translate(0,0)" fill="rgb(118,58,49)" d="M 1301.84 1463.38 C 1321.13 1460.3 1342.53 1461.17 1358.93 1473.02 C 1372.21 1482.61 1379.93 1497.59 1382.19 1513.58 C 1383.78 1524.81 1382.14 1535.81 1379.59 1546.75 L 1375.22 1550.1 C 1370.69 1532.63 1371.04 1514.83 1362.05 1498.44 C 1349.35 1475.28 1326.82 1475.17 1304.67 1468.55 C 1302.64 1466.58 1302.55 1466.14 1301.84 1463.38 z"/>
<path transform="translate(0,0)" fill="rgb(223,136,44)" d="M 722.356 1674.87 C 725.621 1675.75 738.506 1688.66 742.149 1691.82 C 737.168 1691.91 732.448 1692.61 727.636 1693.88 C 701.727 1700.69 676.612 1716.54 662.776 1739.97 C 660.765 1744.37 659.111 1748.97 657.336 1753.46 C 654.559 1744.86 653.185 1737.76 656.039 1728.83 C 664.515 1702.32 699.746 1686.67 722.356 1674.87 z"/>
<path transform="translate(0,0)" fill="rgb(78,31,21)" d="M 1253.09 1456.82 C 1260.67 1508.1 1218.14 1641.57 1187.39 1682.93 C 1178.81 1694.47 1168.2 1698.15 1154.35 1700.18 C 1141.27 1702.09 1130.45 1700.03 1119.8 1692.44 L 1118.81 1690.5 C 1120.01 1690.71 1119.57 1690.52 1120.6 1691.13 C 1121.81 1691.85 1123.01 1692.59 1124.25 1693.27 C 1130.7 1696.79 1139.83 1701.2 1147.28 1698.45 C 1151.47 1696.89 1156.3 1692.46 1159.86 1689.79 C 1184.1 1671.62 1194.25 1650.25 1204.03 1621.97 C 1215.69 1592.78 1227.38 1562.53 1235.19 1532.06 C 1241.54 1507.26 1245.36 1481.19 1253.09 1456.82 z"/>
<path transform="translate(0,0)" fill="rgb(223,136,44)" d="M 1278.06 1721.73 C 1298.35 1725.35 1322.34 1735.02 1335.6 1751.54 C 1346.06 1764.58 1346.14 1777.03 1344.4 1792.73 C 1339.09 1787.62 1333.61 1784.03 1327.25 1780.41 C 1301.55 1766.56 1272.83 1758.49 1244.27 1753.13 C 1255.39 1742.58 1266.12 1731.34 1278.06 1721.73 z"/>
<path transform="translate(0,0)" fill="rgb(132,69,63)" d="M 1097.74 154.462 C 1105.14 154.241 1112.47 154.301 1119.86 154.524 C 1089.13 160.265 1061.14 169.809 1034.46 186.333 C 982.394 218.567 948.744 279.539 935.034 337.789 C 933.942 342.916 932.673 347.838 931.112 352.842 C 927.944 302.699 940.905 255.115 973.939 216.461 C 1005.56 179.455 1049.69 158.342 1097.74 154.462 z"/>
<path transform="translate(0,0)" fill="rgb(244,184,97)" d="M 977.536 1767.99 C 985.231 1780.71 992.751 1798.25 989.406 1813.45 C 987.686 1821.26 982.297 1826.92 975.61 1830.91 A 129.281 129.281 0 0 1 967.772 1835.22 C 953.717 1816.91 951.498 1798.71 942.006 1778.94 C 942.724 1800.44 946.254 1819.66 954.719 1839.52 C 943.999 1841.11 933.648 1842.96 924.147 1836.23 C 912.302 1827.84 906.776 1809.18 902.78 1795.99 C 901.57 1791.99 900.859 1787.35 898.844 1783.71 C 898.488 1781.46 898.418 1782.62 899.211 1780.26 C 903.049 1780.3 908.639 1785.63 911.7 1787.87 C 916.809 1787.9 921.889 1787.28 926.97 1786.79 C 927.644 1785.71 927.619 1785.69 928.562 1784.54 C 931.309 1781.19 936.332 1777.16 940.856 1777.11 C 949.587 1777.01 958.968 1789.47 964.516 1795.19 C 968.14 1792.62 972.4 1789.89 975.185 1786.4 C 979.659 1780.8 978.387 1774.51 977.536 1767.99 z"/>
<path transform="translate(0,0)" fill="rgb(132,69,63)" d="M 1120.19 319.719 C 1145.09 321.212 1203.47 345.662 1227.23 357.234 C 1325.24 404.969 1407.92 476.62 1464.36 570.384 C 1471.44 582.143 1486.95 608.111 1491.22 620.492 L 1490.33 620.41 C 1489.21 618.038 1488.03 615.82 1486.68 613.565 C 1485.75 614.931 1483.53 615.56 1482.03 616.279 C 1481.35 618.778 1498.2 662.646 1500.86 668.541 L 1501.52 669.981 L 1504.46 682.605 L 1503.89 682.629 L 1504.76 684.929 A 497.262 497.262 0 0 0 1449.34 560.947 C 1440.08 546.376 1428.89 533.053 1418.09 519.606 C 1362.76 450.683 1299.34 399.926 1219.38 361.652 A 612.673 612.673 0 0 0 1148.41 333.04 C 1140.68 330.427 1127.36 329.341 1121.05 324.631 C 1119.88 323.757 1120.25 321.14 1120.19 319.719 z"/>
<path transform="translate(0,0)" fill="rgb(132,69,63)" d="M 923.733 319.301 L 926.346 319.566 C 926.344 322.66 924.086 324.988 922.44 327.57 A 642.013 642.013 0 0 0 911.469 330.897 C 829.467 356.612 765.447 393.361 699.802 448.38 C 655.117 485.832 616.956 527.037 585.251 576.095 C 570.615 598.741 560.298 623.549 547.838 647.362 C 547.572 648.24 547.835 647.778 546.702 648.481 C 546.946 635.741 572.76 585.737 580.588 572.537 C 654.147 448.498 784.365 354.723 923.733 319.301 z"/>
<path transform="translate(0,0)" fill="rgb(78,31,21)" d="M 396.442 491.727 C 421.227 487.069 458.403 509.503 478.025 522.944 C 491.356 532.076 536.654 564.425 539.52 578.735 C 540.506 583.66 531.468 599.176 529.042 604.578 C 522.899 618.257 517.066 632.174 512.403 646.436 C 511.115 650.377 510.957 654.509 509.754 658.401 C 507.796 664.738 504.357 670.552 503.587 677.215 C 503.11 681.336 501.915 685.723 500.467 689.605 C 499.09 690.357 499.658 690.426 498.862 690.217 C 499.237 686.258 500.512 682.088 501.358 678.184 A 614.279 614.279 0 0 1 515.454 632.363 C 489.728 604.419 461.142 581.872 423.095 574.382 C 424.149 572.912 425.256 572.119 427.009 571.637 C 434.965 569.451 443.862 568.712 451.997 567.155 C 468.953 563.907 486.572 559.866 503.128 554.987 C 511.262 560.609 529.293 578.57 537.573 580.065 L 537.875 578.365 C 536.654 575.833 535.417 573.733 533.559 571.606 C 510.538 545.247 465.681 512.902 433.572 500.222 C 421.426 495.425 409.425 492.818 396.442 491.727 z"/>
<path transform="translate(0,0)" fill="rgb(104,47,36)" d="M 934.557 1600.12 C 945.806 1605.08 956.572 1611.35 968.314 1615.09 C 1002.99 1626.12 1054.91 1625.01 1088.82 1611.78 C 1097.23 1608.5 1105 1604.14 1112.61 1599.33 C 1107.23 1613.06 1103.99 1627.47 1098.83 1641.22 C 1093.51 1643.77 1085.25 1644.01 1079.35 1645.23 C 1035.05 1654.37 992.59 1652.35 949.286 1639.43 C 944.514 1626.28 939.285 1613.29 934.557 1600.12 z"/>
<path transform="translate(0,0)" fill="rgb(132,69,63)" d="M 1510.61 581.803 C 1516.3 572.874 1525.59 565.789 1533.58 558.936 C 1564.46 532.46 1603.14 503.469 1643.33 494.347 C 1660.94 490.35 1677.24 492.88 1692.52 502.603 C 1732.8 528.245 1761.25 592.325 1771.01 637.895 C 1779.68 678.377 1779.49 721.206 1772.46 761.924 C 1770.85 758.851 1771.58 705.228 1770.83 694.629 C 1768.76 665.346 1762.06 634.267 1751.54 606.788 C 1738.29 572.169 1715.13 532.757 1679.67 517.21 C 1634.73 497.508 1576.66 535.222 1540.73 561.174 C 1532.17 567.36 1522.43 577.756 1512.53 581.201 C 1511.9 581.421 1511.25 581.602 1510.61 581.803 z"/>
<path transform="translate(0,0)" fill="rgb(223,136,44)" d="M 1329.02 1677.06 A 393.19 393.19 0 0 1 1336.14 1679.03 C 1354.77 1684.39 1372.04 1695.16 1381.5 1712.56 C 1390.92 1729.87 1389.24 1746.95 1383.83 1765.06 C 1382.31 1749.61 1377.89 1737.44 1366.84 1726.29 C 1355.11 1714.47 1341.53 1708.07 1325.97 1702.93 C 1321.15 1701.33 1316.24 1699.16 1311.11 1699.16 C 1315.69 1702.21 1321.76 1703.66 1326.86 1705.88 C 1335.97 1709.85 1344.36 1714.61 1352.47 1720.35 C 1360.22 1726.47 1366.62 1733.1 1371.21 1741.94 C 1375.62 1750.44 1379.23 1762.46 1375.76 1771.87 C 1372.47 1780.78 1365.16 1784.59 1357.01 1788.17 C 1357.24 1776.34 1355.69 1767 1348.85 1756.92 C 1333.57 1734.37 1306.64 1724.28 1281.05 1719.19 C 1296.21 1704.69 1312.92 1690.59 1329.02 1677.06 z"/>
<path transform="translate(0,0)" fill="rgb(132,69,63)" d="M 396.442 491.727 C 409.425 492.818 421.426 495.425 433.572 500.222 C 465.681 512.902 510.538 545.247 533.559 571.606 C 535.417 573.733 536.654 575.833 537.875 578.365 L 537.573 580.065 C 529.293 578.57 511.262 560.609 503.128 554.987 C 474.738 533.395 425.068 505.735 387.918 510.852 C 356.492 515.179 332.388 540.96 314.514 565.119 C 291.527 596.188 281.077 637.306 273.89 674.58 C 272.261 683.027 270.026 691.714 269.355 700.257 C 269.226 701.905 269.329 701.289 268.434 702.91 L 268.449 702.906 L 267.811 701.926 C 267.901 701.539 268.014 701.156 268.08 700.764 C 268.995 695.325 268.18 688.544 268.04 682.966 C 271.167 627.46 288.005 568.763 325.797 526.718 C 346.295 503.913 365.673 493.49 396.442 491.727 z"/>
<path transform="translate(0,0)" fill="rgb(104,47,36)" d="M 1279.22 1475.82 C 1279.41 1474.17 1279.23 1472.87 1280.29 1471.5 C 1284.49 1466.05 1295.43 1464.78 1301.84 1463.38 C 1302.55 1466.14 1302.64 1466.58 1304.67 1468.55 C 1326.82 1475.17 1349.35 1475.28 1362.05 1498.44 C 1371.04 1514.83 1370.69 1532.63 1375.22 1550.1 C 1374.64 1550.94 1374.07 1551.8 1373.44 1552.61 C 1370.09 1556.91 1365.08 1559.4 1359.67 1559.94 C 1346.92 1561.21 1332.14 1551.73 1322.61 1544.03 C 1307.42 1531.77 1284.91 1506.12 1280.25 1486.86 C 1279.43 1483.47 1279.6 1479.34 1279.22 1475.82 z"/>
<path transform="translate(0,0)" fill="rgb(223,136,44)" d="M 739.705 1693 C 740.91 1692.72 740.966 1692.52 742.076 1692.86 C 747.586 1694.55 762.717 1709.16 764.889 1714.8 C 765.063 1715.26 765.202 1715.73 765.359 1716.19 C 774.914 1717.75 799.314 1745.42 806.945 1753.71 C 779.992 1754.32 754.534 1761.56 730.475 1773.43 C 718.941 1779.12 707.614 1785.76 694.923 1788.43 A 318.218 318.218 0 0 1 695.767 1781.69 C 698.929 1758.78 712.329 1745.64 729.957 1732.25 C 738.142 1727.48 748.11 1720.53 757.726 1719.94 C 758.089 1719.92 758.454 1719.92 758.818 1719.9 L 759.955 1718.08 C 748.958 1718.83 736.761 1724.72 727.31 1730.16 C 702.832 1744.24 690.943 1760.82 683.772 1787.89 C 677.177 1782.12 671.373 1775 668.975 1766.43 C 666.406 1757.26 668.804 1747.69 673.355 1739.56 C 686.923 1715.32 713.726 1700.11 739.705 1693 z"/>
<path transform="translate(0,0)" fill="rgb(78,31,21)" d="M 949.286 1639.43 C 992.59 1652.35 1035.05 1654.37 1079.35 1645.23 C 1085.25 1644.01 1093.51 1643.77 1098.83 1641.22 C 1095.8 1654.02 1087.15 1667.85 1081.43 1679.91 C 1067.76 1688.27 1054.65 1696.27 1043.61 1708.03 C 1035.13 1717.07 1030.62 1736.26 1022.73 1742.33 C 1018.2 1737.29 1015.4 1727.86 1012.07 1721.67 C 1000.58 1700.29 984.063 1692.05 964.628 1679 C 958.726 1666.28 954.25 1652.56 949.286 1639.43 z"/>
<path transform="translate(0,0)" fill="rgb(253,225,165)" d="M 946.709 1699.29 C 962.333 1702.3 977.68 1711.41 987.729 1723.83 C 989.612 1738.15 990.256 1748.87 986.043 1762.88 L 983.853 1765.05 C 981.128 1763.26 978.819 1761.39 975.459 1761.16 C 974.704 1763.1 974.667 1762.18 975.515 1764.11 C 976.126 1765.49 976.753 1766.7 977.536 1767.99 C 978.387 1774.51 979.659 1780.8 975.185 1786.4 C 972.4 1789.89 968.14 1792.62 964.516 1795.19 C 958.968 1789.47 949.587 1777.01 940.856 1777.11 C 936.332 1777.16 931.309 1781.19 928.562 1784.54 C 927.619 1785.69 927.644 1785.71 926.97 1786.79 C 921.889 1787.28 916.809 1787.9 911.7 1787.87 C 908.639 1785.63 903.049 1780.3 899.211 1780.26 C 898.418 1782.62 898.488 1781.46 898.844 1783.71 C 898.32 1787.95 898.028 1791.95 898.189 1796.23 L 896.369 1800 L 894.75 1799.81 C 891.235 1797 887.733 1794.27 885.134 1790.54 C 873.136 1773.29 875.916 1742.87 879.512 1723.33 L 881.668 1722.58 C 903.965 1724.41 920.652 1721.95 938.203 1707.12 A 147.748 147.748 0 0 0 946.709 1699.29 z"/>
<path transform="translate(0,0)" fill="rgb(78,31,21)" d="M 278.58 790.72 C 287.427 787.001 295.856 779.827 304.093 774.706 C 310.939 770.45 318.282 767.575 325.779 764.68 C 335.924 811.395 358.082 857.423 399.549 883.913 C 428.879 902.649 465.622 911.575 499.998 903.989 C 501.68 903.618 503.274 903.165 504.921 902.664 C 509.22 910.3 511.235 921.722 514.027 930.203 C 513.48 930.485 512.936 930.775 512.384 931.049 C 482.316 945.933 436.566 945.023 405.445 934.204 C 348.904 914.548 311.614 868.353 286.45 816.042 C 283.908 810.757 276.718 796.095 278.58 790.72 z"/>
<path transform="translate(0,0)" fill="rgb(253,225,165)" d="M 1099.29 1699.06 C 1110.25 1711.87 1126.5 1720.79 1143.45 1721.97 C 1151.94 1722.56 1160.35 1720.85 1168.51 1718.68 C 1180.86 1738.33 1184.72 1758.48 1179.59 1781.35 C 1174.91 1802.26 1163.76 1821.44 1145.31 1832.91 C 1141.89 1835.04 1138.29 1836.84 1134.69 1838.61 C 1141.47 1827.61 1152.96 1800.86 1148.62 1788.04 C 1148.28 1787.03 1148.05 1786.87 1147.44 1786.16 C 1145.58 1790.13 1144.91 1794.41 1143.37 1798.5 C 1137.88 1813.13 1130.24 1829.72 1118.25 1840.03 C 1109.08 1840.25 1100.23 1840.39 1091.22 1838.4 C 1095.96 1827.08 1106.68 1798.32 1103.45 1786.39 L 1101.53 1785 L 1101.75 1786.53 L 1101.92 1785.08 L 1101.08 1784.96 C 1098.92 1789.76 1098.59 1794.93 1096.99 1799.84 C 1093.19 1811.49 1086.58 1824.11 1079.39 1834 C 1071.07 1830.14 1063.72 1826.04 1060.27 1816.93 C 1055.58 1804.56 1060.47 1787.77 1065.51 1776.12 C 1067.27 1772.04 1070.6 1766.7 1070.55 1762.24 C 1068.51 1761.37 1069.28 1761.24 1067.47 1761.92 C 1065.48 1762.67 1064.15 1763.64 1062.45 1764.86 C 1055.55 1755.33 1055.28 1740.11 1054.14 1728.73 C 1066.43 1713.3 1080.12 1704.03 1099.29 1699.06 z"/>
<path transform="translate(0,0)" fill="rgb(244,184,97)" d="M 899.806 1458.71 C 900.184 1459.05 900.571 1459.38 900.94 1459.73 C 904.431 1463.06 912.583 1480.49 916.589 1486.28 C 940.153 1520.31 979.277 1548.65 1021.83 1549.25 C 1055.88 1549.74 1089.59 1535.05 1113.74 1511.2 A 138.55 138.55 0 0 0 1130.6 1491.08 C 1135.11 1484.44 1143.14 1465.43 1148.47 1461.75 C 1145.95 1493.07 1131.23 1551.66 1120.05 1581.35 A 121.14 121.14 0 0 1 1078.87 1603.02 C 1040.83 1614.46 992.908 1613.72 956.139 1597.77 C 946.89 1593.76 938.475 1587.58 929.56 1582.8 C 915.332 1546.21 905.691 1497.55 899.806 1458.71 z"/>
<path transform="translate(0,0)" fill="rgb(104,47,36)" d="M 268.04 682.966 C 268.18 688.544 268.995 695.325 268.08 700.764 C 268.014 701.156 267.901 701.539 267.811 701.926 L 268.449 702.906 L 268.434 702.91 C 269.329 701.289 269.226 701.905 269.355 700.257 C 270.026 691.714 272.261 683.027 273.89 674.58 C 281.077 637.306 291.527 596.188 314.514 565.119 C 332.388 540.96 356.492 515.179 387.918 510.852 C 425.068 505.735 474.738 533.395 503.128 554.987 C 486.572 559.866 468.953 563.907 451.997 567.155 C 443.862 568.712 434.965 569.451 427.009 571.637 C 425.256 572.119 424.149 572.912 423.095 574.382 C 402.589 572.081 384.069 573.98 367.4 587.182 C 338.463 610.101 326.19 649.589 322.454 684.912 C 319.631 711.597 321.293 738.289 325.779 764.68 C 318.282 767.575 310.939 770.45 304.093 774.706 C 295.856 779.827 287.427 787.001 278.58 790.72 C 278.69 781.601 275.506 771.239 273.883 762.222 C 269.288 736.692 264.782 708.822 268.04 682.966 z"/>
<path transform="translate(0,0)" fill="rgb(78,31,21)" d="M 1279.22 1475.82 C 1279.6 1479.34 1279.43 1483.47 1280.25 1486.86 C 1284.91 1506.12 1307.42 1531.77 1322.61 1544.03 C 1332.14 1551.73 1346.92 1561.21 1359.67 1559.94 C 1365.08 1559.4 1370.09 1556.91 1373.44 1552.61 C 1374.07 1551.8 1374.64 1550.94 1375.22 1550.1 L 1379.59 1546.75 A 89.8734 89.8734 0 0 1 1373.45 1567.71 C 1370.71 1584.29 1359.69 1606.71 1349.9 1620.68 C 1331.42 1647.07 1306.38 1666.65 1283.93 1689.2 C 1266.06 1707.15 1241.47 1735.4 1221.75 1749.66 C 1217.45 1752.77 1211.45 1756.86 1206.02 1756.92 C 1204.58 1755.42 1191.49 1713.74 1191.49 1711.38 C 1191.49 1707.11 1201.12 1697.44 1204.07 1693.84 C 1213.03 1682.88 1219.17 1667.72 1225.74 1655.15 C 1227.58 1651.64 1229.47 1646.59 1232.1 1643.69 C 1254.32 1600.54 1278.97 1523.65 1279.22 1475.82 z"/>
<path transform="translate(0,0)" fill="rgb(78,31,21)" d="M 715.889 1464.9 C 725.156 1462.95 737.102 1464.23 746.058 1467.43 C 753.077 1469.51 759.562 1471.82 766.144 1475.04 C 770.832 1528.82 791.971 1598.14 814.726 1647.02 C 817.946 1651.06 820.398 1656.7 822.988 1661.23 C 829.45 1672.53 836.252 1684.87 843.67 1695.55 C 847.435 1700.97 853.19 1704.97 856.629 1710.63 C 859.999 1716.18 855.504 1730.98 853.745 1737.26 C 852.25 1742.61 849.493 1756.67 844.525 1759.49 C 843.899 1759.25 842.915 1758.92 842.278 1758.6 C 825.198 1750 796.112 1718.84 780.672 1704.55 C 758.565 1684.08 735.734 1665.31 715.391 1642.88 C 707.893 1634.61 697.494 1623.22 694.011 1612.46 C 685.505 1603.83 678.013 1589.13 672.969 1578.05 C 662.6 1555.28 658.147 1526.92 667.287 1502.99 A 57.2483 57.2483 0 0 1 697.05 1471.09 C 703.3 1468.57 709.257 1466.2 715.889 1464.9 z"/>
<path transform="translate(0,0)" fill="rgb(104,47,36)" d="M 715.889 1464.9 C 725.156 1462.95 737.102 1464.23 746.058 1467.43 C 747.316 1492.69 746.308 1538.15 727.856 1557.79 C 720.052 1566.1 708.781 1569.12 697.678 1569.25 C 691.388 1569.32 683.372 1569.29 678.398 1565.02 C 675.688 1558.51 674.005 1552.15 673.001 1545.16 C 670.344 1526.67 672.73 1500.41 684.544 1485.04 C 688.174 1480.32 692.943 1476.65 696.526 1471.82 C 696.704 1471.57 696.875 1471.33 697.05 1471.09 C 703.3 1468.57 709.257 1466.2 715.889 1464.9 z"/>
<path transform="translate(0,0)" fill="rgb(132,69,63)" d="M 715.889 1464.9 L 731.164 1465.02 C 710.429 1488.99 694.397 1502.75 685.804 1534.88 C 683.449 1543.69 683.294 1557.67 678.398 1565.02 C 675.688 1558.51 674.005 1552.15 673.001 1545.16 C 670.344 1526.67 672.73 1500.41 684.544 1485.04 C 688.174 1480.32 692.943 1476.65 696.526 1471.82 C 696.704 1471.57 696.875 1471.33 697.05 1471.09 C 703.3 1468.57 709.257 1466.2 715.889 1464.9 z"/>
<path transform="translate(0,0)" fill="rgb(78,31,21)" d="M 497.89 1111.48 C 499.437 1111.28 500.943 1111.12 502.499 1111.02 C 532.096 1109.17 557.592 1119.14 579.635 1138.72 A 117.112 117.112 0 0 1 618.298 1219.46 A 78.8618 78.8618 0 0 1 597.941 1276.4 C 586.07 1289.34 569.725 1298.16 552.012 1298.87 C 537.556 1299.45 524.751 1294.31 514.341 1284.39 C 505.714 1276.17 499.109 1265.06 499.106 1252.86 C 499.102 1237.94 509.141 1227.42 519.029 1217.63 C 520.363 1227.49 521.346 1238.44 525.862 1247.46 C 528.759 1253.25 535.058 1260.92 541.519 1262.78 C 548.636 1264.84 558.062 1262.67 564.403 1259.2 C 573.241 1254.37 579.454 1246.32 582.224 1236.68 C 586.643 1221.3 584.229 1203.06 576.328 1189.26 C 566.605 1172.27 549.334 1161.05 530.637 1156.18 C 514.104 1151.87 490.725 1155.93 475.931 1164.74 C 448.405 1181.14 428.723 1211.21 421.073 1241.91 C 406.079 1302.07 423.576 1364.49 455.005 1416.26 C 464.152 1429.25 472.875 1442.62 483.4 1454.57 C 492.11 1464.46 502.294 1473.05 512.43 1481.43 C 551.595 1513.83 589.22 1530.06 637.179 1544.91 C 637.941 1557.49 643.046 1569.73 647.892 1581.2 C 598.264 1575.46 549.187 1553.17 507.841 1525.68 C 448.073 1485.95 398.262 1413.05 384.42 1342.8 C 373.396 1286.85 375.928 1221.43 408.824 1172.87 C 430.834 1140.39 459.126 1119.05 497.89 1111.48 z"/>
<path transform="translate(0,0)" fill="rgb(118,58,49)" d="M 498.74 1115.25 C 502.061 1114.52 506.339 1114.67 509.757 1114.74 C 530.03 1115.15 557.518 1125.99 571.371 1141.13 C 576.142 1146.35 578.608 1152.18 577.916 1159.33 C 577.674 1161.82 577.396 1163.2 575.325 1164.73 C 569.948 1163.14 566.217 1156.27 560.71 1153.77 C 551.811 1149.72 543.165 1145.32 533.645 1142.89 C 510.503 1136.98 490.838 1142.56 470.951 1154.48 C 444.102 1174.21 436.156 1183.18 419.086 1211.56 C 418.986 1210.63 418.899 1209.69 418.837 1208.76 C 417.534 1189.06 418.543 1169.38 432.142 1153.94 C 447.753 1136.21 474.422 1116.75 498.74 1115.25 z"/>
<path transform="translate(0,0)" fill="rgb(104,47,36)" d="M 1510.61 581.803 C 1511.25 581.602 1511.9 581.421 1512.53 581.201 C 1522.43 577.756 1532.17 567.36 1540.73 561.174 C 1576.66 535.222 1634.73 497.508 1679.67 517.21 C 1715.13 532.757 1738.29 572.169 1751.54 606.788 C 1762.06 634.267 1768.76 665.346 1770.83 694.629 C 1771.58 705.228 1770.85 758.851 1772.46 761.924 C 1771.73 772.511 1767.9 783.57 1764.47 793.55 C 1750.13 835.249 1727.72 875.538 1694.16 904.786 C 1659.18 935.272 1611.57 949.739 1565.61 946.26 C 1555.17 945.47 1541.68 944.654 1531.98 940.57 C 1531.42 931.997 1541.38 910.392 1543.06 899.997 C 1553.12 902.118 1563.71 903.001 1573.98 902.873 C 1610.99 902.41 1646.16 888.326 1671.91 861.505 C 1714.41 817.232 1724.3 759.7 1723.06 700.595 C 1722.25 662.093 1713.43 615.709 1684.12 588.043 C 1671.74 576.356 1656.01 570.188 1638.98 570.773 C 1599.31 572.136 1557.9 605.416 1532.13 632.999 C 1528.81 622.063 1524.4 611.307 1519.55 600.965 C 1516.77 595.033 1512.15 588.078 1510.61 581.803 z"/>
<path transform="translate(0,0)" fill="rgb(244,184,97)" d="M 547.654 872.699 C 548.027 873.075 548.413 873.437 548.772 873.826 C 551.489 876.77 558.93 898.212 561.728 904.256 C 572.416 927.34 584.174 948.675 598.588 969.636 C 689.347 1101.61 826.408 1171.18 983.769 1185.82 C 1108.26 1197.39 1254.17 1153.43 1350.51 1073.24 A 595.645 595.645 0 0 0 1427.43 996.945 C 1436.35 986.379 1445.49 975.725 1453.71 964.606 C 1462.75 952.362 1475.78 927.003 1487.74 918.873 C 1474.76 964.697 1449.04 1010.53 1419.43 1047.54 C 1338.02 1149.27 1205.31 1214.63 1076.98 1228.89 A 517.204 517.204 0 0 1 698.791 1116.66 C 655.104 1081.63 610.906 1033.11 584.378 983.621 C 574.441 965.083 566.916 945.334 560.351 925.382 C 554.754 908.372 549.631 890.54 547.654 872.699 z"/>
<path transform="translate(0,0)" fill="rgb(244,184,97)" d="M 1532.13 632.999 C 1557.9 605.416 1599.31 572.136 1638.98 570.773 C 1656.01 570.188 1671.74 576.356 1684.12 588.043 C 1713.43 615.709 1722.25 662.093 1723.06 700.595 C 1724.3 759.7 1714.41 817.232 1671.91 861.505 C 1646.16 888.326 1610.99 902.41 1573.98 902.873 C 1563.71 903.001 1553.12 902.118 1543.06 899.997 C 1544.62 893.044 1546.45 886.184 1548.32 879.309 C 1565.66 805.91 1565.6 739.259 1543.94 666.78 C 1540.77 655.359 1536.55 643.989 1532.13 632.999 z"/>
<path transform="translate(0,0)" fill="rgb(223,136,44)" d="M 1543.94 666.78 C 1556.53 658.414 1568.15 653.918 1583.57 656.763 C 1601.95 660.152 1616.46 672.616 1626.55 687.83 A 121.104 121.104 0 0 1 1643.92 778.973 C 1636.74 812.659 1615.38 849.391 1585.93 868.241 C 1574.3 875.684 1562.08 878.971 1548.32 879.309 C 1565.66 805.91 1565.6 739.259 1543.94 666.78 z"/>
<path transform="translate(0,0)" fill="rgb(244,184,97)" d="M 325.779 764.68 C 321.293 738.289 319.631 711.597 322.454 684.912 C 326.19 649.589 338.463 610.101 367.4 587.182 C 384.069 573.98 402.589 572.081 423.095 574.382 C 461.142 581.872 489.728 604.419 515.454 632.363 A 614.279 614.279 0 0 0 501.358 678.184 C 500.512 682.088 499.237 686.258 498.862 690.217 C 483.129 749.804 484.465 832.666 501.731 891.718 L 504.921 902.664 C 503.274 903.165 501.68 903.618 499.998 903.989 C 465.622 911.575 428.879 902.649 399.549 883.913 C 358.082 857.423 335.924 811.395 325.779 764.68 z"/>
<path transform="translate(0,0)" fill="rgb(223,136,44)" d="M 501.731 891.718 C 485.295 892.472 467.509 889.139 452.878 881.48 C 427.333 868.106 409.953 842.891 401.632 815.776 C 390.966 781.023 393.117 742.153 410.353 709.827 C 419.724 692.253 434.642 676.906 454.132 671.101 C 471.354 665.973 486.046 669.828 501.358 678.184 C 500.512 682.088 499.237 686.258 498.862 690.217 C 483.129 749.804 484.465 832.666 501.731 891.718 z"/>
<path transform="translate(0,0)" fill="rgb(104,47,36)" d="M 850.398 1243.39 C 875.205 1253.71 904.05 1259.58 930.5 1263.99 C 1024.06 1279.58 1100.85 1271.94 1191.1 1243.36 C 1191.37 1243.66 1191.65 1243.95 1191.92 1244.26 C 1202.49 1256.44 1210.5 1271.46 1217.81 1285.78 C 1245.5 1340.02 1257.11 1396.18 1253.09 1456.82 C 1245.36 1481.19 1241.54 1507.26 1235.19 1532.06 C 1227.38 1562.53 1215.69 1592.78 1204.03 1621.97 C 1194.25 1650.25 1184.1 1671.62 1159.86 1689.79 C 1156.3 1692.46 1151.47 1696.89 1147.28 1698.45 C 1139.83 1701.2 1130.7 1696.79 1124.25 1693.27 C 1123.01 1692.59 1121.81 1691.85 1120.6 1691.13 C 1119.57 1690.52 1120.01 1690.71 1118.81 1690.5 C 1115.09 1687.13 1111.54 1683.59 1107.98 1680.04 C 1112.57 1661.65 1121.54 1643.41 1129.48 1626.23 C 1142.02 1596.59 1151.65 1554.55 1157.57 1522.86 C 1173.17 1439.4 1178.74 1379.57 1165.54 1294.75 C 1162.48 1343.72 1160.87 1392.88 1151.15 1441.18 C 1150.39 1448.04 1149.81 1454.98 1148.47 1461.75 C 1143.14 1465.43 1135.11 1484.44 1130.6 1491.08 A 138.55 138.55 0 0 1 1113.74 1511.2 C 1089.59 1535.05 1055.88 1549.74 1021.83 1549.25 C 979.277 1548.65 940.153 1520.31 916.589 1486.28 C 912.583 1480.49 904.431 1463.06 900.94 1459.73 C 900.571 1459.38 900.184 1459.05 899.806 1458.71 A 401.923 401.923 0 0 0 898.406 1449.21 A 1949.51 1949.51 0 0 1 878.677 1316.75 C 874.017 1324.36 874.958 1340.04 873.479 1349.2 C 870.336 1371.92 874.801 1396.01 873.935 1418.97 C 878.798 1473.82 892.517 1526.18 904.32 1579.75 C 907.868 1587.92 909.751 1597.4 912.474 1605.93 C 920.283 1630.38 928.493 1655.19 940.298 1678.03 C 930.998 1686.54 920.912 1696.36 908.579 1700.17 A 34.9937 34.9937 0 0 1 880.821 1697.33 C 872.114 1692.35 864.808 1684.44 859.117 1676.27 C 837.199 1644.83 810.66 1570.44 800.895 1532.32 C 774.819 1430.53 797.545 1332.45 850.398 1243.39 z"/>
<path transform="translate(0,0)" fill="rgb(132,69,63)" d="M 1178.23 1298.7 L 1179.63 1300.13 C 1204.43 1392.09 1186.94 1491.63 1152.54 1578.75 L 1150.33 1584.63 L 1147.9 1581.76 L 1150.57 1581.83 C 1152.55 1568.04 1157.71 1553.52 1161.15 1539.87 A 668.363 668.363 0 0 0 1176.33 1464.51 C 1182.22 1422.59 1181.21 1380.19 1179.83 1338 C 1179.41 1324.92 1178.08 1311.78 1178.23 1298.7 z"/>
<path transform="translate(0,0)" fill="rgb(132,69,63)" d="M 904.32 1579.75 L 902.822 1579.14 C 894.633 1568.55 889.936 1550.8 885.603 1538.13 C 865.746 1480.07 851.856 1421.88 854.576 1360.1 C 855.293 1343.79 859.746 1301.79 871.934 1290.62 L 873.092 1291.1 L 873.102 1295.62 L 874.916 1294.98 C 878.049 1298.78 878.931 1311.81 878.677 1316.75 C 874.017 1324.36 874.958 1340.04 873.479 1349.2 C 870.336 1371.92 874.801 1396.01 873.935 1418.97 C 878.798 1473.82 892.517 1526.18 904.32 1579.75 z"/>
<path transform="translate(0,0)" fill="rgb(78,31,21)" d="M 873.102 1295.62 L 874.916 1294.98 C 878.049 1298.78 878.931 1311.81 878.677 1316.75 C 874.017 1324.36 874.958 1340.04 873.479 1349.2 C 872.99 1345.86 871.753 1342.68 870.686 1339.49 C 873.402 1325.58 872.617 1309.79 873.102 1295.62 z"/>
<path transform="translate(0,0)" fill="rgb(118,58,49)" d="M 873.935 1418.97 C 873.6 1418.55 873.247 1418.14 872.928 1417.71 C 865.405 1407.48 868.807 1353.4 870.686 1339.49 C 871.753 1342.68 872.99 1345.86 873.479 1349.2 C 870.336 1371.92 874.801 1396.01 873.935 1418.97 z"/>
<path transform="translate(0,0)" fill="rgb(253,225,165)" d="M 898.406 1449.21 C 899.071 1435.15 903.154 1420.12 908.026 1406.96 C 922.348 1368.27 951.165 1328.56 989.767 1311.28 A 86.093 86.093 0 0 1 1055.76 1309.87 C 1091.89 1324.15 1121.52 1360.51 1135.5 1395.92 C 1141.22 1410.41 1144.5 1426.25 1150.77 1440.36 C 1150.89 1440.63 1151.02 1440.91 1151.15 1441.18 C 1150.39 1448.04 1149.81 1454.98 1148.47 1461.75 C 1143.14 1465.43 1135.11 1484.44 1130.6 1491.08 A 138.55 138.55 0 0 1 1113.74 1511.2 C 1089.59 1535.05 1055.88 1549.74 1021.83 1549.25 C 979.277 1548.65 940.153 1520.31 916.589 1486.28 C 912.583 1480.49 904.431 1463.06 900.94 1459.73 C 900.571 1459.38 900.184 1459.05 899.806 1458.71 A 401.923 401.923 0 0 0 898.406 1449.21 z"/>
<path transform="translate(0,0)" fill="rgb(253,225,165)" d="M 547.654 872.699 C 543.9 855.022 543.276 836.258 543.804 818.214 C 545.416 763.173 559.888 711.494 590.082 665.123 C 624.275 612.61 678.272 568.723 740.571 555.354 C 804.842 541.561 872.839 566.443 926.431 601.458 C 963.184 625.471 996.7 657.925 1021.45 694.249 C 1066.7 627.414 1150.2 571.086 1229.17 556.049 C 1285.57 545.311 1340.84 560.329 1387.73 592.524 C 1446.43 632.834 1484.02 693.6 1496.77 763.405 A 328.912 328.912 0 0 1 1487.74 918.873 C 1475.78 927.003 1462.75 952.362 1453.71 964.606 C 1445.49 975.725 1436.35 986.379 1427.43 996.945 A 595.645 595.645 0 0 1 1350.51 1073.24 C 1254.17 1153.43 1108.26 1197.39 983.769 1185.82 C 826.408 1171.18 689.347 1101.61 598.588 969.636 C 584.174 948.675 572.416 927.34 561.728 904.256 C 558.93 898.212 551.489 876.77 548.772 873.826 C 548.413 873.437 548.027 873.075 547.654 872.699 z"/>
<path transform="translate(0,0)" fill="rgb(78,31,21)" d="M 1133.72 1013.75 C 1134.38 1018.56 1132.32 1024.15 1130.55 1028.6 C 1118.74 1058.38 1097.34 1081.01 1067.75 1093.69 C 1041.06 1105.12 1006.91 1105.89 979.932 1094.91 C 955.067 1084.78 939.664 1067.62 929.369 1043.28 C 927.444 1039.08 926.233 1034.57 924.863 1030.17 C 936.744 1051.29 951.358 1068.46 973.873 1078.64 C 1001.83 1091.28 1038.2 1090.94 1066.65 1080.12 C 1099.62 1067.58 1119.62 1045.33 1133.72 1013.75 z"/>
<path transform="translate(0,0)" fill="rgb(78,31,21)" d="M 644.406 788.458 C 651.564 755.988 662.839 729.838 688.16 707.246 A 126.3 126.3 0 0 1 779.003 675.343 C 811.51 677.362 842.738 694.107 863.967 718.531 C 881.858 739.114 898.46 778.905 896.629 806.169 C 885.434 763.253 871.34 726.927 830.839 703.378 A 114.775 114.775 0 0 0 742.256 691.558 A 122.425 122.425 0 0 0 668.753 748.236 A 137.587 137.587 0 0 0 656.306 852.451 C 659.058 862.036 662.812 871.235 666.595 880.446 C 651.109 866.345 645.587 832.009 643.364 812.103 C 635.805 813.554 628.355 814.701 620.696 815.471 C 627.933 812.426 635.145 810.519 642.838 809.072 C 642.961 803.96 643.811 798.797 644.422 793.721 C 637.115 794 629.809 793.873 622.499 793.802 C 629.715 791.687 636.913 789.339 644.406 788.458 z"/>
<path transform="translate(0,0)" fill="rgb(78,31,21)" d="M 1144.93 805.203 C 1141.04 783.059 1156.21 747.761 1168.65 729.849 C 1187.07 703.338 1218.45 683.601 1250.2 678.091 A 129.548 129.548 0 0 1 1347.72 700.807 C 1374 719.531 1392.07 747.356 1400.29 778.447 C 1412.89 780.312 1422.72 780.24 1435.11 776.761 C 1431.83 778.913 1428.34 781.429 1424.68 782.882 C 1418.72 785.254 1405.71 785.232 1402 790.338 C 1403.51 793.589 1406.81 794.773 1410.09 795.936 C 1414.21 797.399 1418.46 797.963 1422.77 798.56 C 1421.92 799.62 1420.89 799.56 1419.6 799.709 C 1414.3 800.323 1408.18 799.473 1402.96 798.57 C 1403.94 822.866 1399.43 846.604 1386.85 867.752 C 1384.58 871.573 1381.93 876.391 1378.69 879.439 C 1378.23 879.874 1377.73 880.268 1377.25 880.683 C 1382.32 870.512 1387.07 860.157 1390.29 849.236 C 1399.56 817.855 1394.21 781.976 1378.54 753.434 C 1362.64 724.439 1333.6 702.04 1301.84 693.132 C 1271.53 684.629 1238.17 689.615 1210.92 705.146 C 1169.91 728.522 1156.73 761.882 1144.93 805.203 z"/>
<path transform="translate(0,0)" fill="url(#Gradient2)" d="M 1330.36 931.407 C 1350.5 932.74 1376.48 934.342 1390.61 950.811 C 1394.77 955.65 1396.56 961.01 1396.07 967.37 C 1395.51 974.61 1391.61 980.672 1386.03 985.142 C 1369.42 998.437 1340.12 1000.85 1319.79 998.15 C 1306.02 996.323 1290.05 991.172 1281.26 979.762 C 1277.49 974.863 1275.69 969.08 1276.84 962.923 C 1278.36 954.773 1283.85 949.105 1289.71 943.704 C 1302.53 937.237 1315.77 931.516 1330.36 931.407 z"/>
<path transform="translate(0,0)" fill="rgb(244,184,97)" d="M 1324.35 937.278 C 1340.86 935.036 1361.43 937.525 1375.97 946.041 C 1381.92 949.523 1387.95 954.835 1389.54 961.843 C 1390.62 966.568 1389.75 971.25 1387.06 975.279 C 1379.69 986.299 1363.04 991.006 1350.72 993.385 C 1333.77 995.493 1313.43 994.885 1298.46 985.748 C 1292.09 981.86 1285.86 975.791 1284.23 968.24 C 1283.22 963.561 1284.3 958.934 1287.07 955.053 C 1294.76 944.271 1311.86 939.333 1324.35 937.278 z"/>
<path transform="translate(0,0)" fill="rgb(223,136,44)" d="M 712.805 926.887 C 724.88 929.723 735.48 932.409 745.968 939.332 C 752.573 945.758 757.858 953.311 759.677 962.499 C 761.845 973.442 758.845 985.123 752.371 994.112 C 744.271 1005.36 731.002 1012.06 717.426 1013.78 C 701.578 1015.79 684.741 1010.71 672.247 1000.82 C 663.71 994.06 657.262 984.726 656.212 973.675 C 655.238 963.426 659.655 952.716 666.486 945.179 C 678.344 932.097 695.777 927.391 712.805 926.887 z"/>
<path transform="translate(0,0)" fill="rgb(244,184,97)" d="M 1009.56 852.313 C 1010.21 852.189 1010.85 852.024 1011.5 851.94 C 1033.43 849.123 1059.46 853.781 1077.72 866.525 C 1090.5 875.446 1100.89 889.585 1103.32 905.228 C 1105.12 916.816 1101.49 929.124 1094.45 938.398 C 1079.61 957.939 1055.48 958.796 1033.25 961.691 C 1005.89 962.65 977.971 960.973 954.435 945.307 C 945.838 939.584 938.088 931.574 936.314 921.026 C 934.179 908.33 939.306 894.357 946.899 884.251 C 961.604 864.68 986.145 855.678 1009.56 852.313 z"/>
<path transform="translate(0,0)" fill="rgb(78,31,21)" d="M 976.999 892.851 C 978.659 892.834 980.359 892.812 982.008 893.033 C 989.85 894.086 998.003 902.678 1002.16 908.854 C 1005.86 914.365 1009.18 921.592 1007.62 928.392 C 1006.61 932.754 1003.77 934.835 1000.23 937.21 C 998.657 937.202 997.054 937.182 995.497 936.933 C 987.767 935.697 980.011 928.399 975.471 922.439 C 971.435 917.141 967.944 910.168 969.127 903.311 C 970.001 898.241 972.984 895.692 976.999 892.851 z"/>
<path transform="translate(0,0)" fill="rgb(78,31,21)" d="M 1064.84 894.1 C 1067.44 893.995 1070.2 894.264 1072.61 895.313 C 1075.79 896.703 1078.43 898.718 1079.51 902.169 C 1081.09 907.247 1078.75 913.935 1076.27 918.359 C 1071.06 927.65 1062.81 933.54 1052.67 936.195 A 22.2662 22.2662 0 0 1 1045.2 934.463 C 1041.9 933.032 1038.89 930.356 1037.92 926.781 C 1036.56 921.774 1038.92 915.762 1041.42 911.505 C 1046.8 902.354 1054.71 896.757 1064.84 894.1 z"/>
<path transform="translate(0,0)" fill="rgb(254,254,253)" d="M 666.595 880.446 C 662.812 871.235 659.058 862.036 656.306 852.451 A 137.587 137.587 0 0 1 668.753 748.236 A 122.425 122.425 0 0 1 742.256 691.558 A 114.775 114.775 0 0 1 830.839 703.378 C 871.34 726.927 885.434 763.253 896.629 806.169 L 896.865 808.201 C 897.11 810.199 897.595 811.874 898.147 813.796 C 902.781 829.902 890.908 864.821 882.42 879.324 C 865.585 908.091 836.007 929.197 803.815 937.263 C 784.791 942.03 765.308 942.081 745.968 939.332 C 735.48 932.409 724.88 929.723 712.805 926.887 C 701.344 918.297 688.71 909.256 679.559 898.137 C 675.092 892.709 671.718 885.062 666.595 880.446 z"/>
<path transform="translate(0,0)" fill="rgb(78,31,21)" d="M 772.344 722.343 C 794.151 719.966 816.885 726.375 835.338 737.897 C 855.321 750.373 868.901 770.61 874.084 793.498 C 879.47 817.279 874.261 842.268 861.201 862.702 C 846.595 885.559 823.943 899.839 797.755 905.641 A 90.1089 90.1089 0 0 1 795.251 906.044 C 772.07 909.403 747.463 903.839 728.606 889.774 C 709.53 875.544 695.732 853.041 692.5 829.417 C 689.122 804.732 694.298 777.707 709.586 757.668 C 724.713 737.839 747.903 725.665 772.344 722.343 z"/>
<path transform="translate(0,0)" fill="rgb(254,254,253)" d="M 809.467 741.178 C 818.518 740.556 825.96 741.042 834.298 745.239 C 844.481 750.364 852.636 759.404 855.838 770.428 C 858.972 781.219 857.504 793.642 851.892 803.382 C 845.024 815.299 834.087 820.89 821.317 824.321 C 811.586 825.379 801.971 823.531 793.418 818.691 A 41.4068 41.4068 0 0 1 773.201 791.821 C 770.631 780.96 772.272 769.504 778.488 760.151 C 785.946 748.93 796.671 743.72 809.467 741.178 z"/>
<path transform="translate(0,0)" fill="rgb(254,254,253)" d="M 1144.93 805.203 C 1156.73 761.882 1169.91 728.522 1210.92 705.146 C 1238.17 689.615 1271.53 684.629 1301.84 693.132 C 1333.6 702.04 1362.64 724.439 1378.54 753.434 C 1394.21 781.976 1399.56 817.855 1390.29 849.236 C 1387.07 860.157 1382.32 870.512 1377.25 880.683 C 1373.42 883.849 1370.65 889.411 1367.56 893.353 C 1357.02 906.765 1345.06 920.681 1331.26 930.733 C 1330.96 930.953 1330.66 931.182 1330.36 931.407 C 1315.77 931.516 1302.53 937.237 1289.71 943.704 C 1277.67 944.563 1265.56 945.758 1253.49 944.528 C 1220.52 941.168 1191.87 923.174 1171.29 897.709 C 1150.23 871.642 1141.4 838.293 1144.93 805.203 z"/>
<path transform="translate(0,0)" fill="rgb(78,31,21)" d="M 1250.99 722.392 C 1272.84 720.915 1296.13 725.48 1314.52 737.729 C 1335.51 751.704 1347.28 774.868 1352.13 799.138 C 1357.26 824.802 1351.7 850.163 1337.06 871.792 C 1321.34 895.029 1301.23 905.766 1274.22 911.057 C 1248.81 913.27 1224.8 905.602 1204.79 889.913 A 96.1448 96.1448 0 0 1 1168.86 825.112 A 95.6483 95.6483 0 0 1 1188.85 755.502 C 1204.42 736.097 1226.47 725.012 1250.99 722.392 z"/>
<path transform="translate(0,0)" fill="rgb(254,254,253)" d="M 1291.2 741.354 C 1299.54 741.35 1307.56 743.314 1314.74 747.643 C 1324.45 753.5 1332.06 763.338 1334.33 774.548 A 40.6484 40.6484 0 0 1 1328.19 804.996 C 1320.45 816.459 1309.51 821.487 1296.43 824.122 C 1285.42 824.189 1275.63 822.048 1266.65 815.31 A 40.6551 40.6551 0 0 1 1250.8 788.171 A 40.8424 40.8424 0 0 1 1259.79 756.4 C 1268.11 746.24 1278.63 742.726 1291.2 741.354 z"/>
</svg>