<?xml version="1.0" encoding="UTF-8" standalone="no"?>
<!-- Created with Inkscape (http://www.inkscape.org/) -->

<svg
   width="210mm"
   height="297mm"
   viewBox="0 0 210 297"
   version="1.1"
   id="svg5"
   inkscape:version="1.1.2 (0a00cf5339, 2022-02-04)"
   sodipodi:docname="panda.svg"
   xmlns:inkscape="http://www.inkscape.org/namespaces/inkscape"
   xmlns:sodipodi="http://sodipodi.sourceforge.net/DTD/sodipodi-0.dtd"
   xmlns="http://www.w3.org/2000/svg"
   xmlns:svg="http://www.w3.org/2000/svg">
  <sodipodi:namedview
     id="namedview7"
     pagecolor="#ffffff"
     bordercolor="#666666"
     borderopacity="1.0"
     inkscape:pageshadow="2"
     inkscape:pageopacity="0.0"
     inkscape:pagecheckerboard="0"
     inkscape:document-units="mm"
     showgrid="false"
     inkscape:zoom="0.73940797"
     inkscape:cx="659.31126"
     inkscape:cy="190.6931"
     inkscape:window-width="1920"
     inkscape:window-height="1008"
     inkscape:window-x="0"
     inkscape:window-y="0"
     inkscape:window-maximized="1"
     inkscape:current-layer="layer1" />
  <defs
     id="defs2">
    <linearGradient
       id="Gradient1"
       gradientUnits="userSpaceOnUse"
       x1="438.592"
       y1="536.586"
       x2="448.564"
       y2="441.373"
       gradientTransform="matrix(0.1180155,0,0,0.12773421,36.034927,24.447725)">
      <stop
         class="stop0"
         offset="0"
         stop-opacity="1"
         stop-color="rgb(201,112,67)"
         id="stop991" />
      <stop
         class="stop1"
         offset="1"
         stop-opacity="1"
         stop-color="rgb(241,166,108)"
         id="stop993" />
    </linearGradient>
    <linearGradient
       id="Gradient2"
       gradientUnits="userSpaceOnUse"
       x1="710.894"
       y1="548.701"
       x2="702.537"
       y2="439.882"
       gradientTransform="matrix(0.1180155,0,0,0.12773421,36.034927,24.447725)">
      <stop
         class="stop0"
         offset="0"
         stop-opacity="1"
         stop-color="rgb(195,100,55)"
         id="stop996" />
      <stop
         class="stop1"
         offset="1"
         stop-opacity="1"
         stop-color="rgb(249,180,124)"
         id="stop998" />
    </linearGradient>
    <linearGradient
       id="Gradient3"
       gradientUnits="userSpaceOnUse"
       x1="579.245"
       y1="1877.98"
       x2="565.671"
       y2="880.379"
       gradientTransform="matrix(0.1180155,0,0,0.12773421,36.034927,24.447725)">
      <stop
         class="stop0"
         offset="0"
         stop-opacity="1"
         stop-color="rgb(7,15,20)"
         id="stop1001" />
      <stop
         class="stop1"
         offset="1"
         stop-opacity="1"
         stop-color="rgb(5,29,31)"
         id="stop1003" />
    </linearGradient>
    <linearGradient
       id="Gradient1-3"
       gradientUnits="userSpaceOnUse"
       x1="827.015"
       y1="225.943"
       x2="800.616"
       y2="82.6239"
       gradientTransform="matrix(0.14682848,0,0,0.14682848,31.246626,-4.5272413)">
      <stop
         class="stop0"
         offset="0"
         stop-opacity="1"
         stop-color="rgb(91,96,97)"
         id="stop24706" />
      <stop
         class="stop1"
         offset="1"
         stop-opacity="1"
         stop-color="rgb(133,134,134)"
         id="stop24708" />
    </linearGradient>
    <linearGradient
       id="Gradient2-6"
       gradientUnits="userSpaceOnUse"
       x1="512.384"
       y1="928.533"
       x2="511.312"
       y2="847.253"
       gradientTransform="matrix(0.14682848,0,0,0.14682848,31.246626,-4.5272413)">
      <stop
         class="stop0"
         offset="0"
         stop-opacity="1"
         stop-color="rgb(175,175,176)"
         id="stop24711" />
      <stop
         class="stop1"
         offset="1"
         stop-opacity="1"
         stop-color="rgb(210,208,207)"
         id="stop24713" />
    </linearGradient>
    <linearGradient
       id="gradient_0"
       gradientUnits="userSpaceOnUse"
       x1="903.8103"
       y1="222.32843"
       x2="910.66461"
       y2="172.13504"
       gradientTransform="matrix(0.12160633,0,0,0.12160633,-167.87906,144.21064)">
      <stop
         offset="0"
         stop-color="#9FD044"
         id="stop26273" />
      <stop
         offset="1"
         stop-color="#E2E76E"
         id="stop26275" />
    </linearGradient>
    <linearGradient
       id="gradient_1"
       gradientUnits="userSpaceOnUse"
       x1="638.68561"
       y1="410.90189"
       x2="378.27307"
       y2="87.262222"
       gradientTransform="matrix(0.12160633,0,0,0.12160633,-167.87906,144.21064)">
      <stop
         offset="0"
         stop-color="#1FAAC3"
         id="stop26314" />
      <stop
         offset="1"
         stop-color="#5EC2BF"
         id="stop26316" />
    </linearGradient>
    <linearGradient
       id="gradient_2"
       gradientUnits="userSpaceOnUse"
       x1="523.64276"
       y1="274.48483"
       x2="568.95447"
       y2="317.53824"
       gradientTransform="matrix(0.12160633,0,0,0.12160633,-167.87906,144.21064)">
      <stop
         offset="0"
         stop-color="#EBAF84"
         id="stop26341" />
      <stop
         offset="1"
         stop-color="#FECF9A"
         id="stop26343" />
    </linearGradient>
  </defs>
  <g
     inkscape:label="Camada 1"
     inkscape:groupmode="layer"
     id="layer1">
    <ellipse
       style="fill:#000000;fill-opacity:0.226966;stroke:none;stroke-width:0.465;stroke-miterlimit:4;stroke-dasharray:none;stroke-opacity:1"
       id="path27198"
       cx="104.92457"
       cy="276.83807"
       rx="71.944"
       ry="15.236562" />
    <path
       fill="#010201"
       d="m 130.25821,16.317557 a 19.652258,19.652258 0 0 1 7.98776,-7.5358983 18.57483,18.57483 0 0 1 14.31607,-1.0199144 c 5.752,1.8786701 10.63508,6.4370777 13.34583,11.7914727 2.89502,5.718382 3.47103,12.754549 1.44685,18.844995 -1.42277,4.280783 -3.96129,8.027994 -8.04841,10.086676 3.83458,10.036607 5.32459,20.576542 3.72034,31.247303 -2.50591,16.667088 -10.46519,29.033279 -23.93671,38.978419 3.18545,1.70658 14.29698,7.80055 15.27369,10.91126 0.20276,0.6456 -0.21041,1.35111 -0.47367,1.92521 4.79761,7.30119 8.15133,14.99457 10.83345,23.29478 a 123.41315,123.41315 0 0 1 5.12695,21.98904 c 0.28602,2.07321 0.67277,4.35052 0.41993,6.43695 -0.41421,3.41964 -2.13371,7.2269 -3.70713,10.28534 -3.04066,5.90985 -7.26492,11.18686 -11.90368,15.9074 -0.59319,0.60346 -1.68103,1.93813 -2.45673,2.18627 0.0158,2.33898 0.22054,4.70586 0.34065,7.04189 -0.011,0.0206 -0.0216,0.0426 -0.0332,0.0617 -0.24505,0.43166 -0.69493,0.91033 -1.17902,1.05275 0.99666,14.83408 0.63077,30.21583 -2.10699,44.86051 -0.34549,1.8471 -0.5719,4.23013 -1.29797,5.96124 0.17311,0.63136 0.54547,1.27887 0.79052,1.89408 0.45401,1.13792 0.81197,2.25235 1.14733,3.42698 0.12245,1.09827 0.3838,2.37862 0.18368,3.46515 -0.13787,0.74735 -0.66396,1.24363 -1.27153,1.65769 -6.54856,4.46506 -25.58311,3.65162 -33.42947,2.176 -2.08953,-0.39203 -5.53192,-0.89124 -6.81901,-2.77653 -1.42512,0.25842 -2.70942,0.20263 -4.14629,0.091 -0.6556,0.71945 -1.5279,1.14673 -2.39844,1.55197 -1.33747,0.62256 -3.153441,0.87363 -4.607043,1.15261 -8.89017,1.70027 -22.849007,1.99833 -31.365794,-1.19225 -1.067442,-0.40084 -2.485072,-1.00578 -2.964026,-2.11433 -1.134544,-2.62383 0.830315,-6.5045 1.773101,-8.95066 -0.7616,-2.26556 -1.019871,-4.94666 -1.41807,-7.31207 -2.286266,-13.57576 -3.487177,-30.08221 -1.86017,-43.79453 -0.581,-0.12186 -1.123825,-0.76203 -1.443324,-1.24069 0.341964,-2.18187 0.316122,-4.55903 0.483359,-6.77468 -0.09412,-0.0146 -0.100727,-0.009 -0.200714,-0.0587 -0.859974,-0.42287 -2.430305,-2.3243 -3.161217,-3.10542 -5.958741,-6.36648 -12.740366,-15.85014 -14.512087,-24.47925 -0.653607,-3.18471 0.07348,-6.6851 0.573057,-9.84778 2.286604,-14.48023 7.698673,-30.56675 15.773799,-42.83486 a 7.1012126,7.1012126 0 0 1 -0.194695,-0.3709 c -0.22685,-0.46999 -0.341523,-1.00151 -0.156225,-1.50528 1.226604,-3.33697 11.585941,-9.3192 15.19337,-10.93079 C 64.330258,112.52157 56.740107,102.62621 52.902598,91.905088 51.243143,87.269273 50.063523,82.583241 49.519229,77.682548 48.50925,68.588643 49.716621,56.893021 53.662783,48.549051 52.698266,48.06951 51.789986,47.399679 50.964222,46.711934 47.104542,43.497712 44.947456,38.307178 44.507029,33.381523 A 25.182552,25.182552 0 0 1 50.288664,14.85867 c 3.90696,-4.674138 8.928493,-7.4671832 14.997943,-8.0187149 1.573267,-0.1659009 3.349892,0.046679 4.891737,0.3750438 5.338537,1.1370405 9.434464,4.6971171 12.344018,9.1745051 a 92.353645,92.353645 0 0 1 5.339857,-2.209622 C 102.27461,8.892529 116.40685,9.9052785 130.25821,16.317557 Z"
       id="path24720"
       style="stroke-width:0.146828" />
    <path
       fill="#111211"
       d="m 129.77735,138.44435 c 0.009,-0.18927 0.0114,-0.38175 0.0704,-0.56338 0.23448,-0.72196 1.49471,-1.18711 2.13239,-1.51454 -0.0913,0.39174 -0.12217,0.8196 -0.36399,1.14835 z"
       id="path24722"
       style="stroke-width:0.146828" />
    <path
       fill="#111211"
       d="m 134.54927,135.21398 c 0.004,-0.12965 0.01,-0.25871 0.0216,-0.38793 l 0.014,-0.14903 c 0.011,-0.12554 0.0229,-0.22934 0.0627,-0.35019 0.26356,-0.80006 1.65756,-2.12093 2.42311,-2.45041 -0.61212,1.30986 -1.43553,2.37979 -2.52133,3.33756 z"
       id="path24724"
       style="stroke-width:0.146828" />
    <path
       fill="#1e0a09"
       d="m 131.98007,136.36643 c 0.46956,-0.39497 1.01913,-0.98361 1.61863,-1.14468 l 0.19588,0.12348 c 0.0581,0.40511 0.0116,0.73577 -0.058,1.13235 l -0.18574,0.10371 c -0.65955,-0.0696 -1.31441,0.65955 -1.93476,0.93354 0.24182,-0.32874 0.27267,-0.7566 0.36399,-1.14835 z"
       id="path24726"
       style="stroke-width:0.146828" />
    <path
       fill="#7a2a24"
       d="m 78.422617,135.04233 c -0.198512,-0.80006 -0.453407,-1.54728 -0.74912,-2.31563 l 3.043461,2.47626 c -0.775841,0.2546 -1.201203,-0.21657 -1.908476,-0.45003 l -0.09514,-0.0306 z"
       id="path24728"
       style="stroke-width:0.146828" />
    <path
       fill="#7a2a24"
       d="m 78.713337,134.7224 0.09514,0.0306 c 0.707272,0.23346 1.132635,0.70463 1.908476,0.45003 0.543853,0.22494 1.630384,0.60597 1.952525,1.07831 0.0066,0.4465 -0.01204,0.90505 0.07283,1.34451 l -0.07825,0.048 c -1.291062,-1.07273 -2.878866,-1.57342 -3.950714,-2.95139 z"
       id="path24730"
       style="stroke-width:0.146828" />
    <path
       fill="#7a2a24"
       d="m 70.584178,122.56852 c 0.970976,-0.4882 1.943128,-1.0328 2.942736,-1.4558 -0.06255,3.2593 0.338587,5.92922 1.940046,8.80574 0.719605,1.29253 1.404413,2.41445 1.804815,3.85425 -2.242952,-2.35293 -3.804914,-6.06255 -5.351017,-8.93657 -0.394529,-0.73327 -0.728417,-1.69719 -1.33658,-2.26762 z"
       id="path24732"
       style="stroke-width:0.146828" />
    <path
       fill="#7a2a24"
       d="m 106.77579,179.62063 c 0.76453,-0.17766 1.64668,-1.02486 2.24265,-1.51527 4.29179,-3.53122 7.99731,-8.2914 11.21388,-12.79316 0.90226,-1.26272 1.69249,-2.59593 2.61252,-3.84838 -1.38635,4.48415 -11.71985,17.57978 -15.76321,19.7132 -0.15843,0.0837 -0.26518,0.11159 -0.44122,0.12333 -0.0221,-1.09093 -0.30027,-2.65026 0.0452,-3.66924 0.009,0.6666 0.026,1.32439 0.0901,1.98952 z"
       id="path24734"
       style="stroke-width:0.146828" />
    <path
       fill="#111211"
       d="m 147.10428,161.60184 c 1.14556,3.35503 2.1644,6.69685 3.06431,10.12676 0.34504,1.31558 0.5813,3.42991 1.0557,4.55315 l 0.28264,0.0881 c -0.0136,0.0206 -0.0254,0.0426 -0.0403,0.0616 -0.36825,0.48455 -1.70469,1.34789 -2.29684,1.43305 -0.4236,-1.97191 -0.57336,-4.0877 -0.82533,-6.09338 -0.42536,-3.38587 -0.88463,-6.77614 -1.24011,-10.16934 z"
       id="path24736"
       style="stroke-width:0.146828" />
    <path
       fill="#7a2a24"
       d="m 87.19782,155.91811 c 4.519087,7.63949 9.134494,15.10718 15.58879,21.29895 0.70403,0.67541 2.05016,2.09377 2.9765,2.38742 0.0979,0.0309 0.10953,0.025 0.19807,0.025 l 0.052,-2.15104 c 0.34269,1.16435 0.0299,2.73835 -0.0214,3.9541 -0.18647,-0.0455 -0.36105,-0.10575 -0.52433,-0.20703 -1.02442,-0.64311 -2.01668,-1.68707 -2.87489,-2.53572 -5.160146,-5.10377 -9.22568,-11.17219 -12.827383,-17.44323 -0.895066,-1.55785 -2.195526,-3.57969 -2.567296,-5.32841 z"
       id="path24738"
       style="stroke-width:0.146828" />
    <path
       fill="#0c3d25"
       d="m 111.85106,136.84054 c 0.12612,1.0579 0.10736,2.20066 0.0315,3.26195 -0.0765,1.06993 -0.29732,2.39403 -1.16802,3.11789 -1.40985,1.17169 -3.84411,1.20987 -5.5974,1.04543 -0.99799,-0.094 -2.16572,-0.33477 -2.82601,-1.15995 -1.33613,-1.66739 -1.38194,-4.82757 -1.18064,-6.85939 0.0345,1.53024 0.12201,2.73351 1.29973,3.86452 1.15304,1.10738 2.81455,1.36772 4.35434,1.31134 1.3263,-0.0486 2.87476,-0.29645 3.81123,-1.32719 0.76512,-0.84221 1.04277,-2.16984 1.2752,-3.2546 z"
       id="path24740"
       style="stroke-width:0.146828" />
    <path
       fill="#fcfbfb"
       d="m 75.516146,124.08232 c 0.604787,-0.0845 3.633419,1.62202 4.404708,1.94592 1.684858,0.70757 3.589222,1.22396 5.201693,2.0534 -1.55183,1.82463 -1.982185,3.76336 -2.348962,6.06606 -0.894773,-0.58775 -1.781177,-1.20325 -2.625588,-1.86133 -2.733505,-2.13078 -4.216766,-4.76092 -4.631851,-8.20405 z"
       id="path24742"
       style="stroke-width:0.146828" />
    <path
       fill="#fcfbfb"
       d="m 137.47615,123.82258 c -0.60038,4.12662 -2.17629,7.03675 -5.54395,9.55119 a 25.436566,25.436566 0 0 1 -2.26218,1.48136 c -0.14948,-2.18246 -0.17854,-5.10611 -1.9794,-6.65559 a 8.6883991,8.6883991 0 0 0 -0.25725,-0.21217 c 4.07302,-0.66293 6.58056,-2.0669 10.04278,-4.16479 z"
       id="path24744"
       style="stroke-width:0.146828" />
    <path
       fill="#111211"
       d="m 59.351652,134.83883 c 0.151968,-0.39086 0.242121,-0.70992 0.629013,-0.92928 1.076106,0.50847 1.931235,3.5302 2.34955,4.70203 2.753915,7.71423 4.510571,16.70012 3.64487,24.89756 -0.503181,4.76459 -1.552417,9.44548 -1.963243,14.23796 -0.680991,0.0161 -1.618931,-0.65191 -2.098767,-1.12177 -0.05506,-0.0543 -0.07825,-0.0837 -0.131704,-0.14536 0.167384,-0.0866 0.158868,-0.0749 0.219508,-0.25548 0.582027,-1.72817 0.756313,-3.72798 1.218676,-5.51047 0.756901,-2.91895 1.895703,-5.8702 2.258368,-8.86697 0.99447,-8.21946 -2.509151,-19.69425 -6.126271,-27.00822 z"
       id="path24746"
       style="stroke-width:0.146828" />
    <path
       fill="#828383"
       d="m 46.221662,29.880545 c -0.0041,-0.592894 -0.0235,-1.186081 -0.0056,-1.778974 0.160924,-5.355716 3.35048,-10.984973 7.18696,-14.5786 3.727681,-3.49161 8.462606,-5.5015457 13.605567,-5.3189494 5.251027,0.1864272 9.144185,2.6679614 12.623432,6.4233934 -0.02584,-0.01011 -0.05198,-0.01983 -0.07752,-0.03068 -1.37079,-0.576742 -2.645996,-1.79953 -3.983897,-2.538664 a 18.252396,18.252396 0 0 0 -15.39128,-0.966726 c -5.719703,2.227535 -9.78788,6.969653 -12.213486,12.500242 -0.914888,2.086139 -1.182116,4.118833 -1.744176,6.288958 z"
       id="path24748"
       style="stroke-width:0.146828" />
    <path
       fill="#0c3d25"
       d="m 83.886985,139.22944 c 2.110365,2.12637 4.122797,2.96329 7.091962,2.98164 2.975186,0.0184 6.308339,-0.74823 8.806185,-2.39917 a 11.886544,11.886544 0 0 0 0.779368,3.06196 c -2.073514,1.36698 -4.761063,2.19215 -7.180942,2.66054 -2.133419,0.41405 -5.216817,0.90592 -7.121182,-0.417 -1.751958,-1.21868 -2.018304,-3.95277 -2.375391,-5.88797 z"
       id="path24750"
       style="stroke-width:0.146828" />
    <path
       fill="url(#Gradient1)"
       d="m 132.90655,15.071718 c 2.67654,-3.575714 6.77203,-6.1325271 11.21359,-6.7628324 4.93285,-0.7000626 10.01003,0.8403444 13.95297,3.8261164 a 22.402355,22.402355 0 0 1 8.62426,14.592401 30.979782,30.979782 0 0 1 0.12803,1.081979 l -0.23419,0.109093 c -0.45399,-0.895947 -0.69699,-1.95781 -1.02487,-2.910874 a 30.541351,30.541351 0 0 0 -1.47238,-3.46897 21.277943,21.277943 0 0 0 -12.37324,-10.726114 c -4.86033,-1.6354043 -10.56931,-1.1501659 -14.963,1.541258 -1.27256,0.779513 -2.48052,2.061913 -3.78171,2.686375 -0.0229,0.01102 -0.0464,0.021 -0.0695,0.03156 z"
       id="path24752"
       style="fill:url(#Gradient1-3);stroke-width:0.146828" />
    <path
       fill="#0c3d25"
       d="m 129.04776,138.02735 c 0.20761,1.49472 0.46001,5.38831 -0.44269,6.57322 -0.66998,0.87803 -1.72832,1.21721 -2.7852,1.34202 -4.66723,0.5506 -9.29996,-1.47269 -13.37415,-3.54445 0.32052,-0.85013 0.50479,-1.63126 0.67482,-2.52472 4.44537,1.05938 11.42619,3.14875 15.83824,1.80835 0.0809,-1.20913 0.0502,-2.44074 0.089,-3.65442 z"
       id="path24754"
       style="stroke-width:0.146828" />
    <path
       fill="#111211"
       d="m 106.75552,247.98398 c 0.10596,0.0382 0.19381,0.0676 0.30731,0.0749 1.83374,0.10866 3.68114,-1.20839 4.96266,-2.39183 -0.008,0.0338 -0.0156,0.066 -0.0239,0.0983 -0.22201,0.86629 -0.77262,1.74139 -1.16788,2.546 -0.58937,1.19959 -1.06069,2.42415 -1.37079,3.72652 -0.73487,3.08633 -0.8726,18.51213 0.0126,21.06108 l 0.19587,0.1527 c -0.38822,1.74872 -0.93853,2.25674 -1.0695,4.29032 -0.0181,0.28045 -0.0559,0.66513 -0.28455,0.84867 -0.41744,0.33476 -1.00402,0.30541 -1.50323,0.23933 -0.25578,-0.37148 -0.064,-27.85043 -0.0586,-30.64604 z"
       id="path24756"
       style="stroke-width:0.146828" />
    <path
       fill="#111211"
       d="m 99.803633,245.23241 c 1.153627,1.35669 3.315537,2.68109 5.106697,2.83379 0.31289,0.0265 0.61448,0.0528 0.91078,-0.0661 l 0.0336,19.88057 c 0.003,3.38146 0.18061,6.82606 -0.022,10.19871 l -0.12392,0.0734 c 0.11584,0.26135 0.0847,0.29953 0.0258,0.56823 l -0.28587,0.12333 c -0.37647,-0.1527 -0.59172,-0.41552 -0.75631,-0.78993 -0.46149,-1.0513 -0.53798,-2.34045 -0.82988,-3.45341 -0.1596,-0.60934 -0.43857,-1.16582 -0.57806,-1.7825 0.39761,-1.19665 0.33066,-19.02016 -0.11849,-20.63821 -0.6575,-2.36835 -2.87197,-4.93344 -3.338295,-6.84221 -0.0085,-0.0352 -0.01601,-0.0705 -0.02408,-0.10575 z"
       id="path24758"
       style="stroke-width:0.146828" />
    <path
       fill="#cccbcb"
       d="m 101.00469,143.52138 c 1.53817,1.19371 3.51272,1.68413 5.43147,1.73111 1.96546,0.0484 3.69553,-0.29659 5.16382,-1.68853 3.13126,1.574 6.67629,3.16416 10.14717,3.69714 1.30267,0.19969 3.3678,0.38175 4.46696,-0.42726 -0.22273,0.77084 -0.67687,2.44029 -1.28079,2.94097 -3.5412,-0.70331 -6.88273,-1.55785 -10.27637,-2.81029 -0.76879,-0.28339 -1.63449,-0.51684 -2.34485,-0.92356 -1.37652,1.24804 -4.83859,1.31705 -6.59069,1.23189 -1.52863,-0.0734 -3.70566,-0.26869 -5.04195,-1.05716 -2.39007,1.92932 -8.59974,3.40494 -11.742163,3.62666 -0.282204,0.0191 -0.480422,0.047 -0.584964,0.31421 -0.585552,-0.37735 -1.138508,-2.662 -1.317346,-3.38586 0.328603,0.27604 0.671154,0.34652 1.084476,0.42139 4.171691,0.74443 9.511843,-1.29943 12.885227,-3.67071 z"
       id="path24760"
       style="stroke-width:0.146828" />
    <path
       fill="#15713e"
       d="m 101.11055,136.24647 c 0.12114,-1.13013 0.14067,-3.13024 1.10239,-3.90548 1.41249,-1.13852 4.43319,-1.08801 6.15564,-0.85808 0.94733,0.12628 2.12858,0.43344 2.74467,1.22896 0.78376,1.01179 0.79198,2.89957 0.73781,4.12867 -0.23243,1.08476 -0.51009,2.41239 -1.27521,3.2546 -0.93647,1.03074 -2.48493,1.27858 -3.81123,1.32719 -1.53979,0.0564 -3.20129,-0.20396 -4.35434,-1.31134 -1.17771,-1.13101 -1.26522,-2.33428 -1.29973,-3.86452 z"
       id="path24762"
       style="stroke-width:0.146828" />
    <path
       fill="#111211"
       d="m 152.0477,209.02304 c -0.2198,-0.97788 -0.15769,-2.19215 -0.22963,-3.20087 a 659.24226,659.24226 0 0 0 -0.54738,-6.82605 c -0.30614,-3.50185 -0.59202,-7.02428 -0.96438,-10.51879 -0.27853,-2.61355 -0.67086,-5.24618 -0.82267,-7.87001 -0.0302,-0.52271 -0.0216,-0.74882 0.22523,-1.21574 0.43123,3.04816 1.28871,6.04346 1.78676,9.08721 0.79639,4.87031 1.14658,9.71565 1.55931,14.62413 1.50646,-0.2408 7.05512,-6.9817 8.14428,-8.48523 2.69769,-3.72357 6.73371,-10.51439 6.91534,-15.10424 0.0137,0.0528 0.0283,0.10715 0.0386,0.16151 1.07493,5.67198 -3.58276,13.99422 -6.76424,18.61051 -1.2548,1.82067 -7.73919,10.44244 -9.34123,10.73757 z"
       id="path24764"
       style="stroke-width:0.146828" />
    <path
       fill="#111211"
       d="m 62.678492,178.82776 c 0.284994,0.34504 0.650009,0.72533 1.104151,0.82811 l -1.709671,17.29053 c -0.42874,4.06861 -0.950275,8.12695 -1.270067,12.20438 -1.374755,-0.19382 -6.321406,-6.52066 -7.422914,-7.98307 -3.348716,-4.44596 -9.658187,-15.01321 -8.843699,-20.59563 a 4.5468522,4.5468522 0 0 1 0.05744,-0.32008 c 1.515461,5.31372 4.488003,11.04297 7.831287,15.43901 1.080512,1.41983 6.115701,7.26948 7.611589,7.4721 0.515515,-2.59886 0.442247,-5.65143 0.712265,-8.32811 0.28103,-2.78681 0.513018,-5.58829 0.861736,-8.36628 0.32038,-2.55189 0.756902,-5.08615 1.067883,-7.64096 z"
       id="path24766"
       style="stroke-width:0.146828" />
    <path
       fill="#c51a16"
       d="m 131.61608,137.51478 c 0.62035,-0.27399 1.27521,-1.00314 1.93476,-0.93354 -0.6296,1.88367 -1.15936,3.79743 -1.81245,5.67316 a 107.52705,107.52705 0 0 1 -7.23395,16.50778 c -0.39232,0.72386 -1.02868,2.26703 -1.6596,2.70164 -0.92003,1.25245 -1.71026,2.58566 -2.61252,3.84838 -3.21657,4.50176 -6.92209,9.26194 -11.21388,12.79316 -0.59597,0.49041 -1.47812,1.33761 -2.24265,1.51527 -0.0641,-0.66513 -0.0818,-1.32292 -0.0902,-1.98952 0.0213,-0.0108 0.043,-0.0191 0.064,-0.0294 1.04073,-0.49921 2.31873,-2.16719 3.10308,-3.07165 5.83393,-6.72622 14.1227,-19.40044 16.96471,-27.73737 0.81299,-0.15857 1.66842,-0.60934 2.18407,-1.26419 1.30502,-1.66063 1.03529,-5.06192 0.77585,-7.08418 z"
       id="path24768"
       style="stroke-width:0.146828" />
    <path
       fill="#c51a16"
       d="m 78.422617,135.04233 0.29072,-0.31993 c 1.071847,1.37797 2.659651,1.87866 3.950713,2.95139 l 0.07825,-0.048 0.336531,1.7894 c 0.28059,1.87119 0.616827,3.8287 1.739625,5.40417 0.353122,0.49628 1.026184,1.02339 1.277113,1.52115 0.239184,0.47278 0.280737,1.02926 0.519333,1.51967 0.624314,2.13782 1.75137,4.29327 2.767424,6.26957 a 104.17936,104.17936 0 0 0 13.427764,20.17277 c 0.78539,0.9118 2.01609,2.53866 3.04655,3.09954 0.051,0.0279 0.10349,0.0528 0.15651,0.0764 l -0.052,2.15103 c -0.0885,0 -0.10016,0.005 -0.19808,-0.025 -0.92634,-0.29366 -2.27247,-1.71202 -2.97649,-2.38743 -6.454305,-6.19176 -11.069711,-13.65946 -15.588798,-21.29894 -1.924921,-1.96603 -7.252446,-17.12065 -8.775204,-20.87578 z"
       id="path24770"
       style="stroke-width:0.146828" />
    <path
       fill="#7a2a24"
       d="m 82.74231,137.62578 0.336531,1.7894 c 0.280589,1.87119 0.616826,3.8287 1.739624,5.40417 0.353122,0.49628 1.026185,1.02339 1.277114,1.52115 0.239183,0.47278 0.280736,1.02926 0.519333,1.51967 -0.48057,-0.0484 -0.762628,-0.39204 -1.102535,-0.72093 -2.073072,-2.00715 -2.810298,-6.70918 -2.848327,-9.46545 z"
       id="path24772"
       style="stroke-width:0.146828" />
    <path
       fill="#15713e"
       d="m 123.53567,130.20888 a 42.07972,42.07972 0 0 0 -7.29048,1.63714 c -1.26213,0.40554 -2.78533,1.30501 -4.07933,1.40647 l -0.15667,-0.17677 c 0.0355,-0.16989 0.0737,-0.2919 0.19147,-0.42508 1.28489,-1.45418 8.398,-3.92237 10.25685,-4.40779 0.81314,-0.21216 1.72332,-0.32816 2.56406,-0.34622 0.92326,-0.02 1.81333,0.23258 2.47832,0.89683 1.86047,1.8584 1.51174,6.72547 1.54787,9.23389 -0.0387,1.21368 -0.009,2.44529 -0.089,3.65442 -4.41205,1.3404 -11.39287,-0.74897 -15.83824,-1.80835 0.1154,-0.80021 0.0752,-1.63698 0.0803,-2.44469 2.89723,0.21599 5.90501,0.53725 8.79959,0.20806 -2.95008,-0.34211 -5.83629,-0.95527 -8.8128,-1.09695 -0.14007,-0.79229 -0.38924,-1.54361 -0.634,-2.308 1.8888,-0.79889 3.78303,-1.65197 5.72601,-2.30888 1.7289,-0.58453 3.59524,-0.96378 5.25603,-1.71408 z"
       id="path24774"
       style="stroke-width:0.146828" />
    <path
       fill="#15713e"
       d="m 86.896969,127.69475 c 3.14859,-0.10371 11.206536,2.77828 13.655491,4.86119 0.25386,0.21598 0.34505,0.30981 0.37118,0.64854 l -0.26018,0.23698 -0.39702,-0.1273 c -2.969463,-1.3379 -6.543122,-2.49388 -9.754994,-3.06299 2.824245,1.37196 5.916013,2.28231 8.802514,3.54723 0.464418,0.2339 0.679522,0.26869 0.92884,0.73561 0.0599,0.80448 -0.286319,1.53568 -0.33536,2.33384 -2.265122,0.0232 -4.55271,0.0422 -6.809317,0.25959 2.231646,0.34432 4.451399,0.59525 6.699489,0.8008 l -0.01248,1.88367 c -2.497846,1.65094 -5.830998,2.41753 -8.806185,2.39917 -2.969165,-0.0184 -4.981597,-0.85527 -7.091962,-2.98164 -0.0856,-0.72299 -0.223326,-1.44259 -0.343432,-2.16072 l -0.03818,-1.37359 c 0.04537,-1.41351 0.167384,-2.88371 0.559122,-4.24833 0.476753,-1.6599 1.308242,-2.91044 2.832469,-3.75205 z"
       id="path24776"
       style="stroke-width:0.146828" />
    <path
       fill="url(#Gradient2)"
       d="m 75.576053,119.80315 a 58.992159,58.992159 0 0 0 13.301044,5.55364 62.651566,62.651566 0 0 0 40.265653,-1.64815 c 2.85097,-1.13102 5.51062,-2.54571 8.1945,-4.02339 0.16328,1.38504 0.23228,2.74481 0.1389,4.13733 -3.46222,2.09789 -5.96976,3.50186 -10.04278,4.16479 -3.84587,-1.32806 -9.87553,1.23703 -13.41659,2.9539 -0.83252,0.40363 -1.63919,0.82312 -2.38024,1.38106 -1.58237,-1.4793 -3.73297,-1.6756 -5.81044,-1.61203 -1.73699,0.0532 -3.17516,0.36355 -4.46873,1.5859 -2.999851,-1.85033 -11.463191,-5.80604 -14.886938,-4.97705 -0.503768,0.12202 -0.956293,0.43197 -1.347885,0.76249 -1.612471,-0.82944 -3.516835,-1.34583 -5.201693,-2.0534 -0.771289,-0.3239 -3.799921,-2.0305 -4.404708,-1.94592 -0.326105,-1.25641 -0.08457,-3.00337 0.0599,-4.27917 z"
       id="path24778"
       style="fill:url(#Gradient2-6);stroke-width:0.146828" />
    <path
       fill="#fcfbfb"
       d="m 69.637135,123.07155 c 0.08384,0.0142 0.210258,0.12833 0.283966,0.17884 0.605227,1.29136 0.964663,2.77198 1.334524,4.14952 2.094802,7.80261 2.463194,16.56342 0.463831,24.41582 -0.44122,1.73257 -2.173356,7.03161 -3.715495,7.94488 a 107.33632,107.33632 0 0 0 -0.142424,-3.62226 c -0.641933,-6.86276 -1.986002,-13.51997 -4.5671,-19.93328 -0.842648,-2.09333 -1.911412,-4.08433 -2.793705,-6.16049 2.443373,-2.80457 5.904561,-5.1456 9.136403,-6.97303 z"
       id="path24780"
       style="stroke-width:0.146828" />
    <path
       fill="#fcfbfb"
       d="m 142.33573,122.76351 c 3.66822,1.97587 6.93721,4.48002 10.06583,7.21456 -3.64458,7.96207 -6.03407,15.37867 -7.24966,24.06064 l -0.32831,4.64124 c -0.0226,-0.008 -0.0457,-0.0132 -0.068,-0.0205 -0.94719,-0.32303 -1.92712,-2.37568 -2.37509,-3.23316 -4.51821,-8.65114 -2.90618,-23.53822 -0.0448,-32.66273 z"
       id="path24782"
       style="stroke-width:0.146828" />
    <path
       fill="#111211"
       d="m 146.41566,16.648803 c 0.83016,-0.02922 1.64727,-0.0075 2.46847,0.12407 3.60714,0.577769 6.83414,3.086334 8.93379,5.992804 1.8518,2.563185 3.14051,5.874461 2.61119,9.074881 -0.45781,2.767276 -2.47406,5.471122 -4.7289,7.08051 -0.42683,0.304815 -0.68041,0.4352 -1.20032,0.348277 l -0.27487,-0.39673 c -0.4048,-0.809466 -1.00166,-1.600578 -1.50249,-2.35792 -3.67952,-5.563624 -8.50813,-10.475477 -13.61849,-14.732328 0.29219,-0.477046 0.58452,-0.96393 0.91724,-1.413664 1.64931,-2.230473 3.67203,-3.320821 6.39438,-3.7199 z"
       id="path24784"
       style="stroke-width:0.146828" />
    <path
       fill="#111211"
       d="m 55.135913,38.630054 c 0.02188,-0.08707 0.09735,-0.277212 0.08986,-0.357968 -0.0032,-0.03406 -2.178495,-4.122944 -2.459524,-5.316365 -1.266397,-5.377154 2.056039,-11.965641 6.67262,-14.724401 a 11.211103,11.211103 0 0 1 8.502837,-1.238939 c 2.718382,0.689507 4.567687,2.354542 6.263703,4.520702 -4.581636,3.351067 -8.902505,7.617022 -12.278679,12.185589 -1.534797,2.076742 -2.893696,4.332322 -4.316316,6.481597 l 0.0072,0.108947 c -0.945869,-0.431823 -1.770311,-0.876567 -2.481695,-1.659162 z"
       id="path24786"
       style="stroke-width:0.146828" />
    <path
       fill="#111211"
       d="m 114.99671,234.45813 c 0.0217,0.009 0.0436,0.0176 0.0652,0.0265 0.15065,0.0632 0.29762,0.11893 0.46413,0.12039 1.4398,0.009 3.24945,-0.6108 4.65608,-0.94117 8.7128,-2.04972 17.22591,-5.04649 24.95819,-9.61726 1.42571,-0.8428 3.09852,-1.7825 4.30634,-2.90867 -0.0129,1.1203 0.0621,2.2362 0.12774,3.35356 -1.85372,1.55344 -4.13073,2.81029 -6.26621,3.94234 -7.30955,3.87775 -14.90426,6.42375 -22.97762,8.17248 -1.56093,0.33917 -3.76116,1.05128 -5.35484,0.88537 -0.14153,-0.0146 -0.2637,-0.0514 -0.3957,-0.10134 -1.57884,-0.0691 -6.61213,-4.722 -7.90157,-6.11835 -0.18354,-0.19821 -0.32479,-0.38174 -0.43976,-0.62842 -1.1294,1.81626 -5.70384,6.23287 -7.87426,6.73061 -0.09161,0.0221 -0.180746,0.0323 -0.274716,0.0323 -0.974648,0.55501 -9.5277,-1.70762 -11.122404,-2.14517 A 79.548294,79.548294 0 0 1 63.531125,224.57361 c -0.135229,0.17326 -0.199539,0.28191 -0.258418,0.49481 -0.153289,-0.69157 0.141542,-2.97327 0.177515,-3.83369 0.144186,0.21436 0.302761,0.42139 0.499511,0.59171 1.069352,0.92356 2.43838,1.67826 3.65647,2.40506 7.730226,4.61042 16.554324,7.59103 25.32894,9.43373 1.348767,0.28338 3.095145,0.85307 4.451399,0.76204 0.06504,-0.003 0.168265,0 0.236835,-0.0161 1.606009,-0.37589 7.682363,-5.75127 8.571853,-7.33556 0.78479,1.31558 3.08134,3.10543 4.29135,4.15819 0.82502,0.71798 3.60052,3.28749 4.51013,3.22435 z"
       id="path24788"
       style="stroke-width:0.146828" />
    <path
       fill="#2d2f2f"
       d="m 46.221662,29.880545 c 0.56206,-2.170125 0.829288,-4.202819 1.744176,-6.288958 2.425606,-5.530589 6.493783,-10.272707 12.213486,-12.500242 a 18.252396,18.252396 0 0 1 15.391296,0.966719 c 1.337901,0.739133 2.613107,1.961922 3.983897,2.538664 0.02555,0.01087 0.05168,0.02056 0.07752,0.03068 0.677467,0.479247 1.280198,1.695428 1.744469,2.404463 -2.276575,1.315583 -4.54067,2.623238 -6.647512,4.203699 -2.03519,-2.686961 -4.689261,-4.588096 -8.090837,-5.046789 -3.069596,-0.413909 -6.220975,0.572484 -8.653482,2.454532 A 15.085304,15.085304 0 0 0 52.175994,28.80091 c -0.39071,3.133025 0.274423,6.485413 2.241924,9.00866 0.222446,0.285141 0.447093,0.579973 0.717991,0.820479 0.711385,0.782595 1.535827,1.227339 2.481696,1.659162 l -1.535532,2.960796 C 53.603608,42.727444 51.70952,41.706986 50.036557,39.785735 48.066706,37.523549 47.263113,34.984004 46.595338,32.121289 46.431036,31.416659 46.171004,30.60778 46.221659,29.88054 Z"
       id="path24790"
       style="stroke-width:0.146828" />
    <path
       fill="#2d2f2f"
       d="m 132.90655,15.071718 c 0.023,-0.01054 0.0466,-0.02056 0.0695,-0.03156 1.3012,-0.624461 2.50915,-1.906861 3.78171,-2.686374 4.39369,-2.6914246 10.10268,-3.176663 14.963,-1.541258 a 21.277943,21.277943 0 0 1 12.37324,10.726114 30.541351,30.541351 0 0 1 1.47239,3.468969 c 0.32787,0.953064 0.57087,2.014927 1.02486,2.910875 l 0.23419,-0.109093 c 0.57337,2.123433 -0.97082,7.204727 -1.96706,9.177661 -1.77339,3.512723 -4.10253,5.450126 -7.80276,6.670124 -0.61903,-1.253769 -1.35361,-2.451595 -2.05985,-3.657644 1.92286,-1.114428 3.53665,-2.334867 4.71554,-4.258761 1.53378,-2.503278 1.79777,-5.441463 1.11369,-8.264094 -0.9789,-4.040133 -3.80741,-7.598226 -7.34554,-9.728121 -2.57683,-1.551243 -5.5667,-2.243246 -8.52618,-1.49721 -3.05623,0.770262 -4.88277,2.703406 -6.45017,5.325616 -2.05428,-1.858702 -4.57355,-3.3217 -6.98507,-4.672523 0.40128,-0.589957 0.82151,-1.399422 1.38856,-1.832712 z"
       id="path24792"
       style="stroke-width:0.146828" />
    <path
       fill="#7a2a24"
       d="m 128.86583,262.8577 c 0.8428,0.4258 2.56862,0.20409 3.54312,0.26135 3.98257,0.23493 8.37715,2.49021 11.14708,5.30345 2.31797,2.35659 4.5875,6.1345 4.5204,9.55119 -0.0108,0.52418 -0.0793,1.12323 -0.48703,1.49325 -0.76821,0.69743 -4.19841,1.76487 -5.27012,1.64888 a 30.541351,30.541351 0 0 0 -0.111,-2.38743 c -0.31803,-3.57087 -1.85664,-7.21662 -4.90055,-9.29718 -0.92016,-0.6299 -2.02138,-0.9309 -2.87166,-1.6665 -0.0373,-0.0323 -0.0737,-0.0647 -0.11042,-0.0969 0.35459,0.88978 1.23425,1.52261 1.90877,2.18187 3.21819,3.1436 4.21735,7.24451 4.26963,11.59211 l -0.056,0.0397 c -0.20247,0.14242 -0.38542,0.23198 -0.62666,0.28485 -1.63303,0.36412 -10.00607,1.15113 -11.30183,0.3377 -0.0243,0.0132 -0.0492,0.0235 -0.0733,0.0367 -0.16548,0.0852 -0.32801,0.16297 -0.51537,0.18647 -1.46285,0.17766 -8.80927,-0.13216 -9.80784,-0.89713 0.13625,-3.98492 1.66885,-8.38097 4.36154,-11.36893 0.75984,-0.84279 1.93931,-1.5505 2.46377,-2.55628 0.0201,-0.0382 0.0389,-0.0778 0.0583,-0.116 -1.29018,1.06745 -2.86786,1.62687 -4.14996,2.81764 -3.17737,2.94832 -4.18741,6.75265 -4.35552,10.96515 -0.35048,0.13509 -0.63915,0.12041 -1.00548,0.0749 -1.48003,-0.18647 -4.18872,-0.69891 -5.12622,-1.92199 0.0768,-1.18344 0.19014,-2.30814 0.52109,-3.45193 1.69102,-5.84377 7.26022,-10.70527 13.11927,-12.10749 1.1849,-0.28337 3.85146,-0.31714 4.78573,-0.86188 0.0241,-0.0146 0.0468,-0.0309 0.0704,-0.0455 z"
       id="path24794"
       style="stroke-width:0.146828" />
    <path
       fill="#7a2a24"
       d="m 81.714217,262.72114 c 0.864966,0.37148 2.500342,0.21438 3.456196,0.28486 4.684563,0.34945 8.88048,2.15985 12.317734,5.40034 3.222593,3.03935 4.933733,6.53974 5.056773,10.95048 -0.21746,0.27016 -0.44768,0.44342 -0.75588,0.602 -1.13659,0.58437 -4.09959,1.62391 -5.331188,1.22454 -2.93e-4,-0.59906 -0.01526,-1.19519 -0.07078,-1.79277 -0.364869,-3.92326 -2.024764,-7.73199 -5.374656,-9.98728 -0.958349,-0.64604 -2.11756,-0.98081 -2.999412,-1.73698 -0.03392,-0.0294 -0.06725,-0.0601 -0.100868,-0.0895 0.579826,1.0278 1.652995,1.66943 2.47729,2.49315 3.119958,3.12157 4.301046,7.19753 4.311177,11.50548 -0.120692,0.0852 -0.213635,0.14095 -0.359436,0.17619 -1.232331,0.30247 -6.757633,0.96907 -7.666502,0.40525 -0.293509,0.18647 -0.545614,0.23933 -0.890221,0.25842 -2.054864,0.11599 -12.418606,-0.0205 -13.629794,-1.09682 0.04317,-3.9673 0.98331,-7.89642 3.716669,-10.89467 0.800216,-0.87803 1.942101,-1.6063 2.533819,-2.63851 0.02335,-0.0411 0.04523,-0.0822 0.06784,-0.12333 -1.234239,1.33027 -3.172523,1.78984 -4.54669,3.24932 -2.626762,2.7868 -3.429766,6.40906 -3.316121,10.1341 -0.240652,0.0896 -0.457517,0.12333 -0.711237,0.0881 -1.382097,-0.18942 -4.246721,-0.99991 -5.09906,-2.15104 0.109681,-1.4448 0.302467,-2.89105 0.71021,-4.28446 1.544635,-5.27995 6.170172,-9.69361 11.527063,-10.97396 1.136893,-0.27163 3.749119,-0.46251 4.609533,-0.96026 0.02305,-0.0132 0.04508,-0.0279 0.06754,-0.0426 z"
       id="path24796"
       style="stroke-width:0.146828" />
    <path
       fill="#fcfbfb"
       d="m 100.67946,146.21569 c 1.33629,0.78847 3.51332,0.98375 5.04195,1.05716 1.7521,0.0852 5.21417,0.0161 6.59069,-1.23189 0.71036,0.40672 1.57606,0.64017 2.34485,0.92356 3.39364,1.25244 6.73517,2.10698 10.27637,2.81029 -0.37249,1.56519 -1.40514,3.19939 -2.16659,4.61189 -3.85351,7.15054 -8.38494,14.03239 -13.76267,20.13605 -0.52433,0.59466 -1.70043,2.09231 -2.43398,2.3889 -0.0462,0.0191 -0.0954,0.0279 -0.14302,0.0426 -1.02133,-0.35092 -2.37553,-2.19509 -3.08075,-3.02907 -5.302857,-6.26224 -10.04248,-13.16612 -13.647854,-20.54718 -0.482772,-0.98962 -1.151428,-2.14075 -1.346123,-3.22142 0.104547,-0.26722 0.30276,-0.29512 0.584964,-0.31421 3.142423,-0.22171 9.352093,-1.69734 11.742163,-3.62666 z"
       id="path24798"
       style="stroke-width:0.146828" />
    <path
       fill="#d9a01f"
       d="m 107.43901,151.29889 c 1.58559,0.24226 2.90059,4.23159 4.45904,4.8703 -0.52991,1.1203 -2.81221,4.21104 -3.78906,4.89379 l -0.28985,0.22906 c -0.94586,-0.55502 -3.45003,-3.97906 -3.92237,-5.0465 0.66689,-0.44636 3.14257,-4.10827 3.54224,-4.94665 z"
       id="path24800"
       style="stroke-width:0.146828" />
    <path
       fill="#fdd244"
       d="m 107.81636,151.96108 c 0.47704,0.76057 2.076,2.3889 2.13752,3.13626 0.0367,0.44636 -0.21113,0.88978 -0.49231,1.21575 -0.38028,0.44047 -0.77892,0.81782 -1.36668,0.86921 -0.20673,0.12922 -0.41714,0.17914 -0.65016,0.23934 -0.21451,-0.0499 -0.39628,-0.12628 -0.57248,-0.25842 -0.60934,-0.45811 -1.17551,-0.96466 -1.2824,-1.74873 0.23845,-1.19518 1.48723,-2.48581 2.22651,-3.45341 z"
       id="path24802"
       style="stroke-width:0.146828" />
    <path
       fill="#cccbcb"
       d="m 51.080658,73.346767 0.03979,0.13332 c 0.382047,1.316024 0.458838,2.759347 0.690827,4.111492 0.362372,2.111981 0.901381,4.315729 1.560053,6.352827 3.885962,12.019968 13.473568,21.861284 24.301875,27.978754 a 59.683281,59.683281 0 0 0 45.293067,5.17086 c 14.07469,-3.94793 26.88987,-13.62965 34.03836,-26.4165 1.95752,-3.50142 3.34916,-7.887039 4.02237,-11.853757 0.26341,-1.551977 0.22832,-3.243588 0.71696,-4.740064 A 55.145106,55.145106 0 0 1 146.46939,109.97372 C 136.21283,120.48766 122.16444,125.845 107.56147,126.0162 93.336572,126.18299 78.023242,121.60003 67.707661,111.50484 57.687792,101.69891 51.217061,87.454635 51.080658,73.346767 Z"
       id="path24804"
       style="stroke-width:0.146828" />
    <path
       fill="#2d2f2f"
       d="m 59.351652,134.83883 c 3.61712,7.31397 7.120741,18.78876 6.126271,27.00822 -0.362665,2.99677 -1.501467,5.94802 -2.258368,8.86697 -0.462363,1.78249 -0.636649,3.7823 -1.218676,5.51047 -0.06064,0.1806 -0.05212,0.16885 -0.219508,0.25548 -0.965692,0.14977 -2.612226,-0.94117 -3.64399,-1.13939 -1.315436,-0.25401 -3.004552,0.13656 -4.189898,-0.44489 1.009152,0.9955 3.312891,1.06598 4.648591,1.6621 1.418803,0.63283 2.680794,1.6621 4.082418,2.26997 -0.310982,2.55481 -0.747504,5.08907 -1.067884,7.64096 -0.348718,2.77799 -0.580706,5.57947 -0.861735,8.36628 -0.270019,2.67668 -0.196751,5.72925 -0.712266,8.32811 -1.495888,-0.20262 -6.531077,-6.05227 -7.611589,-7.4721 -3.343284,-4.39604 -6.315826,-10.12529 -7.831287,-15.43901 -0.07343,-1.94401 0.527936,-4.20811 0.845659,-6.15065 2.155266,-13.17639 6.886079,-27.83428 13.912262,-39.26252 z"
       id="path24806"
       style="stroke-width:0.146828" />
    <path
       fill="#2d2f2f"
       d="m 147.10428,161.60184 c -0.49599,-1.85297 -0.24814,-3.86452 -0.0716,-5.75274 a 69.049763,69.049763 0 0 1 5.97357,-22.25581 c 1.46211,2.47141 2.97738,4.98966 4.2426,7.56739 5.88196,11.98238 9.10689,25.18666 10.86576,38.35277 -0.18163,4.58985 -4.21765,11.38067 -6.91534,15.10424 -1.08916,1.50353 -6.63782,8.24443 -8.14428,8.48523 -0.41273,-4.90848 -0.76292,-9.75382 -1.55931,-14.62413 -0.49805,-3.04375 -1.35553,-6.03905 -1.78676,-9.08721 1.26243,-0.42287 2.42282,-1.70614 3.6967,-2.26262 1.93314,-0.8428 4.52291,-0.94412 6.24286,-1.95724 -1.06642,0.45078 -2.92439,-0.0234 -4.12471,0.15124 -1.29283,0.18794 -2.77521,1.09241 -4.01679,1.04689 l -0.28264,-0.0881 c -0.4744,-1.12324 -0.71066,-3.23757 -1.0557,-4.55315 -0.89991,-3.42991 -1.91875,-6.77173 -3.06431,-10.12676 z"
       id="path24808"
       style="stroke-width:0.146828" />
    <path
       fill="#2d2f2f"
       d="m 63.272707,225.06846 c 0.05888,-0.21291 0.123189,-0.32156 0.258418,-0.49482 A 79.548294,79.548294 0 0 0 86.9673,235.26129 c 1.594704,0.43755 10.147756,2.70017 11.122404,2.14516 0.09397,0 0.183095,-0.0108 0.274716,-0.0323 2.17042,-0.49775 6.74486,-4.91435 7.87426,-6.73061 0.11497,0.24667 0.25622,0.4302 0.43976,0.62842 1.28944,1.39634 6.32273,6.04933 7.90157,6.11835 0.132,0.0499 0.25417,0.0866 0.3957,0.10134 1.59368,0.16591 3.79391,-0.54621 5.35484,-0.88538 8.07336,-1.74873 15.66807,-4.29473 22.97762,-8.17248 2.13548,-1.13205 4.41249,-2.3889 6.26621,-3.94234 0.28514,3.64282 0.24094,7.37373 0.1919,11.02682 a 187.84501,187.84501 0 0 1 -2.32988,27.87245 c -0.22156,1.36844 -0.349,3.72945 -1.00445,4.9261 -0.0229,-0.008 -0.0462,-0.0132 -0.0687,-0.0221 -0.53019,-0.19528 -3.07503,-2.73541 -3.99623,-3.38587 -6.18706,-4.3608 -14.75553,-5.02006 -21.68084,-2.06147 -3.25782,1.39193 -7.0786,3.9908 -9.00381,7.00226 -0.41744,0.65337 -1.5533,3.07899 -2.01096,3.40201 l -0.19587,-0.1527 c -0.88523,-2.54894 -0.74751,-17.97475 -0.0126,-21.06108 0.3101,-1.30237 0.78142,-2.52692 1.37079,-3.72651 0.39526,-0.80462 0.94587,-1.67972 1.16788,-2.546 0.009,-0.0323 0.016,-0.0647 0.0239,-0.0983 0.22994,-0.18499 0.26562,-0.18793 0.34168,-0.48747 -1.18167,0.75324 -2.29861,1.37285 -3.67336,1.69293 -3.36427,0.78407 -6.18016,-0.14535 -9.036557,-1.91316 l -0.05859,0.15563 0.204972,0.11747 c 0.0081,0.0353 0.01557,0.0705 0.02408,0.10575 0.466325,1.90877 2.680795,4.47386 3.338295,6.84221 0.44915,1.61805 0.51609,19.44156 0.11849,20.63821 -0.25078,-0.13214 -0.51068,-0.73854 -0.66059,-0.99256 -3.134634,-5.31519 -7.714655,-8.78915 -13.707019,-10.32498 a 23.065874,23.065874 0 0 0 -16.238348,1.65476 c -0.772612,0.38763 -1.649471,0.76498 -2.342942,1.28181 -1.316612,0.98228 -2.66626,3.03935 -3.909309,3.74413 -0.02363,0.0132 -0.04801,0.025 -0.07195,0.0382 -0.551046,-1.03807 -0.829433,-4.10532 -1.035433,-5.42678 a 175.01074,175.01074 0 0 1 -2.046202,-37.72463 z"
       id="path24810"
       style="stroke-width:0.146828" />
    <path
       fill="#c51a16"
       d="m 70.584178,122.56852 c 0.608163,0.57043 0.942051,1.53435 1.33658,2.26762 1.546103,2.87402 3.108065,6.58364 5.351017,8.93657 0.574833,0.94499 0.890808,2.25705 1.273443,3.30922 0.936179,2.57463 1.840789,5.16807 2.829972,7.72274 a 129.7328,129.7328 0 0 0 9.742804,19.90993 c 3.453406,5.66465 7.155099,10.88147 12.009396,15.44489 0.64575,0.60641 1.76517,1.80599 2.62044,2.01302 l 0.0367,42.24843 c -0.49408,0.99402 -1.45521,1.89849 -2.22636,2.70311 -0.99755,1.03955 -5.032103,5.03768 -6.249312,5.06265 -1.186373,0.57997 -9.518156,-1.83389 -11.22533,-2.34044 -7.272855,-2.16133 -14.229735,-5.18012 -20.58462,-9.3427 -1.045564,-0.6857 -2.717354,-1.6254 -3.326252,-2.74864 0.415378,-3.41816 0.517131,-6.9303 0.820331,-10.36755 a 1555.7946,1555.7946 0 0 1 2.381117,-24.66866 363.99955,363.99955 0 0 1 1.381804,-11.58476 c 0.483065,-3.37559 1.242902,-6.8569 1.230422,-10.27213 0.148884,-0.0645 0.209965,-0.14536 0.307752,-0.26869 5.818667,-7.37814 6.39673,-20.41752 4.558437,-29.41341 A 62.316062,62.316062 0 0 0 71.657473,126.405 c -0.353563,-1.1802 -0.933976,-2.51473 -1.063479,-3.73355 -0.0035,-0.0342 -0.0065,-0.0685 -0.0098,-0.10296 z"
       id="path24812"
       style="stroke-width:0.146828" />
    <path
       fill="#c51a16"
       d="m 139.60809,121.20565 c 0.79098,0.46487 1.57636,0.9541 2.38304,1.39032 -0.96437,3.26047 -1.79528,6.46442 -2.30917,9.82943 -1.05379,6.90021 -1.18609,17.06016 2.18466,23.31505 0.41507,0.77085 1.91817,3.49598 2.7564,3.77496 0.0323,0.0108 0.0653,0.019 0.0979,0.0279 0.47293,4.97308 1.28974,9.91533 1.8822,14.8752 1.72332,14.42737 3.38101,28.84151 3.84602,43.3746 -0.65236,1.08799 -2.38963,2.08936 -3.44343,2.78387 -7.59895,5.00245 -16.31513,8.38097 -25.11089,10.58486 -1.3843,0.34798 -5.22314,1.43892 -6.46604,1.04983 -1.01678,0.047 -3.89447,-2.6855 -4.77427,-3.48718 -1.32571,-1.2084 -3.36884,-2.91455 -4.2316,-4.4768 0.2154,-3.8748 0.0202,-7.82155 0.0137,-11.70664 -0.0168,-9.97259 -0.22801,-20.02446 0.0576,-29.98824 11.12358,-7.62921 19.72156,-24.08134 24.42551,-36.39879 a 120.74058,120.74058 0 0 0 2.42472,-6.90284 c 0.4007,-1.29151 0.68701,-2.80413 1.20488,-4.0372 1.0858,-0.95776 1.90921,-2.0277 2.52133,-3.33755 1.92067,-3.01336 2.44647,-7.15965 2.53749,-10.67077 z"
       id="path24814"
       style="stroke-width:0.146828" />
    <path
       fill="#010201"
       d="m 117.58828,188.87017 c 0.65368,0.93823 0.87612,2.18481 0.65,3.3007 -1.33109,4.88509 -8.50547,3.43264 -7.92935,-1.48301 0.79774,-3.6187 5.37077,-4.26824 7.27935,-1.81769 z"
       id="path24820-7"
       style="stroke-width:0.146828"
       sodipodi:nodetypes="cccc" />
    <path
       fill="#d9a01f"
       d="m 111.27505,189.78997 0.22993,0.0808 0.25431,-0.2364 c 0.14256,0.77084 0.31524,2.35953 0.98683,2.8147 0.60479,0.40965 1.6549,0.37441 2.33473,0.19822 0.45178,-0.11599 0.8375,-0.35973 1.08359,-0.76497 0.28661,-0.47132 0.32404,-2.71487 0.36295,-2.73836 0.16959,0.17472 0.52228,0.65046 0.74839,0.65632 0.1301,0.003 0.0841,0.0161 0.15168,-0.009 0.0919,0.16591 0.17648,0.33917 0.22567,0.5227 0.23125,0.86482 0.13802,1.81921 -0.32464,2.59006 a 3.4777793,3.4777793 0 0 1 -2.19302,1.57401 c -0.99125,0.23051 -1.8496,0.0234 -2.7043,-0.49482 -0.01,-0.003 -0.0204,-0.005 -0.0299,-0.0108 -0.47909,-0.22318 -0.89154,-0.77232 -1.1015,-1.24658 -0.42521,-0.95878 -0.39849,-1.9763 -0.0246,-2.93657 z"
       id="path24816"
       style="stroke-width:0.146828" />
    <path
       fill="#fdd244"
       d="m 111.27505,189.78997 c 0.47441,-0.87803 1.13953,-1.53435 2.11917,-1.82214 0.84633,-0.24814 1.76943,-0.11599 2.53573,0.30981 0.67057,0.37441 1.06848,0.89125 1.49751,1.51381 -0.0676,0.025 -0.0216,0.0117 -0.15168,0.009 -0.22611,-0.005 -0.5788,-0.48159 -0.74839,-0.65631 -0.0389,0.0234 -0.0764,2.26703 -0.36295,2.73835 -0.24609,0.40524 -0.63181,0.64898 -1.08359,0.76497 -0.67983,0.1762 -1.72994,0.21143 -2.33473,-0.19821 -0.67159,-0.45518 -0.84427,-2.04386 -0.98683,-2.81471 l -0.25431,0.2364 z"
       id="path24818"
       style="stroke-width:0.146828" />
    <path
       fill="#010201"
       d="m 117.5436,211.38698 c 0.65368,0.93823 0.87612,2.1848 0.65,3.30069 -0.20217,0.99551 -0.70448,1.93668 -1.58456,2.48435 -3.37951,1.67973 -6.62408,-0.71326 -6.34479,-3.96735 0.81674,-3.50705 5.2838,-4.57221 7.27935,-1.81769 z"
       id="path24820"
       style="stroke-width:0.146828"
       sodipodi:nodetypes="ccccc" />
    <path
       fill="#d9a01f"
       d="m 116.68994,211.48095 c 0.63782,0.90299 1.12646,1.92639 0.93677,3.06725 -0.1348,0.81049 -0.64738,1.458 -1.31765,1.90729 -0.81651,0.54767 -1.8402,0.78994 -2.81015,0.59172 -0.85997,-0.17473 -1.69807,-0.67541 -2.17746,-1.42129 -0.49922,-0.7782 -0.50201,-1.74874 -0.28867,-2.62383 0.081,-0.33183 0.21188,-0.62402 0.37529,-0.92355 l 0.24506,0.20409 c 0.005,0.8149 0.15887,2.02477 0.75734,2.63704 0.37309,0.38175 0.99711,0.47572 1.50529,0.44342 0.66924,-0.0426 1.64814,-0.14683 2.09817,-0.71946 0.57205,-0.72974 0.26357,-2.10405 0.13803,-2.96007 0.20277,-0.0411 0.35635,-0.11011 0.53798,-0.20261 z"
       id="path24822"
       style="stroke-width:0.146828" />
    <path
       fill="#fdd244"
       d="m 111.40807,212.07854 c 0.51038,-0.69597 1.08522,-1.24365 1.9515,-1.4448 1.21648,-0.2819 2.32694,0.22025 3.33037,0.84721 -0.18163,0.0925 -0.33521,0.16151 -0.53798,0.20261 0.12554,0.85602 0.43402,2.23033 -0.13803,2.96007 -0.45003,0.57263 -1.42893,0.67688 -2.09817,0.71946 -0.50818,0.0323 -1.1322,-0.0616 -1.50529,-0.44342 -0.59847,-0.61227 -0.75249,-1.82214 -0.75734,-2.63704 z"
       id="path24824"
       style="stroke-width:0.146828" />
    <path
       fill="#fcfbfb"
       d="M 51.080658,73.346767 A 60.862167,60.862167 0 0 1 67.772119,29.620511 53.656119,53.656119 0 0 1 104.96407,12.71424 a 52.803632,52.803632 0 0 1 37.6474,14.333984 60.904013,60.904013 0 0 1 19.24305,42.579818 54.123033,54.123033 0 0 1 -0.11056,4.455657 c -0.48864,1.496476 -0.45355,3.188087 -0.71696,4.740064 -0.67321,3.966718 -2.06485,8.352337 -4.02237,11.853757 -7.14849,12.78685 -19.96367,22.46857 -34.03836,26.4165 A 59.683281,59.683281 0 0 1 77.673204,111.92316 C 66.844897,105.80569 57.257291,95.964374 53.371328,83.944406 c -0.658672,-2.037098 -1.19768,-4.240846 -1.560052,-6.352827 -0.23199,-1.352145 -0.30878,-2.795468 -0.690828,-4.111492 z"
       id="path24826"
       style="stroke-width:0.146828" />
    <path
       fill="#010201"
       d="m 103.9022,71.438878 c 3.4932,-0.466622 8.4325,0.108947 11.52046,1.905246 1.16714,0.678934 2.24956,1.680451 2.58124,3.036267 0.32875,1.343479 -0.15446,2.735413 -0.84396,3.884493 -2.2688,3.780393 -6.6945,5.566268 -10.77267,6.576741 0.264,5.011256 0.20645,10.03984 0.21628,15.056675 6.03612,0.10102 11.38097,-1.89247 15.8052,-5.978561 -0.37616,0.584226 -0.74852,1.193121 -1.19576,1.725967 -3.08252,3.671884 -7.77677,5.376134 -12.43843,5.767714 -2.78372,0.27546 -5.74687,0.019 -8.44969,-0.69538 -4.355957,-1.15142 -7.769866,-3.335211 -10.057893,-7.256992 4.7615,4.666352 9.095142,5.808972 15.560883,6.481882 a 476.85925,476.85925 0 0 1 0.19954,-15.191457 c -2.76728,-0.551194 -5.21975,-1.427467 -7.498091,-3.128181 -1.834329,-1.369323 -3.738107,-3.335649 -4.048209,-5.710747 -0.144773,-1.109142 0.178397,-2.157057 0.869518,-3.030099 1.922866,-2.429277 5.669782,-3.096906 8.551582,-3.443568 z"
       id="path24828"
       style="stroke-width:0.146828" />
    <path
       fill="#010201"
       d="m 126.38854,36.028547 c 3.57821,-0.340202 6.99212,0.755286 9.97626,2.692834 7.5072,4.874266 12.45208,14.901329 14.28172,23.482719 1.35772,6.368392 1.54111,14.359385 -2.15648,20.035333 -1.96294,3.013067 -4.83725,4.811863 -8.31856,5.553494 -4.11252,0.604494 -7.72523,-0.938968 -11.09876,-3.183241 -7.01179,-4.664741 -11.76464,-12.885961 -13.39663,-21.041402 -1.45816,-7.286217 -1.08566,-16.001662 3.17604,-22.356105 1.89247,-2.821749 4.19606,-4.523638 7.53641,-5.183632 z"
       id="path24830"
       style="stroke-width:0.146828" />
    <path
       fill="#2d2f2f"
       d="m 126.74489,36.634949 c 3.39762,-0.327575 6.68056,0.830754 9.4841,2.694156 7.40926,4.924626 12.25019,15.168409 13.96705,23.664785 1.18565,5.867266 1.30032,13.700419 -2.16498,18.884199 -1.89615,2.836579 -4.64654,4.690436 -7.98497,5.35733 a 5.623751,5.623751 0 0 1 -0.21173,0.03348 c -3.9952,0.573806 -8.40123,-1.52496 -11.53367,-3.863203 -7.08638,-5.289497 -11.21725,-13.873676 -12.43886,-22.465786 -0.92164,-6.483064 -0.14375,-14.536313 3.93206,-19.915668 1.81334,-2.393157 3.93059,-3.967306 6.951,-4.38929 z"
       id="path24832"
       style="stroke-width:0.146828" />
    <path
       fill="#010201"
       d="m 127.08789,49.392875 c 1.48444,-0.176635 2.9771,-0.02217 4.35478,0.584378 2.40726,1.059955 4.3385,3.627838 5.2597,6.040963 1.48413,3.887578 1.31807,8.65921 -0.37647,12.448265 -1.24775,2.789889 -3.19176,5.064115 -6.08986,6.16665 a 6.2621025,6.2621025 0 0 1 -0.16827,0.05285 5.9802065,5.9802065 0 0 1 -4.65153,-0.526233 c -2.51208,-1.401478 -3.9974,-4.1435 -4.74814,-6.824441 -1.24128,-4.432459 -1.04585,-9.547962 1.25862,-13.616726 1.17155,-2.068373 2.82013,-3.677761 5.16117,-4.325715 z"
       id="path24834"
       style="stroke-width:0.146828" />
    <path
       fill="#fcfbfb"
       d="m 126.38194,54.233957 c 0.44224,-0.04684 0.94293,-0.08766 1.37123,0.0533 a 3.0207317,3.0207317 0 0 1 1.72391,1.494273 3.482566,3.482566 0 0 1 0.17679,2.675656 c -0.35151,1.032791 -1.00519,1.579434 -1.94945,2.061031 -0.49084,0.05506 -0.99785,0.08282 -1.47386,-0.07679 a 2.917247,2.917247 0 0 1 -1.69866,-1.528485 c -0.41024,-0.859239 -0.42976,-1.899372 -0.0929,-2.785335 0.38087,-1.002252 0.98653,-1.479445 1.94298,-1.893648 z"
       id="path24836"
       style="stroke-width:0.146828" />
    <path
       fill="#fcfbfb"
       d="m 127.60869,51.029865 c 0.41361,-0.0069 0.84705,-0.008 1.25597,0.05653 2.03489,0.321113 3.73444,1.783966 4.87632,3.429913 2.11991,3.055648 2.62603,7.130432 1.95267,10.730813 -0.53489,2.859925 -1.90245,5.866532 -4.38636,7.536559 -1.45565,0.978611 -2.88443,1.204287 -4.56944,0.870987 l -0.0834,-0.16856 c 0.32582,-0.03553 0.65721,-0.0574 0.98096,-0.107042 1.48003,-0.226703 2.60034,-1.321016 3.44005,-2.486834 2.1108,-2.930843 2.45732,-6.969361 1.87764,-10.441854 -0.45047,-2.698561 -1.55961,-5.865211 -3.90608,-7.494419 -1.37534,-0.954972 -2.64732,-1.04586 -4.23203,-0.759544 0.89536,-0.563528 1.76032,-0.94352 2.7937,-1.166553 z"
       id="path24838"
       style="stroke-width:0.146828" />
    <path
       fill="#010201"
       d="m 83.752784,35.751775 c 0.02202,-0.0027 0.0439,-0.0061 0.06592,-0.0082 2.539987,-0.235659 5.17497,0.639439 7.159357,2.209622 4.270948,3.379259 5.937304,9.143451 6.54767,14.329873 1.037783,8.817931 -1.025597,18.707123 -6.62681,25.746374 -3.867315,4.86017 -9.060492,9.14624 -15.420661,9.877592 a 11.154339,11.154339 0 0 1 -7.829776,-2.193323 c -3.590544,-2.684025 -5.288615,-7.384738 -5.90779,-11.669929 -1.399717,-9.687008 1.979835,-20.708395 7.799382,-28.477677 3.493489,-4.663859 8.249704,-8.963878 14.212703,-9.814309 z"
       id="path24840"
       style="stroke-width:0.146828" />
    <path
       fill="#2d2f2f"
       d="m 84.084176,36.347017 a 5.5806422,5.5806422 0 0 1 0.182507,-0.01497 c 2.506069,-0.163566 5.039301,1.004894 6.885228,2.632635 4.157008,3.665426 5.617658,10.179324 5.958447,15.466912 0.55927,8.679619 -1.941366,17.977826 -7.771484,24.567195 -3.697729,4.179325 -8.526624,7.955166 -14.301095,8.299038 -0.0348,0.0044 -0.06959,0.01033 -0.104546,0.01307 -2.594167,0.208203 -5.215642,-0.725186 -7.233213,-2.32591 -3.437694,-2.727339 -4.953699,-7.508661 -5.422522,-11.713682 -1.099451,-9.86056 2.385963,-20.790619 8.585355,-28.500142 3.321994,-4.131312 7.785433,-7.828601 13.221318,-8.424137 z"
       id="path24842"
       style="stroke-width:0.146828" />
    <path
       fill="#010201"
       d="m 83.14139,49.684623 c 1.687794,-0.09676 3.08839,0.189262 4.530246,1.136893 2.870497,1.886305 4.484583,5.364232 5.145751,8.636011 0.782155,3.870692 0.311276,8.576104 -1.912441,11.92027 -1.385033,2.083056 -3.152701,3.227584 -5.606205,3.724745 -1.745791,7.34e-4 -3.206735,-0.384104 -4.668852,-1.346564 -3.00323,-1.976752 -4.711285,-5.425459 -5.404023,-8.865797 -0.744272,-3.697141 -0.201595,-8.069547 1.922426,-11.249411 1.449931,-2.170566 3.446064,-3.439605 5.993098,-3.956147 z"
       id="path24844"
       style="stroke-width:0.146828" />
    <path
       fill="#fcfbfb"
       d="m 85.119464,54.222945 c 0.491875,-0.05168 1.018843,-0.09911 1.500439,0.04126 0.782449,0.228024 1.490457,0.761011 1.88381,1.478856 a 3.3166939,3.3166939 0 0 1 0.258712,2.570085 c -0.341817,1.130727 -1.078896,1.754894 -2.083055,2.299041 -0.468824,0.05711 -0.931628,0.111149 -1.393403,-0.02041 -0.816513,-0.23243 -1.526283,-0.772758 -1.922573,-1.528044 a 3.4370492,3.4370492 0 0 1 -0.224793,-2.688429 c 0.341963,-1.052026 1.014437,-1.671936 1.980863,-2.152358 z"
       id="path24846"
       style="stroke-width:0.146828" />
    <path
       fill="#fcfbfb"
       d="m 84.315577,51.319412 c 0.985514,0.04816 1.85929,0.304375 2.792678,0.597298 -0.934563,0.09543 -1.790573,0.231255 -2.642765,0.657204 -2.123287,1.061129 -3.363254,3.170173 -4.065829,5.354982 -1.440974,4.480324 -1.062597,10.671053 2.314898,14.247207 0.442835,0.468824 2.30741,1.643305 2.40138,1.827575 -1.378719,0.102922 -2.793851,-0.510963 -3.876712,-1.324099 -2.503865,-1.879993 -4.001076,-5.184074 -4.397953,-8.228856 -0.450764,-3.456783 0.168999,-7.490749 2.361442,-10.295319 1.331734,-1.703505 2.993979,-2.580364 5.112861,-2.835992 z"
       id="path24848"
       style="stroke-width:0.146828" />
    <path
       style="fill:none;stroke:#000000;stroke-width:0.500249;stroke-linecap:butt;stroke-linejoin:miter;stroke-miterlimit:4;stroke-dasharray:none;stroke-opacity:1"
       d="m 107.43901,151.29889 -3.54224,4.94665 3.92237,5.0465 4.07891,-5.12285 z"
       id="path25956" />
  </g>
</svg>
