<svg version="1.1" xmlns="http://www.w3.org/2000/svg" style="display: block;" viewBox="0 0 2048 2048" width="1024" height="1024">
<path transform="translate(0,0)" fill="rgb(254,254,254)" d="M 0 0 L 2048 0 L 2048 2048 L 0 2048 L 0 0 z"/>
<path transform="translate(0,0)" fill="rgb(213,87,11)" d="M 156.431 746.321 C 176.919 772.521 194.516 770.025 217.958 787.796 C 219.164 832.787 247.757 874.246 272.799 909.806 C 257.457 916.284 247.099 927.07 240.89 942.422 C 237.251 951.421 236.073 962.221 231.874 970.725 C 211.481 950.161 196.519 924.438 186.126 897.567 C 195.077 904.417 205.208 908.336 215.557 912.538 C 213.575 907.843 211.442 903.527 208.903 899.098 C 195.843 892.185 182.643 889.258 170.822 879.546 C 152.413 864.42 147.812 845.357 145.702 822.55 C 160.08 835.157 176.472 841.545 195.37 843.504 C 189.172 831.226 181.528 822.381 173.124 811.753 C 157.281 791.718 153.719 771.232 156.431 746.321 z"/>
<path transform="translate(0,0)" fill="rgb(159,76,42)" d="M 600.836 1904.69 C 554.416 1915.98 445.381 1921.21 403.924 1898.09 C 397.736 1894.64 392.039 1889.7 390.174 1882.59 C 387.741 1873.33 392.11 1862.63 396.579 1854.56 C 412.45 1825.89 437.274 1811.33 467.83 1802.4 C 474.304 1815.27 539.976 1841.26 556.887 1853.79 C 568.704 1862.54 581.191 1874.03 589.302 1886.39 C 592.865 1891.81 596.389 1900.31 600.836 1904.69 z"/>
<path transform="translate(0,0)" fill="rgb(133,52,22)" d="M 454.76 1834.86 C 457.195 1834.89 457.865 1834.32 459.702 1836.06 C 457.533 1840.3 444.261 1849.46 439.789 1854.83 C 432.351 1863.75 426.969 1874.21 421.298 1884.3 L 418.567 1884.57 L 417.452 1883.01 C 417.515 1879.73 418.278 1876.96 419.365 1873.87 C 425.308 1856.93 438.647 1842.48 454.76 1834.86 z"/>
<path transform="translate(0,0)" fill="rgb(133,52,22)" d="M 488.24 1843.89 L 489.764 1843.78 L 490.866 1844.93 C 487.559 1852.81 478.107 1861.38 472.526 1868.31 C 464.026 1878.88 457.221 1890.92 448.584 1901.21 C 447.213 1900.21 446.193 1899.27 445.009 1898.07 C 444.878 1896.68 444.926 1895.49 445.306 1894.14 C 450.364 1876.12 472.261 1853.23 488.24 1843.89 z"/>
<path transform="translate(0,0)" fill="rgb(159,76,42)" d="M 1093.16 1804.51 C 1119.39 1815.41 1144.87 1835.56 1156.23 1862.43 A 65.7703 65.7703 0 0 1 1159.53 1872.35 C 1153.55 1887.05 1142.36 1895.38 1128.13 1901.37 C 1076.94 1922.9 982.801 1912.96 928.493 1902.73 C 949.686 1867.23 1000.18 1849.14 1036.42 1833.18 A 839.705 839.705 0 0 0 1077.96 1813.73 C 1082.66 1811.43 1090.67 1809.17 1093.16 1804.51 z"/>
<path transform="translate(0,0)" fill="rgb(133,52,22)" d="M 1138.66 1862.45 C 1136.87 1859.67 1134.45 1857.49 1132.44 1854.89 C 1130.92 1852.94 1129.74 1851.57 1129.97 1849.04 L 1131.95 1848.72 C 1135.86 1850.4 1138.51 1853.95 1141.35 1857.02 C 1145.04 1862.42 1148.71 1866.9 1149.24 1873.63 L 1148.27 1875.03 C 1144.09 1873.72 1141.15 1867.26 1139.26 1863.63 C 1139.06 1863.24 1138.86 1862.84 1138.66 1862.45 z"/>
<path transform="translate(0,0)" fill="rgb(133,52,22)" d="M 1083.33 1837.02 C 1090.12 1837.29 1097.26 1842.87 1102.33 1847.12 C 1112.06 1855.28 1123.89 1868.27 1124.96 1881.4 L 1121.38 1882.24 C 1121.12 1882.09 1120.85 1881.97 1120.62 1881.79 C 1115.2 1877.68 1111.36 1866.3 1106.69 1860.56 C 1099.96 1852.28 1088.59 1846.08 1083.33 1837.02 z"/>
<path transform="translate(0,0)" fill="rgb(133,52,22)" d="M 1043.53 1847.63 C 1054.4 1848.14 1064.53 1854.61 1072 1862.27 C 1078.73 1869.16 1090.9 1885.79 1090.78 1895.51 L 1086.98 1895.87 C 1079.45 1888.76 1074.58 1878.77 1068.12 1870.73 C 1061.19 1862.11 1051.84 1854.87 1043.53 1847.63 z"/>
<path transform="translate(0,0)" fill="rgb(159,76,42)" d="M 354.58 478.777 C 345.334 464.739 337.441 450.82 331.483 435.039 C 308.806 374.976 313.171 306.827 339.636 248.641 C 362.768 197.785 398.824 156.338 451.979 136.445 C 453.995 149.888 456.709 162.303 462.698 174.596 C 470.264 190.126 481.635 202.422 492.587 215.547 C 523.507 252.604 546.731 290.57 550.22 339.811 C 527.907 350.596 504.993 361.001 484.134 374.48 C 479.213 378.152 473.638 381.888 468.138 384.627 C 451.484 396.682 434.587 408.237 418.219 420.705 L 399.72 435.078 C 383.462 448.521 370.18 464.782 354.58 478.777 z"/>
<path transform="translate(0,0)" fill="rgb(250,142,105)" d="M 412.422 242.562 A 94.5415 94.5415 0 0 1 424.731 251.336 C 463.766 283.689 479.444 325.099 484.134 374.48 C 479.213 378.152 473.638 381.888 468.138 384.627 C 473.681 360.045 472.002 333.187 458.374 311.488 C 447.457 294.104 430.968 280.588 414.072 269.317 C 410.012 280.173 404.678 290.456 400.646 301.353 C 389.818 330.62 383.946 366.999 397.106 396.441 C 401.845 407.043 408.557 414.434 418.219 420.705 L 399.72 435.078 C 390.257 422.43 384.265 407.159 380.689 391.858 C 368.674 340.437 385.51 286.333 412.422 242.562 z"/>
<path transform="translate(0,0)" fill="rgb(233,170,123)" d="M 414.072 269.317 C 430.968 280.588 447.457 294.104 458.374 311.488 C 472.002 333.187 473.681 360.045 468.138 384.627 C 451.484 396.682 434.587 408.237 418.219 420.705 C 408.557 414.434 401.845 407.043 397.106 396.441 C 383.946 366.999 389.818 330.62 400.646 301.353 C 404.678 290.456 410.012 280.173 414.072 269.317 z"/>
<path transform="translate(0,0)" fill="rgb(159,76,42)" d="M 1006.77 136.038 C 1048.95 151.09 1083.39 199.247 1101.94 238.497 C 1130.83 299.641 1129.76 375.496 1106.98 438.288 C 1099.7 458.333 1089.51 475.734 1080.51 494.811 C 1068.78 480.543 1057.17 466.099 1044.81 452.365 C 1027.06 433.663 1008.41 415.181 988.091 399.248 C 981.949 394.431 955.074 378.848 952.75 373.862 C 949.512 373.097 945.757 370.457 942.803 368.874 C 930.594 362.329 915.092 351.255 901.154 350.447 C 899.698 349.707 898.338 348.49 897.02 347.514 C 896.524 330.762 899.878 315.858 904.974 299.943 C 912.627 276.044 923.824 256.116 939.604 236.625 C 969.108 200.183 993.124 184.86 1006.77 136.038 z"/>
<path transform="translate(0,0)" fill="rgb(250,142,105)" d="M 1031.39 237.418 C 1061.87 274.335 1071.08 326.597 1066.63 373.315 C 1064.15 399.438 1058.45 429.543 1044.81 452.365 C 1027.06 433.663 1008.41 415.181 988.091 399.248 C 981.949 394.431 955.074 378.848 952.75 373.862 C 955.6 324.331 979.842 282.583 1016.33 250.138 C 1021.22 245.794 1026.19 241.376 1031.39 237.418 z"/>
<path transform="translate(0,0)" fill="rgb(233,170,123)" d="M 1028.18 253.722 C 1032.34 255.633 1035.54 261.992 1037.71 265.922 C 1052.73 293.159 1061.49 334.332 1052.21 364.717 C 1049 375.225 1042.71 384.772 1032.71 389.859 C 1023.97 394.306 1013.75 394.857 1004.51 391.876 C 997.293 388.845 990.822 385.52 985.316 379.773 C 977 371.09 973.227 359.53 973.709 347.62 C 975.162 311.674 1002.89 276.931 1028.18 253.722 z"/>
<path transform="translate(0,0)" fill="rgb(233,170,123)" d="M 1422.36 1467.03 C 1423.96 1467.49 1424.94 1467.4 1426.46 1466.61 C 1439.41 1459.91 1451.51 1445.84 1460.6 1434.7 C 1519.43 1362.61 1505.48 1260.23 1497.07 1174.57 C 1489.46 1097.05 1477.38 1005.22 1503.04 930.411 C 1520.93 878.234 1556.08 836.756 1606.23 812.728 C 1642.39 795.402 1689.09 789.462 1727.4 803.036 C 1755.15 812.866 1775.07 832.815 1787.37 859.268 C 1805.94 899.183 1802.92 937.75 1787.8 978.226 C 1769.04 1028.45 1729.86 1067.09 1681.06 1088.74 C 1664.49 1096.09 1647.03 1100.55 1630.56 1108.1 C 1624.39 1108.59 1618.31 1109.08 1612.12 1108.93 C 1637.39 1098.27 1659.18 1091.48 1670.36 1063.94 C 1680.33 1039.4 1676.62 1010.76 1666.4 986.952 C 1657.77 966.819 1643.5 949.954 1622.81 941.705 C 1608.74 936.093 1589.04 933.152 1574.87 939.516 C 1563.2 944.757 1555.38 955.717 1551.12 967.47 C 1545.95 981.721 1544.93 998.074 1544.81 1013.1 A 305.622 305.622 0 0 0 1550.99 1079.82 C 1560.17 1124.38 1577 1166.84 1584.6 1211.96 C 1593.8 1266.55 1597.13 1324.04 1589.66 1379.06 A 433.462 433.462 0 0 1 1429.74 1659.2 C 1402.96 1680.15 1372.4 1697.79 1341.79 1712.47 C 1279.61 1742.28 1192.49 1763.64 1123.44 1763.3 C 1137.88 1750.27 1148.46 1733.58 1159.83 1717.98 C 1192.52 1712.38 1222.78 1704.28 1252.41 1689.03 C 1316.15 1656.24 1366.71 1599.04 1397.13 1534.61 C 1407.16 1513.38 1414.58 1491.59 1421.67 1469.24 L 1422.36 1467.03 z"/>
<path transform="translate(0,0)" fill="rgb(239,192,152)" d="M 1422.36 1467.03 C 1431.2 1424.85 1435.19 1382.98 1432.63 1339.87 C 1430.23 1299.52 1422.66 1259.9 1414.73 1220.36 C 1383.57 1064.77 1339.55 921.598 1429.58 775.563 C 1470.42 709.327 1536.55 650.131 1613.63 632.367 C 1676.29 617.926 1743.98 634.72 1797.76 668.713 C 1851.93 702.95 1886.61 755.852 1900.69 817.717 C 1901.78 806.153 1901.1 794.083 1901.15 782.458 C 1903.33 794.831 1902.35 808.63 1901.71 821.169 C 1898.57 882.326 1878.25 938.401 1843.14 988.392 C 1803.36 1045.03 1744.67 1091.18 1675.41 1103.13 C 1660.66 1105.68 1645.48 1107.03 1630.56 1108.1 C 1647.03 1100.55 1664.49 1096.09 1681.06 1088.74 C 1729.86 1067.09 1769.04 1028.45 1787.8 978.226 C 1802.92 937.75 1805.94 899.183 1787.37 859.268 C 1775.07 832.815 1755.15 812.866 1727.4 803.036 C 1689.09 789.462 1642.39 795.402 1606.23 812.728 C 1556.08 836.756 1520.93 878.234 1503.04 930.411 C 1477.38 1005.22 1489.46 1097.05 1497.07 1174.57 C 1505.48 1260.23 1519.43 1362.61 1460.6 1434.7 C 1451.51 1445.84 1439.41 1459.91 1426.46 1466.61 C 1424.94 1467.4 1423.96 1467.49 1422.36 1467.03 z"/>
<path transform="translate(0,0)" fill="rgb(159,76,42)" d="M 1313.86 490.328 C 1411.6 439.413 1530.06 426.47 1635.75 459.752 C 1732.22 490.134 1816 555.363 1862.88 645.732 C 1883.4 685.295 1900.6 737.452 1901.15 782.458 C 1901.1 794.083 1901.78 806.153 1900.69 817.717 C 1886.61 755.852 1851.93 702.95 1797.76 668.713 C 1743.98 634.72 1676.29 617.926 1613.63 632.367 C 1536.55 650.131 1470.42 709.327 1429.58 775.563 C 1339.55 921.598 1383.57 1064.77 1414.73 1220.36 C 1422.66 1259.9 1430.23 1299.52 1432.63 1339.87 C 1435.19 1382.98 1431.2 1424.85 1422.36 1467.03 L 1421.67 1469.24 C 1414.58 1491.59 1407.16 1513.38 1397.13 1534.61 C 1366.71 1599.04 1316.15 1656.24 1252.41 1689.03 C 1222.78 1704.28 1192.52 1712.38 1159.83 1717.98 A 208.738 208.738 0 0 0 1171.51 1696.51 C 1222.65 1588.35 1183.4 1455.63 1133.45 1354.64 C 1126.2 1339.99 1117.64 1325.69 1109.08 1311.77 C 1103.31 1302.4 1095.02 1291.46 1091.49 1281.09 C 1091.4 1280.84 1091.33 1280.58 1091.25 1280.32 C 1084.66 1274.05 1079.66 1264.36 1074.51 1256.72 C 1059.83 1234.94 1046.02 1211.93 1027.61 1193.07 C 1021.45 1184.89 1016.32 1175.93 1010.29 1167.63 C 1003.26 1157.95 995.152 1149.36 986.887 1140.75 C 977.213 1130.05 966.625 1120.06 956.272 1110.02 A 609.696 609.696 0 0 0 1006.98 1088.93 C 1016.09 1084.65 1027 1077.23 1036.48 1074.72 C 1044.01 1069.16 1053.63 1064.85 1061.89 1060.39 C 1098.47 1040.62 1147.17 1021.01 1168.74 983.575 C 1177.49 968.394 1179.51 953.248 1174.83 936.344 C 1199.75 926.463 1215.89 917.214 1235.32 898.762 L 1242.44 887.968 C 1234.41 887.918 1226.36 888.21 1218.34 888.367 C 1236.56 865.562 1253.81 856.47 1262.5 826.086 C 1263.44 821.482 1266.13 816.668 1267.99 812.332 C 1252.49 815.179 1236.86 818.63 1221.2 820.329 A 271.445 271.445 0 0 0 1228.5 813.023 C 1243.31 797.428 1256.16 776.101 1255.73 753.862 L 1256.8 748.416 L 1256.24 747.761 C 1243.12 753.635 1229.95 758.44 1216.63 763.749 C 1208.05 765.268 1199.03 768.743 1190.44 770.83 C 1183.56 721.145 1171.68 673.881 1154.31 626.808 C 1196.18 567.648 1250.05 523.883 1313.86 490.328 z"/>
<path transform="translate(0,0)" fill="rgb(133,52,22)" d="M 1154.31 626.808 C 1196.18 567.648 1250.05 523.883 1313.86 490.328 C 1313.77 493.154 1313.07 494.727 1311.49 497.072 C 1304.69 507.154 1296.67 516.548 1289.6 526.465 C 1277.33 543.688 1266.56 562.435 1257.28 581.428 C 1239.03 618.74 1227.07 663.023 1221.89 704.173 C 1219.4 723.938 1218.56 743.921 1216.63 763.749 C 1208.05 765.268 1199.03 768.743 1190.44 770.83 C 1183.56 721.145 1171.68 673.881 1154.31 626.808 z"/>
<path transform="translate(0,0)" fill="rgb(133,52,22)" d="M 1174.83 936.344 C 1199.75 926.463 1215.89 917.214 1235.32 898.762 C 1233.78 941.24 1208.8 983.728 1178.31 1012.1 C 1166.37 1023.21 1153.23 1035.1 1138.19 1041.77 C 1140.74 1068.31 1143.96 1094.65 1149.15 1120.84 C 1167.42 1213.05 1221.12 1396.27 1295.87 1457.41 C 1318.98 1476.31 1345.76 1486.08 1375.75 1482.74 C 1391.73 1480.96 1406.81 1475.07 1421.67 1469.24 C 1414.58 1491.59 1407.16 1513.38 1397.13 1534.61 C 1366.71 1599.04 1316.15 1656.24 1252.41 1689.03 C 1222.78 1704.28 1192.52 1712.38 1159.83 1717.98 A 208.738 208.738 0 0 0 1171.51 1696.51 C 1222.65 1588.35 1183.4 1455.63 1133.45 1354.64 C 1126.2 1339.99 1117.64 1325.69 1109.08 1311.77 C 1103.31 1302.4 1095.02 1291.46 1091.49 1281.09 C 1091.4 1280.84 1091.33 1280.58 1091.25 1280.32 C 1084.66 1274.05 1079.66 1264.36 1074.51 1256.72 C 1059.83 1234.94 1046.02 1211.93 1027.61 1193.07 C 1021.45 1184.89 1016.32 1175.93 1010.29 1167.63 C 1003.26 1157.95 995.152 1149.36 986.887 1140.75 C 977.213 1130.05 966.625 1120.06 956.272 1110.02 A 609.696 609.696 0 0 0 1006.98 1088.93 C 1016.09 1084.65 1027 1077.23 1036.48 1074.72 C 1044.01 1069.16 1053.63 1064.85 1061.89 1060.39 C 1098.47 1040.62 1147.17 1021.01 1168.74 983.575 C 1177.49 968.394 1179.51 953.248 1174.83 936.344 z"/>
<path transform="translate(0,0)" fill="rgb(254,254,254)" d="M 956.272 1110.02 A 609.696 609.696 0 0 0 1006.98 1088.93 C 1016.09 1084.65 1027 1077.23 1036.48 1074.72 A 1776.53 1776.53 0 0 0 1071.51 1219.66 C 1077.38 1240.04 1086.34 1259.74 1091.25 1280.32 C 1084.66 1274.05 1079.66 1264.36 1074.51 1256.72 C 1059.83 1234.94 1046.02 1211.93 1027.61 1193.07 C 1021.45 1184.89 1016.32 1175.93 1010.29 1167.63 C 1003.26 1157.95 995.152 1149.36 986.887 1140.75 C 977.213 1130.05 966.625 1120.06 956.272 1110.02 z"/>
<path transform="translate(0,0)" fill="rgb(213,87,11)" d="M 867.458 1137 C 897.875 1129.44 926.884 1117.5 956.272 1110.02 C 966.625 1120.06 977.213 1130.05 986.887 1140.75 C 995.152 1149.36 1003.26 1157.95 1010.29 1167.63 C 1016.32 1175.93 1021.45 1184.89 1027.61 1193.07 C 1046.02 1211.93 1059.83 1234.94 1074.51 1256.72 C 1079.66 1264.36 1084.66 1274.05 1091.25 1280.32 C 1091.33 1280.58 1091.4 1280.84 1091.49 1281.09 C 1095.02 1291.46 1103.31 1302.4 1109.08 1311.77 C 1117.64 1325.69 1126.2 1339.99 1133.45 1354.64 C 1183.4 1455.63 1222.65 1588.35 1171.51 1696.51 A 208.738 208.738 0 0 1 1159.83 1717.98 C 1148.46 1733.58 1137.88 1750.27 1123.44 1763.3 C 1107.83 1776.04 1092.36 1787.55 1074.65 1797.3 C 1080.82 1799.67 1087.09 1801.9 1093.16 1804.51 C 1090.67 1809.17 1082.66 1811.43 1077.96 1813.73 A 839.705 839.705 0 0 1 1036.42 1833.18 C 1000.18 1849.14 949.686 1867.23 928.493 1902.73 C 901.126 1896.72 864.137 1886.43 847.009 1862.2 C 838.033 1849.5 837.502 1834.89 839.764 1820.12 A 297.991 297.991 0 0 0 831.431 1816.33 C 791.058 1822.82 752.447 1826.4 711.658 1820.69 C 710.056 1822.64 708.708 1824.95 706.329 1825.89 C 706.015 1842.73 702.096 1857.11 689.637 1869.31 C 667.387 1891.08 630.409 1898.7 600.836 1904.69 C 596.389 1900.31 592.865 1891.81 589.302 1886.39 C 581.191 1874.03 568.704 1862.54 556.887 1853.79 C 539.976 1841.26 474.304 1815.27 467.83 1802.4 C 474.2 1800.51 480.843 1799.19 487.313 1797.64 C 453.85 1778.04 424.769 1757.22 401.994 1725.13 C 357.913 1663.03 342.146 1587.14 354.882 1512.45 C 357.885 1481.23 383.381 1423.77 395.811 1393.43 L 396.048 1390 C 395.801 1379.06 389.821 1363.99 388.984 1351.29 C 388.306 1341 389.869 1330.05 391.426 1319.88 C 400.98 1257.53 438.219 1202.25 479.005 1155.7 A 1344.24 1344.24 0 0 1 504.846 1127.09 C 512.956 1126.53 534.522 1134.3 543.672 1136.58 C 553.64 1139.05 563.973 1141.31 574.173 1142.5 C 663.038 1154.19 755.043 1161.16 843.398 1141.57 C 850.723 1139.95 860.776 1139.98 867.458 1137 z"/>
<path transform="translate(0,0)" fill="rgb(233,170,123)" d="M 998.827 1493.54 C 999.119 1512.4 1001.68 1531.18 1002.33 1550.06 C 990.534 1561.98 975.626 1571.72 962.128 1581.59 C 964.877 1566.17 968.611 1546.76 966.793 1531.06 C 977.885 1519.07 989.027 1506.61 998.827 1493.54 z"/>
<path transform="translate(0,0)" fill="rgb(133,52,22)" d="M 839.764 1820.12 C 921.375 1841.87 998.497 1831.94 1074.65 1797.3 C 1080.82 1799.67 1087.09 1801.9 1093.16 1804.51 C 1090.67 1809.17 1082.66 1811.43 1077.96 1813.73 A 839.705 839.705 0 0 1 1036.42 1833.18 C 1000.18 1849.14 949.686 1867.23 928.493 1902.73 C 901.126 1896.72 864.137 1886.43 847.009 1862.2 C 838.033 1849.5 837.502 1834.89 839.764 1820.12 z"/>
<path transform="translate(0,0)" fill="rgb(133,52,22)" d="M 487.313 1797.64 C 497.743 1801.89 508.034 1806.8 518.626 1810.59 A 384.453 384.453 0 0 0 657.601 1832.07 C 672.877 1831.6 694.073 1825.53 706.329 1825.89 C 706.015 1842.73 702.096 1857.11 689.637 1869.31 C 667.387 1891.08 630.409 1898.7 600.836 1904.69 C 596.389 1900.31 592.865 1891.81 589.302 1886.39 C 581.191 1874.03 568.704 1862.54 556.887 1853.79 C 539.976 1841.26 474.304 1815.27 467.83 1802.4 C 474.2 1800.51 480.843 1799.19 487.313 1797.64 z"/>
<path transform="translate(0,0)" fill="rgb(236,129,34)" d="M 395.811 1393.43 C 396.06 1393.88 396.32 1394.33 396.559 1394.8 C 398.017 1397.62 398.299 1400.82 399.248 1403.83 C 401.715 1411.66 404.558 1419.93 408.195 1427.27 C 424.928 1461.05 451.485 1493 478.875 1518.67 C 484.119 1523.59 490.62 1530.16 497.167 1533.27 C 493.189 1548.61 498.344 1594.29 500.698 1611.86 C 457.219 1601.73 407.011 1580.54 377.349 1546.52 C 369.259 1537.24 361.525 1519.13 356.066 1513.59 C 355.68 1513.2 355.277 1512.83 354.882 1512.45 C 357.885 1481.23 383.381 1423.77 395.811 1393.43 z"/>
<path transform="translate(0,0)" fill="rgb(239,192,152)" d="M 966.793 1531.06 C 968.611 1546.76 964.877 1566.17 962.128 1581.59 C 975.626 1571.72 990.534 1561.98 1002.33 1550.06 C 1004.61 1613.43 989.34 1680.86 945.198 1728.28 C 899.815 1777.03 834.866 1796.99 769.857 1798.97 C 693.867 1801.29 621.365 1785.56 564.107 1731.7 C 537.078 1706.27 514.779 1669.57 506.24 1633.33 C 518.108 1642.26 528.047 1653.61 539.837 1662.7 C 568.738 1685 613.898 1706.66 648.973 1717.49 C 716.014 1738.19 797.034 1740.03 860.072 1706.22 C 911.682 1678.53 945.624 1638.53 962.631 1582.55 C 945.455 1591.38 927.466 1599.61 907.687 1598.24 C 896.773 1597.49 883.302 1594.45 875.929 1585.88 C 910.984 1573.03 939.049 1555.95 966.793 1531.06 z"/>
<path transform="translate(0,0)" fill="rgb(243,202,151)" d="M 811.273 1502.71 C 815.185 1501.29 818.834 1500.84 822.963 1500.46 C 841.039 1503.63 855.391 1512.68 865.849 1527.81 A 66.7067 66.7067 0 0 1 875.591 1548.67 L 877.154 1554 C 878.067 1565.97 877.979 1574.72 873.143 1585.95 L 875.929 1585.88 C 883.302 1594.45 896.773 1597.49 907.687 1598.24 C 927.466 1599.61 945.455 1591.38 962.631 1582.55 C 945.624 1638.53 911.682 1678.53 860.072 1706.22 C 797.034 1740.03 716.014 1738.19 648.973 1717.49 C 613.898 1706.66 568.738 1685 539.837 1662.7 C 528.047 1653.61 518.108 1642.26 506.24 1633.33 C 503.884 1626.74 502.702 1619.43 501.152 1612.6 C 513.112 1614.3 525.27 1617.93 537.288 1620 C 587.273 1628.61 643.883 1634.04 692.714 1617.82 C 710.181 1612.02 725.702 1602.83 742.464 1595.5 C 750.116 1592.16 758.335 1589.9 766.331 1587.51 C 771.458 1578.89 777.125 1571 783.404 1563.18 C 777.967 1563.68 770.988 1564.27 765.675 1563.11 C 762.73 1562.46 761.224 1561.4 759.685 1558.87 C 760.023 1551.68 767.004 1546.31 771.672 1541.38 C 777.163 1532.67 802.566 1509.49 811.273 1502.71 z"/>
<path transform="translate(0,0)" fill="rgb(159,76,42)" d="M 811.273 1502.71 C 815.185 1501.29 818.834 1500.84 822.963 1500.46 C 841.039 1503.63 855.391 1512.68 865.849 1527.81 A 66.7067 66.7067 0 0 1 875.591 1548.67 L 877.154 1554 C 878.067 1565.97 877.979 1574.72 873.143 1585.95 C 856.573 1594.99 820.062 1614.91 802.594 1614.27 C 801.404 1613.54 800.445 1613.41 800.089 1611.94 C 799.536 1609.67 800.352 1607.03 801.357 1604.97 C 802.684 1601.41 803.56 1598.24 804.002 1594.46 C 792.801 1595.92 783.205 1604.79 771.165 1604.43 C 768.459 1604.34 766.805 1603.63 764.894 1601.69 C 762.728 1596.68 764.433 1592.31 766.331 1587.51 C 771.458 1578.89 777.125 1571 783.404 1563.18 C 777.967 1563.68 770.988 1564.27 765.675 1563.11 C 762.73 1562.46 761.224 1561.4 759.685 1558.87 C 760.023 1551.68 767.004 1546.31 771.672 1541.38 C 777.163 1532.67 802.566 1509.49 811.273 1502.71 z"/>
<path transform="translate(0,0)" fill="rgb(133,52,22)" d="M 771.672 1541.38 C 770.532 1548.66 761.544 1552.51 760.181 1559.41 C 765.836 1562.92 779.61 1561.97 786.529 1562.3 C 792.828 1557.64 798.407 1551.12 803.724 1545.34 C 793.764 1551.35 779.343 1563.06 766.851 1559.39 C 765.466 1558.98 765.756 1559.04 764.873 1558.01 C 765.406 1555.68 766.713 1554.36 768.169 1552.55 C 769.118 1551.37 768.756 1551.91 769.437 1550.59 L 767.693 1556.98 L 768.661 1558.5 C 781.13 1560.41 798.274 1544.67 801.616 1546.68 C 798.814 1554.09 791.117 1560.59 786.166 1566.68 C 781.315 1572.65 769.656 1589.69 770.051 1597.09 C 771.547 1598.3 771.294 1598.6 773.387 1598.4 C 784.323 1597.35 807.274 1578.93 815.121 1581.22 C 815.932 1583.23 815.811 1583.47 815.047 1585.45 C 813.48 1589.5 809.867 1592.92 806.739 1595.81 L 805.074 1596.19 L 804.002 1594.46 C 792.801 1595.92 783.205 1604.79 771.165 1604.43 C 768.459 1604.34 766.805 1603.63 764.894 1601.69 C 762.728 1596.68 764.433 1592.31 766.331 1587.51 C 771.458 1578.89 777.125 1571 783.404 1563.18 C 777.967 1563.68 770.988 1564.27 765.675 1563.11 C 762.73 1562.46 761.224 1561.4 759.685 1558.87 C 760.023 1551.68 767.004 1546.31 771.672 1541.38 z"/>
<path transform="translate(0,0)" fill="rgb(133,52,22)" d="M 801.357 1604.97 C 820.734 1599.72 841.854 1590.54 857.553 1577.84 C 867.37 1569.9 874.166 1561.6 875.591 1548.67 L 877.154 1554 C 878.067 1565.97 877.979 1574.72 873.143 1585.95 C 856.573 1594.99 820.062 1614.91 802.594 1614.27 C 801.404 1613.54 800.445 1613.41 800.089 1611.94 C 799.536 1609.67 800.352 1607.03 801.357 1604.97 z"/>
<path transform="translate(0,0)" fill="rgb(236,129,34)" d="M 867.458 1137 C 897.875 1129.44 926.884 1117.5 956.272 1110.02 C 966.625 1120.06 977.213 1130.05 986.887 1140.75 C 995.152 1149.36 1003.26 1157.95 1010.29 1167.63 C 1016.32 1175.93 1021.45 1184.89 1027.61 1193.07 C 1027.67 1193.34 1027.73 1193.62 1027.79 1193.89 C 1031.59 1209.88 1041.93 1223.87 1045.48 1241.13 C 1058.67 1305.11 1036.06 1387.86 1003.12 1443.06 C 979.336 1482.92 949.243 1513.21 909.867 1537.66 C 899.973 1543.81 888.43 1550.9 877.154 1554 L 875.591 1548.67 A 66.7067 66.7067 0 0 0 865.849 1527.81 C 855.391 1512.68 841.039 1503.63 822.963 1500.46 C 818.834 1500.84 815.185 1501.29 811.273 1502.71 C 848.927 1454.2 912.527 1357.72 910.932 1295.3 C 900.84 1261.65 894.092 1226.81 884.217 1193 C 877.814 1174.59 872.603 1155.8 867.458 1137 z"/>
<path transform="translate(0,0)" fill="rgb(213,87,11)" d="M 926.711 1253.04 L 926.299 1254.59 C 920.711 1276.05 920.793 1298.54 914.942 1320.12 C 911.09 1334.33 905.721 1347.64 900.201 1361.25 C 883.89 1401.46 866.4 1433.52 842.115 1469.76 C 835.484 1479.66 828.245 1492.72 818.246 1499.5 A 251.587 251.587 0 0 1 822.963 1500.46 C 818.834 1500.84 815.185 1501.29 811.273 1502.71 C 848.927 1454.2 912.527 1357.72 910.932 1295.3 C 913.695 1277.99 916.97 1267.49 926.711 1253.04 z"/>
<path transform="translate(0,0)" fill="rgb(213,87,11)" d="M 867.458 1137 C 897.875 1129.44 926.884 1117.5 956.272 1110.02 C 966.625 1120.06 977.213 1130.05 986.887 1140.75 C 975.495 1155.97 904.615 1188.75 884.217 1193 C 877.814 1174.59 872.603 1155.8 867.458 1137 z"/>
<path transform="translate(0,0)" fill="rgb(253,232,197)" d="M 504.846 1127.09 C 512.956 1126.53 534.522 1134.3 543.672 1136.58 C 553.64 1139.05 563.973 1141.31 574.173 1142.5 C 663.038 1154.19 755.043 1161.16 843.398 1141.57 C 850.723 1139.95 860.776 1139.98 867.458 1137 C 872.603 1155.8 877.814 1174.59 884.217 1193 C 894.092 1226.81 900.84 1261.65 910.932 1295.3 C 912.527 1357.72 848.927 1454.2 811.273 1502.71 C 802.566 1509.49 777.163 1532.67 771.672 1541.38 C 767.004 1546.31 760.023 1551.68 759.685 1558.87 C 761.224 1561.4 762.73 1562.46 765.675 1563.11 C 770.988 1564.27 777.967 1563.68 783.404 1563.18 C 777.125 1571 771.458 1578.89 766.331 1587.51 C 758.335 1589.9 750.116 1592.16 742.464 1595.5 C 725.702 1602.83 710.181 1612.02 692.714 1617.82 C 643.883 1634.04 587.273 1628.61 537.288 1620 C 525.27 1617.93 513.112 1614.3 501.152 1612.6 L 500.698 1611.86 C 498.344 1594.29 493.189 1548.61 497.167 1533.27 C 490.62 1530.16 484.119 1523.59 478.875 1518.67 C 451.485 1493 424.928 1461.05 408.195 1427.27 C 404.558 1419.93 401.715 1411.66 399.248 1403.83 C 398.299 1400.82 398.017 1397.62 396.559 1394.8 C 396.32 1394.33 396.06 1393.88 395.811 1393.43 L 396.048 1390 C 395.801 1379.06 389.821 1363.99 388.984 1351.29 C 388.306 1341 389.869 1330.05 391.426 1319.88 C 400.98 1257.53 438.219 1202.25 479.005 1155.7 A 1344.24 1344.24 0 0 1 504.846 1127.09 z"/>
<path transform="translate(0,0)" fill="rgb(239,192,152)" d="M 522.185 1267.37 L 525.044 1258.09 C 544.527 1290.72 554.209 1330.04 568.687 1365.06 C 588.548 1413.1 611.499 1459.66 632.909 1507 L 621.218 1503.67 L 620.102 1502.78 C 592.176 1477.57 535.863 1312.22 522.185 1267.37 z"/>
<path transform="translate(0,0)" fill="rgb(159,76,42)" d="M 620.102 1502.78 L 621.218 1503.67 L 632.909 1507 C 645.078 1515.35 679.341 1535.63 685.009 1549.03 C 685.929 1552.06 686.259 1552.15 684.989 1554.99 C 678.654 1559.84 666.525 1561.53 658.716 1560.9 C 665.694 1569.88 678.711 1582.77 678.947 1594.54 C 677.844 1597 677.502 1598.15 674.789 1599.24 C 665.444 1603.02 645.251 1595.38 635.658 1592.36 C 637.545 1596.46 639.009 1600.07 639.715 1604.54 C 639.275 1606.58 639.183 1606.46 637.923 1607.91 C 618.947 1612.34 583.048 1591.16 566.769 1581.41 C 565.874 1576.65 564.989 1571.91 563.837 1567.2 L 564.176 1559.75 C 564.823 1546.26 569.622 1532.11 578.728 1522.02 C 587.715 1512.07 601.697 1504.68 615.129 1503.84 C 616.985 1503.85 618.344 1503.33 620.102 1502.78 z"/>
<path transform="translate(0,0)" fill="rgb(95,33,11)" d="M 685.009 1549.03 C 685.929 1552.06 686.259 1552.15 684.989 1554.99 C 678.654 1559.84 666.525 1561.53 658.716 1560.9 C 656.411 1560.72 654.786 1560.77 652.546 1561.36 L 650.027 1561.14 C 647.947 1559.26 647.768 1559.06 647.084 1556.35 C 650.433 1550.37 668.38 1556.81 675.863 1554.32 L 675.018 1556.25 L 676.118 1557.15 C 679.284 1556.11 681.091 1555.05 683.722 1552.99 C 684.117 1551.66 684.554 1550.35 685.009 1549.03 z"/>
<path transform="translate(0,0)" fill="rgb(133,52,22)" d="M 621.218 1503.67 L 632.909 1507 C 645.078 1515.35 679.341 1535.63 685.009 1549.03 C 684.554 1550.35 684.117 1551.66 683.722 1552.99 C 681.091 1555.05 679.284 1556.11 676.118 1557.15 L 675.018 1556.25 L 675.863 1554.32 C 672.023 1540.46 644.635 1521.87 632.769 1513.78 C 630.484 1512.22 622.952 1508.2 621.822 1506.14 C 621.415 1505.39 621.419 1504.49 621.218 1503.67 z"/>
<path transform="translate(0,0)" fill="rgb(133,52,22)" d="M 652.546 1561.36 C 654.786 1560.77 656.411 1560.72 658.716 1560.9 C 665.694 1569.88 678.711 1582.77 678.947 1594.54 C 677.844 1597 677.502 1598.15 674.789 1599.24 C 665.444 1603.02 645.251 1595.38 635.658 1592.36 C 637.545 1596.46 639.009 1600.07 639.715 1604.54 C 639.275 1606.58 639.183 1606.46 637.923 1607.91 C 618.947 1612.34 583.048 1591.16 566.769 1581.41 C 565.874 1576.65 564.989 1571.91 563.837 1567.2 L 564.176 1559.75 C 566.767 1563.94 569.32 1568.37 572.699 1571.97 C 585.45 1585.58 609.706 1599 627.825 1602.98 A 120.983 120.983 0 0 0 637.157 1604.56 C 637.121 1604.27 637.081 1603.97 637.048 1603.68 C 636.751 1601 636.509 1599.31 634.665 1597.24 C 630.415 1592.46 624.058 1583.73 622.041 1577.76 L 622.956 1576.16 L 625.142 1575.72 C 628.872 1576.98 631.126 1581.27 633.354 1584.34 C 647.666 1588.9 660.772 1593.08 675.802 1594.37 C 670.233 1583 662.555 1569.27 652.546 1561.36 z"/>
<path transform="translate(0,0)" fill="rgb(239,192,152)" d="M 574.173 1142.5 C 663.038 1154.19 755.043 1161.16 843.398 1141.57 C 850.723 1139.95 860.776 1139.98 867.458 1137 C 872.603 1155.8 877.814 1174.59 884.217 1193 C 863.537 1196.44 843.694 1203.05 822.702 1206 C 750.909 1216.08 675.646 1211.61 604.46 1198.8 C 587.481 1195.74 570.949 1190.83 554.039 1187.51 A 463.469 463.469 0 0 1 564.265 1163.99 C 567.577 1157.1 572.066 1149.83 574.173 1142.5 z"/>
<path transform="translate(0,0)" fill="rgb(236,129,34)" d="M 504.846 1127.09 C 512.956 1126.53 534.522 1134.3 543.672 1136.58 C 553.64 1139.05 563.973 1141.31 574.173 1142.5 C 572.066 1149.83 567.577 1157.1 564.265 1163.99 A 463.469 463.469 0 0 0 554.039 1187.51 L 553.234 1188.2 C 543.484 1211.15 533.09 1234.5 525.044 1258.09 L 522.185 1267.37 C 535.863 1312.22 592.176 1477.57 620.102 1502.78 C 618.344 1503.33 616.985 1503.85 615.129 1503.84 C 601.697 1504.68 587.715 1512.07 578.728 1522.02 C 569.622 1532.11 564.823 1546.26 564.176 1559.75 L 563.837 1567.2 C 564.989 1571.91 565.874 1576.65 566.769 1581.41 C 542.06 1567.8 519.344 1550.63 497.167 1533.27 C 490.62 1530.16 484.119 1523.59 478.875 1518.67 C 451.485 1493 424.928 1461.05 408.195 1427.27 C 404.558 1419.93 401.715 1411.66 399.248 1403.83 C 398.299 1400.82 398.017 1397.62 396.559 1394.8 C 396.32 1394.33 396.06 1393.88 395.811 1393.43 L 396.048 1390 C 395.801 1379.06 389.821 1363.99 388.984 1351.29 C 388.306 1341 389.869 1330.05 391.426 1319.88 C 400.98 1257.53 438.219 1202.25 479.005 1155.7 A 1344.24 1344.24 0 0 1 504.846 1127.09 z"/>
<path transform="translate(0,0)" fill="rgb(213,87,11)" d="M 615.129 1503.84 C 603.289 1490.11 594.298 1473.45 585.686 1457.55 C 554.753 1400.45 533.965 1337.25 514.974 1275.34 C 507.996 1252.59 502.262 1229.45 494.343 1207.01 C 504.924 1218.69 520.279 1251.41 522.185 1267.37 C 535.863 1312.22 592.176 1477.57 620.102 1502.78 C 618.344 1503.33 616.985 1503.85 615.129 1503.84 z"/>
<path transform="translate(0,0)" fill="rgb(213,87,11)" d="M 396.048 1390 C 403.2 1395.85 410.907 1414.06 416.483 1422.76 A 567.36 567.36 0 0 0 435.334 1449.82 C 470.921 1497.22 515.962 1533 563.837 1567.2 C 564.989 1571.91 565.874 1576.65 566.769 1581.41 C 542.06 1567.8 519.344 1550.63 497.167 1533.27 C 490.62 1530.16 484.119 1523.59 478.875 1518.67 C 451.485 1493 424.928 1461.05 408.195 1427.27 C 404.558 1419.93 401.715 1411.66 399.248 1403.83 C 398.299 1400.82 398.017 1397.62 396.559 1394.8 C 396.32 1394.33 396.06 1393.88 395.811 1393.43 L 396.048 1390 z"/>
<path transform="translate(0,0)" fill="rgb(213,87,11)" d="M 504.846 1127.09 C 512.956 1126.53 534.522 1134.3 543.672 1136.58 C 553.64 1139.05 563.973 1141.31 574.173 1142.5 C 572.066 1149.83 567.577 1157.1 564.265 1163.99 A 463.469 463.469 0 0 0 554.039 1187.51 L 553.234 1188.2 C 532.221 1181.03 496.917 1168.8 479.005 1155.7 A 1344.24 1344.24 0 0 1 504.846 1127.09 z"/>
<path transform="translate(0,0)" fill="rgb(236,129,34)" d="M 659.717 315.925 C 661.395 285.044 673.328 253.644 696.656 232.435 C 701.989 227.586 709.794 222.36 717.388 223.017 C 719.546 223.204 721.604 223.948 723.073 225.598 C 727.429 230.492 726.613 239.318 725.696 245.253 C 722.733 264.432 709.672 278.91 702.479 296.357 C 723.062 278.702 760.872 250.297 789.362 252.076 C 793.579 252.34 798.283 253.687 800.85 257.311 C 803.669 261.292 803.302 266.451 801.983 270.894 C 796.87 288.119 777.932 302.831 762.637 310.698 A 186.116 186.116 0 0 1 751.807 315.781 C 791.635 316.568 861.564 328.799 897.02 347.514 C 898.338 348.49 899.698 349.707 901.154 350.447 C 915.092 351.255 930.594 362.329 942.803 368.874 C 945.757 370.457 949.512 373.097 952.75 373.862 C 955.074 378.848 981.949 394.431 988.091 399.248 C 1008.41 415.181 1027.06 433.663 1044.81 452.365 C 1057.17 466.099 1068.78 480.543 1080.51 494.811 C 1107.23 525.692 1141.72 588.261 1154.31 626.808 C 1171.68 673.881 1183.56 721.145 1190.44 770.83 C 1199.03 768.743 1208.05 765.268 1216.63 763.749 C 1229.95 758.44 1243.12 753.635 1256.24 747.761 L 1256.8 748.416 L 1255.73 753.862 C 1256.16 776.101 1243.31 797.428 1228.5 813.023 A 271.445 271.445 0 0 1 1221.2 820.329 C 1236.86 818.63 1252.49 815.179 1267.99 812.332 C 1266.13 816.668 1263.44 821.482 1262.5 826.086 C 1253.81 856.47 1236.56 865.562 1218.34 888.367 C 1226.36 888.21 1234.41 887.918 1242.44 887.968 L 1235.32 898.762 C 1215.89 917.214 1199.75 926.463 1174.83 936.344 C 1179.51 953.248 1177.49 968.394 1168.74 983.575 C 1147.17 1021.01 1098.47 1040.62 1061.89 1060.39 C 1053.63 1064.85 1044.01 1069.16 1036.48 1074.72 C 1027 1077.23 1016.09 1084.65 1006.98 1088.93 A 609.696 609.696 0 0 1 956.272 1110.02 C 926.884 1117.5 897.875 1129.44 867.458 1137 C 860.776 1139.98 850.723 1139.95 843.398 1141.57 C 755.043 1161.16 663.038 1154.19 574.173 1142.5 C 563.973 1141.31 553.64 1139.05 543.672 1136.58 C 534.522 1134.3 512.956 1126.53 504.846 1127.09 C 498.013 1123.27 489.004 1121.37 481.542 1118.94 C 465.491 1113.72 449.314 1108.65 433.639 1102.37 C 355.74 1071.13 291.594 1029.67 231.874 970.725 C 236.073 962.221 237.251 951.421 240.89 942.422 C 247.099 927.07 257.457 916.284 272.799 909.806 C 247.757 874.246 219.164 832.787 217.958 787.796 C 220.852 780.11 220.575 768.779 221.981 760.31 A 527.83 527.83 0 0 1 231.619 716.419 A 602.275 602.275 0 0 1 354.58 478.777 C 370.18 464.782 383.462 448.521 399.72 435.078 L 418.219 420.705 C 434.587 408.237 451.484 396.682 468.138 384.627 C 473.638 381.888 479.213 378.152 484.134 374.48 C 504.993 361.001 527.907 350.596 550.22 339.811 C 584.423 328.383 623.345 315.384 659.717 315.925 z"/>
<path transform="translate(0,0)" fill="rgb(213,87,11)" d="M 716.184 335.101 C 727.759 337.335 739.311 339.763 750.457 343.666 C 763.582 348.262 777.219 355.645 783.269 368.877 C 785.769 374.345 786.478 380.516 784.157 386.169 C 781.443 392.778 775.494 397.483 768.988 400.088 C 745.958 409.308 714.032 394.085 692.775 385.027 A 691.774 691.774 0 0 0 662.547 371.341 C 685.246 377.037 729.703 393.548 751.249 387.673 C 755.723 386.454 759.876 383.985 762.104 379.786 C 763.945 376.316 764.122 372.144 762.932 368.433 C 757.275 350.791 730.989 342.956 716.184 335.101 z"/>
<path transform="translate(0,0)" fill="rgb(213,87,11)" d="M 901.154 350.447 C 915.092 351.255 930.594 362.329 942.803 368.874 C 945.757 370.457 949.512 373.097 952.75 373.862 C 955.074 378.848 981.949 394.431 988.091 399.248 C 1008.41 415.181 1027.06 433.663 1044.81 452.365 C 1057.17 466.099 1068.78 480.543 1080.51 494.811 C 1107.23 525.692 1141.72 588.261 1154.31 626.808 C 1171.68 673.881 1183.56 721.145 1190.44 770.83 C 1199.03 768.743 1208.05 765.268 1216.63 763.749 C 1229.95 758.44 1243.12 753.635 1256.24 747.761 L 1256.8 748.416 L 1255.73 753.862 C 1256.16 776.101 1243.31 797.428 1228.5 813.023 A 271.445 271.445 0 0 1 1221.2 820.329 C 1236.86 818.63 1252.49 815.179 1267.99 812.332 C 1266.13 816.668 1263.44 821.482 1262.5 826.086 C 1253.81 856.47 1236.56 865.562 1218.34 888.367 C 1226.36 888.21 1234.41 887.918 1242.44 887.968 L 1235.32 898.762 C 1215.89 917.214 1199.75 926.463 1174.83 936.344 C 1173.76 933.275 1172.59 930.391 1170.85 927.628 C 1159.14 909.072 1136.96 902.403 1116.78 898.005 C 1133.66 850.335 1146.52 799.626 1143.42 748.596 C 1141.96 724.509 1137.16 701.173 1131.15 677.858 C 1104.41 574.152 1043.92 479.036 967.34 404.735 C 946.67 384.681 922.548 369.401 901.154 350.447 z"/>
<path transform="translate(0,0)" fill="rgb(133,52,22)" d="M 1255.73 753.862 C 1256.16 776.101 1243.31 797.428 1228.5 813.023 A 271.445 271.445 0 0 1 1221.2 820.329 C 1210.3 824.253 1199.59 826.604 1188.12 828.207 C 1218.33 811.306 1244.04 787.013 1255.73 753.862 z"/>
<path transform="translate(0,0)" fill="rgb(133,52,22)" d="M 1262.5 826.086 C 1253.81 856.47 1236.56 865.562 1218.34 888.367 C 1204.68 889.289 1190.56 888.168 1176.87 887.702 C 1213.92 878.863 1241.33 857.491 1262.5 826.086 z"/>
<path transform="translate(0,0)" fill="rgb(254,254,254)" d="M 963.526 557.265 C 981.49 556.034 997.948 560.057 1012.94 570.145 C 1045.97 592.365 1067.24 631.868 1074.74 670.307 C 1084.34 719.553 1076.97 773.313 1048.31 815.253 C 1030.79 840.899 1009.49 854.295 979.067 859.872 C 958.937 861.609 939.759 858.003 922.703 846.725 C 892.82 826.967 872.767 783.171 866.241 749.079 C 856.769 699.595 866.891 643.773 895.459 602.093 C 912.169 577.713 934.454 562.771 963.526 557.265 z"/>
<path transform="translate(0,0)" fill="rgb(3,2,1)" d="M 956.77 622.289 C 965.51 621.076 975.06 622.142 983.36 625.028 C 1004.47 632.368 1019.7 651.871 1029.09 671.361 C 1044.51 703.344 1048.28 743.668 1036.44 777.394 C 1033.63 775.565 1030.75 773.796 1027.47 772.935 C 1022.48 771.624 1016.84 772.366 1012.41 775.031 A 18.3532 18.3532 0 0 0 1003.84 787.048 C 1002.89 791.771 1003.92 796.414 1006.7 800.331 C 1010.96 806.325 1016.46 807.605 1023.28 808.921 C 1015.01 820.447 1005.6 829.15 993.872 837.103 C 988.735 839.837 983.393 841.972 977.692 843.176 C 962.621 846.358 947.676 842.777 934.904 834.477 C 910.236 818.445 897.28 789.129 891.592 761.26 C 884.58 726.904 888.658 683.666 908.685 654.061 C 920.582 636.476 935.948 626.197 956.77 622.289 z"/>
<path transform="translate(0,0)" fill="rgb(254,254,254)" d="M 938.701 645.102 C 944.279 644.82 949.459 645.09 954.593 647.537 C 962.346 651.232 968.014 658.137 970.599 666.284 C 973.238 674.599 972.33 683.321 968.189 690.979 C 963.704 699.271 956.875 703.727 948.095 706.484 C 941.827 706.956 935.701 706.169 930.085 703.197 A 29.3309 29.3309 0 0 1 915.731 685.569 C 913.191 677.207 913.778 667.741 918.07 660.046 C 922.743 651.667 929.779 647.741 938.701 645.102 z"/>
<path transform="translate(0,0)" fill="rgb(254,254,254)" d="M 410.553 555.422 C 432.907 554.698 454.969 564.843 471.188 579.778 C 505.605 611.47 521.706 665.049 523.514 710.565 C 525.106 750.627 514.286 795.928 486.264 825.914 C 468.398 845.033 445.714 856.339 419.49 857.156 A 100.745 100.745 0 0 1 355.996 833.361 C 323.404 805.778 308.214 764.616 304.688 722.924 C 300.894 678.066 312.743 626.761 342.444 591.968 C 360.262 571.096 383.005 557.727 410.553 555.422 z"/>
<path transform="translate(0,0)" fill="rgb(3,2,1)" d="M 411.593 626.273 A 62.3129 62.3129 0 0 1 453.862 637.4 C 475.168 652.32 487.841 679.73 492.11 704.765 C 497.956 739.049 493.03 782.535 472.329 811.453 C 461.725 826.266 448.282 833.904 430.457 836.924 C 415.34 837.221 402.34 834.845 389.754 826.103 C 366.885 810.22 353.614 781.838 349.094 755.069 C 343.571 722.362 347.241 681.481 367.101 653.838 C 378.21 638.375 392.825 629.323 411.593 626.273 z"/>
<path transform="translate(0,0)" fill="rgb(254,254,254)" d="M 457.092 779.232 C 459.584 779.578 462.317 779.926 464.562 781.124 A 14.1063 14.1063 0 0 1 471.531 789.927 C 472.504 793.715 471.727 797.733 469.621 801.008 C 466.857 805.307 463.313 806.746 458.527 807.926 C 456.855 807.522 455.137 807.112 453.541 806.461 C 449.396 804.768 445.692 801.246 444.178 796.994 C 443.064 793.867 443.177 790.505 444.683 787.526 C 447.234 782.482 451.961 780.654 457.092 779.232 z"/>
<path transform="translate(0,0)" fill="rgb(254,254,254)" d="M 394.919 641.191 C 400.613 641.463 405.454 642.757 410.326 645.758 C 418.452 650.762 423.791 659.202 425.588 668.515 A 33.1256 33.1256 0 0 1 420.213 693.721 C 413.991 702.75 406.066 706.197 395.691 708.001 C 390.323 707.675 385.486 706.986 380.7 704.384 C 372.873 700.128 367.422 692.972 365.216 684.347 A 33.8833 33.8833 0 0 1 369.566 657.516 C 375.589 648.086 384.199 643.393 394.919 641.191 z"/>
<path transform="translate(0,0)" fill="rgb(253,232,197)" d="M 600.953 840.957 C 603.288 832.372 610.322 825.771 617.468 820.786 C 641.699 803.88 678.567 801.03 706.908 806.031 C 730.562 810.205 749.244 818.244 763.313 838.243 C 775.857 842.408 788.53 846.575 800.393 852.457 C 813.83 859.119 826.259 867.748 839.205 875.287 A 244.852 244.852 0 0 0 917.569 903.933 A 338.668 338.668 0 0 0 1014.42 906.638 C 1047.76 902.616 1082.33 890.2 1116.15 898.146 L 1116.78 898.005 C 1136.96 902.403 1159.14 909.072 1170.85 927.628 C 1172.59 930.391 1173.76 933.275 1174.83 936.344 C 1179.51 953.248 1177.49 968.394 1168.74 983.575 C 1147.17 1021.01 1098.47 1040.62 1061.89 1060.39 C 1053.63 1064.85 1044.01 1069.16 1036.48 1074.72 C 1027 1077.23 1016.09 1084.65 1006.98 1088.93 A 609.696 609.696 0 0 1 956.272 1110.02 C 926.884 1117.5 897.875 1129.44 867.458 1137 C 860.776 1139.98 850.723 1139.95 843.398 1141.57 C 755.043 1161.16 663.038 1154.19 574.173 1142.5 C 563.973 1141.31 553.64 1139.05 543.672 1136.58 C 534.522 1134.3 512.956 1126.53 504.846 1127.09 C 498.013 1123.27 489.004 1121.37 481.542 1118.94 C 465.491 1113.72 449.314 1108.65 433.639 1102.37 C 355.74 1071.13 291.594 1029.67 231.874 970.725 C 236.073 962.221 237.251 951.421 240.89 942.422 C 247.099 927.07 257.457 916.284 272.799 909.806 L 273.555 909.835 C 295.167 903.82 327.692 906.944 350.329 907.709 C 407.34 909.636 472.065 912.723 524.09 885.396 C 538.379 877.891 550.409 866.08 564.61 858.097 C 576.273 851.541 589.192 847.398 600.953 840.957 z"/>
<path transform="translate(0,0)" fill="rgb(239,192,152)" d="M 807.402 901.595 C 816.381 906.815 832.301 919.463 835.513 929.607 L 835.018 931.673 C 831.749 931.335 831.614 928.131 827.826 928.32 C 826.031 930.833 824.305 933.547 822.201 935.799 C 823.311 932.497 825.433 929.101 824.758 925.719 L 823.15 925.479 C 811.454 933.845 812.784 923.781 799.858 930.72 C 804.804 925.331 809.65 920.234 815.353 915.638 C 812.42 911.033 809.647 906.587 807.402 901.595 z"/>
<path transform="translate(0,0)" fill="rgb(233,170,123)" d="M 674.115 907.099 C 680.535 907.955 686.028 907.476 692.423 906.593 C 690.927 920.784 689.961 933.442 699.772 945.195 C 707.824 954.84 720.719 959.395 732.974 960.044 C 757.961 961.367 781.171 945.585 799.858 930.72 C 812.784 923.781 811.454 933.845 823.15 925.479 L 824.758 925.719 C 825.433 929.101 823.311 932.497 822.201 935.799 C 821.998 936.099 821.814 936.413 821.591 936.698 C 803.713 959.591 767.735 974.417 739.308 975.76 C 718.503 976.744 698.965 969.549 683.667 955.58 C 669.616 965.74 654.568 974.28 636.984 975.875 C 615.746 977.801 595.003 969.804 578.955 956.118 C 562.486 942.074 556.486 926.525 554.758 905.252 L 562.735 923.07 L 567.49 912.522 C 572.082 923.781 577.188 933.143 586.406 941.317 C 599.627 953.041 617.803 961.981 635.835 960.523 C 647.488 959.58 659.175 954.397 666.643 945.223 C 676.048 933.673 675.294 920.96 674.115 907.099 z"/>
<path transform="translate(0,0)" fill="rgb(75,41,42)" d="M 600.953 840.957 C 603.288 832.372 610.322 825.771 617.468 820.786 C 641.699 803.88 678.567 801.03 706.908 806.031 C 730.562 810.205 749.244 818.244 763.313 838.243 C 765.686 848.39 765.87 856.114 760.002 865.316 C 746.957 885.772 714.492 899.139 692.423 906.593 C 686.028 907.476 680.535 907.955 674.115 907.099 C 653.933 900.34 633.899 891.357 618.166 876.665 C 607.545 866.747 601.399 855.639 600.953 840.957 z"/>
<path transform="translate(0,0)" fill="rgb(109,66,70)" d="M 645.232 841.105 C 644.769 841.208 644.308 841.318 643.843 841.413 C 635.703 843.074 622.367 842.582 615.471 837.923 C 614.876 836.671 614.041 835.884 614.589 834.472 C 615.932 831.017 620.259 828.432 623.473 826.91 C 622.342 830.219 621.401 831.844 622.022 835.331 C 623.614 837.011 624.947 838.267 626.948 839.441 C 632.844 841.556 639.041 841.044 645.232 841.105 z"/>
<path transform="translate(0,0)" fill="rgb(109,66,70)" d="M 692.342 816.181 C 695.639 817.064 697.395 817.91 699.972 820.168 C 700.43 821.622 701.073 822.393 700.399 823.888 C 697.893 829.455 688.769 832.581 683.344 834.091 C 683.059 834.17 682.77 834.237 682.483 834.31 L 683.449 830.767 C 683.776 830.688 684.109 830.633 684.429 830.53 C 687.525 829.537 691.409 827.401 692.827 824.371 C 694.192 821.453 693.235 819.043 692.342 816.181 z"/>
<path transform="translate(0,0)" fill="rgb(128,92,92)" d="M 626.948 839.441 C 645.947 837.501 664.309 832.261 683.449 830.767 L 682.483 834.31 C 670.081 836.218 657.798 840.629 645.232 841.105 C 639.041 841.044 632.844 841.556 626.948 839.441 z"/>
<path transform="translate(0,0)" fill="rgb(169,125,123)" d="M 623.473 826.91 C 628.066 825.663 634.212 819.703 639.898 817.605 C 657.107 811.256 675.091 808.342 692.342 816.181 C 693.235 819.043 694.192 821.453 692.827 824.371 C 691.409 827.401 687.525 829.537 684.429 830.53 C 684.109 830.633 683.776 830.688 683.449 830.767 C 664.309 832.261 645.947 837.501 626.948 839.441 C 624.947 838.267 623.614 837.011 622.022 835.331 C 621.401 831.844 622.342 830.219 623.473 826.91 z"/>
<path transform="translate(0,0)" fill="rgb(243,202,151)" d="M 1116.78 898.005 C 1136.96 902.403 1159.14 909.072 1170.85 927.628 C 1172.59 930.391 1173.76 933.275 1174.83 936.344 C 1179.51 953.248 1177.49 968.394 1168.74 983.575 C 1147.17 1021.01 1098.47 1040.62 1061.89 1060.39 C 1053.63 1064.85 1044.01 1069.16 1036.48 1074.72 C 1027 1077.23 1016.09 1084.65 1006.98 1088.93 A 609.696 609.696 0 0 1 956.272 1110.02 C 926.884 1117.5 897.875 1129.44 867.458 1137 C 860.776 1139.98 850.723 1139.95 843.398 1141.57 C 755.043 1161.16 663.038 1154.19 574.173 1142.5 C 563.973 1141.31 553.64 1139.05 543.672 1136.58 C 534.522 1134.3 512.956 1126.53 504.846 1127.09 C 498.013 1123.27 489.004 1121.37 481.542 1118.94 C 465.491 1113.72 449.314 1108.65 433.639 1102.37 C 355.74 1071.13 291.594 1029.67 231.874 970.725 C 236.073 962.221 237.251 951.421 240.89 942.422 C 247.099 927.07 257.457 916.284 272.799 909.806 L 273.555 909.835 C 273.755 910.216 273.935 910.608 274.154 910.978 C 281.319 923.027 297.411 937.147 307.536 947.16 C 376.257 1015.12 462.239 1060.67 555.666 1084.6 A 554.229 554.229 0 0 0 712.961 1102.87 C 802.11 1100.64 907.948 1072.56 984.857 1026.93 C 1027.84 1001.43 1103.1 948.95 1116.15 898.146 L 1116.78 898.005 z"/>
</svg>