<?xml version="1.0" encoding="utf-8" ?>
<svg xmlns="http://www.w3.org/2000/svg" xmlns:xlink="http://www.w3.org/1999/xlink" width="517" height="517">
	<path fill="#9CA191" transform="scale(0.504883 0.504883)" d="M0 0L1024 0L1024 1024L0 1024L0 0Z"/>
	<path fill="#8D2304" transform="scale(0.504883 0.504883)" d="M308.681 876.99L311.024 877.642C311.603 888.833 312.346 901.16 309.095 912.004C304.3 912.786 299.628 913.726 294.899 914.843L294.285 914.217L297.526 913.248C296.516 913.296 295.553 913.417 294.597 913.018C294.437 912.951 294.293 912.852 294.141 912.769C298.516 911.86 302.858 911.368 307.296 910.912C309.237 899.174 309.852 888.889 308.681 876.99Z"/>
	<path fill="#791601" transform="scale(0.504883 0.504883)" d="M279.132 757.408C280.006 757.979 281.569 758.712 282.107 759.576C284.474 768.406 288.524 777.552 292.422 785.812C294.487 790.188 299.053 795.887 299.754 800.537L298.316 800.656C289.531 789.657 282.633 770.991 279.132 757.408Z"/>
	<path fill="#45130A" transform="scale(0.504883 0.504883)" d="M875.118 537.556C888.076 553.513 898.896 572.256 905.247 591.879L904.399 592.436C902.335 584.219 897.637 575.45 893.789 567.914Q890.676 568.272 887.547 568.457C885.702 561.237 882.859 553.948 879.669 547.217C878.302 544.334 875.162 540.708 875.118 537.556Z"/>
	<path fill="#2F0A03" transform="scale(0.504883 0.504883)" d="M774.62 276.049C774.605 275.643 774.577 275.422 774.663 275C774.859 274.039 775.58 273.43 776.28 272.816C778.764 270.638 781.631 268.893 784.243 266.869C789.329 262.928 794.713 257.694 798.974 252.886C809.695 240.788 818.802 220.608 822.536 204.88C823.222 201.989 823.622 197.125 826.033 195.44C825.576 200.606 824.112 206.026 822.724 211.026C816.401 233.801 803.965 252.561 785.929 267.735C782.356 270.742 778.599 273.596 774.62 276.049Z"/>
	<path fill="#2F0A03" transform="scale(0.504883 0.504883)" d="M712.972 76.6716C712.039 80.5852 703.444 85.1631 700.061 87.2563C681.58 98.6923 661.074 106.343 640.38 112.654C636.273 113.906 620.459 117.756 618.383 120.27L618.452 121.042L618.353 121.263C616.419 120.292 614.738 119.078 612.984 117.824C620.851 115.316 629.39 114.348 637.407 112.133C664.81 104.563 689.531 92.7542 712.972 76.6716Z"/>
	<path fill="#CE5504" transform="scale(0.504883 0.504883)" d="M887.547 568.457Q890.676 568.272 893.789 567.914C897.637 575.45 902.335 584.219 904.399 592.436C903.329 593.579 902.299 593.352 900.751 593.411C899.582 593.455 898.408 593.447 897.238 593.449L896.855 593.33C895.12 586.504 891.268 577.571 888.432 570.991C887.804 569.535 887.935 569.285 886.465 568.689L887.547 568.457Z"/>
	<path fill="#2F0A03" transform="scale(0.504883 0.504883)" d="M888.797 721.637C890.893 723.557 897.232 731.546 898.918 731.907C896.257 739.698 890.531 750.129 885.237 756.486C885.586 755.795 886.289 754.658 886.29 753.882C886.294 750.071 877.23 743.688 874.424 741.366C879.009 736.069 884.166 725.652 888.797 721.637Z"/>
	<path fill="#2F0A03" transform="scale(0.504883 0.504883)" d="M905.247 591.879C908.58 601.094 910.514 610.605 912.308 620.215C916.969 651.428 915.511 683.9 905.853 714.089C904.059 719.696 902.215 725.833 899.318 730.956L898.918 731.907C897.232 731.546 890.893 723.557 888.797 721.637L888.479 721.287C893.863 711.128 897.684 699.216 899.91 687.968L900.345 688.012C900.954 683.588 902.225 679.099 902.948 674.649C903.587 670.717 903.515 665.707 904.694 661.986C904.868 661.437 905.078 661.241 905.408 660.841L905.147 660.742C904.34 650.425 906.454 627.465 903.037 619.098L903.388 619.005C901.783 610.347 898.936 602.032 897.238 593.449C898.408 593.447 899.582 593.455 900.751 593.411C902.299 593.352 903.329 593.579 904.399 592.436L905.247 591.879Z"/>
	<path fill="#CE5504" transform="scale(0.504883 0.504883)" d="M903.388 619.005C905.912 619.324 909.367 619.385 911.608 620.622C913.456 636.004 914.266 649.825 913.389 665.306C910.823 663.559 908.362 661.886 905.408 660.841L905.147 660.742C904.34 650.425 906.454 627.465 903.037 619.098L903.388 619.005Z"/>
	<path fill="#CE5504" transform="scale(0.504883 0.504883)" d="M900.345 688.012C903.718 689.79 907.165 691.495 910.321 693.645Q907.863 705.038 904.216 716.108C902.647 720.903 900.29 726.048 899.318 730.956L898.918 731.907C897.232 731.546 890.893 723.557 888.797 721.637L888.479 721.287C893.863 711.128 897.684 699.216 899.91 687.968L900.345 688.012Z"/>
	<path fill="#2F0A03" transform="scale(0.504883 0.504883)" d="M874.069 741.26L874.424 741.366C877.23 743.688 886.294 750.071 886.29 753.882C886.289 754.658 885.586 755.795 885.237 756.486C882.437 761.751 877.094 768.707 872.508 772.592C868.321 778.401 862.179 783.358 856.687 787.923Q854.307 789.935 851.861 791.866Q849.414 793.797 846.904 795.644Q844.394 797.491 841.823 799.252Q839.251 801.013 836.622 802.686Q833.993 804.359 831.308 805.943Q828.624 807.526 825.887 809.018Q823.151 810.51 820.366 811.908Q817.58 813.306 814.75 814.609Q811.919 815.913 809.045 817.12Q806.172 818.327 803.259 819.436Q800.347 820.545 797.398 821.555Q794.45 822.565 791.469 823.474Q788.488 824.384 785.478 825.192Q782.469 826.001 779.433 826.707Q776.398 827.413 773.34 828.016Q770.282 828.62 767.206 829.119C762.507 829.87 757.615 830.468 752.855 830.538C760.881 828.846 769.006 828.34 777.035 826.334C776.935 819.984 776.29 813.636 775.765 807.31C775.905 806.215 776.018 805.409 776.546 804.431C781.554 803.511 786.606 802.033 791.344 800.173C794.676 798.866 797.922 797.195 801.424 796.419L801.549 796.091C807.164 794.082 827.245 784.702 829.8 780.339L830.164 780.926C830.65 780.371 848.552 766.769 849.838 765.981L849.852 765.701C858.07 761.314 867.548 748.369 874.069 741.26Z"/>
	<path fill="#CE5504" transform="scale(0.504883 0.504883)" d="M829.8 780.339L830.164 780.926C832.703 788.353 834.005 795.36 834.327 803.201C824.175 808.67 813.602 814.963 802.69 818.783C803.094 811.425 802.881 803.669 801.424 796.419L801.549 796.091C807.164 794.082 827.245 784.702 829.8 780.339Z"/>
	<path fill="#CE5504" transform="scale(0.504883 0.504883)" d="M874.069 741.26L874.424 741.366C877.23 743.688 886.294 750.071 886.29 753.882C886.289 754.658 885.586 755.795 885.237 756.486C882.437 761.751 877.094 768.707 872.508 772.592C869.284 774.541 866.225 778.24 863.41 780.83C860.02 783.95 856.509 786.782 852.842 789.561C853.608 780.994 853.603 773.857 849.838 765.981L849.852 765.701C858.07 761.314 867.548 748.369 874.069 741.26Z"/>
	<path fill="#F88B29" transform="scale(0.504883 0.504883)" d="M896.855 593.33L897.238 593.449C898.936 602.032 901.783 610.347 903.388 619.005L903.037 619.098C906.454 627.465 904.34 650.425 905.147 660.742C889.516 656.87 876.521 656.723 860.903 660.388C860.782 656.054 860.615 651.745 860.288 647.42L859.056 647.94C857.613 636.234 852.92 624.26 848.183 613.496L848.756 612.372Q849.466 613.54 850.194 614.697C851.449 614.645 854.853 610.706 856.061 609.641C859.457 606.645 863.261 604.134 867.215 601.938C876.714 596.663 886.141 594.466 896.855 593.33Z"/>
	<path fill="#45130A" transform="scale(0.504883 0.504883)" d="M896.855 593.33L897.238 593.449C898.936 602.032 901.783 610.347 903.388 619.005L903.037 619.098C887.741 619.279 868.884 622.934 856.855 633.101C858.281 637.83 859.542 642.53 860.288 647.42L859.056 647.94C857.613 636.234 852.92 624.26 848.183 613.496L848.756 612.372Q849.466 613.54 850.194 614.697C851.449 614.645 854.853 610.706 856.061 609.641C859.457 606.645 863.261 604.134 867.215 601.938C876.714 596.663 886.141 594.466 896.855 593.33Z"/>
	<path fill="#45130A" transform="scale(0.504883 0.504883)" d="M860.288 647.42C860.615 651.745 860.782 656.054 860.903 660.388C876.521 656.723 889.516 656.87 905.147 660.742L905.408 660.841C905.078 661.241 904.868 661.437 904.694 661.986C903.515 665.707 903.587 670.717 902.948 674.649C902.225 679.099 900.954 683.588 900.345 688.012L899.91 687.968C897.684 699.216 893.863 711.128 888.479 721.287L888.797 721.637C884.166 725.652 879.009 736.069 874.424 741.366L874.069 741.26C865.164 733.543 850.622 727.405 838.769 727.503L834.266 732.699L834.026 731.734C836.52 727.131 841.092 723.403 843.833 718.819C857.833 695.406 861.182 674.874 859.056 647.94L860.288 647.42Z"/>
	<path fill="#F88B29" transform="scale(0.504883 0.504883)" d="M859.18 681.888C872.852 682.075 887.217 682.237 899.91 687.968C897.684 699.216 893.863 711.128 888.479 721.287C875.894 712.032 867.395 707.657 851.838 705.757C855.327 697.938 857.916 690.369 859.18 681.888Z"/>
	<path fill="#2F0A03" transform="scale(0.504883 0.504883)" d="M848.183 613.496C843.397 605.4 839.059 597.523 833.14 590.136C826.828 582.258 819.403 575.333 813.062 567.488C806.155 558.943 801.468 549.555 802.753 538.307Q802.847 537.53 802.98 536.759Q803.112 535.988 803.283 535.225Q803.453 534.461 803.661 533.707Q803.869 532.953 804.114 532.21Q804.358 531.467 804.64 530.737Q804.921 530.007 805.238 529.292Q805.554 528.576 805.906 527.878Q806.258 527.179 806.644 526.498Q807.03 525.818 807.448 525.157Q807.867 524.496 808.318 523.857Q808.769 523.218 809.251 522.602Q809.733 521.985 810.245 521.394Q810.757 520.802 811.297 520.236Q811.838 519.671 812.405 519.132Q812.973 518.594 813.567 518.084Q814.16 517.575 814.778 517.095C821.039 512.224 829.074 509.702 836.992 510.848C851.609 512.965 866.722 526.016 875.118 537.556C875.162 540.708 878.302 544.334 879.669 547.217C882.859 553.948 885.702 561.237 887.547 568.457L886.465 568.689C887.935 569.285 887.804 569.535 888.432 570.991C891.268 577.571 895.12 586.504 896.855 593.33C886.141 594.466 876.714 596.663 867.215 601.938C863.261 604.134 859.457 606.645 856.061 609.641C854.853 610.706 851.449 614.645 850.194 614.697Q849.466 613.54 848.756 612.372L848.183 613.496Z"/>
	<path fill="#F88B29" transform="scale(0.504883 0.504883)" d="M886.465 568.689C887.935 569.285 887.804 569.535 888.432 570.991C891.268 577.571 895.12 586.504 896.855 593.33C886.141 594.466 876.714 596.663 867.215 601.938C863.261 604.134 859.457 606.645 856.061 609.641C854.853 610.706 851.449 614.645 850.194 614.697Q849.466 613.54 848.756 612.372Q844.683 604.873 840.483 597.445C853.759 583.057 866.956 572.769 886.465 568.689Z"/>
	<path fill="#F5D2A3" transform="scale(0.504883 0.504883)" d="M187.393 361.042C186.399 369.492 186.694 378.74 187.243 387.23C189.16 416.888 197.29 444.068 215.986 467.654Q219.77 472.392 223.679 477.027C225.736 480.59 229.248 483.449 231.11 486.931C232.311 490.578 237.654 495.031 240.384 497.875C241.233 501.832 241.361 506.024 241.875 510.046C243.105 519.656 246.934 527.444 252.139 535.507C238.203 528.703 225.341 521.882 214.725 510.269C201.91 496.251 196.525 481.409 197.354 462.395C189.312 478.215 183.87 494.972 184.958 512.919C175.582 501.76 166.503 490.931 162.146 476.719C157.518 461.627 158.797 449.187 166.085 435.385C149.164 446.295 139.618 464 133.057 482.43C131.494 473.487 129.975 464.587 129.595 455.495C128.777 435.877 132.988 414.503 145.236 398.647C148.301 394.678 152.46 391.503 155.832 387.778L156.185 387.383C138.19 392.351 121.76 402.135 111.024 417.659C111.958 412.622 112.954 407.659 114.74 402.843C121.057 385.813 133.284 374.696 149.474 367.25C162.751 367.302 175.077 366.449 187.393 361.042Z"/>
	<path fill="#F5D2A3" transform="scale(0.504883 0.504883)" d="M742.879 361.126C757.171 366.127 769.967 367.007 785.001 366.116C801.868 380.938 815.762 397.931 821.351 420.147C818.122 416.479 815.407 412.546 811.9 409.095C801.64 399 785.967 391.867 771.875 389.424C776.013 392.67 780.285 396.077 783.788 400.02C792.593 409.932 797.884 424.511 799.435 437.522C801.07 451.24 798.588 463.899 791.971 476.006C787.166 457.66 778.865 440.525 762.022 430.407C769.451 444.423 769.756 460.142 765.203 475.204C760.566 490.544 752.148 506.787 741.324 518.6C743.415 499.517 740.753 476.719 728.851 460.988C732.739 472.713 731.314 486.22 725.768 497.148C711.64 524.987 689.566 536.261 662.144 547.532Q668.264 540.987 673.213 533.518C677.178 527.649 689.782 505.736 690.241 499.215C693.046 495.719 697.625 492.533 700.889 489.345C717.405 473.211 739.739 428.204 740.075 404.978Q741.664 394.09 742.366 383.109Q743.068 372.128 742.879 361.126Z"/>
	<path fill="#45130A" transform="scale(0.504883 0.504883)" d="M331.661 540.947L331.999 541.271C344.152 543.794 357.47 546.211 369.397 549.501L369.495 549.931C364.896 564.266 360.086 578.546 356.427 593.159L356.562 593.423C353.411 605.469 350.93 616.762 350.995 629.309L351.861 630.963C354.405 635.869 358.942 640.931 360.622 646.065C360.26 646.3 360.102 646.428 359.664 646.58C356.785 647.583 350.988 644.113 348.369 642.884Q344.376 640.396 340.343 637.973Q339.231 651.123 339.342 664.319Q339.453 677.515 340.786 690.644C341.086 693.407 344.126 711.755 343.326 712.709C343.781 713.823 343.766 713.276 343.461 714.345C343.765 714.655 344.144 714.907 344.373 715.276C345.688 717.397 348.258 731.029 349.234 734.627Q351.291 742.158 353.845 749.534C358.75 763.753 365.195 778.002 372.146 791.325C376.243 799.179 381.039 806.815 384.562 814.938Q380.784 815.59 376.981 816.073C354.414 818.982 333.261 815.66 312.393 806.832C308.185 805.052 303.391 803.335 299.754 800.537C299.053 795.887 294.487 790.188 292.422 785.812C288.524 777.552 284.474 768.406 282.107 759.576C281.569 758.712 280.006 757.979 279.132 757.408Q278.208 753.344 277.347 749.267C274.073 733.616 273.566 717.936 274.068 702C276.013 640.193 298.416 591.685 331.661 540.947Z"/>
	<path fill="#F88B29" transform="scale(0.504883 0.504883)" d="M333.19 580.353L333.436 579.362C337.663 579.279 350.685 591.51 356.427 593.159L356.562 593.423C353.411 605.469 350.93 616.762 350.995 629.309C341.669 614.593 336.5 597.291 333.19 580.353Z"/>
	<path fill="#CE5504" transform="scale(0.504883 0.504883)" d="M331.999 541.271C344.152 543.794 357.47 546.211 369.397 549.501L369.495 549.931C364.896 564.266 360.086 578.546 356.427 593.159C350.685 591.51 337.663 579.279 333.436 579.362L333.19 580.353C330.351 569.838 330.612 552.129 331.999 541.271Z"/>
	<path fill="#F88B29" transform="scale(0.504883 0.504883)" d="M306.329 586.657C314.073 608.624 322.817 622.394 340.343 637.973Q339.231 651.123 339.342 664.319Q339.453 677.515 340.786 690.644C341.086 693.407 344.126 711.755 343.326 712.709C339.612 709.568 336.147 705.831 332.745 702.35C318.05 687.316 307.492 671.716 300.627 651.721C297.822 643.551 291.718 622.211 293.751 613.838C295.552 606.421 302.729 594.059 306.329 586.657Z"/>
	<path fill="#F88B29" transform="scale(0.504883 0.504883)" d="M278.066 672.759C282.949 677.055 286.697 682.541 291.348 687.094C305.43 700.877 324.521 709.652 343.461 714.345C343.765 714.655 344.144 714.907 344.373 715.276C345.688 717.397 348.258 731.029 349.234 734.627Q351.291 742.158 353.845 749.534C358.75 763.753 365.195 778.002 372.146 791.325C376.243 799.179 381.039 806.815 384.562 814.938Q380.784 815.59 376.981 816.073C354.414 818.982 333.261 815.66 312.393 806.832C308.185 805.052 303.391 803.335 299.754 800.537C299.053 795.887 294.487 790.188 292.422 785.812C288.524 777.552 284.474 768.406 282.107 759.576C285.334 761.89 288.529 764.207 291.975 766.191C309.522 776.293 335.671 784.006 355.799 778.678Q353.117 777.577 350.483 776.365Q347.849 775.154 345.267 773.835Q342.686 772.517 340.16 771.093Q337.635 769.669 335.17 768.142Q332.706 766.615 330.307 764.988Q327.907 763.361 325.577 761.636Q323.247 759.911 320.989 758.092Q318.732 756.273 316.552 754.362Q314.371 752.451 312.272 750.453Q310.172 748.453 308.156 746.37Q306.141 744.286 304.213 742.121Q302.285 739.955 300.448 737.713Q298.611 735.47 296.868 733.153Q295.125 730.837 293.479 728.45Q291.833 726.064 290.286 723.611Q288.74 721.159 287.296 718.645C282.961 711.185 279.545 703.281 276.026 695.417C277.162 687.986 277.193 680.25 278.066 672.759Z"/>
	<path fill="#45130A" transform="scale(0.504883 0.504883)" d="M712.972 76.6716C725.538 65.6939 740.367 58.9098 757.26 59.9872C772.693 60.9715 784.887 70.9035 794.65 82.1702C819.614 110.98 830.228 150.639 827.24 188.215C827.062 190.446 826.898 193.362 826.033 195.44C823.622 197.125 823.222 201.989 822.536 204.88C818.802 220.608 809.695 240.788 798.974 252.886C794.713 257.694 789.329 262.928 784.243 266.869C781.631 268.893 778.764 270.638 776.28 272.816C775.58 273.43 774.859 274.039 774.663 275C774.577 275.422 774.605 275.643 774.62 276.049C762.699 285.526 746.397 289.787 731.772 292.866C730.184 283.446 727.441 274.279 725.524 264.939C722.249 257.285 720.34 248.646 717.469 240.761C710.498 221.609 700.86 204.063 689.144 187.436C684.226 180.228 678.33 171.317 671.588 165.833C661.853 156.583 653.008 146.812 642.475 138.376Q635.419 132.817 627.955 127.82C624.998 125.849 621.693 124.014 618.952 121.764L618.353 121.263L618.452 121.042L618.383 120.27C620.459 117.756 636.273 113.906 640.38 112.654C661.074 106.343 681.58 98.6923 700.061 87.2563C703.444 85.1631 712.039 80.5852 712.972 76.6716Z"/>
	<path fill="#DB6923" transform="scale(0.504883 0.504883)" d="M671.588 165.833C684.132 156.701 695.868 145.93 706.553 134.697C713.32 127.583 719.632 119.901 727.012 113.401C733.081 108.055 741.98 101.876 750.497 102.707C757.778 103.418 762.96 110.23 767.13 115.56C762.831 116.319 758.926 117.162 754.926 118.934C729.574 130.165 705.612 163.868 689.813 186.409C689.579 186.744 689.359 187.089 689.144 187.436C684.226 180.228 678.33 171.317 671.588 165.833Z"/>
	<path fill="#F88B29" transform="scale(0.504883 0.504883)" d="M767.13 115.56C783.554 137.223 788.369 169.155 784.743 195.572C781.788 217.106 772.588 237.637 754.904 250.961C746.14 257.564 736.084 262.094 725.524 264.939C722.249 257.285 720.34 248.646 717.469 240.761C710.498 221.609 700.86 204.063 689.144 187.436C689.359 187.089 689.579 186.744 689.813 186.409C705.612 163.868 729.574 130.165 754.926 118.934C758.926 117.162 762.831 116.319 767.13 115.56Z"/>
	<path fill="#45130A" transform="scale(0.504883 0.504883)" d="M205.042 290.371C199.098 289.078 192.961 288.734 186.999 287.361C163.599 281.97 143.148 266.012 130.664 245.684C112.559 216.205 109.709 175.762 117.844 142.577C125.531 111.22 144.201 80.2565 172.421 63.4437C180.499 58.6314 188.408 56.9945 197.642 59.379C214.357 63.6954 228.57 76.6796 243.257 85.3245C268.849 100.389 296.73 113.105 325.582 120.409C315.022 127.455 304.657 134.962 295.364 143.644C290.021 148.634 280.996 159.201 275.687 162.677C271.187 167.577 266.905 172.575 262.652 177.688Q256.415 185.6 250.669 193.875Q244.923 202.15 239.689 210.757Q234.454 219.365 229.75 228.273Q225.046 237.182 220.89 246.359C218.497 251.567 215.706 256.967 214.233 262.522L214.315 264.068C209.662 271.349 207.543 282.076 205.042 290.371Z"/>
	<path fill="#DB6923" transform="scale(0.504883 0.504883)" d="M167.612 123.923C171.694 115.157 179.629 104.999 189.013 101.553C193.796 99.796 198.396 100.491 202.881 102.742C210.987 106.81 216.601 114.982 222.171 121.864C236.2 139.197 253.639 156.524 275.687 162.677C271.187 167.577 266.905 172.575 262.652 177.688C252.959 172.801 242.76 165.227 234.977 157.796C223.767 147.091 209.781 127.774 198.468 119.78C194.947 117.293 190.905 115.374 186.551 115.078C180.556 114.67 175.358 117.648 170.945 121.407C170.111 122.118 169.32 122.802 168.404 123.408L167.612 123.923Z"/>
	<path fill="#F88B29" transform="scale(0.504883 0.504883)" d="M167.612 123.923L168.404 123.408C169.32 122.802 170.111 122.118 170.945 121.407C175.358 117.648 180.556 114.67 186.551 115.078C190.905 115.374 194.947 117.293 198.468 119.78C209.781 127.774 223.767 147.091 234.977 157.796C242.76 165.227 252.959 172.801 262.652 177.688Q256.415 185.6 250.669 193.875Q244.923 202.15 239.689 210.757Q234.454 219.365 229.75 228.273Q225.046 237.182 220.89 246.359C218.497 251.567 215.706 256.967 214.233 262.522C208.05 260.213 202.153 257.673 196.491 254.249Q195.614 253.709 194.751 253.148Q193.888 252.588 193.039 252.006Q192.189 251.424 191.355 250.821Q190.52 250.218 189.701 249.595Q188.881 248.972 188.077 248.33Q187.273 247.687 186.485 247.024Q185.697 246.362 184.925 245.68Q184.154 244.999 183.399 244.298Q182.645 243.598 181.908 242.88Q181.17 242.161 180.451 241.424Q179.732 240.688 179.031 239.934Q178.33 239.18 177.648 238.409Q176.965 237.638 176.302 236.851Q175.639 236.064 174.995 235.26Q174.352 234.457 173.728 233.638Q173.104 232.819 172.501 231.985Q171.897 231.15 171.315 230.302Q170.732 229.453 170.17 228.591Q169.609 227.728 169.068 226.852Q168.528 225.975 168.009 225.086Q167.49 224.197 166.993 223.295Q166.497 222.394 166.022 221.48Q165.548 220.566 165.096 219.641Q164.644 218.716 164.215 217.781Q163.786 216.845 163.38 215.899Q162.974 214.953 162.591 213.997Q162.209 213.041 161.85 212.077Q161.491 211.112 161.155 210.138Q160.82 209.165 160.509 208.184Q160.198 207.202 159.911 206.214Q159.624 205.225 159.361 204.23Q159.098 203.235 158.86 202.233C152.939 177.891 154.464 145.726 167.612 123.923Z"/>
	<path fill="#791601" transform="scale(0.504883 0.504883)" d="M298.316 800.656L299.754 800.537C303.391 803.335 308.185 805.052 312.393 806.832C333.261 815.66 354.414 818.982 376.981 816.073Q380.784 815.59 384.562 814.938C393.835 813.268 402.553 810.509 411.324 807.142C414.414 810.21 417.869 813.224 420.648 816.564L423.703 817.852C432.271 818.772 440.765 820.421 449.329 821.442C461.709 822.919 474 823.276 486.458 823.074C489.664 823.022 494.927 823.445 497.801 822.127C498.936 828.539 499.968 835.128 500.574 841.61C500.76 843.633 500.652 846.464 501.36 848.328C501.812 847.792 502.325 847.733 502.971 847.491C503.099 842.682 502.42 837.714 501.883 832.941Q512.917 837.612 524.36 841.168C521.193 845.186 520.756 921.469 520.456 932.461C527.221 928.708 546.411 920.06 553.973 920.636L555.943 920.133C565.564 916.787 576.337 916.576 586.421 916.191C587.745 916.204 589.051 916.191 590.364 916.391C597.738 914.53 606.263 915.416 613.821 915.791L622.348 917.401C633.455 920.46 644.021 927.575 649.754 937.783C650.409 938.949 651.046 940.148 651.521 941.397C654.736 948.038 655.498 954.261 654.593 961.536L655.174 961.923C654.832 964.235 653.218 966.948 653.702 969.21C654.445 969.94 655.124 970.263 656.19 970.333C656.589 970.359 656.87 970.278 657.242 970.2C656.697 971.962 655.495 973.74 654.369 975.185C645.003 987.206 621.015 990.803 606.596 992.677C580.084 996.123 535.993 997.293 514.243 980.259C505.671 973.547 504.052 965.023 502.884 954.928C478.087 958.537 437.806 956.43 413.793 949.073C412.385 955.853 410.864 962.792 407.504 968.916C401.729 979.444 391.159 984.655 380 987.833C352.729 995.6 300.148 991.987 275.478 977.961C268.028 973.725 262.315 967.569 260.18 959.076C258.08 950.72 259.476 940.423 264.039 933.102C270.549 922.655 282.303 915.426 294.141 912.769C294.293 912.852 294.437 912.951 294.597 913.018C295.553 913.417 296.516 913.296 297.526 913.248L294.285 914.217L294.899 914.843C299.628 913.726 304.3 912.786 309.095 912.004C312.346 901.16 311.603 888.833 311.024 877.642L308.681 876.99C306.881 851.373 299.396 826.463 298.316 800.656Z"/>
	<path fill="#E5D7C2" transform="scale(0.504883 0.504883)" d="M289.422 978.755C279.846 974.792 269.68 969.932 265.397 959.754C262.471 952.802 263.473 945.309 266.211 938.512C270.093 944.745 275.451 952.336 283.045 954.231C283.258 954.284 283.473 954.326 283.686 954.374C282.987 963.136 285.108 971.174 289.422 978.755Z"/>
	<path fill="#E5D7C2" transform="scale(0.504883 0.504883)" d="M651.521 941.397C654.736 948.038 655.498 954.261 654.593 961.536C652.009 969.112 649.247 974.662 641.646 978.323C635.714 981.18 628.822 982.971 622.42 984.513C624.665 979.245 626.487 974.313 626.613 968.517L627.011 965.329C631.907 964.254 636.808 962.028 640.876 959.098C647.29 954.477 650.316 949.098 651.521 941.397Z"/>
	<path fill="#E5D7C2" transform="scale(0.504883 0.504883)" d="M289.337 953.512C289.376 954.766 289.452 955.973 289.602 957.222C294.822 961.834 321.956 964.618 329.1 964.576C329.567 972.221 330.77 978.427 333.342 985.685C321.543 985.189 309.06 983.662 297.785 980.149C296.346 978.762 294.984 977.168 293.923 975.473C290.238 969.583 287.601 960.383 289.337 953.512Z"/>
	<path fill="#FEFEFE" transform="scale(0.504883 0.504883)" d="M309.095 912.004C312.939 911.859 319.828 910.69 323.367 912.113C307.909 918.464 293.575 927.147 286.74 943.244C285.201 946.869 284.365 950.509 283.686 954.374C283.473 954.326 283.258 954.284 283.045 954.231C275.451 952.336 270.093 944.745 266.211 938.512C266.427 937.992 266.639 937.469 266.884 936.961C272.189 925.997 283.865 918.837 294.899 914.843C299.628 913.726 304.3 912.786 309.095 912.004Z"/>
	<path fill="#E5D7C2" transform="scale(0.504883 0.504883)" d="M621.428 966.377C620.351 973.4 618.722 979.435 615.389 985.732C601.034 988.979 585.581 989.687 570.905 989.138C573.626 982.972 575.427 976.966 576.473 970.309C591.057 970.71 607.399 970.687 621.428 966.377Z"/>
	<path fill="#9CA191" transform="scale(0.504883 0.504883)" d="M420.648 816.564L423.703 817.852C424.444 818.344 425.252 818.762 425.797 819.472C429.855 834.054 433.989 849.134 436.767 864.007C438.819 873.426 441.732 882.659 443.698 892.065C436.249 893.31 428.854 895.739 421.576 897.758C420.711 891.876 422.069 880.075 422.228 873.439C422.656 855.599 422.826 837.673 421.106 819.89L420.648 816.564Z"/>
	<path fill="#E5D7C2" transform="scale(0.504883 0.504883)" d="M512.902 938.448C513.051 938.698 513.205 938.944 513.348 939.197C514.85 941.844 515.061 945.457 516.213 948.348C519.959 957.75 529.614 963.126 538.808 966.007C549.004 969.203 559.796 970.054 570.378 971.068C569.266 977.338 567.769 983.062 565.326 988.96C549.07 988.201 527.026 985.976 515.185 973.541C508.091 966.089 507.29 957.196 507.533 947.461C508.658 944.027 510.898 941.681 512.424 938.508L512.902 938.448Z"/>
	<path fill="#E5D7C2" transform="scale(0.504883 0.504883)" d="M397.605 940.082C401.517 944.353 404.768 948.981 408.434 953.429C404.765 964.674 400.048 972.889 389.222 978.434C374.22 986.118 356.25 986.3 339.746 986.008C337.431 979.063 335.543 972.381 334.958 965.067C347.432 966.142 360.631 966.113 372.627 962.143C384.055 958.362 392.239 950.76 397.605 940.082Z"/>
	<path fill="#FEFEFE" transform="scale(0.504883 0.504883)" d="M364.075 919.713C369.798 918.944 387.733 931.279 392.729 934.946C394.345 936.626 396.14 938.276 397.605 940.082C392.239 950.76 384.055 958.362 372.627 962.143C360.631 966.113 347.432 966.142 334.958 965.067C334.934 963.453 334.9 961.824 335.013 960.213C336.22 942.949 352.036 930.28 364.075 919.713Z"/>
	<path fill="#FEFEFE" transform="scale(0.504883 0.504883)" d="M520.456 932.461C527.221 928.708 546.411 920.06 553.973 920.636C564.239 936.694 572.32 951.343 570.378 971.068C559.796 970.054 549.004 969.203 538.808 966.007C529.614 963.126 519.959 957.75 516.213 948.348C515.061 945.457 514.85 941.844 513.348 939.197C513.205 938.944 513.051 938.698 512.902 938.448C515.093 936.079 517.765 934.214 520.456 932.461Z"/>
	<path fill="#FEFEFE" transform="scale(0.504883 0.504883)" d="M324.806 912.251C330.864 910.7 357.905 915.051 363.05 918.717C363.31 918.902 363.547 919.118 363.796 919.318C349.795 927.866 334.263 939.327 330.107 956.166C329.434 958.89 329.171 961.778 329.1 964.576C321.956 964.618 294.822 961.834 289.602 957.222C289.452 955.973 289.376 954.766 289.337 953.512C289.355 953.08 289.385 952.648 289.44 952.219C291.059 939.597 300.634 928.415 310.776 921.389C315.212 918.317 320.138 915.903 324.391 912.583C324.53 912.474 324.667 912.362 324.806 912.251Z"/>
	<path fill="#DB6923" transform="scale(0.504883 0.504883)" d="M419.676 827.623L419.627 828.198C418.443 843.38 419.424 859.086 419.199 874.327C418.944 891.511 417.201 908.185 414.924 925.193C413.669 934.57 412.647 944.849 408.434 953.429C404.768 948.981 401.517 944.353 397.605 940.082C396.14 938.276 394.345 936.626 392.729 934.946C396.891 915.06 395.177 880.491 392.178 860.197C391.255 853.955 389.806 847.774 388.466 841.61C400.156 839.07 409.727 834.151 419.676 827.623Z"/>
	<path fill="#FEFEFE" transform="scale(0.504883 0.504883)" d="M590.364 916.391C597.738 914.53 606.263 915.416 613.821 915.791L622.348 917.401C633.455 920.46 644.021 927.575 649.754 937.783C650.409 938.949 651.046 940.148 651.521 941.397C650.316 949.098 647.29 954.477 640.876 959.098C636.808 962.028 631.907 964.254 627.011 965.329L626.613 968.517L626.255 965.907C624.98 964.786 623.335 965.117 621.671 965.078L621.428 966.377C607.399 970.687 591.057 970.71 576.473 970.309Q576.511 969.273 576.521 968.236C576.682 949.815 568.724 933.132 555.943 920.133C565.564 916.787 576.337 916.576 586.421 916.191C587.745 916.204 589.051 916.191 590.364 916.391Z"/>
	<path fill="#FEFEFE" transform="scale(0.504883 0.504883)" d="M590.364 916.391C597.738 914.53 606.263 915.416 613.821 915.791L622.348 917.401C633.455 920.46 644.021 927.575 649.754 937.783C650.409 938.949 651.046 940.148 651.521 941.397C650.316 949.098 647.29 954.477 640.876 959.098C636.808 962.028 631.907 964.254 627.011 965.329L626.613 968.517L626.255 965.907C624.98 964.786 623.335 965.117 621.671 965.078C621.501 961.041 620.614 956.958 619.373 953.119C614.156 936.992 601.328 923.807 586.421 916.191C587.745 916.204 589.051 916.191 590.364 916.391Z"/>
	<path fill="#8D2304" transform="scale(0.504883 0.504883)" d="M586.421 916.191C587.745 916.204 589.051 916.191 590.364 916.391C604.1 921.35 616.796 933.182 622.953 946.441C625.744 952.45 627.026 958.714 627.011 965.329L626.613 968.517L626.255 965.907C624.98 964.786 623.335 965.117 621.671 965.078C621.501 961.041 620.614 956.958 619.373 953.119C614.156 936.992 601.328 923.807 586.421 916.191Z"/>
	<path fill="#F88B29" transform="scale(0.504883 0.504883)" d="M298.316 800.656L299.754 800.537C303.391 803.335 308.185 805.052 312.393 806.832C333.261 815.66 354.414 818.982 376.981 816.073Q380.784 815.59 384.562 814.938C393.835 813.268 402.553 810.509 411.324 807.142C414.414 810.21 417.869 813.224 420.648 816.564L421.106 819.89C420.804 822.181 420.805 825.632 419.676 827.623C409.727 834.151 400.156 839.07 388.466 841.61C389.806 847.774 391.255 853.955 392.178 860.197C395.177 880.491 396.891 915.06 392.729 934.946C387.733 931.279 369.798 918.944 364.075 919.713L363.796 919.318C363.547 919.118 363.31 918.902 363.05 918.717C357.905 915.051 330.864 910.7 324.806 912.251L323.367 912.113C319.828 910.69 312.939 911.859 309.095 912.004C312.346 901.16 311.603 888.833 311.024 877.642L308.681 876.99C306.881 851.373 299.396 826.463 298.316 800.656Z"/>
	<path fill="#45130A" transform="scale(0.504883 0.504883)" d="M298.316 800.656L299.754 800.537C303.391 803.335 308.185 805.052 312.393 806.832C333.261 815.66 354.414 818.982 376.981 816.073Q380.784 815.59 384.562 814.938C393.835 813.268 402.553 810.509 411.324 807.142C414.414 810.21 417.869 813.224 420.648 816.564L421.106 819.89C420.804 822.181 420.805 825.632 419.676 827.623C409.727 834.151 400.156 839.07 388.466 841.61C358.284 849.206 328.521 842.06 302.055 826.774Q303.336 834.887 304.71 842.985C326.201 857.865 348.368 868.161 374.948 868.996C359.277 880.611 343.201 883.745 323.928 880.828C319.541 880.163 315.188 879.191 311.024 877.642L308.681 876.99C306.881 851.373 299.396 826.463 298.316 800.656Z"/>
	<path fill="#B24203" transform="scale(0.504883 0.504883)" d="M423.703 817.852C432.271 818.772 440.765 820.421 449.329 821.442C461.709 822.919 474 823.276 486.458 823.074C489.664 823.022 494.927 823.445 497.801 822.127C498.936 828.539 499.968 835.128 500.574 841.61C500.76 843.633 500.652 846.464 501.36 848.328C501.812 847.792 502.325 847.733 502.971 847.491C503.099 842.682 502.42 837.714 501.883 832.941Q512.917 837.612 524.36 841.168C521.193 845.186 520.756 921.469 520.456 932.461C517.765 934.214 515.093 936.079 512.902 938.448L512.424 938.508C510.898 941.681 508.658 944.027 507.533 947.461C506.317 947.285 506.207 947.415 505.221 946.574C504.055 948.788 503.602 951.168 503.033 953.585C494.836 953.553 486.537 954.589 478.329 954.882C460.883 955.503 442.828 954.334 425.695 950.957C422.244 950.277 417.379 950.061 414.402 948.222C413.827 945.498 416.094 936.768 416.624 933.633C418.473 922.706 419.364 911.83 420.908 900.892C421.1 899.527 420.963 899.59 422.042 898.781L421.576 897.758C428.854 895.739 436.249 893.31 443.698 892.065C441.732 882.659 438.819 873.426 436.767 864.007C433.989 849.134 429.855 834.054 425.797 819.472C425.252 818.762 424.444 818.344 423.703 817.852Z"/>
	<path fill="#45130A" transform="scale(0.504883 0.504883)" d="M437.368 862.625C438.542 868.947 440.709 872.633 446.164 876.329C454.286 881.831 464.498 885.737 474.274 886.744C478.255 887.154 482.364 886.989 486.283 887.808C475.199 890.624 463.144 890.639 451.801 892.154C441.762 893.495 431.864 896.34 422.042 898.781L421.576 897.758C428.854 895.739 436.249 893.31 443.698 892.065C441.732 882.659 438.819 873.426 436.767 864.007L437.368 862.625Z"/>
	<path fill="#2F0A03" transform="scale(0.504883 0.504883)" d="M425.797 819.472L428.165 821.495C429.653 830.099 433.077 834.245 440.108 839.205C457.322 851.348 480.847 859.683 501.997 860.095L501.36 848.328C501.812 847.792 502.325 847.733 502.971 847.491C504.397 863.478 503.649 879.547 504.462 895.558C505.255 911.153 507.579 926.663 508.066 942.253C509.358 940.921 510.679 939.213 512.424 938.508C510.898 941.681 508.658 944.027 507.533 947.461C506.317 947.285 506.207 947.415 505.221 946.574C506.031 944.499 506.597 942.563 506.668 940.32C506.933 931.929 505.44 923.075 504.649 914.695C503.371 901.156 502.471 887.442 502.925 873.84C485.979 874.33 472.017 874.534 455.456 869.444C450.03 867.776 443.081 863.754 438.07 862.753C437.837 862.707 437.602 862.668 437.368 862.625L436.767 864.007C433.989 849.134 429.855 834.054 425.797 819.472Z"/>
	<path fill="#DB6923" transform="scale(0.504883 0.504883)" d="M501.883 832.941Q512.917 837.612 524.36 841.168C521.193 845.186 520.756 921.469 520.456 932.461C517.765 934.214 515.093 936.079 512.902 938.448L512.424 938.508C510.679 939.213 509.358 940.921 508.066 942.253C507.579 926.663 505.255 911.153 504.462 895.558C503.649 879.547 504.397 863.478 502.971 847.491C503.099 842.682 502.42 837.714 501.883 832.941Z"/>
	<path fill="#B24203" transform="scale(0.504883 0.504883)" d="M423.703 817.852C432.271 818.772 440.765 820.421 449.329 821.442C461.709 822.919 474 823.276 486.458 823.074C489.664 823.022 494.927 823.445 497.801 822.127C498.936 828.539 499.968 835.128 500.574 841.61C500.76 843.633 500.652 846.464 501.36 848.328L501.997 860.095C480.847 859.683 457.322 851.348 440.108 839.205C433.077 834.245 429.653 830.099 428.165 821.495L425.797 819.472C425.252 818.762 424.444 818.344 423.703 817.852Z"/>
	<path fill="#CAB3A6" transform="scale(0.504883 0.504883)" d="M423.703 817.852C432.271 818.772 440.765 820.421 449.329 821.442C461.709 822.919 474 823.276 486.458 823.074C489.664 823.022 494.927 823.445 497.801 822.127C498.936 828.539 499.968 835.128 500.574 841.61C474.158 841.273 451.325 833.496 428.165 821.495L425.797 819.472C425.252 818.762 424.444 818.344 423.703 817.852Z"/>
	<path fill="#FEFEFE" transform="scale(0.504883 0.504883)" d="M369.397 549.501C375.082 550.24 380.83 550.402 386.457 551.53C387.526 552.641 388.474 553.599 389.17 555C392.411 556.419 399.688 564.222 403.128 566.966C421.109 581.312 446.788 590.446 469.872 587.758C495.41 584.785 518.719 572.735 534.718 552.588C540.318 552.548 545.951 552.145 551.556 552.022C557.076 562.309 561.031 581.11 562.253 592.788C563.891 604.3 565.044 616.379 563.934 627.978C559.893 632.968 555.203 637.452 550.666 641.988C549.652 643.114 548.594 644.042 548.322 645.593C550.513 647.587 554.407 647.524 557.207 647.572C559.589 647.54 561.822 647.145 564.159 646.734L563.469 652.038C563.521 661.2 562.123 670.6 561.204 679.706L561.837 679.996C567.42 699.696 554.349 745.877 546.964 765.684C540.65 782.62 532.535 798.827 528.067 816.441C516.406 813.121 505.096 809.934 494.233 804.361C495.56 810.268 496.874 816.141 497.801 822.127C494.927 823.445 489.664 823.022 486.458 823.074C474 823.276 461.709 822.919 449.329 821.442C440.765 820.421 432.271 818.772 423.703 817.852L420.648 816.564C417.869 813.224 414.414 810.21 411.324 807.142C402.553 810.509 393.835 813.268 384.562 814.938C381.039 806.815 376.243 799.179 372.146 791.325C365.195 778.002 358.75 763.753 353.845 749.534Q351.291 742.158 349.234 734.627C348.258 731.029 345.688 717.397 344.373 715.276C344.144 714.907 343.765 714.655 343.461 714.345C343.766 713.276 343.781 713.823 343.326 712.709C344.126 711.755 341.086 693.407 340.786 690.644Q339.453 677.515 339.342 664.319Q339.231 651.123 340.343 637.973Q344.376 640.396 348.369 642.884C350.988 644.113 356.785 647.583 359.664 646.58C360.102 646.428 360.26 646.3 360.622 646.065C358.942 640.931 354.405 635.869 351.861 630.963L350.995 629.309C350.93 616.762 353.411 605.469 356.562 593.423L356.427 593.159C360.086 578.546 364.896 564.266 369.495 549.931L369.397 549.501Z"/>
	<path fill="#F5D2A3" transform="scale(0.504883 0.504883)" d="M544.083 628.016C547.247 632.588 548.971 636.694 550.666 641.988C549.652 643.114 548.594 644.042 548.322 645.593L548.153 645.665C547.565 639.649 544.98 634.023 544.083 628.016Z"/>
	<path fill="#9CA191" transform="scale(0.504883 0.504883)" d="M369.397 549.501C375.082 550.24 380.83 550.402 386.457 551.53C387.526 552.641 388.474 553.599 389.17 555C392.411 556.419 399.688 564.222 403.128 566.966C421.109 581.312 446.788 590.446 469.872 587.758C495.41 584.785 518.719 572.735 534.718 552.588C540.318 552.548 545.951 552.145 551.556 552.022C557.076 562.309 561.031 581.11 562.253 592.788C562.116 592.823 561.977 592.856 561.84 592.894C553.632 595.134 543.2 601.407 534.641 604.611C492.178 620.507 452.504 628.503 407.802 615.216C396.18 611.762 384.802 606.468 373.829 601.317C368.449 598.792 362.305 594.626 356.562 593.423L356.427 593.159C360.086 578.546 364.896 564.266 369.495 549.931L369.397 549.501Z"/>
	<path fill="#8C8278" transform="scale(0.504883 0.504883)" d="M369.397 549.501C375.082 550.24 380.83 550.402 386.457 551.53C387.526 552.641 388.474 553.599 389.17 555C382.256 553.948 376.07 552.313 369.495 549.931L369.397 549.501Z"/>
	<path fill="#F5D2A3" transform="scale(0.504883 0.504883)" d="M364.461 608.051C362.012 616.562 361.944 624.36 361.895 633.147C361.871 637.337 362.056 641.916 361.044 646.004C361.675 656.411 362.638 666.424 366.339 676.265C367.528 679.425 369.265 682.347 370.459 685.504C372.884 691.915 375.08 698.447 377.613 704.807C378.084 701.543 376.337 696.078 375.899 692.662C374.336 680.469 376.101 665.462 381.193 654.212L381.486 653.583C380.408 658.646 379.908 663.45 379.925 668.631C380.011 694.669 390.126 719.229 409.34 736.919C417.064 744.031 425.766 749.889 433.251 757.303C426.385 742.133 427.227 727.059 428.317 710.795C431.666 728.883 438.57 744.706 450.865 758.604C452.342 757.916 453.778 757.1 455.18 756.272C476.525 743.672 487.663 729.932 494.036 705.725Q494.12 710.477 493.761 715.217Q493.401 719.956 492.602 724.642Q491.804 729.328 490.572 733.918Q489.34 738.509 487.686 742.965C493.889 737.466 500.148 731.887 505.634 725.662C520.148 709.193 528.42 691.727 527.431 669.447C527.165 663.468 525.974 657.606 525.592 651.643C533.081 671.37 532.202 693.913 524.815 713.459C543.27 689.347 547.513 675.366 548.153 645.665L548.322 645.593C550.513 647.587 554.407 647.524 557.207 647.572C559.589 647.54 561.822 647.145 564.159 646.734L563.469 652.038C563.521 661.2 562.123 670.6 561.204 679.706L561.837 679.996C567.42 699.696 554.349 745.877 546.964 765.684C540.65 782.62 532.535 798.827 528.067 816.441C516.406 813.121 505.096 809.934 494.233 804.361C495.56 810.268 496.874 816.141 497.801 822.127C494.927 823.445 489.664 823.022 486.458 823.074C474 823.276 461.709 822.919 449.329 821.442C440.765 820.421 432.271 818.772 423.703 817.852L420.648 816.564C417.869 813.224 414.414 810.21 411.324 807.142C402.553 810.509 393.835 813.268 384.562 814.938C381.039 806.815 376.243 799.179 372.146 791.325C365.195 778.002 358.75 763.753 353.845 749.534Q351.291 742.158 349.234 734.627C348.258 731.029 345.688 717.397 344.373 715.276C344.144 714.907 343.765 714.655 343.461 714.345C343.766 713.276 343.781 713.823 343.326 712.709C344.126 711.755 341.086 693.407 340.786 690.644Q339.453 677.515 339.342 664.319Q339.231 651.123 340.343 637.973Q344.376 640.396 348.369 642.884C350.988 644.113 356.785 647.583 359.664 646.58C360.102 646.428 360.26 646.3 360.622 646.065C358.942 640.931 354.405 635.869 351.861 630.963C355.663 628.015 360.642 614.064 363.804 609.096L364.211 608.441L364.461 608.051Z"/>
	<path fill="#FEFEFE" transform="scale(0.504883 0.504883)" d="M557.207 647.572C559.589 647.54 561.822 647.145 564.159 646.734L563.469 652.038C560.696 651.623 557.778 651.182 555.713 649.128L555.747 648.284L557.207 647.572Z"/>
	<path fill="#CE5504" transform="scale(0.504883 0.504883)" d="M340.343 637.973Q344.376 640.396 348.369 642.884C346.083 708.327 367.638 759.115 411.324 807.142C402.553 810.509 393.835 813.268 384.562 814.938C381.039 806.815 376.243 799.179 372.146 791.325C365.195 778.002 358.75 763.753 353.845 749.534Q351.291 742.158 349.234 734.627C348.258 731.029 345.688 717.397 344.373 715.276C344.144 714.907 343.765 714.655 343.461 714.345C343.766 713.276 343.781 713.823 343.326 712.709C344.126 711.755 341.086 693.407 340.786 690.644Q339.453 677.515 339.342 664.319Q339.231 651.123 340.343 637.973Z"/>
	<path fill="#CE5504" transform="scale(0.504883 0.504883)" d="M561.204 679.706L561.837 679.996C567.42 699.696 554.349 745.877 546.964 765.684C540.65 782.62 532.535 798.827 528.067 816.441C516.406 813.121 505.096 809.934 494.233 804.361C492.256 798.452 490.742 792.298 489.035 786.299C495.564 783.182 501.912 779.839 507.752 775.54C538.561 752.861 555.639 716.838 561.204 679.706Z"/>
	<path fill="#FEFEFE" transform="scale(0.504883 0.504883)" d="M103.291 344.762C107.377 346.216 111.31 347.246 115.625 347.766C142.632 351.019 171.782 337.11 189.724 317.405C192.123 314.77 199.576 303.466 201.263 302.336C201.398 302.245 201.554 302.188 201.699 302.113C198.112 317.356 194.707 332.812 193.604 348.471C193.153 369.272 197.493 394.647 207.138 413.455C209.946 420.023 214.017 427.819 218.664 433.245C230.602 451.683 248.373 468.555 270.079 474.613L270.978 475.003C279.425 478.584 289.307 480.7 298.381 481.653C320.565 483.982 334.617 479.679 351.698 465.383Q357.094 460.863 362.028 455.842Q366.962 450.822 371.388 445.349C377.751 437.421 382.659 426.96 390.519 420.475C395.947 415.995 403.596 413.896 410.043 411.229L412.115 409.869C428.858 398.904 464.609 398.064 483.976 402.199C493.418 404.215 502.582 407.201 509.591 414.095C519.856 413.754 530.144 411.825 538.296 419.519C543.96 424.864 548.126 432.247 552.605 438.602C569.362 462.381 588.196 484.301 619.793 483.87C631.554 483.709 646.353 480.337 656.77 474.861C656.804 474.855 656.84 474.853 656.874 474.845C672.218 471.314 697.589 447.2 706.342 433.632C711.149 428.089 715.032 420.38 718.242 413.857C728.889 396.477 733.945 365.468 735.613 345.344C737.744 335.04 735.164 316.061 733.88 305.415C748.014 325.061 764.553 343.101 789.696 347.304C804.715 349.815 819.221 345.936 832.97 340.107C819.153 355.591 805.715 363.366 785.001 366.116C769.967 367.007 757.171 366.127 742.879 361.126Q743.068 372.128 742.366 383.109Q741.664 394.09 740.075 404.978C739.739 428.204 717.405 473.211 700.889 489.345C697.625 492.533 693.046 495.719 690.241 499.215C666.828 519.754 648.67 527.798 619.148 537.228C614.967 538.805 610.359 540.246 605.983 541.175C588.452 545.598 569.623 548.517 551.564 549.456L551.556 552.022C545.951 552.145 540.318 552.548 534.718 552.588C518.719 572.735 495.41 584.785 469.872 587.758C446.788 590.446 421.109 581.312 403.128 566.966C399.688 564.222 392.411 556.419 389.17 555C388.474 553.599 387.526 552.641 386.457 551.53C380.83 550.402 375.082 550.24 369.397 549.501C357.47 546.211 344.152 543.794 331.999 541.271L331.661 540.947C300.834 532.778 269.765 521.424 244.996 500.751C240.128 496.689 236.268 491.572 231.563 487.333L231.11 486.931C229.248 483.449 225.736 480.59 223.679 477.027Q219.77 472.392 215.986 467.654C197.29 444.068 189.16 416.888 187.243 387.23C186.694 378.74 186.399 369.492 187.393 361.042C175.077 366.449 162.751 367.302 149.474 367.25C129.645 364.007 118.211 358.486 103.291 344.762Z"/>
	<path fill="#080503" transform="scale(0.504883 0.504883)" d="M405.873 419.328C406.577 420.443 407.233 421.683 408.095 422.677L408.915 424.967C411.854 431.271 420.376 433.446 426.055 436.607C436.145 442.223 438.613 455.869 449.655 459.675C456.181 461.925 465.513 461.687 471.707 458.536C478.196 455.234 477.872 446.444 482.727 441.623C489.925 434.475 502.135 435.202 509.103 426.985C510.096 426.9 510.855 426.733 511.811 427.016C511.331 428.409 510.773 429.729 510.044 431.012C502.945 443.51 486.789 455.219 473.811 460.814C469.858 462.517 465.588 463.567 461.445 464.711C461.013 469.195 461.072 473.735 461.014 478.236C464.704 482.291 468.549 486.122 473.22 489.049C485.957 497.031 503.126 497.862 517.464 494.568C533.107 490.974 543.567 481.943 551.984 468.626C550.547 467.425 548.786 466.23 547.546 464.849C546.695 463.902 546.455 463.191 546.488 461.956L547.184 461.597C552.284 462.314 558.569 467.578 562.887 470.361C560.576 470.247 558.54 469.943 556.304 469.345C553.435 475.732 549.783 480.782 544.339 485.232C530.838 496.269 511.588 501.974 494.263 500.156C480.024 498.662 468.969 493.613 459.885 482.476C454.767 488.568 449.061 493.195 441.699 496.338C428.331 502.046 411.655 502.105 398.204 496.617C386.568 491.87 379.761 484.516 374.93 473.083C373.219 473.672 370.667 474.888 368.849 474.449C368.031 474.252 368.083 473.858 367.741 473.174C367.845 472.586 367.935 472.011 368.164 471.455C369.205 468.923 371.837 466.948 374.291 465.929C375.967 465.234 378.199 464.668 379.896 465.555C380.601 465.924 380.382 465.856 380.598 466.72C380.27 467.385 379.963 468.01 379.502 468.595C379.274 468.886 379.034 469.169 378.824 469.473C378.128 470.485 378.118 471.503 378.357 472.671C379.367 477.597 387.004 485.288 391.196 488.19C402.234 495.832 417.251 497.739 430.252 495.4C441.434 493.389 451.237 487.682 457.777 478.285C458.288 473.6 458.319 469.592 457.489 464.936C439.992 461.047 421.33 450.249 410.817 435.454C407.386 430.627 404.836 425.363 405.873 419.328Z"/>
	<path fill="#E5D7C2" transform="scale(0.504883 0.504883)" d="M740.075 404.978C739.739 428.204 717.405 473.211 700.889 489.345C697.625 492.533 693.046 495.719 690.241 499.215C666.828 519.754 648.67 527.798 619.148 537.228C614.967 538.805 610.359 540.246 605.983 541.175C588.452 545.598 569.623 548.517 551.564 549.456L537.385 549.483C541.153 542.633 543.987 536.233 545.643 528.579C548.347 529.545 552.715 528.788 555.625 528.606Q570.085 527.787 584.403 525.602Q598.721 523.417 612.768 519.887C642.817 512.154 663.417 504.04 687.917 484.239C697.31 476.648 706.74 467.494 713.993 457.811C720.152 449.588 725.373 440.391 730.343 431.419C734.662 423.622 735.245 412.503 739.504 405.825C739.687 405.538 739.884 405.26 740.075 404.978Z"/>
	<path fill="#C36461" transform="scale(0.504883 0.504883)" d="M410.043 411.229L412.115 409.869C428.858 398.904 464.609 398.064 483.976 402.199C493.418 404.215 502.582 407.201 509.591 414.095C511.81 418.529 513.563 421.806 511.893 426.797C511.868 426.871 511.838 426.943 511.811 427.016C510.855 426.733 510.096 426.9 509.103 426.985C502.135 435.202 489.925 434.475 482.727 441.623C477.872 446.444 478.196 455.234 471.707 458.536C465.513 461.687 456.181 461.925 449.655 459.675C438.613 455.869 436.145 442.223 426.055 436.607C420.376 433.446 411.854 431.271 408.915 424.967L408.095 422.677C407.233 421.683 406.577 420.443 405.873 419.328C406.617 416.021 407.987 413.848 410.043 411.229Z"/>
	<path fill="#DB6923" transform="scale(0.504883 0.504883)" d="M410.043 411.229L412.115 409.869C428.858 398.904 464.609 398.064 483.976 402.199C493.418 404.215 502.582 407.201 509.591 414.095C511.81 418.529 513.563 421.806 511.893 426.797C511.868 426.871 511.838 426.943 511.811 427.016C510.855 426.733 510.096 426.9 509.103 426.985L509.46 426.166C507.732 425.748 506.772 423.892 505.562 422.6C501.566 418.334 495.369 418.702 489.978 419.548C482.065 420.79 475.248 424.606 467.019 425.051C457.619 425.559 449.455 423.012 440.312 421.751C435.329 421.063 430.256 421.09 425.242 421.342C419.208 421.646 412.68 425.054 408.915 424.967L408.095 422.677C407.233 421.683 406.577 420.443 405.873 419.328C406.617 416.021 407.987 413.848 410.043 411.229Z"/>
	<path fill="#CAB3A6" transform="scale(0.504883 0.504883)" d="M408.095 422.677C409.227 419.228 410.255 417.451 413.603 415.794C428.745 408.299 451.008 421.98 465.668 420.574C470.619 420.099 475.078 417.18 479.655 415.425C485.903 413.029 496.47 413.16 502.677 415.588C505.477 416.683 508.114 418.577 509.255 421.459C509.875 423.023 509.691 424.545 509.46 426.166C507.732 425.748 506.772 423.892 505.562 422.6C501.566 418.334 495.369 418.702 489.978 419.548C482.065 420.79 475.248 424.606 467.019 425.051C457.619 425.559 449.455 423.012 440.312 421.751C435.329 421.063 430.256 421.09 425.242 421.342C419.208 421.646 412.68 425.054 408.915 424.967L408.095 422.677Z"/>
	<path fill="#E5D7C2" transform="scale(0.504883 0.504883)" d="M223.679 477.027C223.957 477.162 224.237 477.293 224.514 477.432C229.111 479.73 233.51 483.424 237.719 486.41Q245.518 491.986 254.12 496.218C284.061 511.04 316.865 515.997 349.485 521.213C360.122 522.913 370.599 525.269 381.419 525.535C387.17 532.831 392.71 540.109 399.611 546.394C413.516 559.059 435.119 568.593 453.756 570.859C477.356 573.727 502.572 565.261 521.005 550.482C524.9 547.359 528.555 543.83 532.023 540.244C535.016 537.15 540.989 528.547 544.441 527.081C545.458 523.659 546.074 518.205 547.828 515.27C548.081 519.522 546.622 524.422 545.643 528.579C543.987 536.233 541.153 542.633 537.385 549.483L551.564 549.456L551.556 552.022C545.951 552.145 540.318 552.548 534.718 552.588C518.719 572.735 495.41 584.785 469.872 587.758C446.788 590.446 421.109 581.312 403.128 566.966C399.688 564.222 392.411 556.419 389.17 555C388.474 553.599 387.526 552.641 386.457 551.53C380.83 550.402 375.082 550.24 369.397 549.501C357.47 546.211 344.152 543.794 331.999 541.271L331.661 540.947C300.834 532.778 269.765 521.424 244.996 500.751C240.128 496.689 236.268 491.572 231.563 487.333L231.11 486.931C229.248 483.449 225.736 480.59 223.679 477.027Z"/>
	<path fill="#A37B6D" transform="scale(0.504883 0.504883)" d="M544.441 527.081C545.458 523.659 546.074 518.205 547.828 515.27C548.081 519.522 546.622 524.422 545.643 528.579C543.987 536.233 541.153 542.633 537.385 549.483L551.564 549.456L551.556 552.022C545.951 552.145 540.318 552.548 534.718 552.588C518.719 572.735 495.41 584.785 469.872 587.758C446.788 590.446 421.109 581.312 403.128 566.966C399.688 564.222 392.411 556.419 389.17 555C388.474 553.599 387.526 552.641 386.457 551.53C384.484 549.139 369.152 530.706 369.13 530.649C374.208 532.443 392.918 554.736 399.063 560.089Q400.992 561.767 403.001 563.349Q405.01 564.931 407.093 566.413Q409.176 567.895 411.329 569.274Q413.482 570.653 415.7 571.926Q417.918 573.199 420.195 574.362Q422.472 575.525 424.802 576.576Q427.133 577.627 429.513 578.563Q431.892 579.5 434.314 580.319C458.117 588.445 481.611 585.497 503.957 574.415C523.925 564.513 537.374 548.187 544.441 527.081Z"/>
	<path fill="#F88B29" transform="scale(0.504883 0.504883)" d="M619.148 537.228C625.331 550.319 632.676 562.927 638.552 576.153C642.67 585.422 645.565 595.034 648.623 604.682C658.598 607.597 668.535 611.45 677.516 616.734C698.271 628.945 720.236 651.643 731.843 672.694C750.144 705.888 759.444 733.152 758.452 771.605C782.658 771.419 811.587 754.802 828.174 737.888Q831.138 734.847 834.026 731.734L834.266 732.699L838.769 727.503C850.622 727.405 865.164 733.543 874.069 741.26C867.548 748.369 858.07 761.314 849.852 765.701L849.838 765.981C848.552 766.769 830.65 780.371 830.164 780.926L829.8 780.339C827.245 784.702 807.164 794.082 801.549 796.091L801.424 796.419C797.922 797.195 794.676 798.866 791.344 800.173C786.606 802.033 781.554 803.511 776.546 804.431C776.018 805.409 775.905 806.215 775.765 807.31C776.29 813.636 776.935 819.984 777.035 826.334C769.006 828.34 760.881 828.846 752.855 830.538L752.414 830.73C750.963 830.832 749.448 830.774 748.352 831.866C746.286 833.924 746.159 838.657 745.739 841.417C743.013 856.287 741.022 876.127 741.443 891.236C742.042 912.708 754.45 938.995 737.983 957.388C719.038 972.785 682.602 971.969 659.128 969.569L657.664 969.414L657.242 970.2C656.87 970.278 656.589 970.359 656.19 970.333C655.124 970.263 654.445 969.94 653.702 969.21C653.218 966.948 654.832 964.235 655.174 961.923L654.593 961.536C655.498 954.261 654.736 948.038 651.521 941.397C651.046 940.148 650.409 938.949 649.754 937.783C644.021 927.575 633.455 920.46 622.348 917.401L613.821 915.791C606.263 915.416 597.738 914.53 590.364 916.391C589.051 916.191 587.745 916.204 586.421 916.191C576.337 916.576 565.564 916.787 555.943 920.133L553.973 920.636C546.411 920.06 527.221 928.708 520.456 932.461C520.756 921.469 521.193 845.186 524.36 841.168Q512.917 837.612 501.883 832.941C502.42 837.714 503.099 842.682 502.971 847.491C502.325 847.733 501.812 847.792 501.36 848.328C500.652 846.464 500.76 843.633 500.574 841.61C499.968 835.128 498.936 828.539 497.801 822.127C496.874 816.141 495.56 810.268 494.233 804.361C505.096 809.934 516.406 813.121 528.067 816.441C532.535 798.827 540.65 782.62 546.964 765.684C554.349 745.877 567.42 699.696 561.837 679.996L561.204 679.706C562.123 670.6 563.521 661.2 563.469 652.038L564.159 646.734C561.822 647.145 559.589 647.54 557.207 647.572C554.407 647.524 550.513 647.587 548.322 645.593C548.594 644.042 549.652 643.114 550.666 641.988C555.203 637.452 559.893 632.968 563.934 627.978C565.044 616.379 563.891 604.3 562.253 592.788C561.031 581.11 557.076 562.309 551.556 552.022L551.564 549.456C569.623 548.517 588.452 545.598 605.983 541.175C610.359 540.246 614.967 538.805 619.148 537.228Z"/>
	<path fill="#FEFEFE" transform="scale(0.504883 0.504883)" d="M658.648 763.757C657.358 779.822 654.201 794.887 649.274 810.214C645.981 819.253 641.659 828.147 636.011 835.974C631.392 842.72 626.711 849.578 620.86 855.333C621.624 851.1 622.56 846.965 623.644 842.803C628.303 827.554 634.442 813.026 641.33 798.663C648.745 788.251 654.203 775.677 658.648 763.757Z"/>
	<path fill="#45130A" transform="scale(0.504883 0.504883)" d="M637.847 603.879C640.829 607.596 648.877 652.485 650.301 660.299C635.943 683.307 611.18 702.657 584.904 709.419C581.23 710.263 577.376 710.66 573.644 711.215C604.575 685.253 625.322 641.377 637.847 603.879Z"/>
	<path fill="#45130A" transform="scale(0.504883 0.504883)" d="M528.067 816.441C528.402 816.545 528.739 816.645 529.081 816.725C558.303 823.518 588.6 820.17 616.637 810.141C624.204 807.434 632.228 804.17 639.1 799.991L641.33 798.663C634.442 813.026 628.303 827.554 623.644 842.803L623.117 842.043L625.104 835.738C594.386 850.247 556.721 850.054 524.36 841.168Q512.917 837.612 501.883 832.941C502.42 837.714 503.099 842.682 502.971 847.491C502.325 847.733 501.812 847.792 501.36 848.328C500.652 846.464 500.76 843.633 500.574 841.61C499.968 835.128 498.936 828.539 497.801 822.127C496.874 816.141 495.56 810.268 494.233 804.361C505.096 809.934 516.406 813.121 528.067 816.441Z"/>
	<path fill="#F88B29" transform="scale(0.504883 0.504883)" d="M524.36 841.168C556.721 850.054 594.386 850.247 625.104 835.738L623.117 842.043C621.466 847.867 621.008 854.39 616.12 858.449C617.436 859.337 617.84 859.416 618.408 860.946L617.837 864.592C617.028 868.958 614.942 877.166 616.601 881.354L617.389 881.672C617.25 892.745 616.849 903.282 618.707 914.26L617.98 914.91C616.571 915.127 615.159 915.277 613.821 915.791C606.263 915.416 597.738 914.53 590.364 916.391C589.051 916.191 587.745 916.204 586.421 916.191C576.337 916.576 565.564 916.787 555.943 920.133L553.973 920.636C546.411 920.06 527.221 928.708 520.456 932.461C520.756 921.469 521.193 845.186 524.36 841.168Z"/>
	<path fill="#45130A" transform="scale(0.504883 0.504883)" d="M616.12 858.449C617.436 859.337 617.84 859.416 618.408 860.946L617.837 864.592C617.028 868.958 614.942 877.166 616.601 881.354L617.389 881.672C617.25 892.745 616.849 903.282 618.707 914.26L617.98 914.91C614.455 908.936 615.621 889.042 616.045 881.283C607.447 885.921 596.877 887.849 587.171 887.593C576.579 887.314 562.908 883.892 555.393 875.901C573.899 876.046 593.301 873.704 609.366 863.888C611.662 862.141 613.879 860.269 616.12 858.449Z"/>
	<path fill="#DB6923" transform="scale(0.504883 0.504883)" d="M649.274 810.214C679.806 819.193 710.119 818.791 740.774 810.813Q740.074 811.562 739.356 812.293Q738.638 813.024 737.903 813.737Q737.167 814.45 736.413 815.145Q735.66 815.84 734.89 816.516Q734.12 817.191 733.333 817.848Q732.546 818.504 731.743 819.141Q730.94 819.778 730.122 820.395Q729.304 821.011 728.47 821.608Q727.637 822.204 726.789 822.779Q725.941 823.355 725.079 823.909Q724.217 824.463 723.342 824.996Q722.467 825.529 721.578 826.04Q720.69 826.551 719.79 827.039Q718.889 827.528 717.976 827.994Q717.064 828.461 716.14 828.904Q715.216 829.347 714.282 829.768Q713.347 830.188 712.403 830.586Q711.458 830.983 710.504 831.356Q709.55 831.73 708.587 832.08Q707.624 832.43 706.652 832.756Q705.681 833.082 704.701 833.384Q703.722 833.685 702.736 833.963Q701.749 834.24 700.756 834.493Q699.763 834.746 698.764 834.974Q697.765 835.202 696.761 835.406Q695.756 835.609 694.747 835.787Q693.738 835.966 692.725 836.119Q691.712 836.272 690.695 836.401Q689.679 836.529 688.659 836.632Q687.64 836.735 686.618 836.813Q685.596 836.89 684.573 836.943Q683.549 836.995 682.525 837.022Q681.347 837.051 680.168 837.046C697.098 845.459 713.768 848.675 731.993 842.493Q739.133 840.021 745.843 836.549C745.409 838.154 744.857 839.796 744.539 841.423L745.739 841.417C743.013 856.287 741.022 876.127 741.443 891.236C742.042 912.708 754.45 938.995 737.983 957.388C719.038 972.785 682.602 971.969 659.128 969.569L657.664 969.414L657.242 970.2C656.87 970.278 656.589 970.359 656.19 970.333C655.124 970.263 654.445 969.94 653.702 969.21C653.218 966.948 654.832 964.235 655.174 961.923L654.593 961.536C655.498 954.261 654.736 948.038 651.521 941.397C651.046 940.148 650.409 938.949 649.754 937.783C644.021 927.575 633.455 920.46 622.348 917.401L613.821 915.791C615.159 915.277 616.571 915.127 617.98 914.91L618.707 914.26C616.849 903.282 617.25 892.745 617.389 881.672L616.601 881.354C614.942 877.166 617.028 868.958 617.837 864.592L618.408 860.946C617.84 859.416 617.436 859.337 616.12 858.449C621.008 854.39 621.466 847.867 623.117 842.043L623.644 842.803C622.56 846.965 621.624 851.1 620.86 855.333C626.711 849.578 631.392 842.72 636.011 835.974C641.659 828.147 645.981 819.253 649.274 810.214Z"/>
	<path fill="#2F0A03" transform="scale(0.504883 0.504883)" d="M744.539 841.423L745.739 841.417C743.013 856.287 741.022 876.127 741.443 891.236C742.042 912.708 754.45 938.995 737.983 957.388C736.482 957.425 734.999 957.344 733.501 957.266C735.152 956.215 736.993 955.08 738.392 953.701C750.167 942.083 743.205 918.101 741.179 903.952C740.224 897.276 739.643 890.739 739.919 883.987C737.286 885.294 734.646 886.649 731.941 887.801C718.062 893.708 706.422 891.655 692.832 886.111C711.771 881.055 727.488 875.989 741.314 861.193C742.131 854.551 743.024 847.947 744.539 841.423Z"/>
	<path fill="#45130A" transform="scale(0.504883 0.504883)" d="M620.86 855.333C626.711 849.578 631.392 842.72 636.011 835.974C635.951 838.393 635.992 840.837 635.548 843.222C635.571 844.73 635.324 845.214 636.364 846.36C642.267 848.262 648.458 849.426 654.489 850.855C670.552 854.663 686.545 858.378 703.171 857.99C711.1 857.805 718.814 856.245 726.684 855.776C720.98 859.904 715.311 863.793 708.939 866.856C690.817 875.568 665.966 880.092 645.874 881.54Q646.146 892.682 645.804 903.822C664.056 899.469 689.169 901.797 705.323 911.812C716.271 918.599 727.233 929.213 730.251 942.159C731.5 947.517 731.605 953.219 730.189 958.551L728.72 958.821C730.695 952.617 730.198 945.61 728.021 939.518C723.562 927.044 710.822 916.291 699.069 910.922C679.94 902.182 657.001 901.01 637.381 908.395C634.666 909.696 628.082 912.1 626.517 914.731L626.912 915.385C625.403 916.337 623.79 916.286 622.348 917.401L613.821 915.791C615.159 915.277 616.571 915.127 617.98 914.91L618.707 914.26C616.849 903.282 617.25 892.745 617.389 881.672L616.601 881.354C614.942 877.166 617.028 868.958 617.837 864.592L618.408 860.946C617.84 859.416 617.436 859.337 616.12 858.449C621.008 854.39 621.466 847.867 623.117 842.043L623.644 842.803C622.56 846.965 621.624 851.1 620.86 855.333Z"/>
	<path fill="#9CA191" transform="scale(0.504883 0.504883)" d="M633.715 842.587C635.237 852.321 637.095 862.987 637.349 872.828C637.625 883.527 636.405 894.274 636.483 904.989C636.738 906.116 636.907 907.342 637.381 908.395C634.666 909.696 628.082 912.1 626.517 914.731L626.912 915.385C625.403 916.337 623.79 916.286 622.348 917.401L613.821 915.791C615.159 915.277 616.571 915.127 617.98 914.91L618.707 914.26C616.849 903.282 617.25 892.745 617.389 881.672C618.442 870.537 617.854 863.445 625.168 854.105C627.976 850.519 631.011 847.025 633.389 843.135C633.5 842.954 633.606 842.77 633.715 842.587Z"/>
	<path fill="#791601" transform="scale(0.504883 0.504883)" d="M618.707 914.26C619.794 914.182 633.016 906.294 636.483 904.989C636.738 906.116 636.907 907.342 637.381 908.395C634.666 909.696 628.082 912.1 626.517 914.731L626.912 915.385C625.403 916.337 623.79 916.286 622.348 917.401L613.821 915.791C615.159 915.277 616.571 915.127 617.98 914.91L618.707 914.26Z"/>
	<path fill="#E5D7C2" transform="scale(0.504883 0.504883)" d="M637.381 908.395C657.001 901.01 679.94 902.182 699.069 910.922C710.822 916.291 723.562 927.044 728.021 939.518C730.198 945.61 730.695 952.617 728.72 958.821L730.189 958.551C731.279 958.023 732.355 957.649 733.501 957.266C734.999 957.344 736.482 957.425 737.983 957.388C719.038 972.785 682.602 971.969 659.128 969.569L657.664 969.414L657.242 970.2C656.87 970.278 656.589 970.359 656.19 970.333C655.124 970.263 654.445 969.94 653.702 969.21C653.218 966.948 654.832 964.235 655.174 961.923L654.593 961.536C655.498 954.261 654.736 948.038 651.521 941.397C651.046 940.148 650.409 938.949 649.754 937.783C644.021 927.575 633.455 920.46 622.348 917.401C623.79 916.286 625.403 916.337 626.912 915.385L626.517 914.731C628.082 912.1 634.666 909.696 637.381 908.395Z"/>
	<path fill="#8D2304" transform="scale(0.504883 0.504883)" d="M626.912 915.385C636.711 916.807 647.089 925.281 652.858 932.991C658.573 940.629 661.538 950.251 660.207 959.79C659.993 961.323 659.661 962.905 659.119 964.357C667.424 965.857 676.311 965.899 684.738 965.965C681.066 952.329 681.362 938.041 688.625 925.57C690.93 921.612 693.635 918.39 697.057 915.364C689.783 927.684 684.651 944.193 688.357 958.507C689.017 961.057 690.001 963.493 690.995 965.928C704.051 965.003 716.285 963.044 728.72 958.821L730.189 958.551C731.279 958.023 732.355 957.649 733.501 957.266C734.999 957.344 736.482 957.425 737.983 957.388C719.038 972.785 682.602 971.969 659.128 969.569L657.664 969.414L657.242 970.2C656.87 970.278 656.589 970.359 656.19 970.333C655.124 970.263 654.445 969.94 653.702 969.21C653.218 966.948 654.832 964.235 655.174 961.923L654.593 961.536C655.498 954.261 654.736 948.038 651.521 941.397C651.046 940.148 650.409 938.949 649.754 937.783C644.021 927.575 633.455 920.46 622.348 917.401C623.79 916.286 625.403 916.337 626.912 915.385Z"/>
	<path fill="#45130A" transform="scale(0.504883 0.504883)" d="M619.148 537.228C625.331 550.319 632.676 562.927 638.552 576.153C642.67 585.422 645.565 595.034 648.623 604.682C658.598 607.597 668.535 611.45 677.516 616.734C698.271 628.945 720.236 651.643 731.843 672.694C750.144 705.888 759.444 733.152 758.452 771.605C782.658 771.419 811.587 754.802 828.174 737.888Q831.138 734.847 834.026 731.734L834.266 732.699L838.769 727.503C850.622 727.405 865.164 733.543 874.069 741.26C867.548 748.369 858.07 761.314 849.852 765.701L849.838 765.981C848.552 766.769 830.65 780.371 830.164 780.926L829.8 780.339C827.245 784.702 807.164 794.082 801.549 796.091L801.424 796.419C797.922 797.195 794.676 798.866 791.344 800.173C786.606 802.033 781.554 803.511 776.546 804.431C776.018 805.409 775.905 806.215 775.765 807.31C776.29 813.636 776.935 819.984 777.035 826.334C769.006 828.34 760.881 828.846 752.855 830.538L752.414 830.73C750.963 830.832 749.448 830.774 748.352 831.866C746.286 833.924 746.159 838.657 745.739 841.417L744.539 841.423C744.857 839.796 745.409 838.154 745.843 836.549Q739.133 840.021 731.993 842.493C713.768 848.675 697.098 845.459 680.168 837.046Q681.347 837.051 682.525 837.022Q683.549 836.995 684.573 836.943Q685.596 836.89 686.618 836.813Q687.64 836.735 688.659 836.632Q689.679 836.529 690.695 836.401Q691.712 836.273 692.725 836.119Q693.738 835.966 694.747 835.787Q695.756 835.609 696.761 835.406Q697.765 835.202 698.764 834.974Q699.763 834.746 700.756 834.493Q701.749 834.24 702.736 833.963Q703.722 833.685 704.701 833.383Q705.681 833.082 706.652 832.756Q707.624 832.43 708.587 832.08Q709.55 831.73 710.504 831.356Q711.458 830.983 712.403 830.586Q713.347 830.188 714.282 829.768Q715.216 829.347 716.14 828.904Q717.064 828.461 717.976 827.994Q718.889 827.528 719.79 827.039Q720.69 826.551 721.579 826.04Q722.467 825.529 723.342 824.996Q724.218 824.463 725.079 823.909Q725.941 823.355 726.789 822.779Q727.637 822.204 728.47 821.608Q729.304 821.011 730.122 820.395Q730.94 819.778 731.743 819.141Q732.546 818.504 733.333 817.848Q734.12 817.191 734.89 816.516Q735.66 815.84 736.413 815.145Q737.167 814.45 737.903 813.737Q738.638 813.024 739.356 812.293Q740.074 811.562 740.774 810.813C744.846 808.897 748.813 806.075 752.787 803.872C754.2 796.397 755.25 788.909 756.516 781.418C756.413 779.38 756.789 777.239 757.002 775.209C752.185 778.352 747.393 781.511 742.24 784.089C723.74 793.342 704.827 793.452 685.526 786.975Q688.963 785.952 692.37 784.833C718.555 776.02 741.523 753.878 753.611 729.324C748.584 712.7 742.958 695.796 734.616 680.499C733.399 694.652 730.792 706.347 724.168 719.093C713.671 739.289 698.893 751.273 677.315 758.064L678.118 756.81C703.72 716.725 708.132 679.516 698.096 633.989C692.344 628.225 685.212 623.204 678.49 618.634C676.026 638.847 671.575 647.654 659.994 664.145C661.524 690.263 664.629 715.805 662.944 742.039C652.785 755.711 634.718 769.273 618.873 775.559C601.096 782.612 583.228 781.591 565.815 774.077C574.657 771.045 583.115 768.442 591.418 764.012C615.382 751.226 647.894 720.683 660.951 697.221C661.012 689.632 659.908 681.759 659.253 674.197C656.054 637.233 648.691 601.474 633.599 567.413C631.375 576.948 626.377 586.327 621.531 594.787C608.743 617.113 589.855 639.718 564.159 646.734C561.822 647.145 559.589 647.54 557.207 647.572C554.407 647.524 550.513 647.587 548.322 645.593C548.594 644.042 549.652 643.114 550.666 641.988C555.203 637.452 559.893 632.968 563.934 627.978C565.044 616.379 563.891 604.3 562.253 592.788C561.031 581.11 557.076 562.309 551.556 552.022L551.564 549.456C569.623 548.517 588.452 545.598 605.983 541.175C610.359 540.246 614.967 538.805 619.148 537.228Z"/>
	<path fill="#F88B29" transform="scale(0.504883 0.504883)" d="M757.798 783.398L757.854 782.935C758.106 780.769 757.805 773.77 759.097 772.578C759.874 771.861 760.99 771.426 762.041 771.663C765.05 772.341 767.189 776.875 768.446 779.44C772.307 787.322 774.589 795.568 775.511 804.282C770.809 805.026 757.878 808.072 753.701 806.588C754.651 798.81 756.954 791.243 757.798 783.398Z"/>
	<path fill="#CE5504" transform="scale(0.504883 0.504883)" d="M753.701 806.588C757.878 808.072 770.809 805.026 775.511 804.282L775.765 807.31C776.29 813.636 776.935 819.984 777.035 826.334C769.006 828.34 760.881 828.846 752.855 830.538L752.414 830.73C751.269 830.72 750.124 830.652 748.98 830.604L748.497 829.979C750.678 822.144 752.388 814.618 753.701 806.588Z"/>
	<path fill="#F88B29" transform="scale(0.504883 0.504883)" d="M562.253 592.788C571.341 591.356 587.024 576.686 596.753 573.982C590.225 592.653 577.93 613.914 563.934 627.978C565.044 616.379 563.891 604.3 562.253 592.788Z"/>
	<path fill="#F88B29" transform="scale(0.504883 0.504883)" d="M806.816 756.357C816.476 761.821 825.053 770.269 829.8 780.339C827.245 784.702 807.164 794.082 801.549 796.091C798.913 784.756 794.802 775.765 788.959 765.786C795.14 763.164 801.024 759.734 806.816 756.357Z"/>
	<path fill="#F88B29" transform="scale(0.504883 0.504883)" d="M838.769 727.503C850.622 727.405 865.164 733.543 874.069 741.26C867.548 748.369 858.07 761.314 849.852 765.701C842.479 754.764 834.968 749.231 822.481 745.068C826.484 740.937 830.578 737.145 834.266 732.699L838.769 727.503Z"/>
	<path fill="#B24203" transform="scale(0.504883 0.504883)" d="M551.564 549.456C569.623 548.517 588.452 545.598 605.983 541.175C602.62 552.049 600.443 563.166 596.753 573.982C587.024 576.686 571.341 591.356 562.253 592.788C561.031 581.11 557.076 562.309 551.556 552.022L551.564 549.456Z"/>
	<path fill="#F88B29" transform="scale(0.504883 0.504883)" d="M325.582 120.409C331.216 117.356 336.536 113.748 342.206 110.729C366.439 97.8257 390.815 89.3985 417.801 84.3103C476.045 73.328 545.089 81.1222 597.642 109.231C602.75 111.964 608.206 114.557 612.984 117.824C614.738 119.078 616.419 120.292 618.353 121.263L618.952 121.764C621.693 124.014 624.998 125.849 627.955 127.82Q635.419 132.817 642.475 138.376C653.008 146.812 661.853 156.583 671.588 165.833C678.33 171.317 684.226 180.228 689.144 187.436C700.86 204.063 710.498 221.609 717.469 240.761C720.34 248.646 722.249 257.285 725.524 264.939C727.441 274.279 730.184 283.446 731.772 292.866C732.389 297.007 732.773 301.38 733.88 305.415C735.164 316.061 737.744 335.04 735.613 345.344C733.945 365.468 728.889 396.477 718.242 413.857C715.032 420.38 711.149 428.089 706.342 433.632C697.589 447.2 672.218 471.314 656.874 474.845C656.84 474.853 656.804 474.855 656.77 474.861C646.353 480.337 631.554 483.709 619.793 483.87C588.196 484.301 569.362 462.381 552.605 438.602C548.126 432.247 543.96 424.864 538.296 419.519C530.144 411.825 519.856 413.754 509.591 414.095C502.582 407.201 493.418 404.215 483.976 402.199C464.609 398.064 428.858 398.904 412.115 409.869L410.043 411.229C403.596 413.896 395.947 415.995 390.519 420.475C382.659 426.96 377.751 437.421 371.388 445.349Q366.962 450.822 362.028 455.842Q357.094 460.863 351.698 465.383C334.617 479.679 320.565 483.982 298.381 481.653C289.307 480.7 279.425 478.584 270.978 475.003L270.079 474.613C248.373 468.555 230.602 451.683 218.664 433.245C214.017 427.819 209.946 420.023 207.138 413.455C197.493 394.647 193.153 369.272 193.604 348.471C194.707 332.812 198.112 317.356 201.699 302.113C202.722 298.18 203.921 294.278 205.042 290.371C207.543 282.076 209.662 271.349 214.315 264.068L214.233 262.522C215.706 256.967 218.497 251.567 220.89 246.359Q225.046 237.182 229.75 228.273Q234.454 219.365 239.689 210.757Q244.923 202.15 250.669 193.875Q256.415 185.6 262.652 177.688C266.905 172.575 271.187 167.577 275.687 162.677C280.996 159.201 290.021 148.634 295.364 143.644C304.657 134.962 315.022 127.455 325.582 120.409Z"/>
	<path fill="#080503" transform="scale(0.504883 0.504883)" d="M315.55 189.6C317.62 189.426 320.006 189.208 322.06 189.54C326.176 190.204 330.591 192.856 332.971 196.3C334.224 198.113 334.843 200.154 334.367 202.337C333.984 204.095 333.03 206.239 331.531 207.319C326.396 211.015 317.88 212.117 311.829 214.012C303.109 216.742 294.419 219.973 286.654 224.838C282.454 227.595 278.62 230.784 274.827 234.065C276.429 228.186 278.245 222.556 281.348 217.271C289.002 204.232 300.756 193.468 315.55 189.6Z"/>
	<path fill="#080503" transform="scale(0.504883 0.504883)" d="M598.031 189.123C603.089 188.751 607.558 188.958 612.406 190.548C624.566 194.535 635.495 203.613 641.205 215.106C642.547 217.807 644.917 223.118 643.694 226.005C643.409 226.678 642.962 226.644 642.335 226.882C639.774 226.462 637.444 225.107 635.123 223.987C627.128 220.104 618.688 216.05 610.033 213.861C604.279 212.406 598.014 211.949 592.46 209.859C590.119 208.979 587.632 207.698 586.711 205.204C586.027 203.352 586.502 201.237 587.235 199.476C589.316 194.482 593.14 191.159 598.031 189.123Z"/>
	<path fill="#FEFEFE" transform="scale(0.504883 0.504883)" d="M651.287 367.015C654.655 363.869 671.461 339.827 672.532 339.702C673.505 339.59 675.275 340.047 676.304 340.165C680.99 340.703 685.315 340.993 689.955 339.891C690.141 339.847 690.327 339.799 690.513 339.753C683.079 361.863 657.688 384.887 637.194 395.044C617.48 404.813 591.397 408.645 570.298 401.347Q567.852 400.481 565.46 399.475Q563.068 398.47 560.738 397.327Q558.408 396.185 556.148 394.91Q553.888 393.634 551.705 392.231Q549.523 390.827 547.425 389.3Q545.327 387.772 543.321 386.126Q541.315 384.48 539.408 382.72Q537.5 380.961 535.698 379.094C536.415 378.922 536.736 378.632 537.391 379.032C539.623 380.393 541.562 382.106 543.778 383.483C552.966 389.191 565.245 395.566 576.132 396.489C583.572 398.171 590.586 398.84 598.205 398.372Q601.829 398.414 605.425 397.967Q609.021 397.52 612.524 396.592C626.551 392.916 636.031 384.775 645.382 374.063C647.341 371.819 649.767 369.58 651.287 367.015Z"/>
	<path fill="#FEFEFE" transform="scale(0.504883 0.504883)" d="M225.185 332.644L225.801 333.039C238.272 340.925 243.532 339.972 254.354 352C262.558 359.693 278.13 371.136 288.276 376.116C301.11 389.074 314.776 397.55 333.574 397.634C347.778 397.698 360.273 391.966 371.909 384.26C380.07 381.821 384.39 375.251 391.155 370.916C392.294 370.186 392.398 370.301 393.634 370.63C382.139 382.351 370.639 394.332 354.925 400.254C333.329 408.394 308.085 403.595 287.665 394.228C261.535 382.242 235.329 360.183 225.185 332.644Z"/>
	<path fill="#45130A" transform="scale(0.504883 0.504883)" d="M218.664 433.245C227.603 437.177 237.344 439.612 246.928 441.421C282.948 448.22 308.863 441.383 342.324 429.236C327.466 446.383 309.119 460.874 287.818 469.139C282.002 471.396 276.05 472.873 270.079 474.613C248.373 468.555 230.602 451.683 218.664 433.245Z"/>
	<path fill="#DB6923" transform="scale(0.504883 0.504883)" d="M214.315 264.068C214.296 267.922 209.974 277.167 208.627 281.349Q206.01 289.32 203.971 297.459L204.213 297.415C205.69 293.9 206.806 290.631 207.948 287.019Q211.12 277.176 214.895 267.547Q218.669 257.918 223.031 248.541Q227.393 239.164 232.325 230.074Q237.258 220.985 242.743 212.217C244.755 209.063 247.343 203.688 250.697 201.958C231.916 230.359 218.899 255.967 208.432 288.567C206.509 294.556 203.153 300.666 204.583 307.067C205.572 311.495 207.611 315.874 209.234 320.104C211.269 325.406 213.153 330.679 215.673 335.782C225.55 355.785 240.883 375.028 257.059 390.371C260.775 393.895 279.05 407.625 280.181 410.804Q273.068 409.312 266.096 407.258C236.2 398.195 208.44 375.97 193.604 348.471C194.707 332.812 198.112 317.356 201.699 302.113C202.722 298.18 203.921 294.278 205.042 290.371C207.543 282.076 209.662 271.349 214.315 264.068Z"/>
	<path fill="#45130A" transform="scale(0.504883 0.504883)" d="M574.328 416.627C584.947 427.841 600.505 434.31 615.099 438.516C639.08 445.428 666.676 445.292 690.846 439.103C696.108 437.756 701.566 436.275 706.342 433.632C697.589 447.2 672.218 471.314 656.874 474.845C656.84 474.853 656.804 474.855 656.77 474.861C652.283 472.833 643.576 471.454 638.257 469.807C618.358 463.643 603.556 452.447 589.655 437.3C583.718 430.831 578.449 424.428 574.328 416.627Z"/>
	<path fill="#45130A" transform="scale(0.504883 0.504883)" d="M193.604 348.471C208.44 375.97 236.2 398.195 266.096 407.258Q273.068 409.312 280.181 410.804C290.722 413.026 301.368 414.834 312.151 415.238C307.676 417.008 302.809 418.06 298.153 419.282C275.772 425.158 252.644 427.392 229.912 421.704C221.918 419.703 214.86 416.058 207.138 413.455C197.493 394.647 193.153 369.272 193.604 348.471Z"/>
	<path fill="#45130A" transform="scale(0.504883 0.504883)" d="M733.124 347.228L735.613 345.344C733.945 365.468 728.889 396.477 718.242 413.857Q710.074 417.535 701.5 420.129C668.203 429.916 623.655 428.761 592.829 411.917C617.181 418.233 653.529 410.202 675.84 399.923C696.913 390.214 724.704 369.855 733.124 347.228Z"/>
	<path fill="#CE5504" transform="scale(0.504883 0.504883)" d="M325.582 120.409C331.216 117.356 336.536 113.748 342.206 110.729C366.439 97.8257 390.815 89.3985 417.801 84.3103C476.045 73.328 545.089 81.1222 597.642 109.231C602.75 111.964 608.206 114.557 612.984 117.824C614.738 119.078 616.419 120.292 618.353 121.263L618.952 121.764C621.693 124.014 624.998 125.849 627.955 127.82Q635.419 132.817 642.475 138.376C653.008 146.812 661.853 156.583 671.588 165.833C678.33 171.317 684.226 180.228 689.144 187.436C700.86 204.063 710.498 221.609 717.469 240.761C720.34 248.646 722.249 257.285 725.524 264.939C727.441 274.279 730.184 283.446 731.772 292.866C732.389 297.007 732.773 301.38 733.88 305.415C735.164 316.061 737.744 335.04 735.613 345.344L733.124 347.228C730.159 307.236 722.477 267.584 705.829 230.916C693.896 204.632 678.718 179.413 657.884 159.149C650.309 151.782 641.865 145.113 633.536 138.625C614.139 123.515 597.956 113.695 574.874 105.07C548.669 95.2777 527.739 90.7079 500.08 87.2173C496.872 86.8125 489.947 85.1316 487.199 86.3843L486.229 85.6867C480.831 85.2547 462.981 83.6012 458.711 85.9959C415.28 85.9806 364.344 102.075 327.942 125.562C311.823 135.962 296.736 148.975 283.175 162.499C270.986 174.657 260.419 187.78 250.697 201.958C247.343 203.688 244.755 209.063 242.743 212.217Q237.258 220.985 232.325 230.074Q227.393 239.164 223.031 248.541Q218.669 257.918 214.895 267.547Q211.12 277.176 207.948 287.019C206.806 290.631 205.69 293.9 204.213 297.415L203.971 297.459Q206.01 289.32 208.627 281.349C209.974 277.167 214.296 267.922 214.315 264.068L214.233 262.522C215.706 256.967 218.497 251.567 220.89 246.359Q225.046 237.182 229.75 228.273Q234.454 219.365 239.689 210.757Q244.923 202.15 250.669 193.875Q256.415 185.6 262.652 177.688C266.905 172.575 271.187 167.577 275.687 162.677C280.996 159.201 290.021 148.634 295.364 143.644C304.657 134.962 315.022 127.455 325.582 120.409Z"/>
	<path fill="#FEFEFE" transform="scale(0.504883 0.504883)" d="M231.91 333.383C234.674 320.13 237.668 306.351 241.87 293.484C248.55 273.028 262.517 242.872 280.747 230.969C295.046 221.634 312.166 214.733 329.408 218.467C349.648 222.85 364.068 238.764 374.747 255.557C392.05 282.767 398.839 314.903 398.661 346.837C398.623 353.647 398.786 361.043 397.465 367.733C397.282 368.658 397.332 368.383 396.775 369.289C396.585 367.834 396.454 366.437 396.407 364.972L395.928 364.677C397.073 347.486 388.611 317.031 380.669 302.521C380.292 300.946 379.023 299.21 378.192 297.817C372.831 288.827 365.645 280.72 356.809 275.029C346.063 268.109 330.001 263.725 317.293 266.457C300.477 268.147 284.919 278.371 274.377 291.201C260.141 308.526 252.638 329.632 254.354 352C243.532 339.972 238.272 340.925 225.801 333.039L225.185 332.644L223.65 331.178L223.878 330.725C226.705 331.184 229.096 332.852 231.91 333.383Z"/>
	<path fill="#080503" transform="scale(0.504883 0.504883)" d="M246.767 333.729C248.419 328.309 249.664 322.77 251.529 317.417C258.738 296.727 270.827 275.499 290.769 264.939C306.536 256.59 325.205 254.006 342.372 259.317C360.542 264.938 375.128 281.451 383.709 297.847C392.618 314.871 398.744 345.523 396.407 364.972L395.928 364.677C397.073 347.486 388.611 317.031 380.669 302.521C380.292 300.946 379.023 299.21 378.192 297.817C372.831 288.827 365.645 280.72 356.809 275.029C346.063 268.109 330.001 263.725 317.293 266.457C300.477 268.147 284.919 278.371 274.377 291.201C260.141 308.526 252.638 329.632 254.354 352C243.532 339.972 238.272 340.925 225.801 333.039L225.185 332.644L223.65 331.178L223.878 330.725C226.705 331.184 229.096 332.852 231.91 333.383C237.133 334.243 241.296 334.752 246.515 333.772C246.599 333.756 246.683 333.743 246.767 333.729Z"/>
	<path fill="#FEFEFE" transform="scale(0.504883 0.504883)" d="M523.793 362.029C523.236 361.179 522.981 360.174 522.771 359.189C515.203 323.645 526.903 284.401 546.346 254.347C556.872 238.077 571.68 221.983 591.462 217.887C603.71 215.351 615.973 216.608 627.166 222.263C657.134 237.403 668.666 277.097 678.524 306.835C681.207 314.928 683.518 324.946 688.321 332.01C689.597 333.886 691.101 335.158 692.991 336.379C693.547 336.739 694.093 337.108 694.639 337.482L694.324 337.927C692.287 338.478 690.285 338.544 688.19 338.657L690.562 339.068C690.56 339.297 690.632 339.557 690.513 339.753C690.327 339.799 690.141 339.847 689.955 339.891C685.315 340.993 680.99 340.703 676.304 340.165C675.275 340.047 673.505 339.59 672.532 339.702C671.461 339.827 654.655 363.869 651.287 367.015C649.767 369.58 647.341 371.819 645.382 374.063C636.031 384.775 626.551 392.916 612.524 396.592Q609.021 397.52 605.425 397.967Q601.829 398.414 598.205 398.372C609.446 395.447 620.3 387.553 628.164 379.186C639.604 367.014 645.02 351.63 644.39 335.009C644.076 326.73 640.674 302.654 634.63 297.042C630.547 287.094 612.82 275.04 602.921 271.303C599.737 270.101 596.074 270.271 593.084 268.959L593.4 268.037C581.966 267.279 568.067 273.5 559.559 280.864C558.989 281.356 558.49 281.837 557.978 282.389C554.078 285.567 548.562 290.087 546.264 294.569C531.261 311.881 526.144 339.641 524.865 361.972L523.793 362.029Z"/>
	<path fill="#080503" transform="scale(0.504883 0.504883)" d="M523.793 362.029C524.321 357.677 523.807 353.003 523.895 348.591C524.05 340.773 525.25 332.617 527.031 325.007C532.052 303.562 543.846 281.976 563.045 270.187C578.254 260.847 597.493 256.978 614.95 261.225C635.643 266.259 649.953 280.818 659.016 299.507C663.099 307.926 666.369 316.78 671.322 324.756C675.125 330.881 680.313 336.936 687.656 338.546C687.833 338.585 688.012 338.62 688.19 338.657L690.562 339.068C690.56 339.297 690.632 339.557 690.513 339.753C690.327 339.799 690.141 339.847 689.955 339.891C685.315 340.993 680.99 340.703 676.304 340.165C675.275 340.047 673.505 339.59 672.532 339.702C671.461 339.827 654.655 363.869 651.287 367.015C649.767 369.58 647.341 371.819 645.382 374.063C636.031 384.775 626.551 392.916 612.524 396.592Q609.021 397.52 605.425 397.967Q601.829 398.414 598.205 398.372C609.446 395.447 620.3 387.553 628.164 379.186C639.604 367.014 645.02 351.63 644.39 335.009C644.076 326.73 640.674 302.654 634.63 297.042C630.547 287.094 612.82 275.04 602.921 271.303C599.737 270.101 596.074 270.271 593.084 268.959L593.4 268.037C581.966 267.279 568.067 273.5 559.559 280.864C558.989 281.356 558.49 281.837 557.978 282.389C554.078 285.567 548.562 290.087 546.264 294.569C531.261 311.881 526.144 339.641 524.865 361.972L523.793 362.029Z"/>
	<path fill="#F6DB65" transform="scale(0.504883 0.504883)" d="M593.4 268.037C611.348 267.913 626.893 272.742 639.833 285.626C652.525 298.264 660.351 316.308 660.305 334.248C660.281 343.255 658.569 350.71 654.94 358.942C653.813 361.499 652.027 364.356 651.287 367.015C649.767 369.58 647.341 371.819 645.382 374.063C636.031 384.775 626.551 392.916 612.524 396.592Q609.021 397.52 605.425 397.967Q601.829 398.414 598.205 398.372C609.446 395.447 620.3 387.553 628.164 379.186C639.604 367.014 645.02 351.63 644.39 335.009C644.076 326.73 640.674 302.654 634.63 297.042C630.547 287.094 612.82 275.04 602.921 271.303C599.737 270.101 596.074 270.271 593.084 268.959L593.4 268.037Z"/>
	<path fill="#45130A" transform="scale(0.504883 0.504883)" d="M458.711 85.9959C462.981 83.6012 480.831 85.2547 486.229 85.6867L487.199 86.3843L485.741 93.0358C495.274 94.6726 504.642 96.5112 513.866 99.4913C540.232 108.009 567.537 125.072 583.809 147.752C557.269 124.474 517.402 114.051 482.518 115.148C481.191 120.459 480.421 125.93 479.504 131.326C488.914 132.09 498.16 134.039 507.281 136.418C539.639 144.858 561.856 160.329 584.937 183.821C562.501 169.338 531.599 159.489 504.993 156.824C495.096 155.832 485.158 155.968 475.225 155.966Q474.158 166.666 472.289 177.255C480.63 178.569 488.628 179.985 496.632 182.799C518.794 190.591 530.009 201.105 540.127 222.206C538.575 220.232 537.035 218.136 535.267 216.352C518.99 199.928 490.476 199.996 468.908 199.983C467.237 208.407 466.032 216.98 464.646 225.459C463.091 234.977 461.301 244.522 460.601 254.15C459.386 248.712 458.887 243.073 457.981 237.573C455.911 225.004 453.866 212.684 452.47 200.009C446.807 199.235 440.772 199.306 435.058 199.454C415.244 199.971 397.872 203.385 383.797 218.165C386.246 212.439 389.463 206.736 393.455 201.936C407.256 185.341 430.432 179.297 451.053 177.392C451.061 170.26 450.701 163.104 450.485 155.974C417.319 155.231 383.998 158.581 353.537 172.83C348.873 175.012 344.449 177.708 339.959 180.223C367.824 154.47 394.489 136.802 433.048 132.194C439.453 131.429 445.999 131.3 452.443 130.994C453.385 125.088 453.598 118.883 454.082 112.915C416.537 112.454 378.83 124.199 347.136 144.01C353.868 136.862 362.385 130.706 370.371 125.018C399.467 104.295 422.079 95.8296 457.841 92.5448L458.711 85.9959Z"/>
	<path fill="#080503" transform="scale(0.504883 0.504883)" d="M557.978 282.389C558.49 281.837 558.989 281.356 559.559 280.864C568.067 273.5 581.966 267.279 593.4 268.037L593.084 268.959C596.074 270.271 599.737 270.101 602.921 271.303C612.82 275.04 630.547 287.094 634.63 297.042C640.674 302.654 644.076 326.73 644.39 335.009C645.02 351.63 639.604 367.014 628.164 379.186C620.3 387.553 609.446 395.447 598.205 398.372C590.586 398.84 583.572 398.171 576.132 396.489C565.245 395.566 552.966 389.191 543.778 383.483C541.562 382.106 539.623 380.393 537.391 379.032C536.736 378.632 536.415 378.922 535.698 379.094C533.212 377.574 530.397 373.949 528.606 371.565C526.404 368.633 524.341 365.782 524.865 361.972C526.144 339.641 531.261 311.881 546.264 294.569C548.562 290.087 554.078 285.567 557.978 282.389Z"/>
	<path fill="#FEFEFE" transform="scale(0.504883 0.504883)" d="M578.633 331.516C579.307 331.426 580.072 331.286 580.76 331.304C582.641 331.354 584.246 332.066 585.436 333.534C586.729 335.13 587.148 337.206 586.836 339.212C586.395 342.051 585.076 343.692 582.759 345.261C582.172 345.343 581.591 345.434 580.996 345.42C579.156 345.377 577.412 344.74 576.176 343.336C574.881 341.863 574.505 339.933 574.719 338.019C575.045 335.106 576.449 333.331 578.633 331.516Z"/>
	<path fill="#FEFEFE" transform="scale(0.504883 0.504883)" d="M614.972 288.75C621.653 288.222 625.676 288.926 630.905 293.427C632.203 294.543 633.301 296.017 634.63 297.042C637.567 304.479 639.021 311.842 635.546 319.482C633.233 324.567 628.713 328.472 623.473 330.345C623.348 330.39 623.22 330.425 623.094 330.465C616.724 331.37 610.867 331.489 605.101 328.107Q604.668 327.855 604.248 327.582Q603.827 327.308 603.421 327.015Q603.015 326.721 602.624 326.408Q602.232 326.094 601.857 325.762Q601.482 325.43 601.123 325.079Q600.765 324.729 600.424 324.361Q600.084 323.993 599.762 323.609Q599.44 323.225 599.137 322.825Q598.834 322.426 598.552 322.012Q598.269 321.598 598.008 321.17Q597.746 320.743 597.505 320.303Q597.265 319.863 597.047 319.412Q596.829 318.961 596.633 318.499Q596.437 318.038 596.265 317.567Q596.092 317.096 595.943 316.618Q595.793 316.139 595.668 315.654C594.314 310.386 595.237 304.96 597.995 300.303C601.86 293.778 607.922 290.66 614.972 288.75Z"/>
	<path fill="#945717" transform="scale(0.504883 0.504883)" d="M557.978 282.389C558.49 281.837 558.989 281.356 559.559 280.864C568.067 273.5 581.966 267.279 593.4 268.037L593.084 268.959C596.074 270.271 599.737 270.101 602.921 271.303C612.82 275.04 630.547 287.094 634.63 297.042C633.301 296.017 632.203 294.543 630.905 293.427C625.676 288.926 621.653 288.222 614.972 288.75C606.73 284.874 595.874 285.265 587.435 288.264Q586.585 288.566 585.747 288.902Q584.91 289.239 584.088 289.611Q583.265 289.982 582.459 290.387Q581.653 290.792 580.864 291.23Q580.075 291.668 579.305 292.139Q578.535 292.609 577.785 293.112Q577.036 293.614 576.308 294.147Q575.579 294.679 574.874 295.242Q574.168 295.805 573.487 296.396Q572.805 296.988 572.149 297.607Q571.493 298.226 570.862 298.872Q570.232 299.518 569.63 300.189Q569.027 300.861 568.453 301.557Q567.878 302.253 567.333 302.972Q566.789 303.692 566.274 304.433Q565.759 305.174 565.276 305.936C563.627 308.48 562.148 311.825 560.239 314.12C555.876 313.42 547.919 316.468 544.021 318.211C542.329 318.969 540.585 320.217 538.772 320.588C541.416 311.509 545.502 303.799 550.29 295.714L549.688 295.733C548.866 296.536 548.023 297.14 547.092 297.804L546.14 296.958C545.987 296.078 546.128 295.443 546.264 294.569C548.562 290.087 554.078 285.567 557.978 282.389Z"/>
	<path fill="#C59129" transform="scale(0.504883 0.504883)" d="M557.978 282.389C558.288 282.3 558.6 282.219 558.908 282.123C560.298 281.69 561.138 280.77 562.12 279.751L563.37 279.524L563.524 279.843L562.48 279.511L563.266 280.112C563.08 280.244 562.893 280.375 562.709 280.509C561.22 281.595 560.397 282.339 559.473 283.901C558.279 285.918 551.912 294.582 550.29 295.714L549.688 295.733C548.866 296.536 548.023 297.14 547.092 297.804L546.14 296.958C545.987 296.078 546.128 295.443 546.264 294.569C548.562 290.087 554.078 285.567 557.978 282.389Z"/>
	<defs>
		<linearGradient id="gradient_0" gradientUnits="userSpaceOnUse" x1="589.44135" y1="311.47675" x2="592.89648" y2="397.2258">
			<stop offset="0" stop-color="#C07824"/>
			<stop offset="1" stop-color="#F9D550"/>
		</linearGradient>
	</defs>
	<path fill="url(#gradient_0)" transform="scale(0.504883 0.504883)" d="M546.264 294.569C546.128 295.443 545.987 296.078 546.14 296.958L547.092 297.804C548.023 297.14 548.866 296.536 549.688 295.733L550.29 295.714C545.502 303.799 541.416 311.509 538.772 320.588C540.585 320.217 542.329 318.969 544.021 318.211C547.919 316.468 555.876 313.42 560.239 314.12C555.218 326.805 554.042 340.859 559.512 353.685C563.447 362.91 571.121 370.687 580.473 374.421C587.707 377.309 595.426 377.158 602.531 374.011C611.334 370.113 619.236 362.02 622.662 352.99C624.649 347.752 626.409 337.069 623.874 331.826C623.607 331.274 623.435 331.027 623.094 330.465C623.22 330.425 623.348 330.39 623.473 330.345C628.713 328.472 633.233 324.567 635.546 319.482C639.021 311.842 637.567 304.479 634.63 297.042C640.674 302.654 644.076 326.73 644.39 335.009C645.02 351.63 639.604 367.014 628.164 379.186C620.3 387.553 609.446 395.447 598.205 398.372C590.586 398.84 583.572 398.171 576.132 396.489C565.245 395.566 552.966 389.191 543.778 383.483C541.562 382.106 539.623 380.393 537.391 379.032C536.736 378.632 536.415 378.922 535.698 379.094C533.212 377.574 530.397 373.949 528.606 371.565C526.404 368.633 524.341 365.782 524.865 361.972C526.144 339.641 531.261 311.881 546.264 294.569Z"/>
	<defs>
		<linearGradient id="gradient_1" gradientUnits="userSpaceOnUse" x1="574.81488" y1="327.69058" x2="528.50848" y2="370.29178">
			<stop offset="0" stop-color="#E4C341"/>
			<stop offset="1" stop-color="#FCF079"/>
		</linearGradient>
	</defs>
	<path fill="url(#gradient_1)" transform="scale(0.504883 0.504883)" d="M546.264 294.569C546.128 295.443 545.987 296.078 546.14 296.958L547.092 297.804C548.023 297.14 548.866 296.536 549.688 295.733L550.29 295.714C545.502 303.799 541.416 311.509 538.772 320.588C534.046 334.49 537.668 353.749 544.066 366.633C549.2 376.969 556.548 385.442 566.538 391.288C569.647 393.108 573.181 394.477 576.132 396.489C565.245 395.566 552.966 389.191 543.778 383.483C541.562 382.106 539.623 380.393 537.391 379.032C536.736 378.632 536.415 378.922 535.698 379.094C533.212 377.574 530.397 373.949 528.606 371.565C526.404 368.633 524.341 365.782 524.865 361.972C526.144 339.641 531.261 311.881 546.264 294.569Z"/>
	<defs>
		<linearGradient id="gradient_2" gradientUnits="userSpaceOnUse" x1="339.38724" y1="292.93936" x2="321.39001" y2="395.21671">
			<stop offset="0" stop-color="#C77F1D"/>
			<stop offset="1" stop-color="#F9D44E"/>
		</linearGradient>
	</defs>
	<path fill="url(#gradient_2)" transform="scale(0.504883 0.504883)" d="M317.293 266.457C330.001 263.725 346.063 268.109 356.809 275.029C365.645 280.72 372.831 288.827 378.192 297.817C379.023 299.21 380.292 300.946 380.669 302.521C388.611 317.031 397.073 347.486 395.928 364.677L395.742 365.583C395.58 366.388 395.509 367.136 395.458 367.953C395.41 368.735 395.406 369.423 394.739 369.965C394.38 370.257 394.035 370.418 393.634 370.63C392.398 370.301 392.294 370.186 391.155 370.916C384.39 375.251 380.07 381.821 371.909 384.26C360.273 391.966 347.778 397.698 333.574 397.634C314.776 397.55 301.11 389.074 288.276 376.116C278.13 371.136 262.558 359.693 254.354 352C252.638 329.632 260.141 308.526 274.377 291.201C284.919 278.371 300.477 268.147 317.293 266.457Z"/>
	<path fill="#F6DB65" transform="scale(0.504883 0.504883)" d="M386.362 322.916C384.49 316.399 381.342 309.909 379.886 303.387L380.669 302.521C388.611 317.031 397.073 347.486 395.928 364.677L395.742 365.583C395.58 366.388 395.509 367.136 395.458 367.953C395.41 368.735 395.406 369.423 394.739 369.965C394.38 370.257 394.035 370.418 393.634 370.63C392.398 370.301 392.294 370.186 391.155 370.916C384.39 375.251 380.07 381.821 371.909 384.26C374.002 380.992 376.709 378.117 378.797 374.783C388.835 358.759 390.589 340.997 386.362 322.916Z"/>
	<path fill="#945717" transform="scale(0.504883 0.504883)" d="M317.293 266.457C330.001 263.725 346.063 268.109 356.809 275.029C365.645 280.72 372.831 288.827 378.192 297.817C379.023 299.21 380.292 300.946 380.669 302.521L379.886 303.387C381.342 309.909 384.49 316.399 386.362 322.916L385.692 324.217C385.126 324.409 385.04 324.482 384.35 324.468C381.841 324.414 375.517 321.659 373.669 320.047C375.596 315.791 376.881 311.291 376.006 306.573C374.965 300.955 370.857 295.805 366.162 292.712C361.568 289.685 357.167 289.051 351.857 290.094C351.364 289.769 350.892 289.471 350.371 289.192C341.125 284.236 333.133 285.457 323.532 288.229C321.717 287.874 321.721 288.093 320.123 288.89C319.315 289.293 318.692 289.253 317.814 289.311C309.922 289.837 299.484 293.343 292.608 297.18C290.174 298.539 284.661 302.841 282.213 302.498L281.61 301.607Q283.754 296.766 286.552 292.271C295.4 278.294 306.23 270.839 322.264 267.234L322.302 266.59L323.065 266.681C321.173 266.771 319.189 266.547 317.293 266.457Z"/>
	<path fill="#F6DB65" transform="scale(0.504883 0.504883)" d="M317.293 266.457C319.189 266.547 321.173 266.771 323.065 266.681L322.302 266.59L322.264 267.234C306.23 270.839 295.4 278.294 286.552 292.271Q283.754 296.766 281.61 301.607C273.344 319.547 274.006 341.706 280.762 359.963C282.833 365.56 285.551 370.819 288.276 376.116C278.13 371.136 262.558 359.693 254.354 352C252.638 329.632 260.141 308.526 274.377 291.201C284.919 278.371 300.477 268.147 317.293 266.457Z"/>
	<path fill="#080503" transform="scale(0.504883 0.504883)" d="M323.532 288.229C333.133 285.457 341.125 284.236 350.371 289.192C350.892 289.471 351.364 289.769 351.857 290.094C357.167 289.051 361.568 289.685 366.162 292.712C370.857 295.805 374.965 300.955 376.006 306.573C376.881 311.291 375.596 315.791 373.669 320.047C372.334 321.738 371.039 323.665 369.353 325.014C372.136 331.056 370.92 344.487 368.904 350.824C365.823 360.507 359.297 368.534 350.205 373.177Q349.473 373.545 348.724 373.876Q347.975 374.207 347.21 374.501Q346.445 374.794 345.667 375.05Q344.889 375.306 344.099 375.523Q343.31 375.741 342.51 375.919Q341.711 376.097 340.903 376.236Q340.096 376.374 339.283 376.473Q338.47 376.572 337.653 376.63Q336.836 376.689 336.017 376.707Q335.198 376.725 334.379 376.703Q333.56 376.681 332.743 376.619Q331.927 376.557 331.114 376.454Q330.301 376.352 329.495 376.21Q328.688 376.068 327.889 375.886Q327.091 375.704 326.302 375.483Q325.513 375.262 324.736 375.003C314.933 371.771 306.877 363.911 302.37 354.752Q301.814 353.606 301.316 352.434Q300.817 351.262 300.378 350.067Q299.938 348.872 299.558 347.656Q299.178 346.441 298.859 345.208Q298.539 343.975 298.281 342.728Q298.024 341.481 297.828 340.222Q297.632 338.964 297.499 337.697Q297.366 336.431 297.295 335.159Q297.225 333.888 297.218 332.614Q297.21 331.341 297.266 330.068Q297.322 328.796 297.441 327.528Q297.559 326.26 297.741 324.999Q297.922 323.739 298.166 322.489Q298.409 321.239 298.715 320.002Q299.02 318.766 299.386 317.546Q299.752 316.326 300.178 315.126C304.469 302.894 311.862 293.889 323.532 288.229Z"/>
	<path fill="#FEFEFE" transform="scale(0.504883 0.504883)" d="M317.439 332.917C319.705 332.966 321.779 333.042 323.5 334.726C324.788 335.987 325.24 337.694 325.062 339.442C324.768 342.319 323.029 344.247 320.91 346.027C320.174 346.083 319.432 346.127 318.694 346.116C317.196 346.094 316.07 345.442 315.086 344.356C313.947 343.1 313.521 341.421 313.628 339.753C313.835 336.541 315.055 334.937 317.439 332.917Z"/>
	<path fill="#FEFEFE" transform="scale(0.504883 0.504883)" d="M351.857 290.094C357.167 289.051 361.568 289.685 366.162 292.712C370.857 295.805 374.965 300.955 376.006 306.573C376.881 311.291 375.596 315.791 373.669 320.047C372.334 321.738 371.039 323.665 369.353 325.014C367.734 326.01 366.116 327.001 364.354 327.728C359.518 329.725 354.23 329.839 349.443 327.635C344.2 325.221 340.075 320.427 338.125 315.031Q337.96 314.587 337.819 314.134Q337.678 313.682 337.561 313.222Q337.443 312.763 337.35 312.298Q337.257 311.833 337.189 311.364Q337.121 310.895 337.077 310.423Q337.033 309.951 337.014 309.478Q336.996 309.004 337.002 308.53Q337.008 308.056 337.039 307.583Q337.07 307.11 337.125 306.639Q337.181 306.168 337.261 305.701Q337.342 305.234 337.447 304.772Q337.551 304.31 337.68 303.853Q337.809 303.397 337.962 302.949Q338.115 302.5 338.291 302.06Q338.467 301.62 338.666 301.189Q338.865 300.759 339.086 300.34C341.735 295.21 346.397 291.757 351.857 290.094Z"/>
</svg>
